G75*
%MOIN*%
%OFA0B0*%
%FSLAX24Y24*%
%IPPOS*%
%LPD*%
%AMOC8*
5,1,8,0,0,1.08239X$1,22.5*
%
%ADD10C,0.0000*%
%ADD11C,0.0030*%
%ADD12C,0.0020*%
D10*
X000550Y002350D02*
X000550Y011940D01*
X004400Y011940D01*
X004430Y011942D01*
X004460Y011947D01*
X004489Y011956D01*
X004516Y011969D01*
X004542Y011984D01*
X004566Y012003D01*
X004587Y012024D01*
X004606Y012048D01*
X004621Y012074D01*
X004634Y012101D01*
X004643Y012130D01*
X004648Y012160D01*
X004650Y012190D01*
X004648Y012220D01*
X004643Y012250D01*
X004634Y012279D01*
X004621Y012306D01*
X004606Y012332D01*
X004587Y012356D01*
X004566Y012377D01*
X004542Y012396D01*
X004516Y012411D01*
X004489Y012424D01*
X004460Y012433D01*
X004430Y012438D01*
X004400Y012440D01*
X001350Y012440D01*
X001350Y022035D01*
X009850Y022035D01*
X009850Y018000D01*
X009852Y017970D01*
X009857Y017940D01*
X009866Y017911D01*
X009879Y017884D01*
X009894Y017858D01*
X009913Y017834D01*
X009934Y017813D01*
X009958Y017794D01*
X009984Y017779D01*
X010011Y017766D01*
X010040Y017757D01*
X010070Y017752D01*
X010100Y017750D01*
X010130Y017752D01*
X010160Y017757D01*
X010189Y017766D01*
X010216Y017779D01*
X010242Y017794D01*
X010266Y017813D01*
X010287Y017834D01*
X010306Y017858D01*
X010321Y017884D01*
X010334Y017911D01*
X010343Y017940D01*
X010348Y017970D01*
X010350Y018000D01*
X010350Y022035D01*
X018750Y022035D01*
X018750Y012440D01*
X014910Y012440D01*
X014880Y012438D01*
X014850Y012433D01*
X014821Y012424D01*
X014794Y012411D01*
X014768Y012396D01*
X014744Y012377D01*
X014723Y012356D01*
X014704Y012332D01*
X014689Y012306D01*
X014676Y012279D01*
X014667Y012250D01*
X014662Y012220D01*
X014660Y012190D01*
X014662Y012160D01*
X014667Y012130D01*
X014676Y012101D01*
X014689Y012074D01*
X014704Y012048D01*
X014723Y012024D01*
X014744Y012003D01*
X014768Y011984D01*
X014794Y011969D01*
X014821Y011956D01*
X014850Y011947D01*
X014880Y011942D01*
X014910Y011940D01*
X017950Y011940D01*
X017950Y008100D01*
X017952Y008070D01*
X017957Y008040D01*
X017966Y008011D01*
X017979Y007984D01*
X017994Y007958D01*
X018013Y007934D01*
X018034Y007913D01*
X018058Y007894D01*
X018084Y007879D01*
X018111Y007866D01*
X018140Y007857D01*
X018170Y007852D01*
X018200Y007850D01*
X018230Y007852D01*
X018260Y007857D01*
X018289Y007866D01*
X018316Y007879D01*
X018342Y007894D01*
X018366Y007913D01*
X018387Y007934D01*
X018406Y007958D01*
X018421Y007984D01*
X018434Y008011D01*
X018443Y008040D01*
X018448Y008070D01*
X018450Y008100D01*
X018450Y011950D01*
X020150Y011950D01*
X020150Y002350D01*
X018450Y002350D01*
X018450Y006600D01*
X018262Y007050D02*
X018264Y007069D01*
X018269Y007088D01*
X018279Y007104D01*
X018291Y007119D01*
X018306Y007131D01*
X018322Y007141D01*
X018341Y007146D01*
X018360Y007148D01*
X018379Y007146D01*
X018398Y007141D01*
X018414Y007131D01*
X018429Y007119D01*
X018441Y007104D01*
X018451Y007088D01*
X018456Y007069D01*
X018458Y007050D01*
X018456Y007031D01*
X018451Y007012D01*
X018441Y006996D01*
X018429Y006981D01*
X018414Y006969D01*
X018398Y006959D01*
X018379Y006954D01*
X018360Y006952D01*
X018341Y006954D01*
X018322Y006959D01*
X018306Y006969D01*
X018291Y006981D01*
X018279Y006996D01*
X018269Y007012D01*
X018264Y007031D01*
X018262Y007050D01*
X017962Y007050D02*
X017964Y007069D01*
X017969Y007088D01*
X017979Y007104D01*
X017991Y007119D01*
X018006Y007131D01*
X018022Y007141D01*
X018041Y007146D01*
X018060Y007148D01*
X018079Y007146D01*
X018098Y007141D01*
X018114Y007131D01*
X018129Y007119D01*
X018141Y007104D01*
X018151Y007088D01*
X018156Y007069D01*
X018158Y007050D01*
X018156Y007031D01*
X018151Y007012D01*
X018141Y006996D01*
X018129Y006981D01*
X018114Y006969D01*
X018098Y006959D01*
X018079Y006954D01*
X018060Y006952D01*
X018041Y006954D01*
X018022Y006959D01*
X018006Y006969D01*
X017991Y006981D01*
X017979Y006996D01*
X017969Y007012D01*
X017964Y007031D01*
X017962Y007050D01*
X017950Y006600D02*
X017950Y002350D01*
X009450Y002350D01*
X009450Y006305D01*
X009448Y006335D01*
X009441Y006365D01*
X009432Y006393D01*
X009419Y006421D01*
X009403Y006446D01*
X009384Y006469D01*
X009362Y006490D01*
X009338Y006509D01*
X009312Y006524D01*
X009284Y006535D01*
X009255Y006544D01*
X009225Y006549D01*
X009195Y006550D01*
X009165Y006548D01*
X009135Y006541D01*
X009107Y006532D01*
X009079Y006519D01*
X009054Y006503D01*
X009031Y006484D01*
X009010Y006462D01*
X008991Y006438D01*
X008976Y006412D01*
X008965Y006384D01*
X008956Y006355D01*
X008951Y006325D01*
X008950Y006295D01*
X008950Y002350D01*
X000550Y002350D01*
X005900Y011940D02*
X008950Y011940D01*
X008950Y007800D01*
X008952Y007770D01*
X008957Y007740D01*
X008966Y007711D01*
X008979Y007684D01*
X008994Y007658D01*
X009013Y007634D01*
X009034Y007613D01*
X009058Y007594D01*
X009084Y007579D01*
X009111Y007566D01*
X009140Y007557D01*
X009170Y007552D01*
X009200Y007550D01*
X009230Y007552D01*
X009260Y007557D01*
X009289Y007566D01*
X009316Y007579D01*
X009342Y007594D01*
X009366Y007613D01*
X009387Y007634D01*
X009406Y007658D01*
X009421Y007684D01*
X009434Y007711D01*
X009443Y007740D01*
X009448Y007770D01*
X009450Y007800D01*
X009450Y011940D01*
X013400Y011940D01*
X013430Y011942D01*
X013460Y011947D01*
X013489Y011956D01*
X013516Y011969D01*
X013542Y011984D01*
X013566Y012003D01*
X013587Y012024D01*
X013606Y012048D01*
X013621Y012074D01*
X013634Y012101D01*
X013643Y012130D01*
X013648Y012160D01*
X013650Y012190D01*
X013648Y012220D01*
X013643Y012250D01*
X013634Y012279D01*
X013621Y012306D01*
X013606Y012332D01*
X013587Y012356D01*
X013566Y012377D01*
X013542Y012396D01*
X013516Y012411D01*
X013489Y012424D01*
X013460Y012433D01*
X013430Y012438D01*
X013400Y012440D01*
X010350Y012440D01*
X010350Y016500D01*
X010348Y016530D01*
X010343Y016560D01*
X010334Y016589D01*
X010321Y016616D01*
X010306Y016642D01*
X010287Y016666D01*
X010266Y016687D01*
X010242Y016706D01*
X010216Y016721D01*
X010189Y016734D01*
X010160Y016743D01*
X010130Y016748D01*
X010100Y016750D01*
X010070Y016748D01*
X010040Y016743D01*
X010011Y016734D01*
X009984Y016721D01*
X009958Y016706D01*
X009934Y016687D01*
X009913Y016666D01*
X009894Y016642D01*
X009879Y016616D01*
X009866Y016589D01*
X009857Y016560D01*
X009852Y016530D01*
X009850Y016500D01*
X009850Y012440D01*
X005900Y012440D01*
X005870Y012438D01*
X005840Y012433D01*
X005811Y012424D01*
X005784Y012411D01*
X005758Y012396D01*
X005734Y012377D01*
X005713Y012356D01*
X005694Y012332D01*
X005679Y012306D01*
X005666Y012279D01*
X005657Y012250D01*
X005652Y012220D01*
X005650Y012190D01*
X005652Y012160D01*
X005657Y012130D01*
X005666Y012101D01*
X005679Y012074D01*
X005694Y012048D01*
X005713Y012024D01*
X005734Y012003D01*
X005758Y011984D01*
X005784Y011969D01*
X005811Y011956D01*
X005840Y011947D01*
X005870Y011942D01*
X005900Y011940D01*
X005352Y012040D02*
X005354Y012059D01*
X005359Y012078D01*
X005369Y012094D01*
X005381Y012109D01*
X005396Y012121D01*
X005412Y012131D01*
X005431Y012136D01*
X005450Y012138D01*
X005469Y012136D01*
X005488Y012131D01*
X005504Y012121D01*
X005519Y012109D01*
X005531Y012094D01*
X005541Y012078D01*
X005546Y012059D01*
X005548Y012040D01*
X005546Y012021D01*
X005541Y012002D01*
X005531Y011986D01*
X005519Y011971D01*
X005504Y011959D01*
X005488Y011949D01*
X005469Y011944D01*
X005450Y011942D01*
X005431Y011944D01*
X005412Y011949D01*
X005396Y011959D01*
X005381Y011971D01*
X005369Y011986D01*
X005359Y012002D01*
X005354Y012021D01*
X005352Y012040D01*
X005052Y012040D02*
X005054Y012059D01*
X005059Y012078D01*
X005069Y012094D01*
X005081Y012109D01*
X005096Y012121D01*
X005112Y012131D01*
X005131Y012136D01*
X005150Y012138D01*
X005169Y012136D01*
X005188Y012131D01*
X005204Y012121D01*
X005219Y012109D01*
X005231Y012094D01*
X005241Y012078D01*
X005246Y012059D01*
X005248Y012040D01*
X005246Y012021D01*
X005241Y012002D01*
X005231Y011986D01*
X005219Y011971D01*
X005204Y011959D01*
X005188Y011949D01*
X005169Y011944D01*
X005150Y011942D01*
X005131Y011944D01*
X005112Y011949D01*
X005096Y011959D01*
X005081Y011971D01*
X005069Y011986D01*
X005059Y012002D01*
X005054Y012021D01*
X005052Y012040D01*
X004752Y012040D02*
X004754Y012059D01*
X004759Y012078D01*
X004769Y012094D01*
X004781Y012109D01*
X004796Y012121D01*
X004812Y012131D01*
X004831Y012136D01*
X004850Y012138D01*
X004869Y012136D01*
X004888Y012131D01*
X004904Y012121D01*
X004919Y012109D01*
X004931Y012094D01*
X004941Y012078D01*
X004946Y012059D01*
X004948Y012040D01*
X004946Y012021D01*
X004941Y012002D01*
X004931Y011986D01*
X004919Y011971D01*
X004904Y011959D01*
X004888Y011949D01*
X004869Y011944D01*
X004850Y011942D01*
X004831Y011944D01*
X004812Y011949D01*
X004796Y011959D01*
X004781Y011971D01*
X004769Y011986D01*
X004759Y012002D01*
X004754Y012021D01*
X004752Y012040D01*
X004752Y012340D02*
X004754Y012359D01*
X004759Y012378D01*
X004769Y012394D01*
X004781Y012409D01*
X004796Y012421D01*
X004812Y012431D01*
X004831Y012436D01*
X004850Y012438D01*
X004869Y012436D01*
X004888Y012431D01*
X004904Y012421D01*
X004919Y012409D01*
X004931Y012394D01*
X004941Y012378D01*
X004946Y012359D01*
X004948Y012340D01*
X004946Y012321D01*
X004941Y012302D01*
X004931Y012286D01*
X004919Y012271D01*
X004904Y012259D01*
X004888Y012249D01*
X004869Y012244D01*
X004850Y012242D01*
X004831Y012244D01*
X004812Y012249D01*
X004796Y012259D01*
X004781Y012271D01*
X004769Y012286D01*
X004759Y012302D01*
X004754Y012321D01*
X004752Y012340D01*
X005052Y012340D02*
X005054Y012359D01*
X005059Y012378D01*
X005069Y012394D01*
X005081Y012409D01*
X005096Y012421D01*
X005112Y012431D01*
X005131Y012436D01*
X005150Y012438D01*
X005169Y012436D01*
X005188Y012431D01*
X005204Y012421D01*
X005219Y012409D01*
X005231Y012394D01*
X005241Y012378D01*
X005246Y012359D01*
X005248Y012340D01*
X005246Y012321D01*
X005241Y012302D01*
X005231Y012286D01*
X005219Y012271D01*
X005204Y012259D01*
X005188Y012249D01*
X005169Y012244D01*
X005150Y012242D01*
X005131Y012244D01*
X005112Y012249D01*
X005096Y012259D01*
X005081Y012271D01*
X005069Y012286D01*
X005059Y012302D01*
X005054Y012321D01*
X005052Y012340D01*
X005352Y012340D02*
X005354Y012359D01*
X005359Y012378D01*
X005369Y012394D01*
X005381Y012409D01*
X005396Y012421D01*
X005412Y012431D01*
X005431Y012436D01*
X005450Y012438D01*
X005469Y012436D01*
X005488Y012431D01*
X005504Y012421D01*
X005519Y012409D01*
X005531Y012394D01*
X005541Y012378D01*
X005546Y012359D01*
X005548Y012340D01*
X005546Y012321D01*
X005541Y012302D01*
X005531Y012286D01*
X005519Y012271D01*
X005504Y012259D01*
X005488Y012249D01*
X005469Y012244D01*
X005450Y012242D01*
X005431Y012244D01*
X005412Y012249D01*
X005396Y012259D01*
X005381Y012271D01*
X005369Y012286D01*
X005359Y012302D01*
X005354Y012321D01*
X005352Y012340D01*
X008952Y007350D02*
X008954Y007369D01*
X008959Y007388D01*
X008969Y007404D01*
X008981Y007419D01*
X008996Y007431D01*
X009012Y007441D01*
X009031Y007446D01*
X009050Y007448D01*
X009069Y007446D01*
X009088Y007441D01*
X009104Y007431D01*
X009119Y007419D01*
X009131Y007404D01*
X009141Y007388D01*
X009146Y007369D01*
X009148Y007350D01*
X009146Y007331D01*
X009141Y007312D01*
X009131Y007296D01*
X009119Y007281D01*
X009104Y007269D01*
X009088Y007259D01*
X009069Y007254D01*
X009050Y007252D01*
X009031Y007254D01*
X009012Y007259D01*
X008996Y007269D01*
X008981Y007281D01*
X008969Y007296D01*
X008959Y007312D01*
X008954Y007331D01*
X008952Y007350D01*
X008952Y007050D02*
X008954Y007069D01*
X008959Y007088D01*
X008969Y007104D01*
X008981Y007119D01*
X008996Y007131D01*
X009012Y007141D01*
X009031Y007146D01*
X009050Y007148D01*
X009069Y007146D01*
X009088Y007141D01*
X009104Y007131D01*
X009119Y007119D01*
X009131Y007104D01*
X009141Y007088D01*
X009146Y007069D01*
X009148Y007050D01*
X009146Y007031D01*
X009141Y007012D01*
X009131Y006996D01*
X009119Y006981D01*
X009104Y006969D01*
X009088Y006959D01*
X009069Y006954D01*
X009050Y006952D01*
X009031Y006954D01*
X009012Y006959D01*
X008996Y006969D01*
X008981Y006981D01*
X008969Y006996D01*
X008959Y007012D01*
X008954Y007031D01*
X008952Y007050D01*
X008952Y006750D02*
X008954Y006769D01*
X008959Y006788D01*
X008969Y006804D01*
X008981Y006819D01*
X008996Y006831D01*
X009012Y006841D01*
X009031Y006846D01*
X009050Y006848D01*
X009069Y006846D01*
X009088Y006841D01*
X009104Y006831D01*
X009119Y006819D01*
X009131Y006804D01*
X009141Y006788D01*
X009146Y006769D01*
X009148Y006750D01*
X009146Y006731D01*
X009141Y006712D01*
X009131Y006696D01*
X009119Y006681D01*
X009104Y006669D01*
X009088Y006659D01*
X009069Y006654D01*
X009050Y006652D01*
X009031Y006654D01*
X009012Y006659D01*
X008996Y006669D01*
X008981Y006681D01*
X008969Y006696D01*
X008959Y006712D01*
X008954Y006731D01*
X008952Y006750D01*
X009252Y006750D02*
X009254Y006769D01*
X009259Y006788D01*
X009269Y006804D01*
X009281Y006819D01*
X009296Y006831D01*
X009312Y006841D01*
X009331Y006846D01*
X009350Y006848D01*
X009369Y006846D01*
X009388Y006841D01*
X009404Y006831D01*
X009419Y006819D01*
X009431Y006804D01*
X009441Y006788D01*
X009446Y006769D01*
X009448Y006750D01*
X009446Y006731D01*
X009441Y006712D01*
X009431Y006696D01*
X009419Y006681D01*
X009404Y006669D01*
X009388Y006659D01*
X009369Y006654D01*
X009350Y006652D01*
X009331Y006654D01*
X009312Y006659D01*
X009296Y006669D01*
X009281Y006681D01*
X009269Y006696D01*
X009259Y006712D01*
X009254Y006731D01*
X009252Y006750D01*
X009252Y007050D02*
X009254Y007069D01*
X009259Y007088D01*
X009269Y007104D01*
X009281Y007119D01*
X009296Y007131D01*
X009312Y007141D01*
X009331Y007146D01*
X009350Y007148D01*
X009369Y007146D01*
X009388Y007141D01*
X009404Y007131D01*
X009419Y007119D01*
X009431Y007104D01*
X009441Y007088D01*
X009446Y007069D01*
X009448Y007050D01*
X009446Y007031D01*
X009441Y007012D01*
X009431Y006996D01*
X009419Y006981D01*
X009404Y006969D01*
X009388Y006959D01*
X009369Y006954D01*
X009350Y006952D01*
X009331Y006954D01*
X009312Y006959D01*
X009296Y006969D01*
X009281Y006981D01*
X009269Y006996D01*
X009259Y007012D01*
X009254Y007031D01*
X009252Y007050D01*
X009252Y007350D02*
X009254Y007369D01*
X009259Y007388D01*
X009269Y007404D01*
X009281Y007419D01*
X009296Y007431D01*
X009312Y007441D01*
X009331Y007446D01*
X009350Y007448D01*
X009369Y007446D01*
X009388Y007441D01*
X009404Y007431D01*
X009419Y007419D01*
X009431Y007404D01*
X009441Y007388D01*
X009446Y007369D01*
X009448Y007350D01*
X009446Y007331D01*
X009441Y007312D01*
X009431Y007296D01*
X009419Y007281D01*
X009404Y007269D01*
X009388Y007259D01*
X009369Y007254D01*
X009350Y007252D01*
X009331Y007254D01*
X009312Y007259D01*
X009296Y007269D01*
X009281Y007281D01*
X009269Y007296D01*
X009259Y007312D01*
X009254Y007331D01*
X009252Y007350D01*
X013752Y012040D02*
X013754Y012059D01*
X013759Y012078D01*
X013769Y012094D01*
X013781Y012109D01*
X013796Y012121D01*
X013812Y012131D01*
X013831Y012136D01*
X013850Y012138D01*
X013869Y012136D01*
X013888Y012131D01*
X013904Y012121D01*
X013919Y012109D01*
X013931Y012094D01*
X013941Y012078D01*
X013946Y012059D01*
X013948Y012040D01*
X013946Y012021D01*
X013941Y012002D01*
X013931Y011986D01*
X013919Y011971D01*
X013904Y011959D01*
X013888Y011949D01*
X013869Y011944D01*
X013850Y011942D01*
X013831Y011944D01*
X013812Y011949D01*
X013796Y011959D01*
X013781Y011971D01*
X013769Y011986D01*
X013759Y012002D01*
X013754Y012021D01*
X013752Y012040D01*
X013752Y012340D02*
X013754Y012359D01*
X013759Y012378D01*
X013769Y012394D01*
X013781Y012409D01*
X013796Y012421D01*
X013812Y012431D01*
X013831Y012436D01*
X013850Y012438D01*
X013869Y012436D01*
X013888Y012431D01*
X013904Y012421D01*
X013919Y012409D01*
X013931Y012394D01*
X013941Y012378D01*
X013946Y012359D01*
X013948Y012340D01*
X013946Y012321D01*
X013941Y012302D01*
X013931Y012286D01*
X013919Y012271D01*
X013904Y012259D01*
X013888Y012249D01*
X013869Y012244D01*
X013850Y012242D01*
X013831Y012244D01*
X013812Y012249D01*
X013796Y012259D01*
X013781Y012271D01*
X013769Y012286D01*
X013759Y012302D01*
X013754Y012321D01*
X013752Y012340D01*
X014052Y012340D02*
X014054Y012359D01*
X014059Y012378D01*
X014069Y012394D01*
X014081Y012409D01*
X014096Y012421D01*
X014112Y012431D01*
X014131Y012436D01*
X014150Y012438D01*
X014169Y012436D01*
X014188Y012431D01*
X014204Y012421D01*
X014219Y012409D01*
X014231Y012394D01*
X014241Y012378D01*
X014246Y012359D01*
X014248Y012340D01*
X014246Y012321D01*
X014241Y012302D01*
X014231Y012286D01*
X014219Y012271D01*
X014204Y012259D01*
X014188Y012249D01*
X014169Y012244D01*
X014150Y012242D01*
X014131Y012244D01*
X014112Y012249D01*
X014096Y012259D01*
X014081Y012271D01*
X014069Y012286D01*
X014059Y012302D01*
X014054Y012321D01*
X014052Y012340D01*
X014052Y012040D02*
X014054Y012059D01*
X014059Y012078D01*
X014069Y012094D01*
X014081Y012109D01*
X014096Y012121D01*
X014112Y012131D01*
X014131Y012136D01*
X014150Y012138D01*
X014169Y012136D01*
X014188Y012131D01*
X014204Y012121D01*
X014219Y012109D01*
X014231Y012094D01*
X014241Y012078D01*
X014246Y012059D01*
X014248Y012040D01*
X014246Y012021D01*
X014241Y012002D01*
X014231Y011986D01*
X014219Y011971D01*
X014204Y011959D01*
X014188Y011949D01*
X014169Y011944D01*
X014150Y011942D01*
X014131Y011944D01*
X014112Y011949D01*
X014096Y011959D01*
X014081Y011971D01*
X014069Y011986D01*
X014059Y012002D01*
X014054Y012021D01*
X014052Y012040D01*
X014352Y012040D02*
X014354Y012059D01*
X014359Y012078D01*
X014369Y012094D01*
X014381Y012109D01*
X014396Y012121D01*
X014412Y012131D01*
X014431Y012136D01*
X014450Y012138D01*
X014469Y012136D01*
X014488Y012131D01*
X014504Y012121D01*
X014519Y012109D01*
X014531Y012094D01*
X014541Y012078D01*
X014546Y012059D01*
X014548Y012040D01*
X014546Y012021D01*
X014541Y012002D01*
X014531Y011986D01*
X014519Y011971D01*
X014504Y011959D01*
X014488Y011949D01*
X014469Y011944D01*
X014450Y011942D01*
X014431Y011944D01*
X014412Y011949D01*
X014396Y011959D01*
X014381Y011971D01*
X014369Y011986D01*
X014359Y012002D01*
X014354Y012021D01*
X014352Y012040D01*
X014352Y012340D02*
X014354Y012359D01*
X014359Y012378D01*
X014369Y012394D01*
X014381Y012409D01*
X014396Y012421D01*
X014412Y012431D01*
X014431Y012436D01*
X014450Y012438D01*
X014469Y012436D01*
X014488Y012431D01*
X014504Y012421D01*
X014519Y012409D01*
X014531Y012394D01*
X014541Y012378D01*
X014546Y012359D01*
X014548Y012340D01*
X014546Y012321D01*
X014541Y012302D01*
X014531Y012286D01*
X014519Y012271D01*
X014504Y012259D01*
X014488Y012249D01*
X014469Y012244D01*
X014450Y012242D01*
X014431Y012244D01*
X014412Y012249D01*
X014396Y012259D01*
X014381Y012271D01*
X014369Y012286D01*
X014359Y012302D01*
X014354Y012321D01*
X014352Y012340D01*
X017962Y007650D02*
X017964Y007669D01*
X017969Y007688D01*
X017979Y007704D01*
X017991Y007719D01*
X018006Y007731D01*
X018022Y007741D01*
X018041Y007746D01*
X018060Y007748D01*
X018079Y007746D01*
X018098Y007741D01*
X018114Y007731D01*
X018129Y007719D01*
X018141Y007704D01*
X018151Y007688D01*
X018156Y007669D01*
X018158Y007650D01*
X018156Y007631D01*
X018151Y007612D01*
X018141Y007596D01*
X018129Y007581D01*
X018114Y007569D01*
X018098Y007559D01*
X018079Y007554D01*
X018060Y007552D01*
X018041Y007554D01*
X018022Y007559D01*
X018006Y007569D01*
X017991Y007581D01*
X017979Y007596D01*
X017969Y007612D01*
X017964Y007631D01*
X017962Y007650D01*
X017962Y007350D02*
X017964Y007369D01*
X017969Y007388D01*
X017979Y007404D01*
X017991Y007419D01*
X018006Y007431D01*
X018022Y007441D01*
X018041Y007446D01*
X018060Y007448D01*
X018079Y007446D01*
X018098Y007441D01*
X018114Y007431D01*
X018129Y007419D01*
X018141Y007404D01*
X018151Y007388D01*
X018156Y007369D01*
X018158Y007350D01*
X018156Y007331D01*
X018151Y007312D01*
X018141Y007296D01*
X018129Y007281D01*
X018114Y007269D01*
X018098Y007259D01*
X018079Y007254D01*
X018060Y007252D01*
X018041Y007254D01*
X018022Y007259D01*
X018006Y007269D01*
X017991Y007281D01*
X017979Y007296D01*
X017969Y007312D01*
X017964Y007331D01*
X017962Y007350D01*
X018262Y007350D02*
X018264Y007369D01*
X018269Y007388D01*
X018279Y007404D01*
X018291Y007419D01*
X018306Y007431D01*
X018322Y007441D01*
X018341Y007446D01*
X018360Y007448D01*
X018379Y007446D01*
X018398Y007441D01*
X018414Y007431D01*
X018429Y007419D01*
X018441Y007404D01*
X018451Y007388D01*
X018456Y007369D01*
X018458Y007350D01*
X018456Y007331D01*
X018451Y007312D01*
X018441Y007296D01*
X018429Y007281D01*
X018414Y007269D01*
X018398Y007259D01*
X018379Y007254D01*
X018360Y007252D01*
X018341Y007254D01*
X018322Y007259D01*
X018306Y007269D01*
X018291Y007281D01*
X018279Y007296D01*
X018269Y007312D01*
X018264Y007331D01*
X018262Y007350D01*
X018262Y007650D02*
X018264Y007669D01*
X018269Y007688D01*
X018279Y007704D01*
X018291Y007719D01*
X018306Y007731D01*
X018322Y007741D01*
X018341Y007746D01*
X018360Y007748D01*
X018379Y007746D01*
X018398Y007741D01*
X018414Y007731D01*
X018429Y007719D01*
X018441Y007704D01*
X018451Y007688D01*
X018456Y007669D01*
X018458Y007650D01*
X018456Y007631D01*
X018451Y007612D01*
X018441Y007596D01*
X018429Y007581D01*
X018414Y007569D01*
X018398Y007559D01*
X018379Y007554D01*
X018360Y007552D01*
X018341Y007554D01*
X018322Y007559D01*
X018306Y007569D01*
X018291Y007581D01*
X018279Y007596D01*
X018269Y007612D01*
X018264Y007631D01*
X018262Y007650D01*
X018450Y006600D02*
X018448Y006630D01*
X018443Y006660D01*
X018434Y006689D01*
X018421Y006716D01*
X018406Y006742D01*
X018387Y006766D01*
X018366Y006787D01*
X018342Y006806D01*
X018316Y006821D01*
X018289Y006834D01*
X018260Y006843D01*
X018230Y006848D01*
X018200Y006850D01*
X018170Y006848D01*
X018140Y006843D01*
X018111Y006834D01*
X018084Y006821D01*
X018058Y006806D01*
X018034Y006787D01*
X018013Y006766D01*
X017994Y006742D01*
X017979Y006716D01*
X017966Y006689D01*
X017957Y006660D01*
X017952Y006630D01*
X017950Y006600D01*
X010152Y016950D02*
X010154Y016969D01*
X010159Y016988D01*
X010169Y017004D01*
X010181Y017019D01*
X010196Y017031D01*
X010212Y017041D01*
X010231Y017046D01*
X010250Y017048D01*
X010269Y017046D01*
X010288Y017041D01*
X010304Y017031D01*
X010319Y017019D01*
X010331Y017004D01*
X010341Y016988D01*
X010346Y016969D01*
X010348Y016950D01*
X010346Y016931D01*
X010341Y016912D01*
X010331Y016896D01*
X010319Y016881D01*
X010304Y016869D01*
X010288Y016859D01*
X010269Y016854D01*
X010250Y016852D01*
X010231Y016854D01*
X010212Y016859D01*
X010196Y016869D01*
X010181Y016881D01*
X010169Y016896D01*
X010159Y016912D01*
X010154Y016931D01*
X010152Y016950D01*
X009852Y016950D02*
X009854Y016969D01*
X009859Y016988D01*
X009869Y017004D01*
X009881Y017019D01*
X009896Y017031D01*
X009912Y017041D01*
X009931Y017046D01*
X009950Y017048D01*
X009969Y017046D01*
X009988Y017041D01*
X010004Y017031D01*
X010019Y017019D01*
X010031Y017004D01*
X010041Y016988D01*
X010046Y016969D01*
X010048Y016950D01*
X010046Y016931D01*
X010041Y016912D01*
X010031Y016896D01*
X010019Y016881D01*
X010004Y016869D01*
X009988Y016859D01*
X009969Y016854D01*
X009950Y016852D01*
X009931Y016854D01*
X009912Y016859D01*
X009896Y016869D01*
X009881Y016881D01*
X009869Y016896D01*
X009859Y016912D01*
X009854Y016931D01*
X009852Y016950D01*
X009852Y017250D02*
X009854Y017269D01*
X009859Y017288D01*
X009869Y017304D01*
X009881Y017319D01*
X009896Y017331D01*
X009912Y017341D01*
X009931Y017346D01*
X009950Y017348D01*
X009969Y017346D01*
X009988Y017341D01*
X010004Y017331D01*
X010019Y017319D01*
X010031Y017304D01*
X010041Y017288D01*
X010046Y017269D01*
X010048Y017250D01*
X010046Y017231D01*
X010041Y017212D01*
X010031Y017196D01*
X010019Y017181D01*
X010004Y017169D01*
X009988Y017159D01*
X009969Y017154D01*
X009950Y017152D01*
X009931Y017154D01*
X009912Y017159D01*
X009896Y017169D01*
X009881Y017181D01*
X009869Y017196D01*
X009859Y017212D01*
X009854Y017231D01*
X009852Y017250D01*
X009852Y017550D02*
X009854Y017569D01*
X009859Y017588D01*
X009869Y017604D01*
X009881Y017619D01*
X009896Y017631D01*
X009912Y017641D01*
X009931Y017646D01*
X009950Y017648D01*
X009969Y017646D01*
X009988Y017641D01*
X010004Y017631D01*
X010019Y017619D01*
X010031Y017604D01*
X010041Y017588D01*
X010046Y017569D01*
X010048Y017550D01*
X010046Y017531D01*
X010041Y017512D01*
X010031Y017496D01*
X010019Y017481D01*
X010004Y017469D01*
X009988Y017459D01*
X009969Y017454D01*
X009950Y017452D01*
X009931Y017454D01*
X009912Y017459D01*
X009896Y017469D01*
X009881Y017481D01*
X009869Y017496D01*
X009859Y017512D01*
X009854Y017531D01*
X009852Y017550D01*
X010152Y017550D02*
X010154Y017569D01*
X010159Y017588D01*
X010169Y017604D01*
X010181Y017619D01*
X010196Y017631D01*
X010212Y017641D01*
X010231Y017646D01*
X010250Y017648D01*
X010269Y017646D01*
X010288Y017641D01*
X010304Y017631D01*
X010319Y017619D01*
X010331Y017604D01*
X010341Y017588D01*
X010346Y017569D01*
X010348Y017550D01*
X010346Y017531D01*
X010341Y017512D01*
X010331Y017496D01*
X010319Y017481D01*
X010304Y017469D01*
X010288Y017459D01*
X010269Y017454D01*
X010250Y017452D01*
X010231Y017454D01*
X010212Y017459D01*
X010196Y017469D01*
X010181Y017481D01*
X010169Y017496D01*
X010159Y017512D01*
X010154Y017531D01*
X010152Y017550D01*
X010152Y017250D02*
X010154Y017269D01*
X010159Y017288D01*
X010169Y017304D01*
X010181Y017319D01*
X010196Y017331D01*
X010212Y017341D01*
X010231Y017346D01*
X010250Y017348D01*
X010269Y017346D01*
X010288Y017341D01*
X010304Y017331D01*
X010319Y017319D01*
X010331Y017304D01*
X010341Y017288D01*
X010346Y017269D01*
X010348Y017250D01*
X010346Y017231D01*
X010341Y017212D01*
X010331Y017196D01*
X010319Y017181D01*
X010304Y017169D01*
X010288Y017159D01*
X010269Y017154D01*
X010250Y017152D01*
X010231Y017154D01*
X010212Y017159D01*
X010196Y017169D01*
X010181Y017181D01*
X010169Y017196D01*
X010159Y017212D01*
X010154Y017231D01*
X010152Y017250D01*
D11*
X010713Y016465D02*
X010762Y016465D01*
X010810Y016416D01*
X010810Y016271D01*
X010713Y016271D01*
X010665Y016320D01*
X010665Y016416D01*
X010713Y016465D01*
X010907Y016368D02*
X010810Y016271D01*
X010907Y016368D02*
X010955Y016465D01*
X011145Y016466D02*
X011193Y016514D01*
X011290Y016514D01*
X011338Y016466D01*
X011338Y016369D01*
X011290Y016320D01*
X011193Y016320D01*
X011145Y016369D01*
X011145Y016466D01*
X011145Y016615D02*
X011338Y016615D01*
X011338Y016760D01*
X011290Y016809D01*
X011145Y016809D01*
X011625Y016811D02*
X011673Y016762D01*
X011770Y016762D01*
X011818Y016811D01*
X011818Y016908D01*
X011770Y016956D01*
X011673Y016956D01*
X011625Y016908D01*
X011625Y016811D01*
X011770Y017057D02*
X011770Y017154D01*
X011867Y017105D02*
X011915Y017154D01*
X011867Y017105D02*
X011625Y017105D01*
X012008Y017105D02*
X012008Y017153D01*
X012057Y017201D01*
X012298Y017201D01*
X012298Y017056D01*
X012250Y017008D01*
X012153Y017008D01*
X012105Y017056D01*
X012105Y017201D01*
X012105Y016907D02*
X012105Y016762D01*
X012153Y016713D01*
X012250Y016713D01*
X012298Y016762D01*
X012298Y016907D01*
X012057Y016907D01*
X012008Y016858D01*
X012008Y016810D01*
X012105Y016612D02*
X012105Y016467D01*
X012153Y016419D01*
X012202Y016467D01*
X012202Y016612D01*
X012250Y016612D02*
X012105Y016612D01*
X012250Y016612D02*
X012298Y016564D01*
X012298Y016467D01*
X012298Y016318D02*
X012298Y016270D01*
X012202Y016173D01*
X012298Y016173D02*
X012105Y016173D01*
X012153Y016072D02*
X012105Y016024D01*
X012105Y015878D01*
X012395Y015878D01*
X012395Y016024D01*
X012347Y016072D01*
X012298Y016072D01*
X012250Y016024D01*
X012250Y015878D01*
X012250Y016024D02*
X012202Y016072D01*
X012153Y016072D01*
X011964Y015829D02*
X011915Y015829D01*
X011818Y015829D02*
X011625Y015829D01*
X011625Y015877D02*
X011625Y015780D01*
X011673Y015679D02*
X011722Y015631D01*
X011722Y015534D01*
X011770Y015486D01*
X011818Y015534D01*
X011818Y015679D01*
X011818Y015780D02*
X011818Y015829D01*
X011818Y015977D02*
X011818Y016073D01*
X011867Y016025D02*
X011673Y016025D01*
X011625Y016073D01*
X011673Y016173D02*
X011625Y016221D01*
X011625Y016367D01*
X011577Y016367D02*
X011528Y016318D01*
X011528Y016270D01*
X011577Y016367D02*
X011818Y016367D01*
X011818Y016173D02*
X011673Y016173D01*
X011387Y016172D02*
X011193Y016172D01*
X011145Y016221D01*
X011338Y016221D02*
X011338Y016124D01*
X011290Y016023D02*
X011193Y016023D01*
X011145Y015974D01*
X011145Y015829D01*
X011048Y015829D02*
X011338Y015829D01*
X011338Y015974D01*
X011290Y016023D01*
X011290Y015728D02*
X011145Y015728D01*
X011145Y015631D02*
X011290Y015631D01*
X011338Y015680D01*
X011290Y015728D01*
X011290Y015631D02*
X011338Y015583D01*
X011338Y015535D01*
X011145Y015535D01*
X011145Y015434D02*
X011145Y015288D01*
X011193Y015240D01*
X011242Y015288D01*
X011242Y015434D01*
X011290Y015434D02*
X011145Y015434D01*
X011290Y015434D02*
X011338Y015385D01*
X011338Y015288D01*
X011290Y015139D02*
X011145Y015139D01*
X011290Y015139D02*
X011338Y015091D01*
X011338Y014994D01*
X011290Y014945D01*
X011338Y014846D02*
X011338Y014749D01*
X011387Y014797D02*
X011193Y014797D01*
X011145Y014846D01*
X011145Y014945D02*
X011435Y014945D01*
X011625Y014994D02*
X011673Y014945D01*
X011770Y014945D01*
X011818Y014994D01*
X011818Y015091D01*
X011770Y015139D01*
X011722Y015139D01*
X011722Y014945D01*
X011625Y014994D02*
X011625Y015091D01*
X011625Y015240D02*
X011818Y015240D01*
X011722Y015240D02*
X011818Y015337D01*
X011818Y015385D01*
X011625Y015486D02*
X011625Y015631D01*
X011673Y015679D01*
X012105Y015434D02*
X012105Y015338D01*
X012153Y015289D01*
X012250Y015289D01*
X012298Y015338D01*
X012298Y015434D01*
X012250Y015483D01*
X012202Y015483D01*
X012202Y015289D01*
X012250Y015188D02*
X012105Y015188D01*
X012105Y015091D02*
X012250Y015091D01*
X012298Y015140D01*
X012250Y015188D01*
X012250Y015091D02*
X012298Y015043D01*
X012298Y014994D01*
X012105Y014994D01*
X012202Y014893D02*
X012202Y014700D01*
X012250Y014700D02*
X012298Y014748D01*
X012298Y014845D01*
X012250Y014893D01*
X012202Y014893D01*
X012105Y014845D02*
X012105Y014748D01*
X012153Y014700D01*
X012250Y014700D01*
X012250Y014599D02*
X012105Y014599D01*
X012105Y014454D01*
X012153Y014405D01*
X012202Y014454D01*
X012202Y014599D01*
X012250Y014599D02*
X012298Y014550D01*
X012298Y014454D01*
X012298Y014305D02*
X012298Y014256D01*
X012202Y014160D01*
X012298Y014160D02*
X012105Y014160D01*
X012153Y014058D02*
X012105Y014010D01*
X012105Y013913D01*
X012153Y013865D01*
X012347Y013865D01*
X012395Y013913D01*
X012395Y014010D01*
X012347Y014058D01*
X012250Y014058D02*
X012250Y013962D01*
X012250Y014058D02*
X012153Y014058D01*
X011915Y014058D02*
X011673Y014058D01*
X011625Y014010D01*
X011625Y013913D01*
X011673Y013865D01*
X011915Y013865D01*
X011818Y014160D02*
X011625Y014160D01*
X011625Y014353D02*
X011770Y014353D01*
X011818Y014305D01*
X011818Y014160D01*
X011818Y014454D02*
X011818Y014503D01*
X011625Y014503D01*
X011625Y014551D02*
X011625Y014454D01*
X011818Y014651D02*
X011625Y014747D01*
X011818Y014844D01*
X011915Y014503D02*
X011964Y014503D01*
X011435Y014010D02*
X011435Y013913D01*
X011387Y013865D01*
X011338Y013865D01*
X011290Y013913D01*
X011290Y014010D01*
X011242Y014058D01*
X011193Y014058D01*
X011145Y014010D01*
X011145Y013913D01*
X011193Y013865D01*
X010955Y013962D02*
X010858Y014058D01*
X010665Y014058D01*
X010665Y014160D02*
X010665Y014305D01*
X010713Y014353D01*
X010810Y014353D01*
X010858Y014305D01*
X010858Y014160D01*
X010568Y014160D01*
X010810Y014058D02*
X010810Y013865D01*
X010858Y013865D02*
X010955Y013962D01*
X010858Y013865D02*
X010665Y013865D01*
X010665Y014454D02*
X010858Y014454D01*
X010762Y014454D02*
X010858Y014551D01*
X010858Y014599D01*
X010858Y014700D02*
X010858Y014748D01*
X010665Y014748D01*
X010665Y014700D02*
X010665Y014797D01*
X010665Y014896D02*
X010665Y014993D01*
X010665Y014945D02*
X010955Y014945D01*
X010955Y014896D01*
X010955Y014748D02*
X011004Y014748D01*
X011145Y014648D02*
X011145Y014503D01*
X011193Y014454D01*
X011338Y014454D01*
X011290Y014353D02*
X011338Y014305D01*
X011338Y014208D01*
X011290Y014160D01*
X011193Y014160D01*
X011145Y014208D01*
X011145Y014305D01*
X011193Y014353D01*
X011290Y014353D01*
X011387Y014058D02*
X011435Y014010D01*
X011338Y014648D02*
X011145Y014648D01*
X010907Y015387D02*
X010955Y015436D01*
X010955Y015532D01*
X010907Y015581D01*
X010858Y015581D01*
X010665Y015387D01*
X010665Y015581D01*
X010713Y015682D02*
X010907Y015876D01*
X010713Y015876D01*
X010665Y015827D01*
X010665Y015730D01*
X010713Y015682D01*
X010907Y015682D01*
X010955Y015730D01*
X010955Y015827D01*
X010907Y015876D01*
X010858Y015977D02*
X010955Y016073D01*
X010665Y016073D01*
X010665Y015977D02*
X010665Y016170D01*
X009146Y016545D02*
X009146Y016835D01*
X009242Y016835D02*
X009049Y016835D01*
X008948Y016787D02*
X008899Y016835D01*
X008803Y016835D01*
X008754Y016787D01*
X008754Y016690D02*
X008851Y016642D01*
X008899Y016642D01*
X008948Y016690D01*
X008948Y016787D01*
X008948Y016945D02*
X008754Y016945D01*
X008653Y016835D02*
X008460Y016835D01*
X008556Y016835D02*
X008556Y016545D01*
X008460Y016642D01*
X008358Y016593D02*
X008310Y016545D01*
X008213Y016545D01*
X008165Y016593D01*
X008165Y016787D01*
X008213Y016835D01*
X008310Y016835D01*
X008358Y016787D01*
X008310Y016945D02*
X008213Y016945D01*
X008165Y016993D01*
X008165Y017187D01*
X008213Y017235D01*
X008310Y017235D01*
X008358Y017187D01*
X008460Y017235D02*
X008653Y017235D01*
X008556Y017235D02*
X008556Y016945D01*
X008460Y017042D01*
X008358Y016993D02*
X008310Y016945D01*
X008754Y017187D02*
X008754Y017235D01*
X008754Y017187D02*
X008948Y016993D01*
X008948Y016945D01*
X009049Y016993D02*
X009097Y016945D01*
X009194Y016945D01*
X009242Y016993D01*
X009242Y017042D01*
X009049Y017235D01*
X009242Y017235D01*
X009049Y016642D02*
X009146Y016545D01*
X008948Y016545D02*
X008754Y016545D01*
X008754Y016690D01*
X008754Y019245D02*
X008948Y019245D01*
X008948Y019293D01*
X008754Y019487D01*
X008754Y019535D01*
X008653Y019535D02*
X008460Y019535D01*
X008556Y019535D02*
X008556Y019245D01*
X008460Y019342D01*
X008358Y019293D02*
X008310Y019245D01*
X008213Y019245D01*
X008165Y019293D01*
X008165Y019487D01*
X008213Y019535D01*
X008310Y019535D01*
X008358Y019487D01*
X009049Y019535D02*
X009242Y019535D01*
X009146Y019535D02*
X009146Y019245D01*
X009049Y019342D01*
X005942Y019595D02*
X005749Y019595D01*
X005846Y019595D02*
X005846Y019305D01*
X005749Y019402D01*
X005648Y019595D02*
X005454Y019595D01*
X005551Y019595D02*
X005551Y019305D01*
X005454Y019402D01*
X005353Y019402D02*
X005353Y019353D01*
X005305Y019305D01*
X005208Y019305D01*
X005160Y019353D01*
X005058Y019353D02*
X005010Y019305D01*
X004913Y019305D01*
X004865Y019353D01*
X004865Y019547D01*
X004913Y019595D01*
X005010Y019595D01*
X005058Y019547D01*
X005160Y019595D02*
X005353Y019402D01*
X005353Y019595D02*
X005160Y019595D01*
X005160Y018995D02*
X005353Y018802D01*
X005353Y018753D01*
X005305Y018705D01*
X005208Y018705D01*
X005160Y018753D01*
X005058Y018753D02*
X005010Y018705D01*
X004913Y018705D01*
X004865Y018753D01*
X004865Y018947D01*
X004913Y018995D01*
X005010Y018995D01*
X005058Y018947D01*
X005160Y018995D02*
X005353Y018995D01*
X005454Y018995D02*
X005648Y018802D01*
X005648Y018753D01*
X005599Y018705D01*
X005503Y018705D01*
X005454Y018753D01*
X005454Y018995D02*
X005648Y018995D01*
X005749Y018995D02*
X005942Y018995D01*
X005846Y018995D02*
X005846Y018705D01*
X005749Y018802D01*
X005749Y018295D02*
X005942Y018295D01*
X005846Y018295D02*
X005846Y018005D01*
X005749Y018102D01*
X005648Y018102D02*
X005599Y018150D01*
X005648Y018198D01*
X005648Y018247D01*
X005599Y018295D01*
X005503Y018295D01*
X005454Y018247D01*
X005353Y018295D02*
X005160Y018295D01*
X005353Y018102D01*
X005353Y018053D01*
X005305Y018005D01*
X005208Y018005D01*
X005160Y018053D01*
X005058Y018053D02*
X005010Y018005D01*
X004913Y018005D01*
X004865Y018053D01*
X004865Y018247D01*
X004913Y018295D01*
X005010Y018295D01*
X005058Y018247D01*
X005454Y018053D02*
X005503Y018005D01*
X005599Y018005D01*
X005648Y018053D01*
X005648Y018102D01*
X005599Y018150D02*
X005551Y018150D01*
X003298Y017201D02*
X003298Y017056D01*
X003250Y017008D01*
X003153Y017008D01*
X003105Y017056D01*
X003105Y017201D01*
X003057Y017201D02*
X003298Y017201D01*
X003057Y017201D02*
X003008Y017153D01*
X003008Y017105D01*
X002915Y017154D02*
X002867Y017105D01*
X002625Y017105D01*
X002770Y017057D02*
X002770Y017154D01*
X002770Y016956D02*
X002818Y016908D01*
X002818Y016811D01*
X002770Y016762D01*
X002673Y016762D01*
X002625Y016811D01*
X002625Y016908D01*
X002673Y016956D01*
X002770Y016956D01*
X003008Y016858D02*
X003008Y016810D01*
X003008Y016858D02*
X003057Y016907D01*
X003298Y016907D01*
X003298Y016762D01*
X003250Y016713D01*
X003153Y016713D01*
X003105Y016762D01*
X003105Y016907D01*
X003105Y016612D02*
X003105Y016467D01*
X003153Y016419D01*
X003202Y016467D01*
X003202Y016612D01*
X003250Y016612D02*
X003105Y016612D01*
X003250Y016612D02*
X003298Y016564D01*
X003298Y016467D01*
X003298Y016318D02*
X003298Y016270D01*
X003202Y016173D01*
X003298Y016173D02*
X003105Y016173D01*
X003153Y016072D02*
X003105Y016024D01*
X003105Y015878D01*
X003395Y015878D01*
X003395Y016024D01*
X003347Y016072D01*
X003298Y016072D01*
X003250Y016024D01*
X003250Y015878D01*
X003250Y016024D02*
X003202Y016072D01*
X003153Y016072D01*
X002867Y016025D02*
X002673Y016025D01*
X002625Y016073D01*
X002673Y016173D02*
X002625Y016221D01*
X002625Y016367D01*
X002577Y016367D02*
X002528Y016318D01*
X002528Y016270D01*
X002577Y016367D02*
X002818Y016367D01*
X002818Y016173D02*
X002673Y016173D01*
X002818Y016073D02*
X002818Y015977D01*
X002818Y015829D02*
X002625Y015829D01*
X002625Y015877D02*
X002625Y015780D01*
X002673Y015679D02*
X002625Y015631D01*
X002625Y015486D01*
X002722Y015534D02*
X002722Y015631D01*
X002673Y015679D01*
X002818Y015679D02*
X002818Y015534D01*
X002770Y015486D01*
X002722Y015534D01*
X002818Y015385D02*
X002818Y015337D01*
X002722Y015240D01*
X002818Y015240D02*
X002625Y015240D01*
X002722Y015139D02*
X002722Y014945D01*
X002770Y014945D02*
X002818Y014994D01*
X002818Y015091D01*
X002770Y015139D01*
X002722Y015139D01*
X002625Y015091D02*
X002625Y014994D01*
X002673Y014945D01*
X002770Y014945D01*
X002818Y014844D02*
X002625Y014747D01*
X002818Y014651D01*
X002818Y014503D02*
X002625Y014503D01*
X002625Y014551D02*
X002625Y014454D01*
X002625Y014353D02*
X002770Y014353D01*
X002818Y014305D01*
X002818Y014160D01*
X002625Y014160D01*
X002673Y014058D02*
X002625Y014010D01*
X002625Y013913D01*
X002673Y013865D01*
X002915Y013865D01*
X002915Y014058D02*
X002673Y014058D01*
X002435Y014010D02*
X002435Y013913D01*
X002387Y013865D01*
X002338Y013865D01*
X002290Y013913D01*
X002290Y014010D01*
X002242Y014058D01*
X002193Y014058D01*
X002145Y014010D01*
X002145Y013913D01*
X002193Y013865D01*
X001955Y013962D02*
X001858Y014058D01*
X001665Y014058D01*
X001665Y014160D02*
X001665Y014305D01*
X001713Y014353D01*
X001810Y014353D01*
X001858Y014305D01*
X001858Y014160D01*
X001568Y014160D01*
X001810Y014058D02*
X001810Y013865D01*
X001858Y013865D02*
X001665Y013865D01*
X001858Y013865D02*
X001955Y013962D01*
X002193Y014160D02*
X002145Y014208D01*
X002145Y014305D01*
X002193Y014353D01*
X002290Y014353D01*
X002338Y014305D01*
X002338Y014208D01*
X002290Y014160D01*
X002193Y014160D01*
X002387Y014058D02*
X002435Y014010D01*
X002338Y014454D02*
X002193Y014454D01*
X002145Y014503D01*
X002145Y014648D01*
X002338Y014648D01*
X002338Y014749D02*
X002338Y014846D01*
X002387Y014797D02*
X002193Y014797D01*
X002145Y014846D01*
X002145Y014945D02*
X002435Y014945D01*
X002338Y014994D02*
X002338Y015091D01*
X002290Y015139D01*
X002145Y015139D01*
X002193Y015240D02*
X002242Y015288D01*
X002242Y015434D01*
X002290Y015434D02*
X002145Y015434D01*
X002145Y015288D01*
X002193Y015240D01*
X002338Y015288D02*
X002338Y015385D01*
X002290Y015434D01*
X002338Y015535D02*
X002338Y015583D01*
X002290Y015631D01*
X002338Y015680D01*
X002290Y015728D01*
X002145Y015728D01*
X002145Y015631D02*
X002290Y015631D01*
X002338Y015535D02*
X002145Y015535D01*
X001955Y015532D02*
X001955Y015436D01*
X001907Y015387D01*
X001955Y015532D02*
X001907Y015581D01*
X001858Y015581D01*
X001665Y015387D01*
X001665Y015581D01*
X001713Y015682D02*
X001907Y015876D01*
X001713Y015876D01*
X001665Y015827D01*
X001665Y015730D01*
X001713Y015682D01*
X001907Y015682D01*
X001955Y015730D01*
X001955Y015827D01*
X001907Y015876D01*
X001858Y015977D02*
X001955Y016073D01*
X001665Y016073D01*
X001665Y015977D02*
X001665Y016170D01*
X001713Y016271D02*
X001665Y016320D01*
X001665Y016416D01*
X001713Y016465D01*
X001762Y016465D01*
X001810Y016416D01*
X001810Y016271D01*
X001713Y016271D01*
X001810Y016271D02*
X001907Y016368D01*
X001955Y016465D01*
X002145Y016466D02*
X002193Y016514D01*
X002290Y016514D01*
X002338Y016466D01*
X002338Y016369D01*
X002290Y016320D01*
X002193Y016320D01*
X002145Y016369D01*
X002145Y016466D01*
X002145Y016615D02*
X002338Y016615D01*
X002338Y016760D01*
X002290Y016809D01*
X002145Y016809D01*
X002145Y016221D02*
X002193Y016172D01*
X002387Y016172D01*
X002338Y016124D02*
X002338Y016221D01*
X002290Y016023D02*
X002193Y016023D01*
X002145Y015974D01*
X002145Y015829D01*
X002048Y015829D02*
X002338Y015829D01*
X002338Y015974D01*
X002290Y016023D01*
X002818Y015829D02*
X002818Y015780D01*
X002915Y015829D02*
X002964Y015829D01*
X003105Y015434D02*
X003105Y015338D01*
X003153Y015289D01*
X003250Y015289D01*
X003298Y015338D01*
X003298Y015434D01*
X003250Y015483D01*
X003202Y015483D01*
X003202Y015289D01*
X003250Y015188D02*
X003105Y015188D01*
X003105Y015091D02*
X003250Y015091D01*
X003298Y015140D01*
X003250Y015188D01*
X003250Y015091D02*
X003298Y015043D01*
X003298Y014994D01*
X003105Y014994D01*
X003202Y014893D02*
X003202Y014700D01*
X003250Y014700D02*
X003153Y014700D01*
X003105Y014748D01*
X003105Y014845D01*
X003202Y014893D02*
X003250Y014893D01*
X003298Y014845D01*
X003298Y014748D01*
X003250Y014700D01*
X003250Y014599D02*
X003105Y014599D01*
X003105Y014454D01*
X003153Y014405D01*
X003202Y014454D01*
X003202Y014599D01*
X003250Y014599D02*
X003298Y014550D01*
X003298Y014454D01*
X003298Y014305D02*
X003298Y014256D01*
X003202Y014160D01*
X003298Y014160D02*
X003105Y014160D01*
X003153Y014058D02*
X003250Y014058D01*
X003250Y013962D01*
X003153Y014058D02*
X003105Y014010D01*
X003105Y013913D01*
X003153Y013865D01*
X003347Y013865D01*
X003395Y013913D01*
X003395Y014010D01*
X003347Y014058D01*
X002964Y014503D02*
X002915Y014503D01*
X002818Y014503D02*
X002818Y014454D01*
X002290Y014945D02*
X002338Y014994D01*
X001955Y014945D02*
X001665Y014945D01*
X001665Y014993D02*
X001665Y014896D01*
X001665Y014797D02*
X001665Y014700D01*
X001665Y014748D02*
X001858Y014748D01*
X001858Y014700D01*
X001858Y014599D02*
X001858Y014551D01*
X001762Y014454D01*
X001858Y014454D02*
X001665Y014454D01*
X001955Y014748D02*
X002004Y014748D01*
X001955Y014896D02*
X001955Y014945D01*
X002165Y010535D02*
X002165Y010342D01*
X002262Y010240D02*
X002165Y010144D01*
X002455Y010144D01*
X002455Y010240D02*
X002455Y010047D01*
X002455Y009946D02*
X002407Y009946D01*
X002407Y009897D01*
X002455Y009897D01*
X002455Y009946D01*
X002310Y009946D02*
X002262Y009946D01*
X002262Y009897D01*
X002310Y009897D01*
X002310Y009946D01*
X002407Y009504D02*
X002213Y009310D01*
X002407Y009310D01*
X002455Y009359D01*
X002455Y009455D01*
X002407Y009504D01*
X002213Y009504D01*
X002165Y009455D01*
X002165Y009359D01*
X002213Y009310D01*
X002213Y009209D02*
X002262Y009209D01*
X002310Y009161D01*
X002310Y009016D01*
X002407Y009016D02*
X002213Y009016D01*
X002165Y009064D01*
X002165Y009161D01*
X002213Y009209D01*
X002407Y009209D02*
X002455Y009161D01*
X002455Y009064D01*
X002407Y009016D01*
X002407Y008914D02*
X002213Y008721D01*
X002407Y008721D01*
X002455Y008769D01*
X002455Y008866D01*
X002407Y008914D01*
X002213Y008914D01*
X002165Y008866D01*
X002165Y008769D01*
X002213Y008721D01*
X002213Y008620D02*
X002165Y008571D01*
X002165Y008475D01*
X002213Y008426D01*
X002407Y008620D01*
X002455Y008571D01*
X002455Y008475D01*
X002407Y008426D01*
X002213Y008426D01*
X002165Y008325D02*
X002165Y008180D01*
X002213Y008132D01*
X002310Y008132D01*
X002358Y008180D01*
X002358Y008325D01*
X002455Y008325D02*
X002165Y008325D01*
X001975Y008279D02*
X001685Y008279D01*
X001782Y008178D02*
X001782Y007984D01*
X001975Y008178D01*
X001975Y007984D01*
X002165Y007982D02*
X002213Y008030D01*
X002407Y008030D01*
X002455Y007982D01*
X002455Y007885D01*
X002407Y007837D01*
X002455Y007736D02*
X002455Y007542D01*
X002455Y007639D02*
X002165Y007639D01*
X002262Y007736D01*
X002213Y007837D02*
X002165Y007885D01*
X002165Y007982D01*
X001830Y008279D02*
X001830Y008472D01*
X001975Y008472D02*
X001685Y008472D01*
X001685Y008574D02*
X001975Y008574D01*
X001975Y008767D02*
X001685Y008767D01*
X001782Y008670D01*
X001685Y008574D01*
X001495Y008620D02*
X001205Y008620D01*
X001205Y008721D02*
X001495Y008721D01*
X001350Y008620D02*
X001350Y008426D01*
X001302Y008325D02*
X001302Y008132D01*
X001495Y008325D01*
X001495Y008132D01*
X001495Y008426D02*
X001205Y008426D01*
X001205Y008721D02*
X001302Y008818D01*
X001205Y008914D01*
X001495Y008914D01*
X001495Y009016D02*
X001495Y009209D01*
X001302Y009016D01*
X001253Y009016D01*
X001205Y009064D01*
X001205Y009161D01*
X001253Y009209D01*
X001253Y009310D02*
X001205Y009359D01*
X001205Y009455D01*
X001253Y009504D01*
X001350Y009407D02*
X001350Y009359D01*
X001398Y009310D01*
X001447Y009310D01*
X001495Y009359D01*
X001495Y009455D01*
X001447Y009504D01*
X001350Y009359D02*
X001302Y009310D01*
X001253Y009310D01*
X001685Y009211D02*
X001830Y009356D01*
X001830Y009163D01*
X001927Y009062D02*
X001733Y008868D01*
X001927Y008868D01*
X001975Y008917D01*
X001975Y009013D01*
X001927Y009062D01*
X001733Y009062D01*
X001685Y009013D01*
X001685Y008917D01*
X001733Y008868D01*
X001685Y009211D02*
X001975Y009211D01*
X002213Y008620D02*
X002407Y008620D01*
X002742Y008620D02*
X002742Y008475D01*
X002790Y008426D01*
X002935Y008426D01*
X002887Y008325D02*
X002790Y008325D01*
X002742Y008277D01*
X002742Y008180D01*
X002790Y008132D01*
X002838Y008132D01*
X002838Y008325D01*
X002887Y008325D02*
X002935Y008277D01*
X002935Y008180D01*
X002935Y008030D02*
X002935Y007934D01*
X002935Y007982D02*
X002645Y007982D01*
X002645Y008030D01*
X002645Y007834D02*
X002645Y007786D01*
X002935Y007786D01*
X002935Y007834D02*
X002935Y007737D01*
X002935Y007343D02*
X002742Y007149D01*
X002693Y007149D01*
X002645Y007198D01*
X002645Y007295D01*
X002693Y007343D01*
X002935Y007343D02*
X002935Y007149D01*
X002887Y007048D02*
X002935Y007000D01*
X002935Y006903D01*
X002887Y006855D01*
X002838Y006855D01*
X002790Y006903D01*
X002790Y006952D01*
X002790Y006903D02*
X002742Y006855D01*
X002693Y006855D01*
X002645Y006903D01*
X002645Y007000D01*
X002693Y007048D01*
X002455Y007050D02*
X002455Y007098D01*
X002407Y007147D01*
X002407Y007248D02*
X002455Y007296D01*
X002455Y007393D01*
X002407Y007441D01*
X002310Y007441D02*
X002262Y007344D01*
X002262Y007296D01*
X002310Y007248D01*
X002407Y007248D01*
X002455Y007050D02*
X002407Y007001D01*
X002165Y007001D01*
X002165Y006953D02*
X002165Y007050D01*
X001975Y007049D02*
X001927Y007097D01*
X001733Y007097D01*
X001685Y007049D01*
X001685Y006952D01*
X001733Y006904D01*
X001782Y006803D02*
X001685Y006706D01*
X001975Y006706D01*
X001975Y006803D02*
X001975Y006609D01*
X001975Y006508D02*
X001782Y006315D01*
X001733Y006315D01*
X001685Y006363D01*
X001685Y006460D01*
X001733Y006508D01*
X001975Y006508D02*
X001975Y006315D01*
X001927Y006213D02*
X001733Y006020D01*
X001927Y006020D01*
X001975Y006068D01*
X001975Y006165D01*
X001927Y006213D01*
X001733Y006213D01*
X001685Y006165D01*
X001685Y006068D01*
X001733Y006020D01*
X001733Y005919D02*
X001685Y005870D01*
X001685Y005774D01*
X001733Y005725D01*
X001927Y005919D01*
X001975Y005870D01*
X001975Y005774D01*
X001927Y005725D01*
X001733Y005725D01*
X001685Y005624D02*
X001782Y005527D01*
X001878Y005527D01*
X001975Y005624D01*
X002165Y005823D02*
X002165Y005920D01*
X002213Y005968D01*
X002310Y005871D02*
X002310Y005823D01*
X002358Y005774D01*
X002407Y005774D01*
X002455Y005823D01*
X002455Y005920D01*
X002407Y005968D01*
X002455Y006069D02*
X002455Y006263D01*
X002455Y006166D02*
X002165Y006166D01*
X002262Y006263D01*
X002213Y006364D02*
X002407Y006557D01*
X002455Y006509D01*
X002455Y006412D01*
X002407Y006364D01*
X002213Y006364D01*
X002165Y006412D01*
X002165Y006509D01*
X002213Y006557D01*
X002407Y006557D01*
X002407Y006658D02*
X002213Y006658D01*
X002407Y006852D01*
X002455Y006803D01*
X002455Y006707D01*
X002407Y006658D01*
X002407Y006852D02*
X002213Y006852D01*
X002165Y006803D01*
X002165Y006707D01*
X002213Y006658D01*
X001927Y006904D02*
X001975Y006952D01*
X001975Y007049D01*
X001927Y007199D02*
X001975Y007247D01*
X001975Y007344D01*
X001927Y007392D01*
X001733Y007392D01*
X001685Y007344D01*
X001685Y007247D01*
X001733Y007199D01*
X001495Y007196D02*
X001495Y007100D01*
X001447Y007051D01*
X001495Y006950D02*
X001495Y006757D01*
X001495Y006853D02*
X001205Y006853D01*
X001302Y006950D01*
X001253Y007051D02*
X001205Y007100D01*
X001205Y007196D01*
X001253Y007245D01*
X001447Y007245D01*
X001495Y007196D01*
X001447Y007346D02*
X001495Y007394D01*
X001495Y007491D01*
X001447Y007539D01*
X001253Y007539D01*
X001205Y007491D01*
X001205Y007394D01*
X001253Y007346D01*
X001205Y007639D02*
X001302Y007736D01*
X001398Y007736D01*
X001495Y007639D01*
X001685Y007492D02*
X001782Y007588D01*
X001878Y007588D01*
X001975Y007492D01*
X002165Y007441D02*
X002165Y007248D01*
X002165Y007441D02*
X002310Y007441D01*
X002790Y006754D02*
X002790Y006560D01*
X002742Y006459D02*
X002645Y006362D01*
X002935Y006362D01*
X002935Y006459D02*
X002935Y006265D01*
X002887Y006164D02*
X002838Y006164D01*
X002790Y006116D01*
X002790Y006019D01*
X002838Y005971D01*
X002887Y005971D01*
X002935Y006019D01*
X002935Y006116D01*
X002887Y006164D01*
X002790Y006116D02*
X002742Y006164D01*
X002693Y006164D01*
X002645Y006116D01*
X002645Y006019D01*
X002693Y005971D01*
X002742Y005971D01*
X002790Y006019D01*
X002742Y005870D02*
X002790Y005821D01*
X002790Y005676D01*
X002887Y005676D02*
X002693Y005676D01*
X002645Y005725D01*
X002645Y005821D01*
X002693Y005870D01*
X002742Y005870D01*
X002887Y005870D02*
X002935Y005821D01*
X002935Y005725D01*
X002887Y005676D01*
X002790Y005575D02*
X002790Y005382D01*
X002935Y005430D02*
X002645Y005430D01*
X002790Y005575D01*
X002935Y005280D02*
X002838Y005184D01*
X002742Y005184D01*
X002645Y005280D01*
X002262Y005774D02*
X002310Y005823D01*
X002262Y005774D02*
X002213Y005774D01*
X002165Y005823D01*
X001927Y005919D02*
X001733Y005919D01*
X001495Y005921D02*
X001495Y006018D01*
X001447Y006066D01*
X001253Y005873D01*
X001447Y005873D01*
X001495Y005921D01*
X001495Y005771D02*
X001398Y005675D01*
X001302Y005675D01*
X001205Y005771D01*
X001253Y005873D02*
X001205Y005921D01*
X001205Y006018D01*
X001253Y006066D01*
X001447Y006066D01*
X001495Y006167D02*
X001495Y006361D01*
X001302Y006167D01*
X001253Y006167D01*
X001205Y006216D01*
X001205Y006312D01*
X001253Y006361D01*
X001205Y006559D02*
X001302Y006655D01*
X001205Y006559D02*
X001495Y006559D01*
X001495Y006655D02*
X001495Y006462D01*
X002645Y006609D02*
X002790Y006754D01*
X002935Y006609D02*
X002645Y006609D01*
X002742Y008620D02*
X002935Y008620D01*
X002742Y008720D02*
X002742Y008769D01*
X002838Y008865D01*
X002742Y008865D02*
X002935Y008865D01*
X002935Y008966D02*
X002935Y009112D01*
X002887Y009160D01*
X002838Y009112D01*
X002838Y008966D01*
X002790Y008966D02*
X002935Y008966D01*
X002790Y008966D02*
X002742Y009015D01*
X002742Y009112D01*
X002645Y009261D02*
X002645Y009455D01*
X002935Y009455D01*
X002935Y009554D02*
X002838Y009651D01*
X002742Y009651D01*
X002645Y009554D01*
X002790Y009455D02*
X002790Y009358D01*
X002310Y010438D02*
X002310Y010535D01*
X002455Y010535D02*
X002165Y010535D01*
X001495Y010535D02*
X001205Y010342D01*
X001302Y010240D02*
X001205Y010144D01*
X001495Y010144D01*
X001495Y010240D02*
X001495Y010047D01*
X001495Y009946D02*
X001447Y009946D01*
X001447Y009897D01*
X001495Y009897D01*
X001495Y009946D01*
X001350Y009946D02*
X001302Y009946D01*
X001302Y009897D01*
X001350Y009897D01*
X001350Y009946D01*
X001495Y010342D02*
X001205Y010535D01*
X004865Y010487D02*
X004865Y010390D01*
X004913Y010342D01*
X005107Y010342D01*
X005155Y010390D01*
X005155Y010487D01*
X005107Y010535D01*
X004913Y010535D01*
X004865Y010487D01*
X004962Y010240D02*
X004962Y010144D01*
X004913Y010192D02*
X005107Y010192D01*
X005155Y010144D01*
X005155Y010044D02*
X004865Y010044D01*
X004962Y009996D02*
X005010Y010044D01*
X004962Y009996D02*
X004962Y009899D01*
X005010Y009850D01*
X005155Y009850D01*
X005107Y009749D02*
X005010Y009749D01*
X004962Y009701D01*
X004962Y009604D01*
X005010Y009556D01*
X005058Y009556D01*
X005058Y009749D01*
X005107Y009749D02*
X005155Y009701D01*
X005155Y009604D01*
X005296Y009603D02*
X005345Y009603D01*
X005442Y009603D02*
X005635Y009603D01*
X005635Y009651D02*
X005635Y009554D01*
X005587Y009455D02*
X005635Y009406D01*
X005635Y009261D01*
X005683Y009261D02*
X005732Y009309D01*
X005732Y009358D01*
X005683Y009261D02*
X005442Y009261D01*
X005442Y009406D01*
X005490Y009455D01*
X005587Y009455D01*
X005442Y009603D02*
X005442Y009651D01*
X005442Y009752D02*
X005442Y009897D01*
X005490Y009946D01*
X005538Y009897D01*
X005538Y009801D01*
X005587Y009752D01*
X005635Y009801D01*
X005635Y009946D01*
X005538Y010047D02*
X005538Y010240D01*
X005490Y010240D02*
X005442Y010192D01*
X005442Y010095D01*
X005490Y010047D01*
X005538Y010047D01*
X005635Y010095D02*
X005635Y010192D01*
X005587Y010240D01*
X005490Y010240D01*
X005442Y010342D02*
X005442Y010487D01*
X005490Y010535D01*
X005587Y010535D01*
X005635Y010487D01*
X005635Y010342D01*
X005345Y010342D01*
X005155Y009455D02*
X004962Y009455D01*
X005058Y009455D02*
X004962Y009358D01*
X004962Y009309D01*
X004962Y008914D02*
X005155Y008818D01*
X004962Y008721D01*
X004962Y008571D02*
X004962Y008475D01*
X005010Y008426D01*
X005155Y008426D01*
X005155Y008571D01*
X005107Y008620D01*
X005058Y008571D01*
X005058Y008426D01*
X005155Y008325D02*
X005155Y008228D01*
X005155Y008277D02*
X004865Y008277D01*
X004865Y008325D01*
X004962Y008129D02*
X005107Y008129D01*
X005155Y008080D01*
X005155Y007935D01*
X004962Y007935D01*
X005010Y007834D02*
X004962Y007786D01*
X004962Y007689D01*
X005010Y007641D01*
X005058Y007641D01*
X005058Y007834D01*
X005010Y007834D02*
X005107Y007834D01*
X005155Y007786D01*
X005155Y007689D01*
X005155Y007539D02*
X005155Y007394D01*
X005107Y007346D01*
X005058Y007394D01*
X005058Y007491D01*
X005010Y007539D01*
X004962Y007491D01*
X004962Y007346D01*
X004962Y006950D02*
X004962Y006805D01*
X005010Y006757D01*
X005107Y006757D01*
X005155Y006805D01*
X005155Y006950D01*
X005252Y006950D02*
X004962Y006950D01*
X005010Y006655D02*
X004962Y006607D01*
X004962Y006510D01*
X005010Y006462D01*
X005058Y006462D01*
X005058Y006655D01*
X005010Y006655D02*
X005107Y006655D01*
X005155Y006607D01*
X005155Y006510D01*
X005155Y006361D02*
X004962Y006361D01*
X005058Y006361D02*
X004962Y006264D01*
X004962Y006216D01*
X004962Y005821D02*
X005155Y005821D01*
X005058Y005821D02*
X004962Y005724D01*
X004962Y005675D01*
X005010Y005575D02*
X004962Y005527D01*
X004962Y005430D01*
X005010Y005382D01*
X005058Y005382D01*
X005058Y005575D01*
X005010Y005575D02*
X005107Y005575D01*
X005155Y005527D01*
X005155Y005430D01*
X005345Y005428D02*
X005442Y005331D01*
X005538Y005331D01*
X005635Y005428D01*
X005587Y005529D02*
X005635Y005577D01*
X005635Y005722D01*
X005732Y005722D02*
X005442Y005722D01*
X005442Y005577D01*
X005490Y005529D01*
X005587Y005529D01*
X005635Y005822D02*
X005635Y005919D01*
X005635Y005870D02*
X005442Y005870D01*
X005442Y005919D01*
X005442Y006020D02*
X005635Y006213D01*
X005635Y006020D01*
X005442Y006020D02*
X005442Y006213D01*
X005587Y006312D02*
X005587Y006361D01*
X005635Y006361D01*
X005635Y006312D01*
X005587Y006312D01*
X005635Y006462D02*
X005635Y006655D01*
X005442Y006462D01*
X005393Y006462D01*
X005345Y006510D01*
X005345Y006607D01*
X005393Y006655D01*
X005393Y006757D02*
X005345Y006805D01*
X005345Y006902D01*
X005393Y006950D01*
X005393Y007051D02*
X005345Y007100D01*
X005345Y007196D01*
X005393Y007245D01*
X005442Y007346D02*
X005442Y007491D01*
X005490Y007539D01*
X005587Y007539D01*
X005635Y007491D01*
X005635Y007346D01*
X005635Y007245D02*
X005442Y007051D01*
X005393Y007051D01*
X005635Y007051D02*
X005635Y007245D01*
X005635Y006950D02*
X005442Y006757D01*
X005393Y006757D01*
X005635Y006757D02*
X005635Y006950D01*
X005442Y007640D02*
X005442Y007688D01*
X005538Y007785D01*
X005442Y007785D02*
X005635Y007785D01*
X005587Y007886D02*
X005442Y007886D01*
X005587Y007886D02*
X005635Y007934D01*
X005587Y007983D01*
X005635Y008031D01*
X005587Y008080D01*
X005442Y008080D01*
X005442Y008181D02*
X005442Y008326D01*
X005490Y008374D01*
X005538Y008326D01*
X005538Y008229D01*
X005587Y008181D01*
X005635Y008229D01*
X005635Y008374D01*
X005635Y008474D02*
X005538Y008571D01*
X005442Y008571D01*
X005345Y008474D01*
X005490Y008966D02*
X005442Y009015D01*
X005442Y009160D01*
X005635Y009160D01*
X005635Y008966D02*
X005490Y008966D01*
X006905Y008522D02*
X006905Y008376D01*
X006953Y008328D01*
X007002Y008328D01*
X007050Y008376D01*
X007050Y008522D01*
X007195Y008522D02*
X006905Y008522D01*
X007050Y008376D02*
X007098Y008328D01*
X007147Y008328D01*
X007195Y008376D01*
X007195Y008522D01*
X007336Y008571D02*
X007385Y008571D01*
X007482Y008571D02*
X007675Y008571D01*
X007675Y008523D02*
X007675Y008620D01*
X007627Y008721D02*
X007578Y008769D01*
X007578Y008866D01*
X007530Y008914D01*
X007482Y008866D01*
X007482Y008721D01*
X007482Y008620D02*
X007482Y008571D01*
X007482Y008423D02*
X007482Y008327D01*
X007433Y008375D02*
X007627Y008375D01*
X007675Y008327D01*
X007627Y008227D02*
X007482Y008227D01*
X007627Y008227D02*
X007675Y008179D01*
X007675Y008033D01*
X007723Y008033D02*
X007772Y008082D01*
X007772Y008130D01*
X007723Y008033D02*
X007482Y008033D01*
X007195Y007933D02*
X007195Y007788D01*
X007050Y007788D01*
X007002Y007836D01*
X007002Y007933D01*
X007098Y007933D02*
X007098Y007788D01*
X007050Y007687D02*
X007147Y007687D01*
X007195Y007638D01*
X007195Y007493D01*
X007243Y007493D02*
X007002Y007493D01*
X007002Y007638D01*
X007050Y007687D01*
X007098Y007933D02*
X007147Y007981D01*
X007195Y007933D01*
X007002Y008082D02*
X007002Y008130D01*
X007098Y008227D01*
X007002Y008227D02*
X007195Y008227D01*
X007292Y007590D02*
X007292Y007542D01*
X007243Y007493D01*
X007147Y007392D02*
X007195Y007344D01*
X007195Y007199D01*
X007243Y007199D02*
X007002Y007199D01*
X007002Y007344D01*
X007050Y007392D01*
X007147Y007392D01*
X007292Y007295D02*
X007292Y007247D01*
X007243Y007199D01*
X007385Y007246D02*
X007433Y007295D01*
X007675Y007295D01*
X007530Y007343D02*
X007530Y007246D01*
X007530Y007444D02*
X007482Y007492D01*
X007482Y007589D01*
X007530Y007638D01*
X007627Y007638D01*
X007675Y007589D01*
X007675Y007492D01*
X007627Y007444D01*
X007530Y007444D01*
X007962Y007640D02*
X008010Y007591D01*
X008155Y007591D01*
X008155Y007785D02*
X007962Y007785D01*
X007962Y007640D01*
X008010Y007886D02*
X007962Y007934D01*
X007962Y008031D01*
X008010Y008080D01*
X008107Y008080D01*
X008155Y008031D01*
X008155Y007934D01*
X008107Y007886D01*
X008010Y007886D01*
X007962Y008179D02*
X007962Y008276D01*
X007913Y008228D02*
X008107Y008228D01*
X008155Y008179D01*
X008107Y008377D02*
X008010Y008377D01*
X007962Y008426D01*
X007962Y008571D01*
X008252Y008571D01*
X008345Y008573D02*
X008393Y008524D01*
X008587Y008718D01*
X008635Y008670D01*
X008635Y008573D01*
X008587Y008524D01*
X008393Y008524D01*
X008345Y008573D02*
X008345Y008670D01*
X008393Y008718D01*
X008587Y008718D01*
X008635Y008819D02*
X008635Y009013D01*
X008442Y008819D01*
X008393Y008819D01*
X008345Y008868D01*
X008345Y008964D01*
X008393Y009013D01*
X008155Y008966D02*
X008155Y009112D01*
X008107Y009160D01*
X008058Y009112D01*
X008058Y008966D01*
X008010Y008966D02*
X008155Y008966D01*
X008155Y008865D02*
X007962Y008865D01*
X007962Y008817D01*
X008010Y008769D01*
X007962Y008720D01*
X008010Y008672D01*
X008155Y008672D01*
X008155Y008769D02*
X008010Y008769D01*
X008010Y008966D02*
X007962Y009015D01*
X007962Y009112D01*
X008010Y009261D02*
X008155Y009261D01*
X008010Y009261D02*
X007962Y009309D01*
X007962Y009406D01*
X008010Y009455D01*
X007962Y009554D02*
X007962Y009651D01*
X007913Y009603D02*
X008107Y009603D01*
X008155Y009554D01*
X008155Y009455D02*
X007865Y009455D01*
X007675Y009406D02*
X007627Y009455D01*
X007530Y009455D01*
X007482Y009406D01*
X007482Y009309D01*
X007530Y009261D01*
X007578Y009261D01*
X007578Y009455D01*
X007675Y009406D02*
X007675Y009309D01*
X007675Y009160D02*
X007482Y009160D01*
X007578Y009160D02*
X007482Y009063D01*
X007482Y009015D01*
X007675Y008914D02*
X007675Y008769D01*
X007627Y008721D01*
X007195Y008966D02*
X007195Y009062D01*
X007147Y009111D01*
X007050Y009111D01*
X007002Y009062D01*
X007002Y008966D01*
X007050Y008917D01*
X007098Y008917D01*
X007098Y009111D01*
X007050Y009212D02*
X007195Y009212D01*
X007195Y009309D02*
X007050Y009309D01*
X007002Y009260D01*
X007050Y009212D01*
X007050Y009309D02*
X007002Y009357D01*
X007002Y009406D01*
X007195Y009406D01*
X007098Y009507D02*
X007098Y009700D01*
X007050Y009700D02*
X007147Y009700D01*
X007195Y009652D01*
X007195Y009555D01*
X007098Y009507D02*
X007050Y009507D01*
X007002Y009555D01*
X007002Y009652D01*
X007050Y009700D01*
X007050Y009801D02*
X007195Y009801D01*
X007195Y009946D01*
X007147Y009995D01*
X007098Y009946D01*
X007098Y009801D01*
X007050Y009801D02*
X007002Y009850D01*
X007002Y009946D01*
X007002Y010095D02*
X007002Y010144D01*
X007098Y010240D01*
X007002Y010240D02*
X007195Y010240D01*
X007147Y010342D02*
X007050Y010342D01*
X007050Y010438D01*
X007147Y010342D02*
X007195Y010390D01*
X007195Y010487D01*
X007147Y010535D01*
X006953Y010535D01*
X006905Y010487D01*
X006905Y010390D01*
X006953Y010342D01*
X007385Y010342D02*
X007627Y010342D01*
X007675Y010390D01*
X007675Y010487D01*
X007627Y010535D01*
X007385Y010535D01*
X007482Y010240D02*
X007482Y010095D01*
X007530Y010047D01*
X007675Y010047D01*
X007675Y009946D02*
X007675Y009849D01*
X007675Y009897D02*
X007482Y009897D01*
X007482Y009946D01*
X007385Y009897D02*
X007336Y009897D01*
X007482Y009749D02*
X007675Y009653D01*
X007482Y009556D01*
X007962Y009752D02*
X008155Y009752D01*
X008155Y009897D01*
X008107Y009946D01*
X007962Y009946D01*
X008010Y010047D02*
X007962Y010095D01*
X007962Y010192D01*
X008010Y010240D01*
X008107Y010240D01*
X008155Y010192D01*
X008155Y010095D01*
X008107Y010047D01*
X008010Y010047D01*
X008058Y010342D02*
X008107Y010342D01*
X008155Y010390D01*
X008155Y010487D01*
X008107Y010535D01*
X008010Y010487D02*
X008010Y010390D01*
X008058Y010342D01*
X007913Y010342D02*
X007865Y010390D01*
X007865Y010487D01*
X007913Y010535D01*
X007962Y010535D01*
X008010Y010487D01*
X008345Y010438D02*
X008442Y010342D01*
X008635Y010342D01*
X008635Y010240D02*
X008635Y010095D01*
X008587Y010047D01*
X008490Y010047D01*
X008442Y010095D01*
X008442Y010240D01*
X008732Y010240D01*
X008635Y010535D02*
X008442Y010535D01*
X008345Y010438D01*
X008490Y010342D02*
X008490Y010535D01*
X008538Y009946D02*
X008442Y009849D01*
X008442Y009801D01*
X008442Y009700D02*
X008442Y009652D01*
X008635Y009652D01*
X008635Y009700D02*
X008635Y009603D01*
X008635Y009504D02*
X008635Y009407D01*
X008635Y009455D02*
X008345Y009455D01*
X008345Y009504D01*
X008345Y009652D02*
X008296Y009652D01*
X008442Y009946D02*
X008635Y009946D01*
X007675Y010240D02*
X007482Y010240D01*
X008155Y008571D02*
X008155Y008426D01*
X008107Y008377D01*
X008345Y008327D02*
X008635Y008327D01*
X008635Y008423D02*
X008635Y008230D01*
X008587Y008129D02*
X008635Y008080D01*
X008635Y007984D01*
X008587Y007935D01*
X008538Y007935D01*
X008490Y007984D01*
X008490Y008129D01*
X008587Y008129D01*
X008490Y008129D02*
X008393Y008032D01*
X008345Y007935D01*
X008345Y008327D02*
X008442Y008423D01*
X010058Y007565D02*
X010251Y007565D01*
X010154Y007565D02*
X010154Y007855D01*
X010251Y007758D01*
X010352Y007710D02*
X010352Y007613D01*
X010401Y007565D01*
X010497Y007565D01*
X010546Y007613D01*
X010546Y007710D02*
X010449Y007758D01*
X010401Y007758D01*
X010352Y007710D01*
X010352Y007855D02*
X010546Y007855D01*
X010546Y007710D01*
X010647Y007565D02*
X010840Y007565D01*
X010744Y007565D02*
X010744Y007855D01*
X010840Y007758D01*
X010942Y007807D02*
X010990Y007855D01*
X011087Y007855D01*
X011135Y007807D01*
X011135Y007613D01*
X011087Y007565D01*
X010990Y007565D01*
X010942Y007613D01*
X010990Y007455D02*
X011087Y007455D01*
X011135Y007407D01*
X011135Y007213D01*
X011087Y007165D01*
X010990Y007165D01*
X010942Y007213D01*
X010840Y007165D02*
X010647Y007165D01*
X010744Y007165D02*
X010744Y007455D01*
X010840Y007358D01*
X010942Y007407D02*
X010990Y007455D01*
X010546Y007455D02*
X010352Y007455D01*
X010352Y007407D01*
X010546Y007213D01*
X010546Y007165D01*
X010251Y007165D02*
X010058Y007358D01*
X010058Y007407D01*
X010106Y007455D01*
X010203Y007455D01*
X010251Y007407D01*
X010251Y007165D02*
X010058Y007165D01*
X010154Y005155D02*
X010154Y004865D01*
X010058Y004865D02*
X010251Y004865D01*
X010251Y005058D02*
X010154Y005155D01*
X010352Y005155D02*
X010352Y005107D01*
X010546Y004913D01*
X010546Y004865D01*
X010647Y004865D02*
X010840Y004865D01*
X010744Y004865D02*
X010744Y005155D01*
X010840Y005058D01*
X010942Y005107D02*
X010990Y005155D01*
X011087Y005155D01*
X011135Y005107D01*
X011135Y004913D01*
X011087Y004865D01*
X010990Y004865D01*
X010942Y004913D01*
X010546Y005155D02*
X010352Y005155D01*
X013358Y005405D02*
X013551Y005405D01*
X013454Y005405D02*
X013454Y005695D01*
X013551Y005598D01*
X013652Y005598D02*
X013652Y005647D01*
X013701Y005695D01*
X013797Y005695D01*
X013846Y005647D01*
X013947Y005647D02*
X013995Y005695D01*
X014092Y005695D01*
X014140Y005647D01*
X014242Y005647D02*
X014290Y005695D01*
X014387Y005695D01*
X014435Y005647D01*
X014435Y005453D01*
X014387Y005405D01*
X014290Y005405D01*
X014242Y005453D01*
X014140Y005405D02*
X013947Y005598D01*
X013947Y005647D01*
X013947Y005405D02*
X014140Y005405D01*
X013846Y005405D02*
X013652Y005598D01*
X013652Y005405D02*
X013846Y005405D01*
X013749Y005095D02*
X013749Y004805D01*
X013846Y004805D02*
X013652Y004805D01*
X013551Y004805D02*
X013358Y004805D01*
X013454Y004805D02*
X013454Y005095D01*
X013551Y004998D01*
X013749Y005095D02*
X013846Y004998D01*
X013947Y004998D02*
X013947Y005047D01*
X013995Y005095D01*
X014092Y005095D01*
X014140Y005047D01*
X014242Y005047D02*
X014290Y005095D01*
X014387Y005095D01*
X014435Y005047D01*
X014435Y004853D01*
X014387Y004805D01*
X014290Y004805D01*
X014242Y004853D01*
X014140Y004805D02*
X013947Y004998D01*
X013947Y004805D02*
X014140Y004805D01*
X014140Y006105D02*
X013947Y006298D01*
X013947Y006347D01*
X013995Y006395D01*
X014092Y006395D01*
X014140Y006347D01*
X014242Y006347D02*
X014290Y006395D01*
X014387Y006395D01*
X014435Y006347D01*
X014435Y006153D01*
X014387Y006105D01*
X014290Y006105D01*
X014242Y006153D01*
X014140Y006105D02*
X013947Y006105D01*
X013846Y006153D02*
X013797Y006105D01*
X013701Y006105D01*
X013652Y006153D01*
X013652Y006202D01*
X013701Y006250D01*
X013749Y006250D01*
X013701Y006250D02*
X013652Y006298D01*
X013652Y006347D01*
X013701Y006395D01*
X013797Y006395D01*
X013846Y006347D01*
X013551Y006298D02*
X013454Y006395D01*
X013454Y006105D01*
X013358Y006105D02*
X013551Y006105D01*
X015905Y008376D02*
X015953Y008328D01*
X016002Y008328D01*
X016050Y008376D01*
X016050Y008522D01*
X016195Y008522D02*
X016195Y008376D01*
X016147Y008328D01*
X016098Y008328D01*
X016050Y008376D01*
X015905Y008376D02*
X015905Y008522D01*
X016195Y008522D01*
X016336Y008571D02*
X016385Y008571D01*
X016482Y008571D02*
X016675Y008571D01*
X016675Y008523D02*
X016675Y008620D01*
X016627Y008721D02*
X016578Y008769D01*
X016578Y008866D01*
X016530Y008914D01*
X016482Y008866D01*
X016482Y008721D01*
X016482Y008620D02*
X016482Y008571D01*
X016482Y008423D02*
X016482Y008327D01*
X016433Y008375D02*
X016627Y008375D01*
X016675Y008327D01*
X016627Y008227D02*
X016482Y008227D01*
X016627Y008227D02*
X016675Y008179D01*
X016675Y008033D01*
X016723Y008033D02*
X016772Y008082D01*
X016772Y008130D01*
X016723Y008033D02*
X016482Y008033D01*
X016530Y007638D02*
X016627Y007638D01*
X016675Y007589D01*
X016675Y007492D01*
X016627Y007444D01*
X016530Y007444D01*
X016482Y007492D01*
X016482Y007589D01*
X016530Y007638D01*
X016292Y007590D02*
X016292Y007542D01*
X016243Y007493D01*
X016002Y007493D01*
X016002Y007638D01*
X016050Y007687D01*
X016147Y007687D01*
X016195Y007638D01*
X016195Y007493D01*
X016147Y007392D02*
X016195Y007344D01*
X016195Y007199D01*
X016243Y007199D02*
X016002Y007199D01*
X016002Y007344D01*
X016050Y007392D01*
X016147Y007392D01*
X016292Y007295D02*
X016292Y007247D01*
X016243Y007199D01*
X016385Y007246D02*
X016433Y007295D01*
X016675Y007295D01*
X016530Y007343D02*
X016530Y007246D01*
X016962Y007640D02*
X017010Y007591D01*
X017155Y007591D01*
X017155Y007785D02*
X016962Y007785D01*
X016962Y007640D01*
X017010Y007886D02*
X016962Y007934D01*
X016962Y008031D01*
X017010Y008080D01*
X017107Y008080D01*
X017155Y008031D01*
X017155Y007934D01*
X017107Y007886D01*
X017010Y007886D01*
X016962Y008179D02*
X016962Y008276D01*
X016913Y008228D02*
X017107Y008228D01*
X017155Y008179D01*
X017107Y008377D02*
X017010Y008377D01*
X016962Y008426D01*
X016962Y008571D01*
X017252Y008571D01*
X017345Y008573D02*
X017393Y008524D01*
X017587Y008718D01*
X017635Y008670D01*
X017635Y008573D01*
X017587Y008524D01*
X017393Y008524D01*
X017345Y008573D02*
X017345Y008670D01*
X017393Y008718D01*
X017587Y008718D01*
X017635Y008819D02*
X017635Y009013D01*
X017442Y008819D01*
X017393Y008819D01*
X017345Y008868D01*
X017345Y008964D01*
X017393Y009013D01*
X017155Y008966D02*
X017155Y009112D01*
X017107Y009160D01*
X017058Y009112D01*
X017058Y008966D01*
X017010Y008966D02*
X017155Y008966D01*
X017155Y008865D02*
X016962Y008865D01*
X016962Y008817D01*
X017010Y008769D01*
X017155Y008769D01*
X017155Y008672D02*
X017010Y008672D01*
X016962Y008720D01*
X017010Y008769D01*
X017010Y008966D02*
X016962Y009015D01*
X016962Y009112D01*
X017010Y009261D02*
X017155Y009261D01*
X017010Y009261D02*
X016962Y009309D01*
X016962Y009406D01*
X017010Y009455D01*
X016962Y009554D02*
X016962Y009651D01*
X016913Y009603D02*
X017107Y009603D01*
X017155Y009554D01*
X017155Y009455D02*
X016865Y009455D01*
X016675Y009406D02*
X016627Y009455D01*
X016530Y009455D01*
X016482Y009406D01*
X016482Y009309D01*
X016530Y009261D01*
X016578Y009261D01*
X016578Y009455D01*
X016675Y009406D02*
X016675Y009309D01*
X016675Y009160D02*
X016482Y009160D01*
X016578Y009160D02*
X016482Y009063D01*
X016482Y009015D01*
X016675Y008914D02*
X016675Y008769D01*
X016627Y008721D01*
X017155Y008571D02*
X017155Y008426D01*
X017107Y008377D01*
X017345Y008327D02*
X017635Y008327D01*
X017635Y008423D02*
X017635Y008230D01*
X017587Y008129D02*
X017635Y008080D01*
X017635Y007984D01*
X017587Y007935D01*
X017538Y007935D01*
X017490Y007984D01*
X017490Y008129D01*
X017587Y008129D01*
X017490Y008129D02*
X017393Y008032D01*
X017345Y007935D01*
X017345Y008327D02*
X017442Y008423D01*
X017635Y009407D02*
X017635Y009504D01*
X017635Y009455D02*
X017345Y009455D01*
X017345Y009504D01*
X017345Y009652D02*
X017296Y009652D01*
X017442Y009652D02*
X017635Y009652D01*
X017635Y009700D02*
X017635Y009603D01*
X017442Y009652D02*
X017442Y009700D01*
X017442Y009801D02*
X017442Y009849D01*
X017538Y009946D01*
X017442Y009946D02*
X017635Y009946D01*
X017587Y010047D02*
X017635Y010095D01*
X017635Y010240D01*
X017732Y010240D02*
X017442Y010240D01*
X017442Y010095D01*
X017490Y010047D01*
X017587Y010047D01*
X017635Y010342D02*
X017442Y010342D01*
X017345Y010438D01*
X017442Y010535D01*
X017635Y010535D01*
X017490Y010535D02*
X017490Y010342D01*
X017155Y010390D02*
X017155Y010487D01*
X017107Y010535D01*
X017010Y010487D02*
X017010Y010390D01*
X017058Y010342D01*
X017107Y010342D01*
X017155Y010390D01*
X017107Y010240D02*
X017155Y010192D01*
X017155Y010095D01*
X017107Y010047D01*
X017010Y010047D01*
X016962Y010095D01*
X016962Y010192D01*
X017010Y010240D01*
X017107Y010240D01*
X016913Y010342D02*
X016865Y010390D01*
X016865Y010487D01*
X016913Y010535D01*
X016962Y010535D01*
X017010Y010487D01*
X016675Y010487D02*
X016675Y010390D01*
X016627Y010342D01*
X016385Y010342D01*
X016482Y010240D02*
X016482Y010095D01*
X016530Y010047D01*
X016675Y010047D01*
X016675Y009946D02*
X016675Y009849D01*
X016675Y009897D02*
X016482Y009897D01*
X016482Y009946D01*
X016385Y009897D02*
X016336Y009897D01*
X016195Y009946D02*
X016147Y009995D01*
X016098Y009946D01*
X016098Y009801D01*
X016050Y009801D02*
X016195Y009801D01*
X016195Y009946D01*
X016002Y009946D02*
X016002Y009850D01*
X016050Y009801D01*
X016050Y009700D02*
X016002Y009652D01*
X016002Y009555D01*
X016050Y009507D01*
X016098Y009507D01*
X016098Y009700D01*
X016050Y009700D02*
X016147Y009700D01*
X016195Y009652D01*
X016195Y009555D01*
X016195Y009406D02*
X016002Y009406D01*
X016002Y009357D01*
X016050Y009309D01*
X016002Y009260D01*
X016050Y009212D01*
X016195Y009212D01*
X016195Y009309D02*
X016050Y009309D01*
X016050Y009111D02*
X016002Y009062D01*
X016002Y008966D01*
X016050Y008917D01*
X016098Y008917D01*
X016098Y009111D01*
X016050Y009111D02*
X016147Y009111D01*
X016195Y009062D01*
X016195Y008966D01*
X016482Y009556D02*
X016675Y009653D01*
X016482Y009749D01*
X016962Y009752D02*
X017155Y009752D01*
X017155Y009897D01*
X017107Y009946D01*
X016962Y009946D01*
X016675Y010240D02*
X016482Y010240D01*
X016385Y010535D02*
X016627Y010535D01*
X016675Y010487D01*
X016195Y010487D02*
X016195Y010390D01*
X016147Y010342D01*
X016050Y010342D01*
X016050Y010438D01*
X015953Y010342D02*
X015905Y010390D01*
X015905Y010487D01*
X015953Y010535D01*
X016147Y010535D01*
X016195Y010487D01*
X016195Y010240D02*
X016002Y010240D01*
X016098Y010240D02*
X016002Y010144D01*
X016002Y010095D01*
X016002Y008227D02*
X016195Y008227D01*
X016098Y008227D02*
X016002Y008130D01*
X016002Y008082D01*
X016002Y007933D02*
X016002Y007836D01*
X016050Y007788D01*
X016195Y007788D01*
X016195Y007933D01*
X016147Y007981D01*
X016098Y007933D01*
X016098Y007788D01*
X016845Y013865D02*
X017135Y013865D01*
X017135Y014058D01*
X017038Y014160D02*
X017135Y014256D01*
X016845Y014256D01*
X016845Y014160D02*
X016845Y014353D01*
X016845Y014454D02*
X016893Y014454D01*
X016893Y014503D01*
X016845Y014503D01*
X016845Y014454D01*
X016990Y014454D02*
X017038Y014454D01*
X017038Y014503D01*
X016990Y014503D01*
X016990Y014454D01*
X016655Y014846D02*
X016558Y014749D01*
X016462Y014749D01*
X016365Y014846D01*
X016365Y014945D02*
X016655Y014945D01*
X016655Y015139D01*
X016510Y015042D02*
X016510Y014945D01*
X016413Y015240D02*
X016365Y015288D01*
X016365Y015434D01*
X016510Y015434D01*
X016558Y015385D01*
X016558Y015288D01*
X016462Y015288D02*
X016462Y015434D01*
X016462Y015535D02*
X016558Y015631D01*
X016558Y015680D01*
X016558Y015780D02*
X016558Y015925D01*
X016510Y015974D01*
X016365Y015974D01*
X016413Y016075D02*
X016365Y016123D01*
X016365Y016220D01*
X016462Y016268D02*
X016462Y016075D01*
X016510Y016075D02*
X016558Y016123D01*
X016558Y016220D01*
X016510Y016268D01*
X016462Y016268D01*
X016365Y016370D02*
X016365Y016466D01*
X016365Y016418D02*
X016655Y016418D01*
X016655Y016370D01*
X016845Y016418D02*
X016845Y016515D01*
X016893Y016563D01*
X016845Y016664D02*
X016845Y016858D01*
X016845Y016761D02*
X017135Y016761D01*
X017038Y016664D01*
X017087Y016563D02*
X017135Y016515D01*
X017135Y016418D01*
X017087Y016370D01*
X016893Y016370D01*
X016845Y016418D01*
X016990Y016268D02*
X016942Y016220D01*
X016942Y016075D01*
X016845Y016075D02*
X017135Y016075D01*
X017135Y016220D01*
X017087Y016268D01*
X016990Y016268D01*
X016893Y015974D02*
X016845Y015925D01*
X016845Y015829D01*
X016893Y015780D01*
X017087Y015974D01*
X016893Y015974D01*
X016893Y015780D02*
X017087Y015780D01*
X017135Y015829D01*
X017135Y015925D01*
X017087Y015974D01*
X017325Y015928D02*
X017615Y015928D01*
X017615Y015826D02*
X017325Y015826D01*
X017470Y015928D02*
X017470Y016121D01*
X017518Y016222D02*
X017518Y016416D01*
X017325Y016222D01*
X017325Y016416D01*
X017325Y016121D02*
X017615Y016121D01*
X017805Y016075D02*
X017805Y016268D01*
X017998Y016268D02*
X017805Y016075D01*
X017805Y015974D02*
X018095Y015974D01*
X017998Y016075D02*
X017998Y016268D01*
X017950Y015974D02*
X017950Y015780D01*
X017805Y015780D02*
X018095Y015780D01*
X018095Y015679D02*
X017805Y015679D01*
X017805Y015486D02*
X018095Y015486D01*
X017998Y015582D01*
X018095Y015679D01*
X018047Y015384D02*
X017998Y015384D01*
X017805Y015191D01*
X017805Y015384D01*
X017615Y015387D02*
X017567Y015338D01*
X017373Y015338D01*
X017567Y015532D01*
X017373Y015532D01*
X017325Y015483D01*
X017325Y015387D01*
X017373Y015338D01*
X017470Y015237D02*
X017470Y015044D01*
X017615Y015189D01*
X017325Y015189D01*
X017135Y015239D02*
X017087Y015191D01*
X017038Y015191D01*
X016990Y015239D01*
X016990Y015384D01*
X016893Y015384D02*
X017087Y015384D01*
X017135Y015336D01*
X017135Y015239D01*
X017087Y015090D02*
X016893Y014896D01*
X016845Y014945D01*
X016845Y015041D01*
X016893Y015090D01*
X017087Y015090D01*
X017135Y015041D01*
X017135Y014945D01*
X017087Y014896D01*
X016893Y014896D01*
X016893Y015191D02*
X016845Y015239D01*
X016845Y015336D01*
X016893Y015384D01*
X016893Y015486D02*
X017087Y015679D01*
X016893Y015679D01*
X016845Y015631D01*
X016845Y015534D01*
X016893Y015486D01*
X017087Y015486D01*
X017135Y015534D01*
X017135Y015631D01*
X017087Y015679D01*
X017325Y015633D02*
X017615Y015633D01*
X017518Y015730D01*
X017615Y015826D01*
X017567Y015532D02*
X017615Y015483D01*
X017615Y015387D01*
X017853Y015090D02*
X017805Y015041D01*
X017805Y014945D01*
X017853Y014896D01*
X017950Y014993D02*
X017950Y015041D01*
X017902Y015090D01*
X017853Y015090D01*
X017950Y015041D02*
X017998Y015090D01*
X018047Y015090D01*
X018095Y015041D01*
X018095Y014945D01*
X018047Y014896D01*
X018047Y015191D02*
X018095Y015239D01*
X018095Y015336D01*
X018047Y015384D01*
X017998Y014503D02*
X017950Y014503D01*
X017950Y014454D01*
X017998Y014454D01*
X017998Y014503D01*
X017853Y014503D02*
X017805Y014503D01*
X017805Y014454D01*
X017853Y014454D01*
X017853Y014503D01*
X017805Y014353D02*
X017805Y014160D01*
X017805Y014256D02*
X018095Y014256D01*
X017998Y014160D01*
X018095Y014058D02*
X017805Y013865D01*
X017805Y014058D02*
X018095Y013865D01*
X016990Y013865D02*
X016990Y013962D01*
X016413Y015240D02*
X016462Y015288D01*
X016365Y015535D02*
X016558Y015535D01*
X016558Y015780D02*
X016365Y015780D01*
X016413Y016075D02*
X016510Y016075D01*
X016365Y016566D02*
X016365Y016663D01*
X016365Y016614D02*
X016655Y016614D01*
X016655Y016566D01*
X016893Y016959D02*
X016845Y017007D01*
X016845Y017104D01*
X016893Y017152D01*
X016990Y017152D01*
X017038Y017104D01*
X017038Y017056D01*
X016990Y016959D01*
X017135Y016959D01*
X017135Y017152D01*
X017325Y017153D02*
X017325Y017056D01*
X017373Y017008D01*
X017567Y017008D01*
X017615Y017056D01*
X017615Y017153D01*
X017567Y017201D01*
X017567Y017303D02*
X017373Y017303D01*
X017325Y017351D01*
X017325Y017448D01*
X017373Y017496D01*
X017325Y017597D02*
X017325Y017791D01*
X017325Y017694D02*
X017615Y017694D01*
X017518Y017597D01*
X017567Y017496D02*
X017615Y017448D01*
X017615Y017351D01*
X017567Y017303D01*
X017373Y017201D02*
X017325Y017153D01*
X017325Y016908D02*
X017422Y016812D01*
X017518Y016812D01*
X017615Y016908D01*
X017805Y016909D02*
X017805Y017006D01*
X017853Y017054D01*
X017853Y017155D02*
X017805Y017204D01*
X017805Y017300D01*
X017853Y017349D01*
X017805Y017450D02*
X017805Y017643D01*
X017805Y017547D02*
X018095Y017547D01*
X017998Y017450D01*
X018047Y017349D02*
X018095Y017300D01*
X018095Y017204D01*
X018047Y017155D01*
X017853Y017155D01*
X018047Y017054D02*
X018095Y017006D01*
X018095Y016909D01*
X018047Y016861D01*
X017853Y016861D01*
X017805Y016909D01*
X017805Y016761D02*
X017902Y016664D01*
X017998Y016664D01*
X018095Y016761D01*
X017998Y017745D02*
X018095Y017841D01*
X017805Y017841D01*
X017805Y017745D02*
X017805Y017938D01*
X017805Y018039D02*
X017998Y018233D01*
X018047Y018233D01*
X018095Y018184D01*
X018095Y018088D01*
X018047Y018039D01*
X017805Y018039D02*
X017805Y018233D01*
X017853Y018334D02*
X017805Y018382D01*
X017805Y018479D01*
X017853Y018527D01*
X018047Y018527D01*
X017853Y018334D01*
X018047Y018334D01*
X018095Y018382D01*
X018095Y018479D01*
X018047Y018527D01*
X018095Y018629D02*
X017998Y018725D01*
X017902Y018725D01*
X017805Y018629D01*
X017615Y018626D02*
X017567Y018675D01*
X017373Y018481D01*
X017325Y018530D01*
X017325Y018626D01*
X017373Y018675D01*
X017567Y018675D01*
X017615Y018626D02*
X017615Y018530D01*
X017567Y018481D01*
X017373Y018481D01*
X017373Y018380D02*
X017325Y018332D01*
X017325Y018235D01*
X017373Y018187D01*
X017567Y018380D01*
X017373Y018380D01*
X017373Y018187D02*
X017567Y018187D01*
X017615Y018235D01*
X017615Y018332D01*
X017567Y018380D01*
X017567Y018085D02*
X017615Y018037D01*
X017615Y017940D01*
X017567Y017892D01*
X017567Y018085D02*
X017518Y018085D01*
X017325Y017892D01*
X017325Y018085D01*
X017135Y017988D02*
X017087Y018036D01*
X016893Y017843D01*
X016845Y017891D01*
X016845Y017988D01*
X016893Y018036D01*
X017087Y018036D01*
X017135Y017988D02*
X017135Y017891D01*
X017087Y017843D01*
X016893Y017843D01*
X016893Y017742D02*
X016845Y017693D01*
X016845Y017597D01*
X016893Y017548D01*
X017087Y017742D01*
X016893Y017742D01*
X016893Y017548D02*
X017087Y017548D01*
X017135Y017597D01*
X017135Y017693D01*
X017087Y017742D01*
X017135Y017447D02*
X017135Y017350D01*
X017135Y017399D02*
X016893Y017399D01*
X016845Y017350D01*
X016845Y017302D01*
X016893Y017253D01*
X016655Y017202D02*
X016655Y017105D01*
X016607Y017057D01*
X016655Y017202D02*
X016607Y017251D01*
X016558Y017251D01*
X016365Y017057D01*
X016365Y017251D01*
X016413Y017352D02*
X016365Y017400D01*
X016365Y017497D01*
X016413Y017545D01*
X016462Y017545D01*
X016510Y017497D01*
X016510Y017448D01*
X016510Y017497D02*
X016558Y017545D01*
X016607Y017545D01*
X016655Y017497D01*
X016655Y017400D01*
X016607Y017352D01*
X016510Y017646D02*
X016510Y017840D01*
X016558Y017941D02*
X016655Y018038D01*
X016365Y018038D01*
X016365Y017941D02*
X016365Y018135D01*
X016413Y018236D02*
X016365Y018284D01*
X016365Y018381D01*
X016413Y018429D01*
X016462Y018429D01*
X016510Y018381D01*
X016510Y018284D01*
X016558Y018236D01*
X016607Y018236D01*
X016655Y018284D01*
X016655Y018381D01*
X016607Y018429D01*
X016558Y018429D01*
X016510Y018381D01*
X016510Y018284D02*
X016462Y018236D01*
X016413Y018236D01*
X016413Y018530D02*
X016365Y018579D01*
X016365Y018675D01*
X016413Y018724D01*
X016607Y018724D01*
X016655Y018675D01*
X016655Y018579D01*
X016607Y018530D01*
X016558Y018530D01*
X016510Y018579D01*
X016510Y018724D01*
X016510Y018825D02*
X016510Y019018D01*
X016365Y018970D02*
X016655Y018970D01*
X016510Y018825D01*
X016365Y019120D02*
X016462Y019216D01*
X016558Y019216D01*
X016655Y019120D01*
X016893Y018626D02*
X016845Y018577D01*
X016845Y018480D01*
X016893Y018432D01*
X016845Y018331D02*
X016845Y018137D01*
X016845Y018234D02*
X017135Y018234D01*
X017038Y018137D01*
X017087Y018432D02*
X017135Y018480D01*
X017135Y018577D01*
X017087Y018626D01*
X017038Y018626D01*
X016990Y018577D01*
X016942Y018626D01*
X016893Y018626D01*
X016990Y018577D02*
X016990Y018529D01*
X017325Y018776D02*
X017422Y018873D01*
X017518Y018873D01*
X017615Y018776D01*
X016655Y017791D02*
X016510Y017646D01*
X016365Y017791D02*
X016655Y017791D01*
X014435Y019216D02*
X014387Y019168D01*
X014145Y019168D01*
X014290Y019120D02*
X014290Y019216D01*
X014290Y019018D02*
X014242Y019018D01*
X014242Y018825D01*
X014290Y018825D02*
X014338Y018873D01*
X014338Y018970D01*
X014290Y019018D01*
X014145Y018970D02*
X014145Y018873D01*
X014193Y018825D01*
X014290Y018825D01*
X014338Y018725D02*
X014338Y018676D01*
X014242Y018579D01*
X014338Y018579D02*
X014145Y018579D01*
X014004Y018530D02*
X013955Y018530D01*
X013858Y018530D02*
X013665Y018530D01*
X013665Y018578D02*
X013665Y018481D01*
X013665Y018380D02*
X013665Y018187D01*
X013858Y018380D01*
X013858Y018187D01*
X013713Y018088D02*
X013713Y018039D01*
X013665Y018039D01*
X013665Y018088D01*
X013713Y018088D01*
X013665Y017938D02*
X013665Y017745D01*
X013858Y017938D01*
X013907Y017938D01*
X013955Y017890D01*
X013955Y017793D01*
X013907Y017745D01*
X013907Y017643D02*
X013955Y017595D01*
X013955Y017498D01*
X013907Y017450D01*
X013907Y017349D02*
X013955Y017300D01*
X013955Y017204D01*
X013907Y017155D01*
X013858Y017054D02*
X013858Y016909D01*
X013810Y016861D01*
X013713Y016861D01*
X013665Y016909D01*
X013665Y017054D01*
X013665Y017155D02*
X013858Y017349D01*
X013907Y017349D01*
X014048Y017450D02*
X014338Y017450D01*
X014338Y017595D01*
X014290Y017643D01*
X014193Y017643D01*
X014145Y017595D01*
X014145Y017450D01*
X014193Y017745D02*
X014145Y017793D01*
X014145Y017890D01*
X014242Y017938D02*
X014242Y017745D01*
X014290Y017745D02*
X014338Y017793D01*
X014338Y017890D01*
X014290Y017938D01*
X014242Y017938D01*
X014242Y018039D02*
X014338Y018136D01*
X014338Y018184D01*
X014338Y018039D02*
X014145Y018039D01*
X014193Y017745D02*
X014290Y017745D01*
X013907Y017643D02*
X013858Y017643D01*
X013665Y017450D01*
X013665Y017643D01*
X013665Y017349D02*
X013665Y017155D01*
X013858Y016760D02*
X013858Y016712D01*
X013762Y016615D01*
X013858Y016615D02*
X013665Y016615D01*
X013713Y016514D02*
X013858Y016514D01*
X013713Y016514D02*
X013665Y016466D01*
X013713Y016417D01*
X013665Y016369D01*
X013713Y016320D01*
X013858Y016320D01*
X013858Y016219D02*
X013858Y016074D01*
X013810Y016026D01*
X013762Y016074D01*
X013762Y016171D01*
X013713Y016219D01*
X013665Y016171D01*
X013665Y016026D01*
X013665Y015926D02*
X013762Y015829D01*
X013858Y015829D01*
X013955Y015926D01*
X014145Y015974D02*
X014145Y015829D01*
X014193Y015780D01*
X014242Y015829D01*
X014242Y015974D01*
X014290Y015974D02*
X014145Y015974D01*
X014145Y016075D02*
X014145Y016172D01*
X014145Y016123D02*
X014435Y016123D01*
X014435Y016075D01*
X014290Y015974D02*
X014338Y015925D01*
X014338Y015829D01*
X014338Y015679D02*
X014145Y015582D01*
X014338Y015486D01*
X014338Y015091D02*
X014338Y015042D01*
X014242Y014945D01*
X014338Y014945D02*
X014145Y014945D01*
X014242Y014844D02*
X014242Y014651D01*
X014290Y014651D02*
X014338Y014699D01*
X014338Y014796D01*
X014290Y014844D01*
X014242Y014844D01*
X014145Y014796D02*
X014145Y014699D01*
X014193Y014651D01*
X014290Y014651D01*
X014290Y014550D02*
X014145Y014550D01*
X014290Y014550D02*
X014338Y014501D01*
X014338Y014404D01*
X014290Y014356D01*
X014338Y014256D02*
X014338Y014160D01*
X014387Y014208D02*
X014193Y014208D01*
X014145Y014256D01*
X014145Y014356D02*
X014435Y014356D01*
X014387Y014058D02*
X014193Y014058D01*
X014145Y014010D01*
X014145Y013913D01*
X014193Y013865D01*
X014387Y013865D01*
X014435Y013913D01*
X014435Y014010D01*
X014387Y014058D01*
X013955Y014058D02*
X013665Y014058D01*
X013665Y013913D01*
X013713Y013865D01*
X013810Y013865D01*
X013858Y013913D01*
X013858Y014058D01*
X013810Y014160D02*
X013713Y014160D01*
X013665Y014208D01*
X013665Y014305D01*
X013762Y014353D02*
X013762Y014160D01*
X013810Y014160D02*
X013858Y014208D01*
X013858Y014305D01*
X013810Y014353D01*
X013762Y014353D01*
X013810Y014454D02*
X013762Y014503D01*
X013762Y014599D01*
X013713Y014648D01*
X013665Y014599D01*
X013665Y014454D01*
X013810Y014454D02*
X013858Y014503D01*
X013858Y014648D01*
X013858Y014749D02*
X013858Y014797D01*
X013665Y014797D01*
X013665Y014749D02*
X013665Y014846D01*
X013713Y014945D02*
X013665Y014994D01*
X013665Y015139D01*
X013617Y015139D02*
X013858Y015139D01*
X013858Y014994D01*
X013810Y014945D01*
X013713Y014945D01*
X013568Y015042D02*
X013568Y015091D01*
X013617Y015139D01*
X013665Y015240D02*
X013858Y015240D01*
X013858Y015385D01*
X013810Y015434D01*
X013665Y015434D01*
X013955Y014797D02*
X014004Y014797D01*
X014193Y016271D02*
X014145Y016320D01*
X014145Y016465D01*
X014338Y016465D01*
X014290Y016566D02*
X014338Y016614D01*
X014338Y016711D01*
X014290Y016759D01*
X014242Y016759D01*
X014242Y016566D01*
X014290Y016566D02*
X014193Y016566D01*
X014145Y016614D01*
X014145Y016711D01*
X014145Y016861D02*
X014145Y017006D01*
X014193Y017054D01*
X014242Y017006D01*
X014242Y016909D01*
X014290Y016861D01*
X014338Y016909D01*
X014338Y017054D01*
X014338Y016271D02*
X014193Y016271D01*
X013858Y018481D02*
X013858Y018530D01*
X013858Y018678D02*
X013858Y018823D01*
X013810Y018871D01*
X013713Y018871D01*
X013665Y018823D01*
X013665Y018678D01*
X013568Y018678D02*
X013858Y018678D01*
X013955Y018972D02*
X013858Y019069D01*
X013762Y019069D01*
X013665Y018972D01*
X005345Y005870D02*
X005296Y005870D01*
X005155Y005232D02*
X004913Y005232D01*
X004865Y005184D01*
X005010Y005184D02*
X005010Y005280D01*
D12*
X010026Y008833D02*
X010099Y008760D01*
X010026Y008833D02*
X010026Y008907D01*
X010099Y008980D01*
X010210Y008980D02*
X010210Y008760D01*
X010173Y008870D02*
X010320Y008870D01*
X010210Y008980D01*
X010394Y008943D02*
X010431Y008980D01*
X010504Y008980D01*
X010541Y008943D01*
X010541Y008907D01*
X010504Y008870D01*
X010394Y008870D01*
X010394Y008797D02*
X010394Y008943D01*
X010394Y008797D02*
X010431Y008760D01*
X010504Y008760D01*
X010541Y008797D01*
X010615Y008797D02*
X010652Y008760D01*
X010725Y008760D01*
X010762Y008797D01*
X010762Y008833D01*
X010725Y008870D01*
X010652Y008870D01*
X010615Y008833D01*
X010615Y008797D01*
X010652Y008870D02*
X010615Y008907D01*
X010615Y008943D01*
X010652Y008980D01*
X010725Y008980D01*
X010762Y008943D01*
X010762Y008907D01*
X010725Y008870D01*
X010836Y008760D02*
X010983Y008760D01*
X010910Y008760D02*
X010910Y008980D01*
X010983Y008907D01*
X011057Y008870D02*
X011204Y008870D01*
X011094Y008980D01*
X011094Y008760D01*
X011278Y008797D02*
X011315Y008760D01*
X011388Y008760D01*
X011425Y008797D01*
X011499Y008760D02*
X011646Y008760D01*
X011499Y008907D01*
X011499Y008943D01*
X011536Y008980D01*
X011609Y008980D01*
X011646Y008943D01*
X011610Y009120D02*
X011683Y009120D01*
X011720Y009157D01*
X011720Y009230D02*
X011646Y009267D01*
X011610Y009267D01*
X011573Y009230D01*
X011573Y009157D01*
X011610Y009120D01*
X011499Y009157D02*
X011462Y009120D01*
X011425Y009120D01*
X011389Y009157D01*
X011389Y009340D01*
X011425Y009340D02*
X011352Y009340D01*
X011278Y009303D02*
X011278Y009157D01*
X011131Y009303D01*
X011131Y009157D01*
X011168Y009120D01*
X011241Y009120D01*
X011278Y009157D01*
X011278Y009303D02*
X011241Y009340D01*
X011168Y009340D01*
X011131Y009303D01*
X011057Y009303D02*
X011020Y009340D01*
X010947Y009340D01*
X010910Y009303D01*
X011057Y009157D01*
X011020Y009120D01*
X010947Y009120D01*
X010910Y009157D01*
X010910Y009303D01*
X010836Y009267D02*
X010762Y009340D01*
X010762Y009120D01*
X010689Y009120D02*
X010836Y009120D01*
X011057Y009157D02*
X011057Y009303D01*
X011094Y009480D02*
X011241Y009480D01*
X011167Y009480D02*
X011167Y009700D01*
X011241Y009627D01*
X011315Y009663D02*
X011352Y009700D01*
X011425Y009700D01*
X011462Y009663D01*
X011462Y009517D01*
X011425Y009480D01*
X011352Y009480D01*
X011315Y009517D01*
X011536Y009517D02*
X011573Y009480D01*
X011646Y009480D01*
X011683Y009517D01*
X011683Y009663D01*
X011646Y009700D01*
X011573Y009700D01*
X011536Y009663D01*
X011536Y009840D02*
X011462Y009840D01*
X011426Y009877D01*
X011351Y009840D02*
X011205Y009840D01*
X011278Y009840D02*
X011278Y010060D01*
X011351Y009987D01*
X011426Y010023D02*
X011462Y010060D01*
X011536Y010060D01*
X011572Y010023D01*
X011572Y009877D01*
X011536Y009840D01*
X011646Y009877D02*
X011683Y009840D01*
X011757Y009840D01*
X011793Y009877D01*
X011793Y010023D01*
X011757Y010060D01*
X011683Y010060D01*
X011646Y010023D01*
X011867Y010060D02*
X011941Y009987D01*
X011941Y009913D01*
X011867Y009840D01*
X011757Y009700D02*
X011830Y009627D01*
X011830Y009553D01*
X011757Y009480D01*
X011720Y009340D02*
X011720Y009230D01*
X011720Y009340D02*
X011573Y009340D01*
X011867Y009340D02*
X011867Y009120D01*
X011794Y009120D02*
X011941Y009120D01*
X012015Y009157D02*
X012052Y009120D01*
X012125Y009120D01*
X012162Y009157D01*
X012162Y009303D01*
X012125Y009340D01*
X012052Y009340D01*
X012015Y009303D01*
X011941Y009267D02*
X011867Y009340D01*
X012125Y009480D02*
X012272Y009480D01*
X012125Y009627D01*
X012272Y009627D01*
X012346Y009590D02*
X012493Y009590D01*
X012493Y009480D02*
X012493Y009700D01*
X012567Y009700D02*
X012567Y009480D01*
X012567Y009340D02*
X012493Y009340D01*
X012457Y009303D01*
X012604Y009157D01*
X012567Y009120D01*
X012493Y009120D01*
X012457Y009157D01*
X012457Y009303D01*
X012383Y009340D02*
X012272Y009340D01*
X012236Y009303D01*
X012236Y009230D01*
X012272Y009193D01*
X012383Y009193D01*
X012383Y009120D02*
X012383Y009340D01*
X012346Y009480D02*
X012346Y009700D01*
X012383Y009840D02*
X012236Y009840D01*
X012236Y009987D02*
X012383Y009840D01*
X012457Y009840D02*
X012457Y010060D01*
X012383Y009987D02*
X012236Y009987D01*
X012457Y009950D02*
X012604Y009950D01*
X012604Y009840D02*
X012604Y010060D01*
X012678Y010060D02*
X012678Y009840D01*
X012714Y009700D02*
X012641Y009627D01*
X012567Y009700D01*
X012714Y009700D02*
X012714Y009480D01*
X012788Y009517D02*
X012825Y009480D01*
X012898Y009480D01*
X012935Y009517D01*
X012788Y009663D01*
X012788Y009517D01*
X012788Y009663D02*
X012825Y009700D01*
X012898Y009700D01*
X012935Y009663D01*
X012935Y009517D01*
X013009Y009590D02*
X013156Y009590D01*
X013046Y009700D01*
X013046Y009480D01*
X013009Y009340D02*
X013046Y009303D01*
X013046Y009267D01*
X013009Y009230D01*
X012899Y009230D01*
X012899Y009157D02*
X012899Y009303D01*
X012935Y009340D01*
X013009Y009340D01*
X013120Y009303D02*
X013267Y009157D01*
X013230Y009120D01*
X013156Y009120D01*
X013120Y009157D01*
X013120Y009303D01*
X013156Y009340D01*
X013230Y009340D01*
X013267Y009303D01*
X013267Y009157D01*
X013304Y008980D02*
X013377Y008907D01*
X013377Y008833D01*
X013304Y008760D01*
X013230Y008760D02*
X013230Y008980D01*
X013083Y008980D01*
X013156Y008870D02*
X013230Y008870D01*
X013009Y008797D02*
X012972Y008760D01*
X012862Y008760D01*
X012862Y008870D01*
X012899Y008907D01*
X012972Y008907D01*
X012972Y008833D02*
X012862Y008833D01*
X012788Y008833D02*
X012714Y008907D01*
X012678Y008907D01*
X012604Y008907D02*
X012493Y008907D01*
X012457Y008870D01*
X012457Y008760D01*
X012383Y008797D02*
X012383Y008870D01*
X012346Y008907D01*
X012272Y008907D01*
X012236Y008870D01*
X012236Y008833D01*
X012383Y008833D01*
X012383Y008797D02*
X012346Y008760D01*
X012272Y008760D01*
X012162Y008760D02*
X012088Y008760D01*
X012125Y008760D02*
X012125Y008980D01*
X012162Y008980D01*
X012014Y008980D02*
X011978Y008980D01*
X011978Y008760D01*
X012014Y008760D02*
X011941Y008760D01*
X011425Y008943D02*
X011388Y008980D01*
X011315Y008980D01*
X011278Y008943D01*
X011278Y008907D01*
X011315Y008870D01*
X011278Y008833D01*
X011278Y008797D01*
X011315Y008870D02*
X011352Y008870D01*
X011020Y009480D02*
X010873Y009627D01*
X010873Y009663D01*
X010910Y009700D01*
X010983Y009700D01*
X011020Y009663D01*
X010984Y009840D02*
X011130Y009840D01*
X011057Y009840D02*
X011057Y010060D01*
X011130Y009987D01*
X010909Y010023D02*
X010873Y010060D01*
X010799Y010060D01*
X010763Y010023D01*
X010763Y009987D01*
X010909Y009840D01*
X010763Y009840D01*
X010688Y009877D02*
X010542Y010023D01*
X010542Y009877D01*
X010578Y009840D01*
X010652Y009840D01*
X010688Y009877D01*
X010688Y010023D01*
X010652Y010060D01*
X010578Y010060D01*
X010542Y010023D01*
X010467Y010060D02*
X010394Y009987D01*
X010394Y009913D01*
X010467Y009840D01*
X010468Y009700D02*
X010431Y009663D01*
X010578Y009517D01*
X010541Y009480D01*
X010468Y009480D01*
X010431Y009517D01*
X010431Y009663D01*
X010468Y009700D02*
X010541Y009700D01*
X010578Y009663D01*
X010578Y009517D01*
X010652Y009517D02*
X010689Y009480D01*
X010762Y009480D01*
X010799Y009517D01*
X010652Y009663D01*
X010652Y009517D01*
X010652Y009663D02*
X010689Y009700D01*
X010762Y009700D01*
X010799Y009663D01*
X010799Y009517D01*
X010873Y009480D02*
X011020Y009480D01*
X010615Y009303D02*
X010578Y009340D01*
X010505Y009340D01*
X010468Y009303D01*
X010468Y009267D01*
X010505Y009230D01*
X010468Y009193D01*
X010468Y009157D01*
X010505Y009120D01*
X010578Y009120D01*
X010615Y009157D01*
X010541Y009230D02*
X010505Y009230D01*
X010357Y009480D02*
X010283Y009553D01*
X010283Y009627D01*
X010357Y009700D01*
X012567Y009340D02*
X012604Y009303D01*
X012604Y009157D01*
X012678Y009157D02*
X012714Y009120D01*
X012788Y009120D01*
X012825Y009157D01*
X012678Y009303D01*
X012678Y009157D01*
X012678Y009303D02*
X012714Y009340D01*
X012788Y009340D01*
X012825Y009303D01*
X012825Y009157D01*
X012899Y009157D02*
X012935Y009120D01*
X013009Y009120D01*
X013046Y009157D01*
X012972Y008833D02*
X013009Y008797D01*
X012788Y008760D02*
X012788Y008907D01*
X012604Y008907D02*
X012604Y008760D01*
X013561Y009120D02*
X013598Y009120D01*
X013598Y009157D01*
X013561Y009157D01*
X013561Y009120D01*
X013561Y009230D02*
X013598Y009230D01*
X013598Y009267D01*
X013561Y009267D01*
X013561Y009230D01*
X013672Y009120D02*
X013819Y009120D01*
X013746Y009120D02*
X013746Y009340D01*
X013819Y009267D01*
X013893Y009340D02*
X014040Y009340D01*
X014040Y009120D01*
X014040Y009230D02*
X013967Y009230D01*
X014040Y009840D02*
X013893Y010060D01*
X013819Y009987D02*
X013746Y010060D01*
X013746Y009840D01*
X013819Y009840D02*
X013672Y009840D01*
X013598Y009840D02*
X013598Y009877D01*
X013561Y009877D01*
X013561Y009840D01*
X013598Y009840D01*
X013598Y009950D02*
X013598Y009987D01*
X013561Y009987D01*
X013561Y009950D01*
X013598Y009950D01*
X013893Y009840D02*
X014040Y010060D01*
X013267Y010023D02*
X013230Y010060D01*
X013156Y010060D01*
X013120Y010023D01*
X013120Y009987D01*
X013156Y009950D01*
X013120Y009913D01*
X013120Y009877D01*
X013156Y009840D01*
X013230Y009840D01*
X013267Y009877D01*
X013193Y009950D02*
X013156Y009950D01*
X013046Y010023D02*
X013009Y010060D01*
X012935Y010060D01*
X012899Y010023D01*
X012899Y009987D01*
X013046Y009840D01*
X012899Y009840D01*
X012825Y009840D02*
X012825Y010060D01*
X012751Y009987D01*
X012678Y010060D01*
X012643Y006740D02*
X012570Y006740D01*
X012533Y006703D01*
X012533Y006593D01*
X012460Y006593D02*
X012680Y006593D01*
X012680Y006703D01*
X012643Y006740D01*
X012820Y006740D02*
X012820Y006630D01*
X012857Y006593D01*
X012930Y006593D01*
X012967Y006630D01*
X012967Y006740D01*
X013040Y006740D02*
X012820Y006740D01*
X012893Y006482D02*
X012893Y006409D01*
X012930Y006372D01*
X013040Y006372D01*
X013040Y006482D01*
X013003Y006519D01*
X012967Y006482D01*
X012967Y006372D01*
X012930Y006298D02*
X012893Y006261D01*
X012893Y006151D01*
X012967Y006188D02*
X012967Y006261D01*
X012930Y006298D01*
X013040Y006298D02*
X013040Y006188D01*
X013003Y006151D01*
X012967Y006188D01*
X012930Y006077D02*
X012893Y006040D01*
X012893Y005930D01*
X012893Y005856D02*
X012893Y005819D01*
X013040Y005819D01*
X013040Y005783D02*
X013040Y005856D01*
X013003Y005930D02*
X012967Y005967D01*
X012967Y006040D01*
X012930Y006077D01*
X013040Y006077D02*
X013040Y005967D01*
X013003Y005930D01*
X012820Y005819D02*
X012783Y005819D01*
X012753Y005820D02*
X012753Y005856D01*
X012753Y005820D02*
X012717Y005783D01*
X012533Y005783D01*
X012533Y005893D01*
X012570Y005930D01*
X012643Y005930D01*
X012680Y005893D01*
X012680Y005783D01*
X012680Y005709D02*
X012533Y005709D01*
X012533Y005599D01*
X012570Y005562D01*
X012680Y005562D01*
X012893Y005562D02*
X013040Y005635D01*
X012893Y005709D01*
X012930Y005488D02*
X012893Y005451D01*
X012893Y005378D01*
X012930Y005341D01*
X012967Y005341D01*
X012967Y005488D01*
X013003Y005488D02*
X012930Y005488D01*
X013003Y005488D02*
X013040Y005451D01*
X013040Y005378D01*
X013040Y005267D02*
X013040Y005157D01*
X013003Y005120D01*
X012967Y005157D01*
X012967Y005230D01*
X012930Y005267D01*
X012893Y005230D01*
X012893Y005120D01*
X012680Y005119D02*
X012680Y005009D01*
X012643Y004973D01*
X012607Y005009D01*
X012607Y005083D01*
X012570Y005119D01*
X012533Y005083D01*
X012533Y004973D01*
X012533Y004898D02*
X012643Y004898D01*
X012680Y004862D01*
X012643Y004825D01*
X012680Y004788D01*
X012643Y004752D01*
X012533Y004752D01*
X012533Y004677D02*
X012680Y004677D01*
X012607Y004677D02*
X012533Y004604D01*
X012533Y004567D01*
X012570Y004493D02*
X012533Y004457D01*
X012533Y004346D01*
X012497Y004272D02*
X012460Y004236D01*
X012460Y004162D01*
X012497Y004126D01*
X012533Y004126D01*
X012680Y004272D01*
X012680Y004126D01*
X012680Y004051D02*
X012533Y003905D01*
X012497Y003905D01*
X012460Y003941D01*
X012460Y004015D01*
X012497Y004051D01*
X012393Y004051D02*
X012173Y004051D01*
X012173Y003941D01*
X012210Y003905D01*
X012283Y003905D01*
X012320Y003941D01*
X012320Y004051D01*
X012283Y003830D02*
X012210Y003830D01*
X012173Y003794D01*
X012173Y003720D01*
X012210Y003684D01*
X012247Y003684D01*
X012247Y003830D01*
X012283Y003830D02*
X012320Y003794D01*
X012320Y003720D01*
X012320Y003609D02*
X012173Y003609D01*
X012173Y003536D02*
X012173Y003499D01*
X012173Y003536D02*
X012247Y003609D01*
X012460Y003720D02*
X012460Y003794D01*
X012497Y003830D01*
X012460Y003720D02*
X012497Y003684D01*
X012533Y003684D01*
X012680Y003830D01*
X012680Y003684D01*
X012680Y003609D02*
X012680Y003573D01*
X012643Y003573D01*
X012643Y003609D01*
X012680Y003609D01*
X012680Y003499D02*
X012680Y003352D01*
X012680Y003278D02*
X012680Y003204D01*
X012680Y003241D02*
X012533Y003241D01*
X012533Y003278D01*
X012533Y003352D02*
X012680Y003499D01*
X012533Y003499D02*
X012533Y003352D01*
X012460Y003241D02*
X012423Y003241D01*
X012320Y003204D02*
X012173Y003204D01*
X012173Y003131D02*
X012247Y003204D01*
X012173Y003131D02*
X012173Y003094D01*
X012210Y003020D02*
X012173Y002983D01*
X012173Y002910D01*
X012210Y002873D01*
X012247Y002873D01*
X012247Y003020D01*
X012283Y003020D02*
X012210Y003020D01*
X012283Y003020D02*
X012320Y002983D01*
X012320Y002910D01*
X012460Y002910D02*
X012533Y002836D01*
X012607Y002836D01*
X012680Y002910D01*
X012643Y002984D02*
X012680Y003020D01*
X012680Y003131D01*
X012753Y003131D02*
X012533Y003131D01*
X012533Y003020D01*
X012570Y002984D01*
X012643Y002984D01*
X012820Y002873D02*
X012857Y002947D01*
X012930Y003020D01*
X012930Y002910D01*
X012967Y002873D01*
X013003Y002873D01*
X013040Y002910D01*
X013040Y002983D01*
X013003Y003020D01*
X012930Y003020D01*
X012857Y003094D02*
X013003Y003094D01*
X013040Y003131D01*
X013040Y003204D01*
X013003Y003241D01*
X012857Y003094D01*
X012820Y003131D01*
X012820Y003204D01*
X012857Y003241D01*
X013003Y003241D01*
X013040Y003536D02*
X013040Y003609D01*
X013040Y003573D02*
X012820Y003573D01*
X012820Y003609D01*
X012820Y003720D02*
X013040Y003720D01*
X013040Y003757D02*
X013040Y003683D01*
X013040Y003831D02*
X013040Y003941D01*
X013003Y003978D01*
X012967Y003941D01*
X012967Y003831D01*
X012930Y003831D02*
X013040Y003831D01*
X012930Y003831D02*
X012893Y003868D01*
X012893Y003941D01*
X012820Y003757D02*
X012820Y003720D01*
X012680Y003905D02*
X012680Y004051D01*
X012680Y004346D02*
X012680Y004457D01*
X012643Y004493D01*
X012570Y004493D01*
X012893Y004494D02*
X012893Y004530D01*
X012967Y004604D01*
X013040Y004604D02*
X012893Y004604D01*
X012930Y004678D02*
X013040Y004678D01*
X013040Y004788D01*
X013003Y004825D01*
X012967Y004788D01*
X012967Y004678D01*
X012930Y004678D02*
X012893Y004715D01*
X012893Y004788D01*
X012930Y004420D02*
X012893Y004383D01*
X012893Y004310D01*
X012930Y004273D01*
X012967Y004273D01*
X012967Y004420D01*
X013003Y004420D02*
X012930Y004420D01*
X013003Y004420D02*
X013040Y004383D01*
X013040Y004310D01*
X012320Y004383D02*
X012283Y004346D01*
X012247Y004383D01*
X012247Y004457D01*
X012210Y004493D01*
X012173Y004457D01*
X012173Y004346D01*
X012320Y004383D02*
X012320Y004493D01*
X012247Y004567D02*
X012247Y004714D01*
X012283Y004714D02*
X012210Y004714D01*
X012173Y004678D01*
X012173Y004604D01*
X012210Y004567D01*
X012247Y004567D01*
X012320Y004604D02*
X012320Y004678D01*
X012283Y004714D01*
X012320Y004788D02*
X012173Y004788D01*
X012320Y004788D02*
X012320Y004899D01*
X012283Y004935D01*
X012173Y004935D01*
X012100Y005046D02*
X012320Y005046D01*
X012320Y005083D02*
X012320Y005009D01*
X012320Y005157D02*
X012320Y005267D01*
X012283Y005304D01*
X012247Y005267D01*
X012247Y005157D01*
X012210Y005157D02*
X012320Y005157D01*
X012210Y005157D02*
X012173Y005193D01*
X012173Y005267D01*
X012173Y005378D02*
X012320Y005451D01*
X012173Y005525D01*
X012173Y005820D02*
X012173Y005856D01*
X012247Y005930D01*
X012320Y005930D02*
X012173Y005930D01*
X012210Y006004D02*
X012247Y006004D01*
X012247Y006151D01*
X012283Y006151D02*
X012210Y006151D01*
X012173Y006114D01*
X012173Y006041D01*
X012210Y006004D01*
X012320Y006041D02*
X012320Y006114D01*
X012283Y006151D01*
X012320Y006225D02*
X012210Y006225D01*
X012173Y006262D01*
X012173Y006335D01*
X012210Y006372D01*
X012173Y006446D02*
X012173Y006519D01*
X012137Y006482D02*
X012283Y006482D01*
X012320Y006446D01*
X012320Y006372D02*
X012100Y006372D01*
X012137Y006593D02*
X012100Y006630D01*
X012100Y006703D01*
X012137Y006740D01*
X012283Y006740D01*
X012320Y006703D01*
X012320Y006630D01*
X012283Y006593D01*
X012137Y006593D01*
X012533Y006482D02*
X012533Y006409D01*
X012570Y006372D01*
X012607Y006372D01*
X012607Y006519D01*
X012643Y006519D02*
X012570Y006519D01*
X012533Y006482D01*
X012643Y006519D02*
X012680Y006482D01*
X012680Y006409D01*
X012680Y006298D02*
X012680Y006188D01*
X012643Y006151D01*
X012607Y006188D01*
X012607Y006261D01*
X012570Y006298D01*
X012533Y006261D01*
X012533Y006151D01*
X012533Y006077D02*
X012533Y006040D01*
X012680Y006040D01*
X012680Y006004D02*
X012680Y006077D01*
X012460Y006040D02*
X012423Y006040D01*
X012533Y005267D02*
X012460Y005193D01*
X012533Y005267D02*
X012607Y005267D01*
X012680Y005193D01*
X012100Y005083D02*
X012100Y005046D01*
X012210Y002799D02*
X012210Y002726D01*
X012137Y002762D02*
X012320Y002762D01*
X012137Y002762D02*
X012100Y002726D01*
X012820Y002762D02*
X012820Y002689D01*
X012857Y002652D01*
X013003Y002799D01*
X013040Y002762D01*
X013040Y002689D01*
X013003Y002652D01*
X012857Y002652D01*
X012857Y002578D02*
X012820Y002541D01*
X012820Y002468D01*
X012857Y002431D01*
X012893Y002431D01*
X012930Y002468D01*
X012967Y002431D01*
X013003Y002431D01*
X013040Y002468D01*
X013040Y002541D01*
X013003Y002578D01*
X012930Y002505D02*
X012930Y002468D01*
X012820Y002762D02*
X012857Y002799D01*
X013003Y002799D01*
X008833Y014340D02*
X008906Y014413D01*
X008906Y014487D01*
X008833Y014560D01*
X008758Y014523D02*
X008722Y014560D01*
X008648Y014560D01*
X008612Y014523D01*
X008758Y014377D01*
X008758Y014523D01*
X008612Y014523D02*
X008612Y014377D01*
X008648Y014340D01*
X008722Y014340D01*
X008758Y014377D01*
X008537Y014377D02*
X008537Y014413D01*
X008391Y014560D01*
X008537Y014560D01*
X008538Y014700D02*
X008501Y014737D01*
X008501Y014883D01*
X008648Y014737D01*
X008648Y014883D01*
X008611Y014920D01*
X008538Y014920D01*
X008501Y014883D01*
X008427Y014920D02*
X008280Y014920D01*
X008427Y014773D01*
X008427Y014737D01*
X008390Y014700D01*
X008317Y014700D01*
X008280Y014737D01*
X008133Y014700D02*
X008133Y014920D01*
X008206Y014920D02*
X008059Y014920D01*
X007985Y014883D02*
X007948Y014920D01*
X007875Y014920D01*
X007838Y014883D01*
X007838Y014737D01*
X007875Y014700D01*
X007948Y014700D01*
X007985Y014737D01*
X008059Y014773D02*
X008133Y014700D01*
X008170Y014560D02*
X008316Y014560D01*
X008243Y014560D02*
X008243Y014340D01*
X008170Y014413D01*
X008095Y014560D02*
X007949Y014560D01*
X008022Y014560D02*
X008022Y014340D01*
X007949Y014413D01*
X007874Y014377D02*
X007838Y014340D01*
X007764Y014340D01*
X007728Y014377D01*
X007728Y014523D01*
X007764Y014560D01*
X007838Y014560D01*
X007874Y014523D01*
X007654Y014523D02*
X007617Y014560D01*
X007543Y014560D01*
X007507Y014523D01*
X007507Y014377D01*
X007543Y014340D01*
X007617Y014340D01*
X007654Y014377D01*
X007433Y014340D02*
X007359Y014413D01*
X007359Y014487D01*
X007433Y014560D01*
X007543Y014700D02*
X007470Y014773D01*
X007470Y014847D01*
X007543Y014920D01*
X007617Y014883D02*
X007654Y014920D01*
X007727Y014920D01*
X007764Y014883D01*
X007764Y014737D02*
X007727Y014700D01*
X007654Y014700D01*
X007617Y014737D01*
X007617Y014883D01*
X007580Y015060D02*
X007580Y015170D01*
X007654Y015133D01*
X007690Y015133D01*
X007727Y015170D01*
X007727Y015243D01*
X007690Y015280D01*
X007617Y015280D01*
X007580Y015243D01*
X007506Y015280D02*
X007359Y015280D01*
X007433Y015280D02*
X007433Y015060D01*
X007359Y015133D01*
X007285Y015097D02*
X007248Y015060D01*
X007175Y015060D01*
X007138Y015097D01*
X007138Y015243D01*
X007175Y015280D01*
X007248Y015280D01*
X007285Y015243D01*
X007286Y015420D02*
X007322Y015420D01*
X007322Y015640D01*
X007286Y015640D02*
X007359Y015640D01*
X007212Y015640D02*
X007138Y015640D01*
X007175Y015640D02*
X007175Y015420D01*
X007138Y015420D01*
X007064Y015530D02*
X007064Y015567D01*
X006917Y015567D01*
X006917Y015603D02*
X006917Y015530D01*
X006954Y015493D01*
X007028Y015493D01*
X007064Y015530D01*
X007028Y015640D02*
X006954Y015640D01*
X006917Y015603D01*
X006843Y015640D02*
X006843Y015530D01*
X006807Y015493D01*
X006696Y015493D01*
X006696Y015640D01*
X006622Y015493D02*
X006586Y015493D01*
X006512Y015567D01*
X006512Y015640D02*
X006512Y015493D01*
X006438Y015530D02*
X006438Y015640D01*
X006328Y015640D01*
X006291Y015603D01*
X006328Y015567D01*
X006438Y015567D01*
X006438Y015530D02*
X006401Y015493D01*
X006328Y015493D01*
X006217Y015420D02*
X006070Y015420D01*
X006070Y015640D01*
X005996Y015640D02*
X005923Y015567D01*
X005923Y015493D01*
X005996Y015420D01*
X006070Y015530D02*
X006144Y015530D01*
X006144Y015280D02*
X006070Y015280D01*
X006033Y015243D01*
X006180Y015097D01*
X006180Y015243D01*
X006144Y015280D01*
X006254Y015243D02*
X006291Y015280D01*
X006365Y015280D01*
X006401Y015243D01*
X006401Y015097D01*
X006365Y015060D01*
X006291Y015060D01*
X006254Y015097D01*
X006254Y015133D01*
X006291Y015170D01*
X006401Y015170D01*
X006475Y015243D02*
X006622Y015097D01*
X006622Y015243D01*
X006586Y015280D01*
X006512Y015280D01*
X006475Y015243D01*
X006475Y015097D01*
X006512Y015060D01*
X006586Y015060D01*
X006622Y015097D01*
X006696Y015097D02*
X006696Y015243D01*
X006843Y015097D01*
X006843Y015243D01*
X006807Y015280D01*
X006733Y015280D01*
X006696Y015243D01*
X006696Y015097D02*
X006733Y015060D01*
X006807Y015060D01*
X006843Y015097D01*
X006917Y015060D02*
X006917Y015280D01*
X006917Y015207D02*
X007028Y015207D01*
X007064Y015170D01*
X007064Y015097D01*
X007028Y015060D01*
X006917Y015060D01*
X006954Y014920D02*
X006954Y014700D01*
X007028Y014773D02*
X007175Y014773D01*
X007028Y014920D01*
X007175Y014920D01*
X006954Y014810D02*
X006807Y014810D01*
X006807Y014920D02*
X006807Y014700D01*
X006733Y014700D02*
X006733Y014920D01*
X006586Y014920D02*
X006586Y014700D01*
X006659Y014773D01*
X006733Y014700D01*
X006696Y014560D02*
X006696Y014340D01*
X006622Y014340D02*
X006622Y014560D01*
X006696Y014450D02*
X006843Y014450D01*
X006917Y014413D02*
X007064Y014413D01*
X006917Y014560D01*
X007064Y014560D01*
X006843Y014560D02*
X006843Y014340D01*
X006622Y014340D02*
X006549Y014413D01*
X006475Y014340D01*
X006475Y014560D01*
X006401Y014560D02*
X006254Y014560D01*
X006401Y014413D01*
X006401Y014377D01*
X006365Y014340D01*
X006291Y014340D01*
X006254Y014377D01*
X006180Y014377D02*
X006180Y014413D01*
X006144Y014450D01*
X006180Y014487D01*
X006180Y014523D01*
X006144Y014560D01*
X006070Y014560D01*
X006033Y014523D01*
X006107Y014450D02*
X006144Y014450D01*
X006180Y014377D02*
X006144Y014340D01*
X006070Y014340D01*
X006033Y014377D01*
X005739Y014413D02*
X005739Y014450D01*
X005702Y014450D01*
X005702Y014413D01*
X005739Y014413D01*
X005739Y014523D02*
X005739Y014560D01*
X005702Y014560D01*
X005702Y014523D01*
X005739Y014523D01*
X005628Y014560D02*
X005481Y014560D01*
X005554Y014560D02*
X005554Y014340D01*
X005481Y014413D01*
X005407Y014340D02*
X005260Y014560D01*
X005407Y014560D02*
X005260Y014340D01*
X005260Y015060D02*
X005407Y015060D01*
X005481Y015133D02*
X005554Y015060D01*
X005554Y015280D01*
X005481Y015280D02*
X005628Y015280D01*
X005702Y015280D02*
X005702Y015243D01*
X005739Y015243D01*
X005739Y015280D01*
X005702Y015280D01*
X005702Y015170D02*
X005702Y015133D01*
X005739Y015133D01*
X005739Y015170D01*
X005702Y015170D01*
X006033Y015243D02*
X006033Y015097D01*
X006070Y015060D01*
X006144Y015060D01*
X006180Y015097D01*
X006254Y014920D02*
X006254Y014700D01*
X006144Y014810D01*
X006291Y014810D01*
X006365Y014883D02*
X006365Y014737D01*
X006402Y014700D01*
X006475Y014700D01*
X006512Y014737D01*
X006365Y014883D01*
X006402Y014920D01*
X006475Y014920D01*
X006512Y014883D01*
X006512Y014737D01*
X007580Y015060D02*
X007727Y015060D01*
X007875Y015060D02*
X007948Y015060D01*
X007911Y015060D02*
X007911Y015243D01*
X007875Y015280D01*
X007838Y015280D01*
X007801Y015243D01*
X007764Y015420D02*
X007691Y015420D01*
X007654Y015457D01*
X007764Y015420D02*
X007801Y015457D01*
X007801Y015493D01*
X007654Y015640D01*
X007801Y015640D01*
X007875Y015603D02*
X007912Y015640D01*
X007985Y015640D01*
X008022Y015603D01*
X008022Y015567D01*
X007985Y015530D01*
X007948Y015530D01*
X007985Y015530D02*
X008022Y015493D01*
X008022Y015457D01*
X007985Y015420D01*
X007912Y015420D01*
X007875Y015457D01*
X008096Y015530D02*
X008243Y015530D01*
X008317Y015493D02*
X008390Y015420D01*
X008390Y015640D01*
X008317Y015640D02*
X008464Y015640D01*
X008538Y015603D02*
X008538Y015567D01*
X008575Y015530D01*
X008648Y015530D01*
X008685Y015567D01*
X008685Y015603D01*
X008648Y015640D01*
X008575Y015640D01*
X008538Y015603D01*
X008575Y015530D02*
X008538Y015493D01*
X008538Y015457D01*
X008575Y015420D01*
X008648Y015420D01*
X008685Y015457D01*
X008685Y015493D01*
X008648Y015530D01*
X008759Y015493D02*
X008796Y015530D01*
X008906Y015530D01*
X008906Y015603D02*
X008906Y015457D01*
X008869Y015420D01*
X008796Y015420D01*
X008759Y015457D01*
X008759Y015493D01*
X008759Y015603D02*
X008796Y015640D01*
X008869Y015640D01*
X008906Y015603D01*
X008980Y015530D02*
X009127Y015530D01*
X009090Y015640D02*
X009090Y015420D01*
X008980Y015530D01*
X009201Y015640D02*
X009274Y015567D01*
X009274Y015493D01*
X009201Y015420D01*
X008832Y015243D02*
X008795Y015280D01*
X008722Y015280D01*
X008685Y015243D01*
X008611Y015280D02*
X008464Y015280D01*
X008538Y015280D02*
X008538Y015060D01*
X008464Y015133D01*
X008390Y015097D02*
X008390Y015243D01*
X008353Y015280D01*
X008280Y015280D01*
X008243Y015243D01*
X008390Y015097D01*
X008353Y015060D01*
X008280Y015060D01*
X008243Y015097D01*
X008243Y015243D01*
X008169Y015243D02*
X008132Y015280D01*
X008059Y015280D01*
X008022Y015243D01*
X008169Y015097D01*
X008169Y015243D01*
X008169Y015097D02*
X008132Y015060D01*
X008059Y015060D01*
X008022Y015097D01*
X008022Y015243D01*
X008206Y015420D02*
X008096Y015530D01*
X008206Y015640D02*
X008206Y015420D01*
X008685Y015097D02*
X008722Y015060D01*
X008795Y015060D01*
X008832Y015097D01*
X008832Y015133D01*
X008795Y015170D01*
X008832Y015207D01*
X008832Y015243D01*
X008795Y015170D02*
X008759Y015170D01*
X008759Y014920D02*
X008722Y014883D01*
X008869Y014737D01*
X008869Y014883D01*
X008832Y014920D01*
X008759Y014920D01*
X008722Y014883D02*
X008722Y014737D01*
X008759Y014700D01*
X008832Y014700D01*
X008869Y014737D01*
X008943Y014700D02*
X009017Y014773D01*
X009017Y014847D01*
X008943Y014920D01*
X008648Y014737D02*
X008611Y014700D01*
X008538Y014700D01*
X008537Y014377D02*
X008501Y014340D01*
X008427Y014340D01*
X008391Y014377D01*
X007163Y017660D02*
X007017Y017660D01*
X006980Y017697D01*
X006980Y017770D01*
X007017Y017807D01*
X007163Y017807D01*
X007200Y017770D01*
X007200Y017697D01*
X007163Y017660D01*
X007127Y017881D02*
X007127Y017954D01*
X007163Y017918D02*
X007017Y017918D01*
X006980Y017954D01*
X006980Y018028D02*
X007200Y018028D01*
X007127Y018065D02*
X007090Y018028D01*
X007127Y018065D02*
X007127Y018138D01*
X007090Y018175D01*
X006980Y018175D01*
X007017Y018249D02*
X007090Y018249D01*
X007127Y018286D01*
X007127Y018359D01*
X007090Y018396D01*
X007053Y018396D01*
X007053Y018249D01*
X007017Y018249D02*
X006980Y018286D01*
X006980Y018359D01*
X006877Y018360D02*
X006840Y018360D01*
X006767Y018360D02*
X006620Y018360D01*
X006620Y018396D02*
X006620Y018323D01*
X006657Y018249D02*
X006693Y018212D01*
X006693Y018139D01*
X006730Y018102D01*
X006767Y018139D01*
X006767Y018249D01*
X006767Y018323D02*
X006767Y018360D01*
X006730Y018470D02*
X006657Y018470D01*
X006620Y018507D01*
X006620Y018617D01*
X006583Y018617D02*
X006767Y018617D01*
X006767Y018507D01*
X006730Y018470D01*
X006547Y018544D02*
X006547Y018580D01*
X006583Y018617D01*
X006517Y018581D02*
X006480Y018581D01*
X006407Y018581D02*
X006260Y018581D01*
X006260Y018617D02*
X006260Y018544D01*
X006297Y018470D02*
X006260Y018433D01*
X006260Y018323D01*
X006333Y018360D02*
X006370Y018323D01*
X006407Y018360D01*
X006407Y018470D01*
X006407Y018544D02*
X006407Y018581D01*
X006407Y018691D02*
X006260Y018765D01*
X006407Y018838D01*
X006370Y018912D02*
X006407Y018949D01*
X006407Y019022D01*
X006370Y019059D01*
X006333Y019059D01*
X006333Y018912D01*
X006297Y018912D02*
X006370Y018912D01*
X006297Y018912D02*
X006260Y018949D01*
X006260Y019022D01*
X006260Y019133D02*
X006260Y019243D01*
X006297Y019280D01*
X006333Y019243D01*
X006333Y019170D01*
X006370Y019133D01*
X006407Y019170D01*
X006407Y019280D01*
X006620Y019281D02*
X006620Y019391D01*
X006657Y019427D01*
X006693Y019391D01*
X006693Y019317D01*
X006730Y019281D01*
X006767Y019317D01*
X006767Y019427D01*
X006767Y019502D02*
X006657Y019502D01*
X006620Y019538D01*
X006657Y019575D01*
X006620Y019612D01*
X006657Y019648D01*
X006767Y019648D01*
X006767Y019723D02*
X006620Y019723D01*
X006693Y019723D02*
X006767Y019796D01*
X006767Y019833D01*
X006730Y019907D02*
X006657Y019907D01*
X006620Y019943D01*
X006620Y020054D01*
X006620Y020128D02*
X006767Y020274D01*
X006803Y020274D01*
X006840Y020238D01*
X006840Y020164D01*
X006803Y020128D01*
X006767Y020054D02*
X006767Y019943D01*
X006730Y019907D01*
X006620Y020128D02*
X006620Y020274D01*
X006620Y020349D02*
X006767Y020495D01*
X006803Y020495D01*
X006840Y020459D01*
X006840Y020385D01*
X006803Y020349D01*
X006907Y020349D02*
X007127Y020349D01*
X007127Y020459D01*
X007090Y020495D01*
X007017Y020495D01*
X006980Y020459D01*
X006980Y020349D01*
X007017Y020570D02*
X007090Y020570D01*
X007127Y020606D01*
X007127Y020680D01*
X007090Y020716D01*
X007053Y020716D01*
X007053Y020570D01*
X007017Y020570D02*
X006980Y020606D01*
X006980Y020680D01*
X006980Y020791D02*
X007127Y020791D01*
X007127Y020864D02*
X007127Y020901D01*
X007127Y020864D02*
X007053Y020791D01*
X006840Y020680D02*
X006840Y020606D01*
X006803Y020570D01*
X006840Y020680D02*
X006803Y020716D01*
X006767Y020716D01*
X006620Y020570D01*
X006620Y020716D01*
X006620Y020791D02*
X006620Y020827D01*
X006657Y020827D01*
X006657Y020791D01*
X006620Y020791D01*
X006620Y020901D02*
X006620Y021048D01*
X006620Y021122D02*
X006620Y021196D01*
X006620Y021159D02*
X006767Y021159D01*
X006767Y021122D01*
X006767Y021048D02*
X006620Y020901D01*
X006767Y020901D02*
X006767Y021048D01*
X006840Y021159D02*
X006877Y021159D01*
X006980Y021196D02*
X007127Y021196D01*
X007127Y021269D02*
X007127Y021306D01*
X007127Y021269D02*
X007053Y021196D01*
X007053Y021380D02*
X007053Y021527D01*
X007090Y021527D01*
X007127Y021490D01*
X007127Y021417D01*
X007090Y021380D01*
X007017Y021380D01*
X006980Y021417D01*
X006980Y021490D01*
X006840Y021490D02*
X006767Y021564D01*
X006693Y021564D01*
X006620Y021490D01*
X006657Y021416D02*
X006620Y021380D01*
X006620Y021269D01*
X006547Y021269D02*
X006767Y021269D01*
X006767Y021380D01*
X006730Y021416D01*
X006657Y021416D01*
X006480Y021527D02*
X006443Y021453D01*
X006370Y021380D01*
X006370Y021490D01*
X006333Y021527D01*
X006297Y021527D01*
X006260Y021490D01*
X006260Y021417D01*
X006297Y021380D01*
X006370Y021380D01*
X006297Y021306D02*
X006260Y021269D01*
X006260Y021196D01*
X006297Y021159D01*
X006443Y021306D01*
X006297Y021306D01*
X006443Y021306D02*
X006480Y021269D01*
X006480Y021196D01*
X006443Y021159D01*
X006297Y021159D01*
X006260Y020864D02*
X006260Y020791D01*
X006260Y020827D02*
X006480Y020827D01*
X006480Y020791D01*
X006480Y020680D02*
X006260Y020680D01*
X006260Y020643D02*
X006260Y020717D01*
X006260Y020569D02*
X006260Y020459D01*
X006297Y020422D01*
X006333Y020459D01*
X006333Y020569D01*
X006370Y020569D02*
X006260Y020569D01*
X006370Y020569D02*
X006407Y020532D01*
X006407Y020459D01*
X006480Y020643D02*
X006480Y020680D01*
X006620Y020495D02*
X006620Y020349D01*
X006370Y020127D02*
X006333Y020127D01*
X006333Y019980D01*
X006297Y019980D02*
X006370Y019980D01*
X006407Y020017D01*
X006407Y020090D01*
X006370Y020127D01*
X006260Y020090D02*
X006260Y020017D01*
X006297Y019980D01*
X006407Y019906D02*
X006407Y019870D01*
X006333Y019796D01*
X006260Y019796D02*
X006407Y019796D01*
X006370Y019722D02*
X006260Y019722D01*
X006260Y019612D01*
X006297Y019575D01*
X006333Y019612D01*
X006333Y019722D01*
X006370Y019722D02*
X006407Y019685D01*
X006407Y019612D01*
X006620Y019207D02*
X006693Y019133D01*
X006767Y019133D01*
X006840Y019207D01*
X006980Y019243D02*
X006980Y019133D01*
X007017Y019096D01*
X007053Y019133D01*
X007053Y019243D01*
X007090Y019243D02*
X006980Y019243D01*
X006980Y019317D02*
X006980Y019391D01*
X006980Y019354D02*
X007200Y019354D01*
X007200Y019317D01*
X007127Y019207D02*
X007090Y019243D01*
X007127Y019207D02*
X007127Y019133D01*
X007127Y019022D02*
X006980Y018949D01*
X007127Y018875D01*
X007127Y018580D02*
X007127Y018544D01*
X007053Y018470D01*
X006980Y018470D02*
X007127Y018470D01*
X006767Y018691D02*
X006767Y018801D01*
X006730Y018838D01*
X006620Y018838D01*
X006620Y018691D02*
X006767Y018691D01*
X006657Y018249D02*
X006620Y018212D01*
X006620Y018102D01*
X006693Y018028D02*
X006693Y017881D01*
X006657Y017881D02*
X006730Y017881D01*
X006767Y017918D01*
X006767Y017991D01*
X006730Y018028D01*
X006693Y018028D01*
X006620Y017991D02*
X006620Y017918D01*
X006657Y017881D01*
X006620Y017807D02*
X006620Y017697D01*
X006657Y017660D01*
X006730Y017660D01*
X006767Y017697D01*
X006767Y017807D01*
X006840Y017807D02*
X006620Y017807D01*
X006480Y017770D02*
X006443Y017807D01*
X006370Y017807D01*
X006333Y017770D01*
X006333Y017660D01*
X006260Y017660D02*
X006480Y017660D01*
X006480Y017770D01*
X006407Y017918D02*
X006407Y017991D01*
X006370Y018028D01*
X006260Y018028D01*
X006260Y017918D01*
X006297Y017881D01*
X006333Y017918D01*
X006333Y018028D01*
X006370Y018102D02*
X006407Y018139D01*
X006407Y018249D01*
X006333Y018212D02*
X006333Y018139D01*
X006370Y018102D01*
X006260Y018102D02*
X006260Y018212D01*
X006297Y018249D01*
X006333Y018212D01*
X006333Y018360D02*
X006333Y018433D01*
X006297Y018470D01*
X007017Y019465D02*
X006980Y019501D01*
X006980Y019612D01*
X007127Y019612D01*
X007090Y019686D02*
X007127Y019722D01*
X007127Y019796D01*
X007090Y019833D01*
X007053Y019833D01*
X007053Y019686D01*
X007017Y019686D02*
X007090Y019686D01*
X007017Y019686D02*
X006980Y019722D01*
X006980Y019796D01*
X006980Y019907D02*
X006980Y020017D01*
X007017Y020054D01*
X007053Y020017D01*
X007053Y019943D01*
X007090Y019907D01*
X007127Y019943D01*
X007127Y020054D01*
X007127Y019465D02*
X007017Y019465D01*
X007090Y021601D02*
X007090Y021674D01*
X007163Y021638D02*
X007200Y021674D01*
X007163Y021638D02*
X006980Y021638D01*
X006480Y021638D02*
X006480Y021711D01*
X006443Y021748D01*
X006297Y021601D01*
X006260Y021638D01*
X006260Y021711D01*
X006297Y021748D01*
X006443Y021748D01*
X006443Y021822D02*
X006480Y021859D01*
X006480Y021932D01*
X006443Y021969D01*
X006407Y021969D01*
X006370Y021932D01*
X006333Y021969D01*
X006297Y021969D01*
X006260Y021932D01*
X006260Y021859D01*
X006297Y021822D01*
X006370Y021895D02*
X006370Y021932D01*
X006480Y021638D02*
X006443Y021601D01*
X006297Y021601D01*
X005260Y015280D02*
X005260Y015060D01*
X005260Y015170D02*
X005333Y015170D01*
M02*
