%
M48
M72
T01C0.0120
T02C0.0197
T03C0.0260
T04C0.0400
%
T01
X850Y2650
X850Y3250
X850Y3850
X850Y4450
X1350Y4750
X1350Y5050
X850Y5050
X850Y5650
X1350Y5650
X1350Y6250
X850Y6250
X800Y6850
X800Y7450
X1183Y7749
X1393Y7439
X1393Y7169
X1393Y6899
X850Y8050
X850Y8650
X1150Y8650
X1450Y8650
X1703Y8329
X1450Y9250
X1150Y9250
X850Y9250
X850Y9850
X1150Y9850
X1450Y9850
X1450Y10450
X850Y10450
X1650Y11650
X2650Y11650
X2253Y10379
X2050Y10090
X2950Y9550
X3300Y9900
X3750Y9900
X3650Y10440
X3447Y9428
X3323Y8049
X3323Y7709
X3323Y7369
X3323Y7029
X3663Y7029
X4003Y7029
X4013Y7369
X4003Y7709
X3663Y7709
X3663Y7369
X3663Y8049
X4003Y8049
X4343Y8049
X4343Y7709
X4343Y7369
X4343Y7029
X4933Y6549
X5350Y6150
X5800Y6150
X6250Y6150
X6250Y5450
X5800Y5450
X5850Y5050
X5350Y4750
X5850Y4450
X5850Y3850
X5850Y3250
X5850Y2650
X6550Y2650
X7250Y2650
X7950Y2650
X8650Y2650
X8650Y3250
X8650Y3850
X8650Y4450
X8650Y5050
X7950Y5050
X7250Y5050
X6550Y5050
X6550Y3850
X7250Y3850
X7950Y3850
X9750Y3700
X9750Y4250
X9750Y4750
X10250Y4750
X10750Y4750
X11250Y4750
X11700Y4748
X11888Y5160
X11878Y5763
X11808Y6333
X11523Y6619
X11450Y7550
X12323Y7709
X12323Y7369
X12323Y7029
X12663Y7029
X12663Y7369
X12663Y7709
X12663Y8049
X12323Y8049
X13003Y8049
X13343Y8049
X13343Y7709
X13003Y7709
X13013Y7369
X13343Y7369
X13343Y7029
X13003Y7029
X13960Y6150
X14200Y5900
X14030Y5570
X14050Y5220
X14150Y4750
X13550Y4750
X13488Y5160
X12988Y5160
X12988Y4760
X12998Y5658
X14150Y7350
X14623Y8519
X14353Y9119
X13893Y8559
X13753Y8949
X14250Y9990
X14613Y9959
X16198Y9863
X16528Y9863
X17268Y10373
X17448Y9953
X17448Y9353
X17448Y8753
X17448Y8153
X17448Y7553
X17448Y6953
X16628Y7523
X16278Y7523
X15928Y7523
X15928Y7023
X16278Y7023
X16450Y5050
X15850Y5050
X15850Y4450
X15850Y3850
X16450Y3850
X17050Y3850
X17650Y3850
X17650Y3250
X17650Y2650
X17050Y2650
X16450Y2650
X15850Y2650
X14950Y2650
X14950Y3250
X14950Y3850
X14950Y4450
X17050Y5050
X17650Y5050
X17650Y4450
X12747Y9428
X12650Y10510
X11558Y9673
X10770Y10240
X10150Y10150
X9750Y10150
X9750Y9550
X10150Y9550
X10150Y8950
X9750Y8950
X9750Y8350
X10150Y8350
X9750Y7750
X9750Y7150
X9750Y6550
X10933Y5849
X9750Y3150
X9750Y2650
X8450Y6950
X8450Y7550
X8450Y8150
X8450Y8750
X8450Y9350
X8450Y9950
X8270Y10370
X7450Y9950
X7450Y9650
X7100Y9650
X7100Y9950
X6750Y9950
X6750Y9650
X7650Y9350
X7650Y8750
X7650Y8150
X7650Y7550
X7150Y7550
X7150Y7050
X6650Y7550
X6450Y7750
X6323Y7399
X6250Y6850
X5350Y5450
X5033Y5279
X4650Y4750
X3993Y4749
X3973Y5159
X3973Y5759
X2893Y5759
X2893Y5159
X2703Y4749
X2050Y4750
X2803Y6339
X2523Y6619
X4933Y8689
X5583Y8469
X5573Y9719
X5250Y9990
X6650Y13870
X6553Y14952
X5547Y15431
X5407Y15821
X4947Y15261
X4677Y15861
X5150Y17030
X5957Y17011
X5957Y16671
X6297Y16671
X6637Y16671
X6637Y17011
X6287Y17011
X6297Y17351
X6637Y17351
X6977Y17351
X6977Y17011
X6977Y16671
X6977Y16331
X6637Y16331
X6297Y16331
X5957Y16331
X5957Y17351
X5340Y18230
X5100Y18480
X5270Y18810
X5250Y19160
X5150Y19630
X5750Y19630
X5813Y19220
X6313Y19220
X6313Y19620
X6303Y18723
X7423Y18618
X7493Y18048
X7777Y17761
X7850Y16830
X9150Y16030
X9550Y16030
X9550Y15430
X9150Y15430
X9150Y14830
X9550Y14830
X9550Y14230
X9150Y14230
X8530Y14140
X7743Y14708
X8650Y12730
X10650Y11650
X11030Y14010
X10850Y14430
X10850Y15030
X10850Y15630
X10850Y16230
X10850Y16830
X10850Y17430
X9550Y17230
X9550Y16630
X9550Y17830
X8367Y18531
X8550Y19630
X9050Y19630
X9550Y19630
X9550Y20130
X9550Y20680
X9550Y21230
X9550Y21730
X10650Y21730
X10650Y21130
X10650Y20530
X10650Y19930
X10650Y19330
X11350Y19330
X12050Y19330
X12750Y19330
X13050Y18930
X13500Y18930
X13450Y19330
X13950Y19630
X13450Y19930
X13450Y20530
X13450Y21130
X13450Y21730
X12750Y21730
X12050Y21730
X11350Y21730
X11350Y20530
X12050Y20530
X12750Y20530
X13950Y18930
X14367Y19001
X14650Y19630
X15307Y19631
X15327Y19221
X15327Y18621
X14367Y17831
X13950Y18230
X13500Y18230
X13050Y18230
X13050Y17530
X12977Y16981
X12850Y16630
X12650Y16830
X12150Y16830
X12150Y17330
X11650Y16830
X11650Y16230
X11650Y15630
X11650Y15030
X11850Y14730
X11850Y14430
X12200Y14430
X12200Y14730
X12550Y14730
X12550Y14430
X13727Y14661
X14050Y14390
X14367Y15691
X13717Y15911
X14957Y16331
X15297Y16331
X15637Y16331
X15977Y16331
X15977Y16671
X15977Y17011
X15637Y17011
X15637Y16671
X15297Y16671
X15287Y17011
X14957Y17011
X14957Y16671
X14957Y17351
X15297Y17351
X15637Y17351
X15977Y17351
X16497Y18041
X16777Y17761
X16407Y18621
X16407Y19221
X16597Y19631
X17250Y19630
X17950Y19630
X17950Y19330
X18450Y19330
X18450Y19930
X18450Y20530
X18450Y21130
X18450Y21730
X18450Y18730
X18450Y18130
X17950Y18130
X17950Y18730
X17907Y17481
X17907Y17211
X17907Y16941
X18117Y16631
X18450Y16330
X18450Y15730
X18150Y15730
X17850Y15730
X17597Y16051
X17850Y15130
X18150Y15130
X18450Y15130
X18450Y14530
X18150Y14530
X17850Y14530
X17850Y13930
X18450Y13930
X17650Y12730
X16650Y12730
X17047Y14001
X17250Y14290
X16350Y14830
X16000Y14480
X15853Y14952
X15550Y14480
X15650Y13940
X18500Y16930
X18500Y17530
X8050Y19630
X7600Y19633
X7413Y19220
X4350Y19930
X4350Y20530
X4350Y21130
X4350Y21730
X3450Y21730
X2850Y21730
X2250Y21730
X1650Y21730
X1650Y21130
X1650Y20530
X1650Y19930
X1650Y19330
X2250Y19330
X2850Y19330
X3450Y19330
X3450Y19930
X3450Y20530
X2850Y20530
X2250Y20530
X1853Y17428
X1853Y16828
X1853Y16228
X1853Y15628
X1853Y15028
X1853Y14428
X2033Y14008
X2773Y14518
X3103Y14518
X4687Y14421
X5050Y14390
X3373Y16858
X3023Y16858
X2673Y16858
X3023Y17358
X3373Y17358
T02
X4850Y12040
X4850Y12340
X5150Y12340
X5150Y12040
X5450Y12040
X5450Y12340
X9950Y16950
X9950Y17250
X9950Y17550
X10250Y17550
X10250Y17250
X10250Y16950
X13850Y12340
X13850Y12040
X14150Y12040
X14150Y12340
X14450Y12340
X14450Y12040
X18060Y7650
X18060Y7350
X18360Y7350
X18360Y7650
X18360Y7050
X18060Y7050
X9350Y7050
X9350Y6750
X9050Y6750
X9050Y7050
X9050Y7350
X9350Y7350
T03
X19150Y9650
X19150Y10150
X19150Y10650
X19150Y11150
X19150Y11650
X19650Y11650
X19650Y11150
X19650Y10650
X19650Y10150
X19650Y9650
T04
X7150Y6190
X8150Y6190
X10150Y11190
X11150Y11190
X12150Y11190
X13150Y11190
X14150Y13190
X13150Y13190
X12150Y13190
X11150Y13190
X9150Y13190
X8150Y13190
X7150Y13190
X6150Y13190
X5150Y11190
X4150Y11190
X3150Y11190
X2150Y11190
X1150Y11190
X2150Y13190
X3150Y13190
X4150Y13190
X5150Y13190
X6150Y11190
X7150Y11190
X8150Y11190
X11150Y18190
X12150Y18190
X15150Y13190
X16150Y13190
X17150Y13190
X18150Y13190
X17150Y11190
X16150Y11190
X15150Y11190
X14150Y11190
X17150Y6190
X16150Y6190
X19550Y5750
X19550Y4750
X19550Y3750
X19550Y2750
X19550Y6750
X19550Y7750
X19550Y8750
X3150Y18190
X2150Y18190
M30
