G75*
%MOIN*%
%OFA0B0*%
%FSLAX24Y24*%
%IPPOS*%
%LPD*%
%AMOC8*
5,1,8,0,0,1.08239X$1,22.5*
%
%ADD10C,0.0000*%
%ADD11R,0.0950X0.2000*%
%ADD12R,0.0433X0.0394*%
D10*
X000550Y002350D02*
X000550Y011940D01*
X004400Y011940D01*
X004430Y011942D01*
X004460Y011947D01*
X004489Y011956D01*
X004516Y011969D01*
X004542Y011984D01*
X004566Y012003D01*
X004587Y012024D01*
X004606Y012048D01*
X004621Y012074D01*
X004634Y012101D01*
X004643Y012130D01*
X004648Y012160D01*
X004650Y012190D01*
X004648Y012220D01*
X004643Y012250D01*
X004634Y012279D01*
X004621Y012306D01*
X004606Y012332D01*
X004587Y012356D01*
X004566Y012377D01*
X004542Y012396D01*
X004516Y012411D01*
X004489Y012424D01*
X004460Y012433D01*
X004430Y012438D01*
X004400Y012440D01*
X001350Y012440D01*
X001350Y022035D01*
X009850Y022035D01*
X009850Y018000D01*
X009852Y017970D01*
X009857Y017940D01*
X009866Y017911D01*
X009879Y017884D01*
X009894Y017858D01*
X009913Y017834D01*
X009934Y017813D01*
X009958Y017794D01*
X009984Y017779D01*
X010011Y017766D01*
X010040Y017757D01*
X010070Y017752D01*
X010100Y017750D01*
X010130Y017752D01*
X010160Y017757D01*
X010189Y017766D01*
X010216Y017779D01*
X010242Y017794D01*
X010266Y017813D01*
X010287Y017834D01*
X010306Y017858D01*
X010321Y017884D01*
X010334Y017911D01*
X010343Y017940D01*
X010348Y017970D01*
X010350Y018000D01*
X010350Y022035D01*
X018750Y022035D01*
X018750Y012440D01*
X014910Y012440D01*
X014880Y012438D01*
X014850Y012433D01*
X014821Y012424D01*
X014794Y012411D01*
X014768Y012396D01*
X014744Y012377D01*
X014723Y012356D01*
X014704Y012332D01*
X014689Y012306D01*
X014676Y012279D01*
X014667Y012250D01*
X014662Y012220D01*
X014660Y012190D01*
X014662Y012160D01*
X014667Y012130D01*
X014676Y012101D01*
X014689Y012074D01*
X014704Y012048D01*
X014723Y012024D01*
X014744Y012003D01*
X014768Y011984D01*
X014794Y011969D01*
X014821Y011956D01*
X014850Y011947D01*
X014880Y011942D01*
X014910Y011940D01*
X017950Y011940D01*
X017950Y008100D01*
X017952Y008070D01*
X017957Y008040D01*
X017966Y008011D01*
X017979Y007984D01*
X017994Y007958D01*
X018013Y007934D01*
X018034Y007913D01*
X018058Y007894D01*
X018084Y007879D01*
X018111Y007866D01*
X018140Y007857D01*
X018170Y007852D01*
X018200Y007850D01*
X018230Y007852D01*
X018260Y007857D01*
X018289Y007866D01*
X018316Y007879D01*
X018342Y007894D01*
X018366Y007913D01*
X018387Y007934D01*
X018406Y007958D01*
X018421Y007984D01*
X018434Y008011D01*
X018443Y008040D01*
X018448Y008070D01*
X018450Y008100D01*
X018450Y011950D01*
X020150Y011950D01*
X020150Y002350D01*
X018450Y002350D01*
X018450Y006600D01*
X018262Y007050D02*
X018264Y007069D01*
X018269Y007088D01*
X018279Y007104D01*
X018291Y007119D01*
X018306Y007131D01*
X018322Y007141D01*
X018341Y007146D01*
X018360Y007148D01*
X018379Y007146D01*
X018398Y007141D01*
X018414Y007131D01*
X018429Y007119D01*
X018441Y007104D01*
X018451Y007088D01*
X018456Y007069D01*
X018458Y007050D01*
X018456Y007031D01*
X018451Y007012D01*
X018441Y006996D01*
X018429Y006981D01*
X018414Y006969D01*
X018398Y006959D01*
X018379Y006954D01*
X018360Y006952D01*
X018341Y006954D01*
X018322Y006959D01*
X018306Y006969D01*
X018291Y006981D01*
X018279Y006996D01*
X018269Y007012D01*
X018264Y007031D01*
X018262Y007050D01*
X017962Y007050D02*
X017964Y007069D01*
X017969Y007088D01*
X017979Y007104D01*
X017991Y007119D01*
X018006Y007131D01*
X018022Y007141D01*
X018041Y007146D01*
X018060Y007148D01*
X018079Y007146D01*
X018098Y007141D01*
X018114Y007131D01*
X018129Y007119D01*
X018141Y007104D01*
X018151Y007088D01*
X018156Y007069D01*
X018158Y007050D01*
X018156Y007031D01*
X018151Y007012D01*
X018141Y006996D01*
X018129Y006981D01*
X018114Y006969D01*
X018098Y006959D01*
X018079Y006954D01*
X018060Y006952D01*
X018041Y006954D01*
X018022Y006959D01*
X018006Y006969D01*
X017991Y006981D01*
X017979Y006996D01*
X017969Y007012D01*
X017964Y007031D01*
X017962Y007050D01*
X017950Y006600D02*
X017950Y002350D01*
X009450Y002350D01*
X009450Y006305D01*
X009448Y006335D01*
X009441Y006365D01*
X009432Y006393D01*
X009419Y006421D01*
X009403Y006446D01*
X009384Y006469D01*
X009362Y006490D01*
X009338Y006509D01*
X009312Y006524D01*
X009284Y006535D01*
X009255Y006544D01*
X009225Y006549D01*
X009195Y006550D01*
X009165Y006548D01*
X009135Y006541D01*
X009107Y006532D01*
X009079Y006519D01*
X009054Y006503D01*
X009031Y006484D01*
X009010Y006462D01*
X008991Y006438D01*
X008976Y006412D01*
X008965Y006384D01*
X008956Y006355D01*
X008951Y006325D01*
X008950Y006295D01*
X008950Y002350D01*
X000550Y002350D01*
X005900Y011940D02*
X008950Y011940D01*
X008950Y007800D01*
X008952Y007770D01*
X008957Y007740D01*
X008966Y007711D01*
X008979Y007684D01*
X008994Y007658D01*
X009013Y007634D01*
X009034Y007613D01*
X009058Y007594D01*
X009084Y007579D01*
X009111Y007566D01*
X009140Y007557D01*
X009170Y007552D01*
X009200Y007550D01*
X009230Y007552D01*
X009260Y007557D01*
X009289Y007566D01*
X009316Y007579D01*
X009342Y007594D01*
X009366Y007613D01*
X009387Y007634D01*
X009406Y007658D01*
X009421Y007684D01*
X009434Y007711D01*
X009443Y007740D01*
X009448Y007770D01*
X009450Y007800D01*
X009450Y011940D01*
X013400Y011940D01*
X013430Y011942D01*
X013460Y011947D01*
X013489Y011956D01*
X013516Y011969D01*
X013542Y011984D01*
X013566Y012003D01*
X013587Y012024D01*
X013606Y012048D01*
X013621Y012074D01*
X013634Y012101D01*
X013643Y012130D01*
X013648Y012160D01*
X013650Y012190D01*
X013648Y012220D01*
X013643Y012250D01*
X013634Y012279D01*
X013621Y012306D01*
X013606Y012332D01*
X013587Y012356D01*
X013566Y012377D01*
X013542Y012396D01*
X013516Y012411D01*
X013489Y012424D01*
X013460Y012433D01*
X013430Y012438D01*
X013400Y012440D01*
X010350Y012440D01*
X010350Y016500D01*
X010348Y016530D01*
X010343Y016560D01*
X010334Y016589D01*
X010321Y016616D01*
X010306Y016642D01*
X010287Y016666D01*
X010266Y016687D01*
X010242Y016706D01*
X010216Y016721D01*
X010189Y016734D01*
X010160Y016743D01*
X010130Y016748D01*
X010100Y016750D01*
X010070Y016748D01*
X010040Y016743D01*
X010011Y016734D01*
X009984Y016721D01*
X009958Y016706D01*
X009934Y016687D01*
X009913Y016666D01*
X009894Y016642D01*
X009879Y016616D01*
X009866Y016589D01*
X009857Y016560D01*
X009852Y016530D01*
X009850Y016500D01*
X009850Y012440D01*
X005900Y012440D01*
X005870Y012438D01*
X005840Y012433D01*
X005811Y012424D01*
X005784Y012411D01*
X005758Y012396D01*
X005734Y012377D01*
X005713Y012356D01*
X005694Y012332D01*
X005679Y012306D01*
X005666Y012279D01*
X005657Y012250D01*
X005652Y012220D01*
X005650Y012190D01*
X005652Y012160D01*
X005657Y012130D01*
X005666Y012101D01*
X005679Y012074D01*
X005694Y012048D01*
X005713Y012024D01*
X005734Y012003D01*
X005758Y011984D01*
X005784Y011969D01*
X005811Y011956D01*
X005840Y011947D01*
X005870Y011942D01*
X005900Y011940D01*
X005352Y012040D02*
X005354Y012059D01*
X005359Y012078D01*
X005369Y012094D01*
X005381Y012109D01*
X005396Y012121D01*
X005412Y012131D01*
X005431Y012136D01*
X005450Y012138D01*
X005469Y012136D01*
X005488Y012131D01*
X005504Y012121D01*
X005519Y012109D01*
X005531Y012094D01*
X005541Y012078D01*
X005546Y012059D01*
X005548Y012040D01*
X005546Y012021D01*
X005541Y012002D01*
X005531Y011986D01*
X005519Y011971D01*
X005504Y011959D01*
X005488Y011949D01*
X005469Y011944D01*
X005450Y011942D01*
X005431Y011944D01*
X005412Y011949D01*
X005396Y011959D01*
X005381Y011971D01*
X005369Y011986D01*
X005359Y012002D01*
X005354Y012021D01*
X005352Y012040D01*
X005052Y012040D02*
X005054Y012059D01*
X005059Y012078D01*
X005069Y012094D01*
X005081Y012109D01*
X005096Y012121D01*
X005112Y012131D01*
X005131Y012136D01*
X005150Y012138D01*
X005169Y012136D01*
X005188Y012131D01*
X005204Y012121D01*
X005219Y012109D01*
X005231Y012094D01*
X005241Y012078D01*
X005246Y012059D01*
X005248Y012040D01*
X005246Y012021D01*
X005241Y012002D01*
X005231Y011986D01*
X005219Y011971D01*
X005204Y011959D01*
X005188Y011949D01*
X005169Y011944D01*
X005150Y011942D01*
X005131Y011944D01*
X005112Y011949D01*
X005096Y011959D01*
X005081Y011971D01*
X005069Y011986D01*
X005059Y012002D01*
X005054Y012021D01*
X005052Y012040D01*
X004752Y012040D02*
X004754Y012059D01*
X004759Y012078D01*
X004769Y012094D01*
X004781Y012109D01*
X004796Y012121D01*
X004812Y012131D01*
X004831Y012136D01*
X004850Y012138D01*
X004869Y012136D01*
X004888Y012131D01*
X004904Y012121D01*
X004919Y012109D01*
X004931Y012094D01*
X004941Y012078D01*
X004946Y012059D01*
X004948Y012040D01*
X004946Y012021D01*
X004941Y012002D01*
X004931Y011986D01*
X004919Y011971D01*
X004904Y011959D01*
X004888Y011949D01*
X004869Y011944D01*
X004850Y011942D01*
X004831Y011944D01*
X004812Y011949D01*
X004796Y011959D01*
X004781Y011971D01*
X004769Y011986D01*
X004759Y012002D01*
X004754Y012021D01*
X004752Y012040D01*
X004752Y012340D02*
X004754Y012359D01*
X004759Y012378D01*
X004769Y012394D01*
X004781Y012409D01*
X004796Y012421D01*
X004812Y012431D01*
X004831Y012436D01*
X004850Y012438D01*
X004869Y012436D01*
X004888Y012431D01*
X004904Y012421D01*
X004919Y012409D01*
X004931Y012394D01*
X004941Y012378D01*
X004946Y012359D01*
X004948Y012340D01*
X004946Y012321D01*
X004941Y012302D01*
X004931Y012286D01*
X004919Y012271D01*
X004904Y012259D01*
X004888Y012249D01*
X004869Y012244D01*
X004850Y012242D01*
X004831Y012244D01*
X004812Y012249D01*
X004796Y012259D01*
X004781Y012271D01*
X004769Y012286D01*
X004759Y012302D01*
X004754Y012321D01*
X004752Y012340D01*
X005052Y012340D02*
X005054Y012359D01*
X005059Y012378D01*
X005069Y012394D01*
X005081Y012409D01*
X005096Y012421D01*
X005112Y012431D01*
X005131Y012436D01*
X005150Y012438D01*
X005169Y012436D01*
X005188Y012431D01*
X005204Y012421D01*
X005219Y012409D01*
X005231Y012394D01*
X005241Y012378D01*
X005246Y012359D01*
X005248Y012340D01*
X005246Y012321D01*
X005241Y012302D01*
X005231Y012286D01*
X005219Y012271D01*
X005204Y012259D01*
X005188Y012249D01*
X005169Y012244D01*
X005150Y012242D01*
X005131Y012244D01*
X005112Y012249D01*
X005096Y012259D01*
X005081Y012271D01*
X005069Y012286D01*
X005059Y012302D01*
X005054Y012321D01*
X005052Y012340D01*
X005352Y012340D02*
X005354Y012359D01*
X005359Y012378D01*
X005369Y012394D01*
X005381Y012409D01*
X005396Y012421D01*
X005412Y012431D01*
X005431Y012436D01*
X005450Y012438D01*
X005469Y012436D01*
X005488Y012431D01*
X005504Y012421D01*
X005519Y012409D01*
X005531Y012394D01*
X005541Y012378D01*
X005546Y012359D01*
X005548Y012340D01*
X005546Y012321D01*
X005541Y012302D01*
X005531Y012286D01*
X005519Y012271D01*
X005504Y012259D01*
X005488Y012249D01*
X005469Y012244D01*
X005450Y012242D01*
X005431Y012244D01*
X005412Y012249D01*
X005396Y012259D01*
X005381Y012271D01*
X005369Y012286D01*
X005359Y012302D01*
X005354Y012321D01*
X005352Y012340D01*
X008952Y007350D02*
X008954Y007369D01*
X008959Y007388D01*
X008969Y007404D01*
X008981Y007419D01*
X008996Y007431D01*
X009012Y007441D01*
X009031Y007446D01*
X009050Y007448D01*
X009069Y007446D01*
X009088Y007441D01*
X009104Y007431D01*
X009119Y007419D01*
X009131Y007404D01*
X009141Y007388D01*
X009146Y007369D01*
X009148Y007350D01*
X009146Y007331D01*
X009141Y007312D01*
X009131Y007296D01*
X009119Y007281D01*
X009104Y007269D01*
X009088Y007259D01*
X009069Y007254D01*
X009050Y007252D01*
X009031Y007254D01*
X009012Y007259D01*
X008996Y007269D01*
X008981Y007281D01*
X008969Y007296D01*
X008959Y007312D01*
X008954Y007331D01*
X008952Y007350D01*
X008952Y007050D02*
X008954Y007069D01*
X008959Y007088D01*
X008969Y007104D01*
X008981Y007119D01*
X008996Y007131D01*
X009012Y007141D01*
X009031Y007146D01*
X009050Y007148D01*
X009069Y007146D01*
X009088Y007141D01*
X009104Y007131D01*
X009119Y007119D01*
X009131Y007104D01*
X009141Y007088D01*
X009146Y007069D01*
X009148Y007050D01*
X009146Y007031D01*
X009141Y007012D01*
X009131Y006996D01*
X009119Y006981D01*
X009104Y006969D01*
X009088Y006959D01*
X009069Y006954D01*
X009050Y006952D01*
X009031Y006954D01*
X009012Y006959D01*
X008996Y006969D01*
X008981Y006981D01*
X008969Y006996D01*
X008959Y007012D01*
X008954Y007031D01*
X008952Y007050D01*
X008952Y006750D02*
X008954Y006769D01*
X008959Y006788D01*
X008969Y006804D01*
X008981Y006819D01*
X008996Y006831D01*
X009012Y006841D01*
X009031Y006846D01*
X009050Y006848D01*
X009069Y006846D01*
X009088Y006841D01*
X009104Y006831D01*
X009119Y006819D01*
X009131Y006804D01*
X009141Y006788D01*
X009146Y006769D01*
X009148Y006750D01*
X009146Y006731D01*
X009141Y006712D01*
X009131Y006696D01*
X009119Y006681D01*
X009104Y006669D01*
X009088Y006659D01*
X009069Y006654D01*
X009050Y006652D01*
X009031Y006654D01*
X009012Y006659D01*
X008996Y006669D01*
X008981Y006681D01*
X008969Y006696D01*
X008959Y006712D01*
X008954Y006731D01*
X008952Y006750D01*
X009252Y006750D02*
X009254Y006769D01*
X009259Y006788D01*
X009269Y006804D01*
X009281Y006819D01*
X009296Y006831D01*
X009312Y006841D01*
X009331Y006846D01*
X009350Y006848D01*
X009369Y006846D01*
X009388Y006841D01*
X009404Y006831D01*
X009419Y006819D01*
X009431Y006804D01*
X009441Y006788D01*
X009446Y006769D01*
X009448Y006750D01*
X009446Y006731D01*
X009441Y006712D01*
X009431Y006696D01*
X009419Y006681D01*
X009404Y006669D01*
X009388Y006659D01*
X009369Y006654D01*
X009350Y006652D01*
X009331Y006654D01*
X009312Y006659D01*
X009296Y006669D01*
X009281Y006681D01*
X009269Y006696D01*
X009259Y006712D01*
X009254Y006731D01*
X009252Y006750D01*
X009252Y007050D02*
X009254Y007069D01*
X009259Y007088D01*
X009269Y007104D01*
X009281Y007119D01*
X009296Y007131D01*
X009312Y007141D01*
X009331Y007146D01*
X009350Y007148D01*
X009369Y007146D01*
X009388Y007141D01*
X009404Y007131D01*
X009419Y007119D01*
X009431Y007104D01*
X009441Y007088D01*
X009446Y007069D01*
X009448Y007050D01*
X009446Y007031D01*
X009441Y007012D01*
X009431Y006996D01*
X009419Y006981D01*
X009404Y006969D01*
X009388Y006959D01*
X009369Y006954D01*
X009350Y006952D01*
X009331Y006954D01*
X009312Y006959D01*
X009296Y006969D01*
X009281Y006981D01*
X009269Y006996D01*
X009259Y007012D01*
X009254Y007031D01*
X009252Y007050D01*
X009252Y007350D02*
X009254Y007369D01*
X009259Y007388D01*
X009269Y007404D01*
X009281Y007419D01*
X009296Y007431D01*
X009312Y007441D01*
X009331Y007446D01*
X009350Y007448D01*
X009369Y007446D01*
X009388Y007441D01*
X009404Y007431D01*
X009419Y007419D01*
X009431Y007404D01*
X009441Y007388D01*
X009446Y007369D01*
X009448Y007350D01*
X009446Y007331D01*
X009441Y007312D01*
X009431Y007296D01*
X009419Y007281D01*
X009404Y007269D01*
X009388Y007259D01*
X009369Y007254D01*
X009350Y007252D01*
X009331Y007254D01*
X009312Y007259D01*
X009296Y007269D01*
X009281Y007281D01*
X009269Y007296D01*
X009259Y007312D01*
X009254Y007331D01*
X009252Y007350D01*
X013752Y012040D02*
X013754Y012059D01*
X013759Y012078D01*
X013769Y012094D01*
X013781Y012109D01*
X013796Y012121D01*
X013812Y012131D01*
X013831Y012136D01*
X013850Y012138D01*
X013869Y012136D01*
X013888Y012131D01*
X013904Y012121D01*
X013919Y012109D01*
X013931Y012094D01*
X013941Y012078D01*
X013946Y012059D01*
X013948Y012040D01*
X013946Y012021D01*
X013941Y012002D01*
X013931Y011986D01*
X013919Y011971D01*
X013904Y011959D01*
X013888Y011949D01*
X013869Y011944D01*
X013850Y011942D01*
X013831Y011944D01*
X013812Y011949D01*
X013796Y011959D01*
X013781Y011971D01*
X013769Y011986D01*
X013759Y012002D01*
X013754Y012021D01*
X013752Y012040D01*
X013752Y012340D02*
X013754Y012359D01*
X013759Y012378D01*
X013769Y012394D01*
X013781Y012409D01*
X013796Y012421D01*
X013812Y012431D01*
X013831Y012436D01*
X013850Y012438D01*
X013869Y012436D01*
X013888Y012431D01*
X013904Y012421D01*
X013919Y012409D01*
X013931Y012394D01*
X013941Y012378D01*
X013946Y012359D01*
X013948Y012340D01*
X013946Y012321D01*
X013941Y012302D01*
X013931Y012286D01*
X013919Y012271D01*
X013904Y012259D01*
X013888Y012249D01*
X013869Y012244D01*
X013850Y012242D01*
X013831Y012244D01*
X013812Y012249D01*
X013796Y012259D01*
X013781Y012271D01*
X013769Y012286D01*
X013759Y012302D01*
X013754Y012321D01*
X013752Y012340D01*
X014052Y012340D02*
X014054Y012359D01*
X014059Y012378D01*
X014069Y012394D01*
X014081Y012409D01*
X014096Y012421D01*
X014112Y012431D01*
X014131Y012436D01*
X014150Y012438D01*
X014169Y012436D01*
X014188Y012431D01*
X014204Y012421D01*
X014219Y012409D01*
X014231Y012394D01*
X014241Y012378D01*
X014246Y012359D01*
X014248Y012340D01*
X014246Y012321D01*
X014241Y012302D01*
X014231Y012286D01*
X014219Y012271D01*
X014204Y012259D01*
X014188Y012249D01*
X014169Y012244D01*
X014150Y012242D01*
X014131Y012244D01*
X014112Y012249D01*
X014096Y012259D01*
X014081Y012271D01*
X014069Y012286D01*
X014059Y012302D01*
X014054Y012321D01*
X014052Y012340D01*
X014052Y012040D02*
X014054Y012059D01*
X014059Y012078D01*
X014069Y012094D01*
X014081Y012109D01*
X014096Y012121D01*
X014112Y012131D01*
X014131Y012136D01*
X014150Y012138D01*
X014169Y012136D01*
X014188Y012131D01*
X014204Y012121D01*
X014219Y012109D01*
X014231Y012094D01*
X014241Y012078D01*
X014246Y012059D01*
X014248Y012040D01*
X014246Y012021D01*
X014241Y012002D01*
X014231Y011986D01*
X014219Y011971D01*
X014204Y011959D01*
X014188Y011949D01*
X014169Y011944D01*
X014150Y011942D01*
X014131Y011944D01*
X014112Y011949D01*
X014096Y011959D01*
X014081Y011971D01*
X014069Y011986D01*
X014059Y012002D01*
X014054Y012021D01*
X014052Y012040D01*
X014352Y012040D02*
X014354Y012059D01*
X014359Y012078D01*
X014369Y012094D01*
X014381Y012109D01*
X014396Y012121D01*
X014412Y012131D01*
X014431Y012136D01*
X014450Y012138D01*
X014469Y012136D01*
X014488Y012131D01*
X014504Y012121D01*
X014519Y012109D01*
X014531Y012094D01*
X014541Y012078D01*
X014546Y012059D01*
X014548Y012040D01*
X014546Y012021D01*
X014541Y012002D01*
X014531Y011986D01*
X014519Y011971D01*
X014504Y011959D01*
X014488Y011949D01*
X014469Y011944D01*
X014450Y011942D01*
X014431Y011944D01*
X014412Y011949D01*
X014396Y011959D01*
X014381Y011971D01*
X014369Y011986D01*
X014359Y012002D01*
X014354Y012021D01*
X014352Y012040D01*
X014352Y012340D02*
X014354Y012359D01*
X014359Y012378D01*
X014369Y012394D01*
X014381Y012409D01*
X014396Y012421D01*
X014412Y012431D01*
X014431Y012436D01*
X014450Y012438D01*
X014469Y012436D01*
X014488Y012431D01*
X014504Y012421D01*
X014519Y012409D01*
X014531Y012394D01*
X014541Y012378D01*
X014546Y012359D01*
X014548Y012340D01*
X014546Y012321D01*
X014541Y012302D01*
X014531Y012286D01*
X014519Y012271D01*
X014504Y012259D01*
X014488Y012249D01*
X014469Y012244D01*
X014450Y012242D01*
X014431Y012244D01*
X014412Y012249D01*
X014396Y012259D01*
X014381Y012271D01*
X014369Y012286D01*
X014359Y012302D01*
X014354Y012321D01*
X014352Y012340D01*
X017962Y007650D02*
X017964Y007669D01*
X017969Y007688D01*
X017979Y007704D01*
X017991Y007719D01*
X018006Y007731D01*
X018022Y007741D01*
X018041Y007746D01*
X018060Y007748D01*
X018079Y007746D01*
X018098Y007741D01*
X018114Y007731D01*
X018129Y007719D01*
X018141Y007704D01*
X018151Y007688D01*
X018156Y007669D01*
X018158Y007650D01*
X018156Y007631D01*
X018151Y007612D01*
X018141Y007596D01*
X018129Y007581D01*
X018114Y007569D01*
X018098Y007559D01*
X018079Y007554D01*
X018060Y007552D01*
X018041Y007554D01*
X018022Y007559D01*
X018006Y007569D01*
X017991Y007581D01*
X017979Y007596D01*
X017969Y007612D01*
X017964Y007631D01*
X017962Y007650D01*
X017962Y007350D02*
X017964Y007369D01*
X017969Y007388D01*
X017979Y007404D01*
X017991Y007419D01*
X018006Y007431D01*
X018022Y007441D01*
X018041Y007446D01*
X018060Y007448D01*
X018079Y007446D01*
X018098Y007441D01*
X018114Y007431D01*
X018129Y007419D01*
X018141Y007404D01*
X018151Y007388D01*
X018156Y007369D01*
X018158Y007350D01*
X018156Y007331D01*
X018151Y007312D01*
X018141Y007296D01*
X018129Y007281D01*
X018114Y007269D01*
X018098Y007259D01*
X018079Y007254D01*
X018060Y007252D01*
X018041Y007254D01*
X018022Y007259D01*
X018006Y007269D01*
X017991Y007281D01*
X017979Y007296D01*
X017969Y007312D01*
X017964Y007331D01*
X017962Y007350D01*
X018262Y007350D02*
X018264Y007369D01*
X018269Y007388D01*
X018279Y007404D01*
X018291Y007419D01*
X018306Y007431D01*
X018322Y007441D01*
X018341Y007446D01*
X018360Y007448D01*
X018379Y007446D01*
X018398Y007441D01*
X018414Y007431D01*
X018429Y007419D01*
X018441Y007404D01*
X018451Y007388D01*
X018456Y007369D01*
X018458Y007350D01*
X018456Y007331D01*
X018451Y007312D01*
X018441Y007296D01*
X018429Y007281D01*
X018414Y007269D01*
X018398Y007259D01*
X018379Y007254D01*
X018360Y007252D01*
X018341Y007254D01*
X018322Y007259D01*
X018306Y007269D01*
X018291Y007281D01*
X018279Y007296D01*
X018269Y007312D01*
X018264Y007331D01*
X018262Y007350D01*
X018262Y007650D02*
X018264Y007669D01*
X018269Y007688D01*
X018279Y007704D01*
X018291Y007719D01*
X018306Y007731D01*
X018322Y007741D01*
X018341Y007746D01*
X018360Y007748D01*
X018379Y007746D01*
X018398Y007741D01*
X018414Y007731D01*
X018429Y007719D01*
X018441Y007704D01*
X018451Y007688D01*
X018456Y007669D01*
X018458Y007650D01*
X018456Y007631D01*
X018451Y007612D01*
X018441Y007596D01*
X018429Y007581D01*
X018414Y007569D01*
X018398Y007559D01*
X018379Y007554D01*
X018360Y007552D01*
X018341Y007554D01*
X018322Y007559D01*
X018306Y007569D01*
X018291Y007581D01*
X018279Y007596D01*
X018269Y007612D01*
X018264Y007631D01*
X018262Y007650D01*
X018450Y006600D02*
X018448Y006630D01*
X018443Y006660D01*
X018434Y006689D01*
X018421Y006716D01*
X018406Y006742D01*
X018387Y006766D01*
X018366Y006787D01*
X018342Y006806D01*
X018316Y006821D01*
X018289Y006834D01*
X018260Y006843D01*
X018230Y006848D01*
X018200Y006850D01*
X018170Y006848D01*
X018140Y006843D01*
X018111Y006834D01*
X018084Y006821D01*
X018058Y006806D01*
X018034Y006787D01*
X018013Y006766D01*
X017994Y006742D01*
X017979Y006716D01*
X017966Y006689D01*
X017957Y006660D01*
X017952Y006630D01*
X017950Y006600D01*
X010152Y016950D02*
X010154Y016969D01*
X010159Y016988D01*
X010169Y017004D01*
X010181Y017019D01*
X010196Y017031D01*
X010212Y017041D01*
X010231Y017046D01*
X010250Y017048D01*
X010269Y017046D01*
X010288Y017041D01*
X010304Y017031D01*
X010319Y017019D01*
X010331Y017004D01*
X010341Y016988D01*
X010346Y016969D01*
X010348Y016950D01*
X010346Y016931D01*
X010341Y016912D01*
X010331Y016896D01*
X010319Y016881D01*
X010304Y016869D01*
X010288Y016859D01*
X010269Y016854D01*
X010250Y016852D01*
X010231Y016854D01*
X010212Y016859D01*
X010196Y016869D01*
X010181Y016881D01*
X010169Y016896D01*
X010159Y016912D01*
X010154Y016931D01*
X010152Y016950D01*
X009852Y016950D02*
X009854Y016969D01*
X009859Y016988D01*
X009869Y017004D01*
X009881Y017019D01*
X009896Y017031D01*
X009912Y017041D01*
X009931Y017046D01*
X009950Y017048D01*
X009969Y017046D01*
X009988Y017041D01*
X010004Y017031D01*
X010019Y017019D01*
X010031Y017004D01*
X010041Y016988D01*
X010046Y016969D01*
X010048Y016950D01*
X010046Y016931D01*
X010041Y016912D01*
X010031Y016896D01*
X010019Y016881D01*
X010004Y016869D01*
X009988Y016859D01*
X009969Y016854D01*
X009950Y016852D01*
X009931Y016854D01*
X009912Y016859D01*
X009896Y016869D01*
X009881Y016881D01*
X009869Y016896D01*
X009859Y016912D01*
X009854Y016931D01*
X009852Y016950D01*
X009852Y017250D02*
X009854Y017269D01*
X009859Y017288D01*
X009869Y017304D01*
X009881Y017319D01*
X009896Y017331D01*
X009912Y017341D01*
X009931Y017346D01*
X009950Y017348D01*
X009969Y017346D01*
X009988Y017341D01*
X010004Y017331D01*
X010019Y017319D01*
X010031Y017304D01*
X010041Y017288D01*
X010046Y017269D01*
X010048Y017250D01*
X010046Y017231D01*
X010041Y017212D01*
X010031Y017196D01*
X010019Y017181D01*
X010004Y017169D01*
X009988Y017159D01*
X009969Y017154D01*
X009950Y017152D01*
X009931Y017154D01*
X009912Y017159D01*
X009896Y017169D01*
X009881Y017181D01*
X009869Y017196D01*
X009859Y017212D01*
X009854Y017231D01*
X009852Y017250D01*
X009852Y017550D02*
X009854Y017569D01*
X009859Y017588D01*
X009869Y017604D01*
X009881Y017619D01*
X009896Y017631D01*
X009912Y017641D01*
X009931Y017646D01*
X009950Y017648D01*
X009969Y017646D01*
X009988Y017641D01*
X010004Y017631D01*
X010019Y017619D01*
X010031Y017604D01*
X010041Y017588D01*
X010046Y017569D01*
X010048Y017550D01*
X010046Y017531D01*
X010041Y017512D01*
X010031Y017496D01*
X010019Y017481D01*
X010004Y017469D01*
X009988Y017459D01*
X009969Y017454D01*
X009950Y017452D01*
X009931Y017454D01*
X009912Y017459D01*
X009896Y017469D01*
X009881Y017481D01*
X009869Y017496D01*
X009859Y017512D01*
X009854Y017531D01*
X009852Y017550D01*
X010152Y017550D02*
X010154Y017569D01*
X010159Y017588D01*
X010169Y017604D01*
X010181Y017619D01*
X010196Y017631D01*
X010212Y017641D01*
X010231Y017646D01*
X010250Y017648D01*
X010269Y017646D01*
X010288Y017641D01*
X010304Y017631D01*
X010319Y017619D01*
X010331Y017604D01*
X010341Y017588D01*
X010346Y017569D01*
X010348Y017550D01*
X010346Y017531D01*
X010341Y017512D01*
X010331Y017496D01*
X010319Y017481D01*
X010304Y017469D01*
X010288Y017459D01*
X010269Y017454D01*
X010250Y017452D01*
X010231Y017454D01*
X010212Y017459D01*
X010196Y017469D01*
X010181Y017481D01*
X010169Y017496D01*
X010159Y017512D01*
X010154Y017531D01*
X010152Y017550D01*
X010152Y017250D02*
X010154Y017269D01*
X010159Y017288D01*
X010169Y017304D01*
X010181Y017319D01*
X010196Y017331D01*
X010212Y017341D01*
X010231Y017346D01*
X010250Y017348D01*
X010269Y017346D01*
X010288Y017341D01*
X010304Y017331D01*
X010319Y017319D01*
X010331Y017304D01*
X010341Y017288D01*
X010346Y017269D01*
X010348Y017250D01*
X010346Y017231D01*
X010341Y017212D01*
X010331Y017196D01*
X010319Y017181D01*
X010304Y017169D01*
X010288Y017159D01*
X010269Y017154D01*
X010250Y017152D01*
X010231Y017154D01*
X010212Y017159D01*
X010196Y017169D01*
X010181Y017181D01*
X010169Y017196D01*
X010159Y017212D01*
X010154Y017231D01*
X010152Y017250D01*
D11*
X008679Y020926D03*
X005229Y020926D03*
X014229Y020926D03*
X017679Y020926D03*
X014071Y003454D03*
X010621Y003454D03*
X005071Y003454D03*
X001621Y003454D03*
D12*
X010214Y005450D03*
X010883Y005450D03*
X010883Y006250D03*
X010881Y006851D03*
X010212Y006851D03*
X010214Y006250D03*
X014666Y006243D03*
X015336Y006243D03*
X015336Y005533D03*
X015336Y004933D03*
X014666Y004933D03*
X014666Y005533D03*
X009088Y017529D03*
X009086Y018130D03*
X008417Y018130D03*
X008419Y017529D03*
X008417Y018930D03*
X009086Y018930D03*
X004634Y018847D03*
X004634Y019447D03*
X003964Y019447D03*
X003964Y018847D03*
X003964Y018137D03*
X004634Y018137D03*
M02*
