G75*
%MOIN*%
%OFA0B0*%
%FSLAX24Y24*%
%IPPOS*%
%LPD*%
%AMOC8*
5,1,8,0,0,1.08239X$1,22.5*
%
%ADD10C,0.0000*%
%ADD11C,0.0030*%
%ADD12C,0.0160*%
%ADD13C,0.0100*%
%ADD14C,0.0020*%
%ADD15C,0.0060*%
%ADD16C,0.0050*%
D10*
X000550Y002350D02*
X000550Y011940D01*
X004400Y011940D01*
X004430Y011942D01*
X004460Y011947D01*
X004489Y011956D01*
X004516Y011969D01*
X004542Y011984D01*
X004566Y012003D01*
X004587Y012024D01*
X004606Y012048D01*
X004621Y012074D01*
X004634Y012101D01*
X004643Y012130D01*
X004648Y012160D01*
X004650Y012190D01*
X004648Y012220D01*
X004643Y012250D01*
X004634Y012279D01*
X004621Y012306D01*
X004606Y012332D01*
X004587Y012356D01*
X004566Y012377D01*
X004542Y012396D01*
X004516Y012411D01*
X004489Y012424D01*
X004460Y012433D01*
X004430Y012438D01*
X004400Y012440D01*
X001350Y012440D01*
X001350Y022035D01*
X009850Y022035D01*
X009850Y018000D01*
X009852Y017970D01*
X009857Y017940D01*
X009866Y017911D01*
X009879Y017884D01*
X009894Y017858D01*
X009913Y017834D01*
X009934Y017813D01*
X009958Y017794D01*
X009984Y017779D01*
X010011Y017766D01*
X010040Y017757D01*
X010070Y017752D01*
X010100Y017750D01*
X010130Y017752D01*
X010160Y017757D01*
X010189Y017766D01*
X010216Y017779D01*
X010242Y017794D01*
X010266Y017813D01*
X010287Y017834D01*
X010306Y017858D01*
X010321Y017884D01*
X010334Y017911D01*
X010343Y017940D01*
X010348Y017970D01*
X010350Y018000D01*
X010350Y022035D01*
X018750Y022035D01*
X018750Y012440D01*
X014910Y012440D01*
X014880Y012438D01*
X014850Y012433D01*
X014821Y012424D01*
X014794Y012411D01*
X014768Y012396D01*
X014744Y012377D01*
X014723Y012356D01*
X014704Y012332D01*
X014689Y012306D01*
X014676Y012279D01*
X014667Y012250D01*
X014662Y012220D01*
X014660Y012190D01*
X014662Y012160D01*
X014667Y012130D01*
X014676Y012101D01*
X014689Y012074D01*
X014704Y012048D01*
X014723Y012024D01*
X014744Y012003D01*
X014768Y011984D01*
X014794Y011969D01*
X014821Y011956D01*
X014850Y011947D01*
X014880Y011942D01*
X014910Y011940D01*
X017950Y011940D01*
X017950Y008100D01*
X017952Y008070D01*
X017957Y008040D01*
X017966Y008011D01*
X017979Y007984D01*
X017994Y007958D01*
X018013Y007934D01*
X018034Y007913D01*
X018058Y007894D01*
X018084Y007879D01*
X018111Y007866D01*
X018140Y007857D01*
X018170Y007852D01*
X018200Y007850D01*
X018230Y007852D01*
X018260Y007857D01*
X018289Y007866D01*
X018316Y007879D01*
X018342Y007894D01*
X018366Y007913D01*
X018387Y007934D01*
X018406Y007958D01*
X018421Y007984D01*
X018434Y008011D01*
X018443Y008040D01*
X018448Y008070D01*
X018450Y008100D01*
X018450Y011950D01*
X020150Y011950D01*
X020150Y002350D01*
X018450Y002350D01*
X018450Y006600D01*
X018262Y007050D02*
X018264Y007069D01*
X018269Y007088D01*
X018279Y007104D01*
X018291Y007119D01*
X018306Y007131D01*
X018322Y007141D01*
X018341Y007146D01*
X018360Y007148D01*
X018379Y007146D01*
X018398Y007141D01*
X018414Y007131D01*
X018429Y007119D01*
X018441Y007104D01*
X018451Y007088D01*
X018456Y007069D01*
X018458Y007050D01*
X018456Y007031D01*
X018451Y007012D01*
X018441Y006996D01*
X018429Y006981D01*
X018414Y006969D01*
X018398Y006959D01*
X018379Y006954D01*
X018360Y006952D01*
X018341Y006954D01*
X018322Y006959D01*
X018306Y006969D01*
X018291Y006981D01*
X018279Y006996D01*
X018269Y007012D01*
X018264Y007031D01*
X018262Y007050D01*
X017962Y007050D02*
X017964Y007069D01*
X017969Y007088D01*
X017979Y007104D01*
X017991Y007119D01*
X018006Y007131D01*
X018022Y007141D01*
X018041Y007146D01*
X018060Y007148D01*
X018079Y007146D01*
X018098Y007141D01*
X018114Y007131D01*
X018129Y007119D01*
X018141Y007104D01*
X018151Y007088D01*
X018156Y007069D01*
X018158Y007050D01*
X018156Y007031D01*
X018151Y007012D01*
X018141Y006996D01*
X018129Y006981D01*
X018114Y006969D01*
X018098Y006959D01*
X018079Y006954D01*
X018060Y006952D01*
X018041Y006954D01*
X018022Y006959D01*
X018006Y006969D01*
X017991Y006981D01*
X017979Y006996D01*
X017969Y007012D01*
X017964Y007031D01*
X017962Y007050D01*
X017950Y006600D02*
X017950Y002350D01*
X009450Y002350D01*
X009450Y006305D01*
X009448Y006335D01*
X009441Y006365D01*
X009432Y006393D01*
X009419Y006421D01*
X009403Y006446D01*
X009384Y006469D01*
X009362Y006490D01*
X009338Y006509D01*
X009312Y006524D01*
X009284Y006535D01*
X009255Y006544D01*
X009225Y006549D01*
X009195Y006550D01*
X009165Y006548D01*
X009135Y006541D01*
X009107Y006532D01*
X009079Y006519D01*
X009054Y006503D01*
X009031Y006484D01*
X009010Y006462D01*
X008991Y006438D01*
X008976Y006412D01*
X008965Y006384D01*
X008956Y006355D01*
X008951Y006325D01*
X008950Y006295D01*
X008950Y002350D01*
X000550Y002350D01*
X005900Y011940D02*
X008950Y011940D01*
X008950Y007800D01*
X008952Y007770D01*
X008957Y007740D01*
X008966Y007711D01*
X008979Y007684D01*
X008994Y007658D01*
X009013Y007634D01*
X009034Y007613D01*
X009058Y007594D01*
X009084Y007579D01*
X009111Y007566D01*
X009140Y007557D01*
X009170Y007552D01*
X009200Y007550D01*
X009230Y007552D01*
X009260Y007557D01*
X009289Y007566D01*
X009316Y007579D01*
X009342Y007594D01*
X009366Y007613D01*
X009387Y007634D01*
X009406Y007658D01*
X009421Y007684D01*
X009434Y007711D01*
X009443Y007740D01*
X009448Y007770D01*
X009450Y007800D01*
X009450Y011940D01*
X013400Y011940D01*
X013430Y011942D01*
X013460Y011947D01*
X013489Y011956D01*
X013516Y011969D01*
X013542Y011984D01*
X013566Y012003D01*
X013587Y012024D01*
X013606Y012048D01*
X013621Y012074D01*
X013634Y012101D01*
X013643Y012130D01*
X013648Y012160D01*
X013650Y012190D01*
X013648Y012220D01*
X013643Y012250D01*
X013634Y012279D01*
X013621Y012306D01*
X013606Y012332D01*
X013587Y012356D01*
X013566Y012377D01*
X013542Y012396D01*
X013516Y012411D01*
X013489Y012424D01*
X013460Y012433D01*
X013430Y012438D01*
X013400Y012440D01*
X010350Y012440D01*
X010350Y016500D01*
X010348Y016530D01*
X010343Y016560D01*
X010334Y016589D01*
X010321Y016616D01*
X010306Y016642D01*
X010287Y016666D01*
X010266Y016687D01*
X010242Y016706D01*
X010216Y016721D01*
X010189Y016734D01*
X010160Y016743D01*
X010130Y016748D01*
X010100Y016750D01*
X010070Y016748D01*
X010040Y016743D01*
X010011Y016734D01*
X009984Y016721D01*
X009958Y016706D01*
X009934Y016687D01*
X009913Y016666D01*
X009894Y016642D01*
X009879Y016616D01*
X009866Y016589D01*
X009857Y016560D01*
X009852Y016530D01*
X009850Y016500D01*
X009850Y012440D01*
X005900Y012440D01*
X005870Y012438D01*
X005840Y012433D01*
X005811Y012424D01*
X005784Y012411D01*
X005758Y012396D01*
X005734Y012377D01*
X005713Y012356D01*
X005694Y012332D01*
X005679Y012306D01*
X005666Y012279D01*
X005657Y012250D01*
X005652Y012220D01*
X005650Y012190D01*
X005652Y012160D01*
X005657Y012130D01*
X005666Y012101D01*
X005679Y012074D01*
X005694Y012048D01*
X005713Y012024D01*
X005734Y012003D01*
X005758Y011984D01*
X005784Y011969D01*
X005811Y011956D01*
X005840Y011947D01*
X005870Y011942D01*
X005900Y011940D01*
X005352Y012040D02*
X005354Y012059D01*
X005359Y012078D01*
X005369Y012094D01*
X005381Y012109D01*
X005396Y012121D01*
X005412Y012131D01*
X005431Y012136D01*
X005450Y012138D01*
X005469Y012136D01*
X005488Y012131D01*
X005504Y012121D01*
X005519Y012109D01*
X005531Y012094D01*
X005541Y012078D01*
X005546Y012059D01*
X005548Y012040D01*
X005546Y012021D01*
X005541Y012002D01*
X005531Y011986D01*
X005519Y011971D01*
X005504Y011959D01*
X005488Y011949D01*
X005469Y011944D01*
X005450Y011942D01*
X005431Y011944D01*
X005412Y011949D01*
X005396Y011959D01*
X005381Y011971D01*
X005369Y011986D01*
X005359Y012002D01*
X005354Y012021D01*
X005352Y012040D01*
X005052Y012040D02*
X005054Y012059D01*
X005059Y012078D01*
X005069Y012094D01*
X005081Y012109D01*
X005096Y012121D01*
X005112Y012131D01*
X005131Y012136D01*
X005150Y012138D01*
X005169Y012136D01*
X005188Y012131D01*
X005204Y012121D01*
X005219Y012109D01*
X005231Y012094D01*
X005241Y012078D01*
X005246Y012059D01*
X005248Y012040D01*
X005246Y012021D01*
X005241Y012002D01*
X005231Y011986D01*
X005219Y011971D01*
X005204Y011959D01*
X005188Y011949D01*
X005169Y011944D01*
X005150Y011942D01*
X005131Y011944D01*
X005112Y011949D01*
X005096Y011959D01*
X005081Y011971D01*
X005069Y011986D01*
X005059Y012002D01*
X005054Y012021D01*
X005052Y012040D01*
X004752Y012040D02*
X004754Y012059D01*
X004759Y012078D01*
X004769Y012094D01*
X004781Y012109D01*
X004796Y012121D01*
X004812Y012131D01*
X004831Y012136D01*
X004850Y012138D01*
X004869Y012136D01*
X004888Y012131D01*
X004904Y012121D01*
X004919Y012109D01*
X004931Y012094D01*
X004941Y012078D01*
X004946Y012059D01*
X004948Y012040D01*
X004946Y012021D01*
X004941Y012002D01*
X004931Y011986D01*
X004919Y011971D01*
X004904Y011959D01*
X004888Y011949D01*
X004869Y011944D01*
X004850Y011942D01*
X004831Y011944D01*
X004812Y011949D01*
X004796Y011959D01*
X004781Y011971D01*
X004769Y011986D01*
X004759Y012002D01*
X004754Y012021D01*
X004752Y012040D01*
X004752Y012340D02*
X004754Y012359D01*
X004759Y012378D01*
X004769Y012394D01*
X004781Y012409D01*
X004796Y012421D01*
X004812Y012431D01*
X004831Y012436D01*
X004850Y012438D01*
X004869Y012436D01*
X004888Y012431D01*
X004904Y012421D01*
X004919Y012409D01*
X004931Y012394D01*
X004941Y012378D01*
X004946Y012359D01*
X004948Y012340D01*
X004946Y012321D01*
X004941Y012302D01*
X004931Y012286D01*
X004919Y012271D01*
X004904Y012259D01*
X004888Y012249D01*
X004869Y012244D01*
X004850Y012242D01*
X004831Y012244D01*
X004812Y012249D01*
X004796Y012259D01*
X004781Y012271D01*
X004769Y012286D01*
X004759Y012302D01*
X004754Y012321D01*
X004752Y012340D01*
X005052Y012340D02*
X005054Y012359D01*
X005059Y012378D01*
X005069Y012394D01*
X005081Y012409D01*
X005096Y012421D01*
X005112Y012431D01*
X005131Y012436D01*
X005150Y012438D01*
X005169Y012436D01*
X005188Y012431D01*
X005204Y012421D01*
X005219Y012409D01*
X005231Y012394D01*
X005241Y012378D01*
X005246Y012359D01*
X005248Y012340D01*
X005246Y012321D01*
X005241Y012302D01*
X005231Y012286D01*
X005219Y012271D01*
X005204Y012259D01*
X005188Y012249D01*
X005169Y012244D01*
X005150Y012242D01*
X005131Y012244D01*
X005112Y012249D01*
X005096Y012259D01*
X005081Y012271D01*
X005069Y012286D01*
X005059Y012302D01*
X005054Y012321D01*
X005052Y012340D01*
X005352Y012340D02*
X005354Y012359D01*
X005359Y012378D01*
X005369Y012394D01*
X005381Y012409D01*
X005396Y012421D01*
X005412Y012431D01*
X005431Y012436D01*
X005450Y012438D01*
X005469Y012436D01*
X005488Y012431D01*
X005504Y012421D01*
X005519Y012409D01*
X005531Y012394D01*
X005541Y012378D01*
X005546Y012359D01*
X005548Y012340D01*
X005546Y012321D01*
X005541Y012302D01*
X005531Y012286D01*
X005519Y012271D01*
X005504Y012259D01*
X005488Y012249D01*
X005469Y012244D01*
X005450Y012242D01*
X005431Y012244D01*
X005412Y012249D01*
X005396Y012259D01*
X005381Y012271D01*
X005369Y012286D01*
X005359Y012302D01*
X005354Y012321D01*
X005352Y012340D01*
X008952Y007350D02*
X008954Y007369D01*
X008959Y007388D01*
X008969Y007404D01*
X008981Y007419D01*
X008996Y007431D01*
X009012Y007441D01*
X009031Y007446D01*
X009050Y007448D01*
X009069Y007446D01*
X009088Y007441D01*
X009104Y007431D01*
X009119Y007419D01*
X009131Y007404D01*
X009141Y007388D01*
X009146Y007369D01*
X009148Y007350D01*
X009146Y007331D01*
X009141Y007312D01*
X009131Y007296D01*
X009119Y007281D01*
X009104Y007269D01*
X009088Y007259D01*
X009069Y007254D01*
X009050Y007252D01*
X009031Y007254D01*
X009012Y007259D01*
X008996Y007269D01*
X008981Y007281D01*
X008969Y007296D01*
X008959Y007312D01*
X008954Y007331D01*
X008952Y007350D01*
X008952Y007050D02*
X008954Y007069D01*
X008959Y007088D01*
X008969Y007104D01*
X008981Y007119D01*
X008996Y007131D01*
X009012Y007141D01*
X009031Y007146D01*
X009050Y007148D01*
X009069Y007146D01*
X009088Y007141D01*
X009104Y007131D01*
X009119Y007119D01*
X009131Y007104D01*
X009141Y007088D01*
X009146Y007069D01*
X009148Y007050D01*
X009146Y007031D01*
X009141Y007012D01*
X009131Y006996D01*
X009119Y006981D01*
X009104Y006969D01*
X009088Y006959D01*
X009069Y006954D01*
X009050Y006952D01*
X009031Y006954D01*
X009012Y006959D01*
X008996Y006969D01*
X008981Y006981D01*
X008969Y006996D01*
X008959Y007012D01*
X008954Y007031D01*
X008952Y007050D01*
X008952Y006750D02*
X008954Y006769D01*
X008959Y006788D01*
X008969Y006804D01*
X008981Y006819D01*
X008996Y006831D01*
X009012Y006841D01*
X009031Y006846D01*
X009050Y006848D01*
X009069Y006846D01*
X009088Y006841D01*
X009104Y006831D01*
X009119Y006819D01*
X009131Y006804D01*
X009141Y006788D01*
X009146Y006769D01*
X009148Y006750D01*
X009146Y006731D01*
X009141Y006712D01*
X009131Y006696D01*
X009119Y006681D01*
X009104Y006669D01*
X009088Y006659D01*
X009069Y006654D01*
X009050Y006652D01*
X009031Y006654D01*
X009012Y006659D01*
X008996Y006669D01*
X008981Y006681D01*
X008969Y006696D01*
X008959Y006712D01*
X008954Y006731D01*
X008952Y006750D01*
X009252Y006750D02*
X009254Y006769D01*
X009259Y006788D01*
X009269Y006804D01*
X009281Y006819D01*
X009296Y006831D01*
X009312Y006841D01*
X009331Y006846D01*
X009350Y006848D01*
X009369Y006846D01*
X009388Y006841D01*
X009404Y006831D01*
X009419Y006819D01*
X009431Y006804D01*
X009441Y006788D01*
X009446Y006769D01*
X009448Y006750D01*
X009446Y006731D01*
X009441Y006712D01*
X009431Y006696D01*
X009419Y006681D01*
X009404Y006669D01*
X009388Y006659D01*
X009369Y006654D01*
X009350Y006652D01*
X009331Y006654D01*
X009312Y006659D01*
X009296Y006669D01*
X009281Y006681D01*
X009269Y006696D01*
X009259Y006712D01*
X009254Y006731D01*
X009252Y006750D01*
X009252Y007050D02*
X009254Y007069D01*
X009259Y007088D01*
X009269Y007104D01*
X009281Y007119D01*
X009296Y007131D01*
X009312Y007141D01*
X009331Y007146D01*
X009350Y007148D01*
X009369Y007146D01*
X009388Y007141D01*
X009404Y007131D01*
X009419Y007119D01*
X009431Y007104D01*
X009441Y007088D01*
X009446Y007069D01*
X009448Y007050D01*
X009446Y007031D01*
X009441Y007012D01*
X009431Y006996D01*
X009419Y006981D01*
X009404Y006969D01*
X009388Y006959D01*
X009369Y006954D01*
X009350Y006952D01*
X009331Y006954D01*
X009312Y006959D01*
X009296Y006969D01*
X009281Y006981D01*
X009269Y006996D01*
X009259Y007012D01*
X009254Y007031D01*
X009252Y007050D01*
X009252Y007350D02*
X009254Y007369D01*
X009259Y007388D01*
X009269Y007404D01*
X009281Y007419D01*
X009296Y007431D01*
X009312Y007441D01*
X009331Y007446D01*
X009350Y007448D01*
X009369Y007446D01*
X009388Y007441D01*
X009404Y007431D01*
X009419Y007419D01*
X009431Y007404D01*
X009441Y007388D01*
X009446Y007369D01*
X009448Y007350D01*
X009446Y007331D01*
X009441Y007312D01*
X009431Y007296D01*
X009419Y007281D01*
X009404Y007269D01*
X009388Y007259D01*
X009369Y007254D01*
X009350Y007252D01*
X009331Y007254D01*
X009312Y007259D01*
X009296Y007269D01*
X009281Y007281D01*
X009269Y007296D01*
X009259Y007312D01*
X009254Y007331D01*
X009252Y007350D01*
X013752Y012040D02*
X013754Y012059D01*
X013759Y012078D01*
X013769Y012094D01*
X013781Y012109D01*
X013796Y012121D01*
X013812Y012131D01*
X013831Y012136D01*
X013850Y012138D01*
X013869Y012136D01*
X013888Y012131D01*
X013904Y012121D01*
X013919Y012109D01*
X013931Y012094D01*
X013941Y012078D01*
X013946Y012059D01*
X013948Y012040D01*
X013946Y012021D01*
X013941Y012002D01*
X013931Y011986D01*
X013919Y011971D01*
X013904Y011959D01*
X013888Y011949D01*
X013869Y011944D01*
X013850Y011942D01*
X013831Y011944D01*
X013812Y011949D01*
X013796Y011959D01*
X013781Y011971D01*
X013769Y011986D01*
X013759Y012002D01*
X013754Y012021D01*
X013752Y012040D01*
X013752Y012340D02*
X013754Y012359D01*
X013759Y012378D01*
X013769Y012394D01*
X013781Y012409D01*
X013796Y012421D01*
X013812Y012431D01*
X013831Y012436D01*
X013850Y012438D01*
X013869Y012436D01*
X013888Y012431D01*
X013904Y012421D01*
X013919Y012409D01*
X013931Y012394D01*
X013941Y012378D01*
X013946Y012359D01*
X013948Y012340D01*
X013946Y012321D01*
X013941Y012302D01*
X013931Y012286D01*
X013919Y012271D01*
X013904Y012259D01*
X013888Y012249D01*
X013869Y012244D01*
X013850Y012242D01*
X013831Y012244D01*
X013812Y012249D01*
X013796Y012259D01*
X013781Y012271D01*
X013769Y012286D01*
X013759Y012302D01*
X013754Y012321D01*
X013752Y012340D01*
X014052Y012340D02*
X014054Y012359D01*
X014059Y012378D01*
X014069Y012394D01*
X014081Y012409D01*
X014096Y012421D01*
X014112Y012431D01*
X014131Y012436D01*
X014150Y012438D01*
X014169Y012436D01*
X014188Y012431D01*
X014204Y012421D01*
X014219Y012409D01*
X014231Y012394D01*
X014241Y012378D01*
X014246Y012359D01*
X014248Y012340D01*
X014246Y012321D01*
X014241Y012302D01*
X014231Y012286D01*
X014219Y012271D01*
X014204Y012259D01*
X014188Y012249D01*
X014169Y012244D01*
X014150Y012242D01*
X014131Y012244D01*
X014112Y012249D01*
X014096Y012259D01*
X014081Y012271D01*
X014069Y012286D01*
X014059Y012302D01*
X014054Y012321D01*
X014052Y012340D01*
X014052Y012040D02*
X014054Y012059D01*
X014059Y012078D01*
X014069Y012094D01*
X014081Y012109D01*
X014096Y012121D01*
X014112Y012131D01*
X014131Y012136D01*
X014150Y012138D01*
X014169Y012136D01*
X014188Y012131D01*
X014204Y012121D01*
X014219Y012109D01*
X014231Y012094D01*
X014241Y012078D01*
X014246Y012059D01*
X014248Y012040D01*
X014246Y012021D01*
X014241Y012002D01*
X014231Y011986D01*
X014219Y011971D01*
X014204Y011959D01*
X014188Y011949D01*
X014169Y011944D01*
X014150Y011942D01*
X014131Y011944D01*
X014112Y011949D01*
X014096Y011959D01*
X014081Y011971D01*
X014069Y011986D01*
X014059Y012002D01*
X014054Y012021D01*
X014052Y012040D01*
X014352Y012040D02*
X014354Y012059D01*
X014359Y012078D01*
X014369Y012094D01*
X014381Y012109D01*
X014396Y012121D01*
X014412Y012131D01*
X014431Y012136D01*
X014450Y012138D01*
X014469Y012136D01*
X014488Y012131D01*
X014504Y012121D01*
X014519Y012109D01*
X014531Y012094D01*
X014541Y012078D01*
X014546Y012059D01*
X014548Y012040D01*
X014546Y012021D01*
X014541Y012002D01*
X014531Y011986D01*
X014519Y011971D01*
X014504Y011959D01*
X014488Y011949D01*
X014469Y011944D01*
X014450Y011942D01*
X014431Y011944D01*
X014412Y011949D01*
X014396Y011959D01*
X014381Y011971D01*
X014369Y011986D01*
X014359Y012002D01*
X014354Y012021D01*
X014352Y012040D01*
X014352Y012340D02*
X014354Y012359D01*
X014359Y012378D01*
X014369Y012394D01*
X014381Y012409D01*
X014396Y012421D01*
X014412Y012431D01*
X014431Y012436D01*
X014450Y012438D01*
X014469Y012436D01*
X014488Y012431D01*
X014504Y012421D01*
X014519Y012409D01*
X014531Y012394D01*
X014541Y012378D01*
X014546Y012359D01*
X014548Y012340D01*
X014546Y012321D01*
X014541Y012302D01*
X014531Y012286D01*
X014519Y012271D01*
X014504Y012259D01*
X014488Y012249D01*
X014469Y012244D01*
X014450Y012242D01*
X014431Y012244D01*
X014412Y012249D01*
X014396Y012259D01*
X014381Y012271D01*
X014369Y012286D01*
X014359Y012302D01*
X014354Y012321D01*
X014352Y012340D01*
X017962Y007650D02*
X017964Y007669D01*
X017969Y007688D01*
X017979Y007704D01*
X017991Y007719D01*
X018006Y007731D01*
X018022Y007741D01*
X018041Y007746D01*
X018060Y007748D01*
X018079Y007746D01*
X018098Y007741D01*
X018114Y007731D01*
X018129Y007719D01*
X018141Y007704D01*
X018151Y007688D01*
X018156Y007669D01*
X018158Y007650D01*
X018156Y007631D01*
X018151Y007612D01*
X018141Y007596D01*
X018129Y007581D01*
X018114Y007569D01*
X018098Y007559D01*
X018079Y007554D01*
X018060Y007552D01*
X018041Y007554D01*
X018022Y007559D01*
X018006Y007569D01*
X017991Y007581D01*
X017979Y007596D01*
X017969Y007612D01*
X017964Y007631D01*
X017962Y007650D01*
X017962Y007350D02*
X017964Y007369D01*
X017969Y007388D01*
X017979Y007404D01*
X017991Y007419D01*
X018006Y007431D01*
X018022Y007441D01*
X018041Y007446D01*
X018060Y007448D01*
X018079Y007446D01*
X018098Y007441D01*
X018114Y007431D01*
X018129Y007419D01*
X018141Y007404D01*
X018151Y007388D01*
X018156Y007369D01*
X018158Y007350D01*
X018156Y007331D01*
X018151Y007312D01*
X018141Y007296D01*
X018129Y007281D01*
X018114Y007269D01*
X018098Y007259D01*
X018079Y007254D01*
X018060Y007252D01*
X018041Y007254D01*
X018022Y007259D01*
X018006Y007269D01*
X017991Y007281D01*
X017979Y007296D01*
X017969Y007312D01*
X017964Y007331D01*
X017962Y007350D01*
X018262Y007350D02*
X018264Y007369D01*
X018269Y007388D01*
X018279Y007404D01*
X018291Y007419D01*
X018306Y007431D01*
X018322Y007441D01*
X018341Y007446D01*
X018360Y007448D01*
X018379Y007446D01*
X018398Y007441D01*
X018414Y007431D01*
X018429Y007419D01*
X018441Y007404D01*
X018451Y007388D01*
X018456Y007369D01*
X018458Y007350D01*
X018456Y007331D01*
X018451Y007312D01*
X018441Y007296D01*
X018429Y007281D01*
X018414Y007269D01*
X018398Y007259D01*
X018379Y007254D01*
X018360Y007252D01*
X018341Y007254D01*
X018322Y007259D01*
X018306Y007269D01*
X018291Y007281D01*
X018279Y007296D01*
X018269Y007312D01*
X018264Y007331D01*
X018262Y007350D01*
X018262Y007650D02*
X018264Y007669D01*
X018269Y007688D01*
X018279Y007704D01*
X018291Y007719D01*
X018306Y007731D01*
X018322Y007741D01*
X018341Y007746D01*
X018360Y007748D01*
X018379Y007746D01*
X018398Y007741D01*
X018414Y007731D01*
X018429Y007719D01*
X018441Y007704D01*
X018451Y007688D01*
X018456Y007669D01*
X018458Y007650D01*
X018456Y007631D01*
X018451Y007612D01*
X018441Y007596D01*
X018429Y007581D01*
X018414Y007569D01*
X018398Y007559D01*
X018379Y007554D01*
X018360Y007552D01*
X018341Y007554D01*
X018322Y007559D01*
X018306Y007569D01*
X018291Y007581D01*
X018279Y007596D01*
X018269Y007612D01*
X018264Y007631D01*
X018262Y007650D01*
X018450Y006600D02*
X018448Y006630D01*
X018443Y006660D01*
X018434Y006689D01*
X018421Y006716D01*
X018406Y006742D01*
X018387Y006766D01*
X018366Y006787D01*
X018342Y006806D01*
X018316Y006821D01*
X018289Y006834D01*
X018260Y006843D01*
X018230Y006848D01*
X018200Y006850D01*
X018170Y006848D01*
X018140Y006843D01*
X018111Y006834D01*
X018084Y006821D01*
X018058Y006806D01*
X018034Y006787D01*
X018013Y006766D01*
X017994Y006742D01*
X017979Y006716D01*
X017966Y006689D01*
X017957Y006660D01*
X017952Y006630D01*
X017950Y006600D01*
X010152Y016950D02*
X010154Y016969D01*
X010159Y016988D01*
X010169Y017004D01*
X010181Y017019D01*
X010196Y017031D01*
X010212Y017041D01*
X010231Y017046D01*
X010250Y017048D01*
X010269Y017046D01*
X010288Y017041D01*
X010304Y017031D01*
X010319Y017019D01*
X010331Y017004D01*
X010341Y016988D01*
X010346Y016969D01*
X010348Y016950D01*
X010346Y016931D01*
X010341Y016912D01*
X010331Y016896D01*
X010319Y016881D01*
X010304Y016869D01*
X010288Y016859D01*
X010269Y016854D01*
X010250Y016852D01*
X010231Y016854D01*
X010212Y016859D01*
X010196Y016869D01*
X010181Y016881D01*
X010169Y016896D01*
X010159Y016912D01*
X010154Y016931D01*
X010152Y016950D01*
X009852Y016950D02*
X009854Y016969D01*
X009859Y016988D01*
X009869Y017004D01*
X009881Y017019D01*
X009896Y017031D01*
X009912Y017041D01*
X009931Y017046D01*
X009950Y017048D01*
X009969Y017046D01*
X009988Y017041D01*
X010004Y017031D01*
X010019Y017019D01*
X010031Y017004D01*
X010041Y016988D01*
X010046Y016969D01*
X010048Y016950D01*
X010046Y016931D01*
X010041Y016912D01*
X010031Y016896D01*
X010019Y016881D01*
X010004Y016869D01*
X009988Y016859D01*
X009969Y016854D01*
X009950Y016852D01*
X009931Y016854D01*
X009912Y016859D01*
X009896Y016869D01*
X009881Y016881D01*
X009869Y016896D01*
X009859Y016912D01*
X009854Y016931D01*
X009852Y016950D01*
X009852Y017250D02*
X009854Y017269D01*
X009859Y017288D01*
X009869Y017304D01*
X009881Y017319D01*
X009896Y017331D01*
X009912Y017341D01*
X009931Y017346D01*
X009950Y017348D01*
X009969Y017346D01*
X009988Y017341D01*
X010004Y017331D01*
X010019Y017319D01*
X010031Y017304D01*
X010041Y017288D01*
X010046Y017269D01*
X010048Y017250D01*
X010046Y017231D01*
X010041Y017212D01*
X010031Y017196D01*
X010019Y017181D01*
X010004Y017169D01*
X009988Y017159D01*
X009969Y017154D01*
X009950Y017152D01*
X009931Y017154D01*
X009912Y017159D01*
X009896Y017169D01*
X009881Y017181D01*
X009869Y017196D01*
X009859Y017212D01*
X009854Y017231D01*
X009852Y017250D01*
X009852Y017550D02*
X009854Y017569D01*
X009859Y017588D01*
X009869Y017604D01*
X009881Y017619D01*
X009896Y017631D01*
X009912Y017641D01*
X009931Y017646D01*
X009950Y017648D01*
X009969Y017646D01*
X009988Y017641D01*
X010004Y017631D01*
X010019Y017619D01*
X010031Y017604D01*
X010041Y017588D01*
X010046Y017569D01*
X010048Y017550D01*
X010046Y017531D01*
X010041Y017512D01*
X010031Y017496D01*
X010019Y017481D01*
X010004Y017469D01*
X009988Y017459D01*
X009969Y017454D01*
X009950Y017452D01*
X009931Y017454D01*
X009912Y017459D01*
X009896Y017469D01*
X009881Y017481D01*
X009869Y017496D01*
X009859Y017512D01*
X009854Y017531D01*
X009852Y017550D01*
X010152Y017550D02*
X010154Y017569D01*
X010159Y017588D01*
X010169Y017604D01*
X010181Y017619D01*
X010196Y017631D01*
X010212Y017641D01*
X010231Y017646D01*
X010250Y017648D01*
X010269Y017646D01*
X010288Y017641D01*
X010304Y017631D01*
X010319Y017619D01*
X010331Y017604D01*
X010341Y017588D01*
X010346Y017569D01*
X010348Y017550D01*
X010346Y017531D01*
X010341Y017512D01*
X010331Y017496D01*
X010319Y017481D01*
X010304Y017469D01*
X010288Y017459D01*
X010269Y017454D01*
X010250Y017452D01*
X010231Y017454D01*
X010212Y017459D01*
X010196Y017469D01*
X010181Y017481D01*
X010169Y017496D01*
X010159Y017512D01*
X010154Y017531D01*
X010152Y017550D01*
X010152Y017250D02*
X010154Y017269D01*
X010159Y017288D01*
X010169Y017304D01*
X010181Y017319D01*
X010196Y017331D01*
X010212Y017341D01*
X010231Y017346D01*
X010250Y017348D01*
X010269Y017346D01*
X010288Y017341D01*
X010304Y017331D01*
X010319Y017319D01*
X010331Y017304D01*
X010341Y017288D01*
X010346Y017269D01*
X010348Y017250D01*
X010346Y017231D01*
X010341Y017212D01*
X010331Y017196D01*
X010319Y017181D01*
X010304Y017169D01*
X010288Y017159D01*
X010269Y017154D01*
X010250Y017152D01*
X010231Y017154D01*
X010212Y017159D01*
X010196Y017169D01*
X010181Y017181D01*
X010169Y017196D01*
X010159Y017212D01*
X010154Y017231D01*
X010152Y017250D01*
D11*
X009705Y017236D02*
X009657Y017188D01*
X009608Y017188D01*
X009560Y017236D01*
X009512Y017188D01*
X009463Y017188D01*
X009415Y017236D01*
X009415Y017333D01*
X009463Y017381D01*
X009560Y017284D02*
X009560Y017236D01*
X009705Y017236D02*
X009705Y017333D01*
X009657Y017381D01*
X009657Y017482D02*
X009463Y017676D01*
X009415Y017676D01*
X009415Y017777D02*
X009415Y017970D01*
X009415Y017874D02*
X009705Y017874D01*
X009608Y017970D01*
X009657Y018072D02*
X009705Y018120D01*
X009705Y018217D01*
X009657Y018265D01*
X009463Y018265D01*
X009415Y018217D01*
X009415Y018120D01*
X009463Y018072D01*
X009705Y017676D02*
X009705Y017482D01*
X009657Y017482D01*
X009275Y016315D02*
X009275Y016025D01*
X009130Y016025D01*
X009082Y016073D01*
X009082Y016170D01*
X009130Y016218D01*
X009275Y016218D01*
X009178Y016218D02*
X009082Y016315D01*
X008980Y016315D02*
X008787Y016315D01*
X008884Y016315D02*
X008884Y016025D01*
X008980Y016122D01*
X008980Y015915D02*
X008787Y015915D01*
X008884Y015915D02*
X008884Y015625D01*
X008980Y015722D01*
X009082Y015673D02*
X009130Y015625D01*
X009227Y015625D01*
X009275Y015673D01*
X009275Y015867D01*
X009227Y015915D01*
X009130Y015915D01*
X009082Y015867D01*
X009130Y015515D02*
X009082Y015467D01*
X009130Y015515D02*
X009227Y015515D01*
X009275Y015467D01*
X009275Y015273D01*
X009227Y015225D01*
X009130Y015225D01*
X009082Y015273D01*
X008980Y015322D02*
X008884Y015225D01*
X008884Y015515D01*
X008980Y015515D02*
X008787Y015515D01*
X008686Y015515D02*
X008492Y015322D01*
X008492Y015273D01*
X008541Y015225D01*
X008637Y015225D01*
X008686Y015273D01*
X008686Y015515D02*
X008492Y015515D01*
X008391Y015515D02*
X008198Y015515D01*
X008294Y015515D02*
X008294Y015225D01*
X008391Y015322D01*
X008294Y015625D02*
X008294Y015915D01*
X008198Y015915D02*
X008391Y015915D01*
X008492Y015867D02*
X008541Y015915D01*
X008637Y015915D01*
X008686Y015867D01*
X008589Y015770D02*
X008541Y015770D01*
X008492Y015818D01*
X008492Y015867D01*
X008541Y015770D02*
X008492Y015722D01*
X008492Y015673D01*
X008541Y015625D01*
X008637Y015625D01*
X008686Y015673D01*
X008391Y015722D02*
X008294Y015625D01*
X008294Y016025D02*
X008294Y016315D01*
X008198Y016315D02*
X008391Y016315D01*
X008541Y016315D02*
X008541Y016025D01*
X008686Y016170D01*
X008492Y016170D01*
X008391Y016122D02*
X008294Y016025D01*
X007785Y017188D02*
X007785Y017381D01*
X007785Y017284D02*
X008075Y017284D01*
X007978Y017381D01*
X008027Y017482D02*
X007833Y017676D01*
X007785Y017676D01*
X007785Y017777D02*
X007785Y017970D01*
X007785Y017874D02*
X008075Y017874D01*
X007978Y017970D01*
X007785Y018072D02*
X007785Y018265D01*
X008075Y018265D01*
X008195Y018258D02*
X008195Y018451D01*
X008195Y018354D02*
X008485Y018354D01*
X008388Y018451D01*
X008437Y018552D02*
X008243Y018746D01*
X008195Y018746D01*
X008195Y018847D02*
X008195Y019040D01*
X008195Y018944D02*
X008485Y018944D01*
X008388Y019040D01*
X008340Y019142D02*
X008292Y019190D01*
X008292Y019335D01*
X008292Y019238D02*
X008195Y019142D01*
X008340Y019142D02*
X008437Y019142D01*
X008485Y019190D01*
X008485Y019335D01*
X008195Y019335D01*
X008485Y018746D02*
X008485Y018552D01*
X008437Y018552D01*
X008075Y017676D02*
X008075Y017482D01*
X008027Y017482D01*
X007095Y018085D02*
X007095Y018375D01*
X007095Y018230D02*
X006998Y018230D01*
X006902Y018085D02*
X007095Y018085D01*
X006800Y018182D02*
X006704Y018085D01*
X006704Y018375D01*
X006800Y018375D02*
X006607Y018375D01*
X005875Y018367D02*
X005875Y018173D01*
X005827Y018125D01*
X005730Y018125D01*
X005682Y018173D01*
X005580Y018173D02*
X005532Y018125D01*
X005435Y018125D01*
X005387Y018173D01*
X005387Y018222D01*
X005580Y018415D01*
X005387Y018415D01*
X005286Y018367D02*
X005237Y018415D01*
X005141Y018415D01*
X005092Y018367D01*
X005092Y018318D01*
X005141Y018270D01*
X005286Y018270D01*
X005286Y018367D01*
X005286Y018270D02*
X005189Y018173D01*
X005092Y018125D01*
X004991Y018222D02*
X004894Y018125D01*
X004894Y018415D01*
X004798Y018415D02*
X004991Y018415D01*
X004894Y018525D02*
X004894Y018815D01*
X004798Y018815D02*
X004991Y018815D01*
X005092Y018767D02*
X005141Y018815D01*
X005237Y018815D01*
X005286Y018767D01*
X005286Y018670D02*
X005189Y018622D01*
X005141Y018622D01*
X005092Y018670D01*
X005092Y018767D01*
X004991Y018622D02*
X004894Y018525D01*
X005092Y018525D02*
X005286Y018525D01*
X005286Y018670D01*
X005387Y018622D02*
X005387Y018573D01*
X005435Y018525D01*
X005532Y018525D01*
X005580Y018573D01*
X005682Y018573D02*
X005730Y018525D01*
X005827Y018525D01*
X005875Y018573D01*
X005875Y018767D01*
X005827Y018815D01*
X005730Y018815D01*
X005682Y018767D01*
X005580Y018815D02*
X005387Y018622D01*
X005387Y018815D02*
X005580Y018815D01*
X005730Y018415D02*
X005682Y018367D01*
X005730Y018415D02*
X005827Y018415D01*
X005875Y018367D01*
X004335Y019506D02*
X004273Y019445D01*
X004150Y019445D01*
X004088Y019506D01*
X004078Y019506D02*
X004140Y019445D01*
X004263Y019445D01*
X004325Y019506D01*
X004325Y019753D01*
X004263Y019815D01*
X004140Y019815D01*
X004078Y019753D01*
X004088Y019753D02*
X004150Y019815D01*
X004273Y019815D01*
X004335Y019753D01*
X004335Y019506D01*
X003967Y019506D02*
X003905Y019445D01*
X003782Y019445D01*
X003720Y019506D01*
X003710Y019506D02*
X003772Y019445D01*
X003895Y019445D01*
X003957Y019506D01*
X003957Y019753D01*
X003895Y019815D01*
X003772Y019815D01*
X003710Y019753D01*
X003720Y019753D02*
X003782Y019815D01*
X003905Y019815D01*
X003967Y019753D01*
X003967Y019506D01*
X003598Y019568D02*
X003475Y019445D01*
X003475Y019815D01*
X003465Y019815D02*
X003465Y019445D01*
X003588Y019568D01*
X003588Y019815D02*
X003341Y019815D01*
X003351Y019815D02*
X003598Y019815D01*
X003475Y020045D02*
X003475Y020415D01*
X003465Y020415D02*
X003465Y020045D01*
X003588Y020168D01*
X003598Y020168D02*
X003475Y020045D01*
X003710Y020106D02*
X003772Y020045D01*
X003895Y020045D01*
X003957Y020106D01*
X003957Y020353D01*
X003895Y020415D01*
X003772Y020415D01*
X003710Y020353D01*
X003720Y020353D02*
X003782Y020415D01*
X003905Y020415D01*
X003967Y020353D01*
X003967Y020106D01*
X003905Y020045D01*
X003782Y020045D01*
X003720Y020106D01*
X003598Y020415D02*
X003351Y020415D01*
X003341Y020415D02*
X003588Y020415D01*
X003230Y020415D02*
X002983Y020168D01*
X002983Y020106D01*
X003045Y020045D01*
X003168Y020045D01*
X003230Y020106D01*
X003220Y020106D02*
X003158Y020045D01*
X003035Y020045D01*
X002973Y020106D01*
X002973Y020168D01*
X003220Y020415D01*
X002973Y020415D01*
X002983Y020415D02*
X003230Y020415D01*
X002862Y020353D02*
X002862Y020106D01*
X002800Y020045D01*
X002677Y020045D01*
X002615Y020106D01*
X002862Y020353D01*
X002800Y020415D01*
X002677Y020415D01*
X002615Y020353D01*
X002615Y020106D01*
X002605Y020106D02*
X002852Y020353D01*
X002790Y020415D01*
X002667Y020415D01*
X002605Y020353D01*
X002605Y020106D01*
X002667Y020045D01*
X002790Y020045D01*
X002852Y020106D01*
X002852Y020353D01*
X002493Y020353D02*
X002493Y020106D01*
X002432Y020045D01*
X002308Y020045D01*
X002247Y020106D01*
X002493Y020353D01*
X002432Y020415D01*
X002308Y020415D01*
X002247Y020353D01*
X002247Y020106D01*
X002237Y020106D02*
X002483Y020353D01*
X002422Y020415D01*
X002298Y020415D01*
X002237Y020353D01*
X002237Y020106D01*
X002298Y020045D01*
X002422Y020045D01*
X002483Y020106D01*
X002483Y020353D01*
X002557Y020825D02*
X002364Y020825D01*
X002374Y020825D02*
X002567Y020825D01*
X002567Y020970D01*
X002470Y020922D01*
X002422Y020922D01*
X002374Y020970D01*
X002374Y021067D01*
X002422Y021115D01*
X002519Y021115D01*
X002567Y021067D01*
X002557Y021067D02*
X002509Y021115D01*
X002412Y021115D01*
X002364Y021067D01*
X002364Y020970D01*
X002412Y020922D01*
X002460Y020922D01*
X002557Y020970D01*
X002557Y020825D01*
X002755Y020825D02*
X002755Y021115D01*
X002765Y021115D02*
X002765Y020825D01*
X002862Y020922D01*
X002852Y020922D02*
X002755Y020825D01*
X002953Y020873D02*
X002953Y021067D01*
X003001Y021115D01*
X003098Y021115D01*
X003146Y021067D01*
X003156Y021067D02*
X003108Y021115D01*
X003011Y021115D01*
X002963Y021067D01*
X002963Y020873D01*
X003011Y020825D01*
X003108Y020825D01*
X003156Y020873D01*
X003156Y020922D01*
X003108Y020970D01*
X002963Y020970D01*
X002953Y020970D02*
X003098Y020970D01*
X003146Y020922D01*
X003146Y020873D01*
X003098Y020825D01*
X003001Y020825D01*
X002953Y020873D01*
X002862Y021115D02*
X002668Y021115D01*
X002658Y021115D02*
X002852Y021115D01*
X002913Y021245D02*
X002913Y021615D01*
X002923Y021615D02*
X002923Y021245D01*
X003096Y021368D02*
X003035Y021430D01*
X003035Y021615D01*
X003220Y021615D01*
X003281Y021553D01*
X003220Y021492D01*
X003035Y021492D01*
X003045Y021492D02*
X003230Y021492D01*
X003291Y021553D01*
X003230Y021615D01*
X003045Y021615D01*
X003045Y021430D01*
X003106Y021368D01*
X003230Y021368D01*
X003220Y021368D02*
X003096Y021368D01*
X002923Y021492D02*
X002738Y021368D01*
X002728Y021368D02*
X002913Y021492D01*
X002728Y021615D01*
X002738Y021615D02*
X002923Y021492D01*
X002616Y021430D02*
X002616Y021553D01*
X002554Y021615D01*
X002431Y021615D01*
X002369Y021553D01*
X002369Y021430D01*
X002431Y021368D01*
X002554Y021368D01*
X002616Y021430D01*
X002606Y021430D02*
X002606Y021553D01*
X002544Y021615D01*
X002421Y021615D01*
X002359Y021553D01*
X002359Y021430D01*
X002421Y021368D01*
X002544Y021368D01*
X002606Y021430D01*
X002248Y021368D02*
X002248Y021553D01*
X002186Y021615D01*
X002001Y021615D01*
X002001Y021368D01*
X001991Y021368D02*
X001991Y021615D01*
X002176Y021615D01*
X002238Y021553D01*
X002238Y021368D01*
X002262Y021115D02*
X002262Y020825D01*
X002166Y020922D01*
X002069Y020825D01*
X002069Y021115D01*
X002079Y021115D02*
X002079Y020825D01*
X002176Y020922D01*
X002272Y020825D01*
X002272Y021115D01*
X001978Y021115D02*
X001978Y020825D01*
X001968Y020825D02*
X001968Y021115D01*
X001968Y020970D02*
X001774Y020970D01*
X001784Y020970D02*
X001978Y020970D01*
X001784Y020825D02*
X001784Y021115D01*
X001774Y021115D02*
X001774Y020825D01*
X001683Y020922D02*
X001490Y020922D01*
X001683Y021115D01*
X001490Y021115D01*
X001480Y021115D02*
X001673Y021115D01*
X001480Y020922D01*
X001673Y020922D01*
X001808Y021306D02*
X001808Y021553D01*
X001746Y021615D01*
X001756Y021615D02*
X001818Y021553D01*
X001818Y021306D01*
X001870Y021368D02*
X001746Y021368D01*
X001756Y021368D02*
X001880Y021368D01*
X001707Y020415D02*
X001513Y020415D01*
X001707Y020222D01*
X001513Y020222D01*
X001465Y020270D01*
X001465Y020367D01*
X001513Y020415D01*
X001503Y020415D02*
X001697Y020222D01*
X001503Y020222D01*
X001455Y020270D01*
X001455Y020367D01*
X001503Y020415D01*
X001697Y020415D01*
X001745Y020367D01*
X001745Y020270D01*
X001697Y020222D01*
X001707Y020222D02*
X001755Y020270D01*
X001755Y020367D01*
X001707Y020415D01*
X001610Y020120D02*
X001610Y019975D01*
X001562Y019927D01*
X001513Y019927D01*
X001465Y019975D01*
X001465Y020072D01*
X001513Y020120D01*
X001610Y020120D01*
X001707Y020024D01*
X001755Y019927D01*
X001745Y019927D02*
X001697Y020024D01*
X001600Y020120D01*
X001600Y019975D01*
X001552Y019927D01*
X001503Y019927D01*
X001455Y019975D01*
X001455Y020072D01*
X001503Y020120D01*
X001600Y020120D01*
X001513Y019826D02*
X001707Y019632D01*
X001513Y019632D01*
X001465Y019681D01*
X001465Y019777D01*
X001513Y019826D01*
X001707Y019826D01*
X001755Y019777D01*
X001755Y019681D01*
X001707Y019632D01*
X001697Y019632D02*
X001503Y019826D01*
X001455Y019777D01*
X001455Y019681D01*
X001503Y019632D01*
X001697Y019632D01*
X001745Y019681D01*
X001745Y019777D01*
X001697Y019826D01*
X001503Y019826D01*
X001503Y019531D02*
X001455Y019483D01*
X001455Y019386D01*
X001503Y019338D01*
X001552Y019338D01*
X001600Y019386D01*
X001600Y019434D01*
X001610Y019434D02*
X001610Y019386D01*
X001562Y019338D01*
X001513Y019338D01*
X001465Y019386D01*
X001465Y019483D01*
X001513Y019531D01*
X001600Y019386D02*
X001648Y019338D01*
X001697Y019338D01*
X001745Y019386D01*
X001745Y019483D01*
X001697Y019531D01*
X001707Y019531D02*
X001755Y019483D01*
X001755Y019386D01*
X001707Y019338D01*
X001658Y019338D01*
X001610Y019386D01*
X001755Y019165D02*
X001852Y019165D01*
X001803Y019165D02*
X001803Y018875D01*
X001755Y018875D02*
X001852Y018875D01*
X001951Y018923D02*
X002000Y018875D01*
X002097Y018875D01*
X002145Y018923D01*
X002145Y019117D01*
X002097Y019165D01*
X002000Y019165D01*
X001951Y019117D01*
X001951Y018923D01*
X002246Y018875D02*
X002440Y019068D01*
X002440Y019117D01*
X002391Y019165D01*
X002294Y019165D01*
X002246Y019117D01*
X002246Y018875D02*
X002440Y018875D01*
X002755Y018875D02*
X002852Y018875D01*
X002803Y018875D02*
X002803Y019165D01*
X002755Y019165D02*
X002852Y019165D01*
X002951Y019117D02*
X002951Y018923D01*
X003000Y018875D01*
X003097Y018875D01*
X003145Y018923D01*
X003145Y019117D01*
X003097Y019165D01*
X003000Y019165D01*
X002951Y019117D01*
X003097Y019445D02*
X003097Y019815D01*
X003107Y019815D02*
X003107Y019445D01*
X003230Y019568D01*
X003220Y019568D02*
X003097Y019445D01*
X002862Y019506D02*
X002800Y019445D01*
X002677Y019445D01*
X002615Y019506D01*
X002615Y019568D01*
X002862Y019815D01*
X002615Y019815D01*
X002605Y019815D02*
X002852Y019815D01*
X002605Y019568D01*
X002605Y019506D01*
X002667Y019445D01*
X002790Y019445D01*
X002852Y019506D01*
X002973Y019815D02*
X003220Y019815D01*
X003230Y019815D02*
X002983Y019815D01*
X002493Y019753D02*
X002493Y019506D01*
X002432Y019445D01*
X002308Y019445D01*
X002247Y019506D01*
X002493Y019753D01*
X002432Y019815D01*
X002308Y019815D01*
X002247Y019753D01*
X002247Y019506D01*
X002237Y019506D02*
X002483Y019753D01*
X002422Y019815D01*
X002298Y019815D01*
X002237Y019753D01*
X002237Y019506D01*
X002298Y019445D01*
X002422Y019445D01*
X002483Y019506D01*
X002483Y019753D01*
X002125Y019815D02*
X001878Y019445D01*
X001868Y019445D02*
X002115Y019815D01*
X003246Y019117D02*
X003294Y019165D01*
X003391Y019165D01*
X003440Y019117D01*
X003440Y019068D01*
X003391Y019020D01*
X003440Y018972D01*
X003440Y018923D01*
X003391Y018875D01*
X003294Y018875D01*
X003246Y018923D01*
X003343Y019020D02*
X003391Y019020D01*
X004140Y020045D02*
X004263Y020045D01*
X004325Y020106D01*
X004325Y020353D01*
X004263Y020415D01*
X004140Y020415D01*
X004078Y020353D01*
X004088Y020353D02*
X004150Y020415D01*
X004273Y020415D01*
X004335Y020353D01*
X004335Y020106D01*
X004273Y020045D01*
X004150Y020045D01*
X004088Y020106D01*
X004078Y020106D02*
X004140Y020045D01*
X004180Y020825D02*
X004132Y020873D01*
X004132Y020922D01*
X004180Y020970D01*
X004277Y020970D01*
X004325Y020922D01*
X004325Y020873D01*
X004277Y020825D01*
X004180Y020825D01*
X004190Y020825D02*
X004142Y020873D01*
X004142Y020922D01*
X004190Y020970D01*
X004287Y020970D01*
X004335Y020922D01*
X004335Y020873D01*
X004287Y020825D01*
X004190Y020825D01*
X004190Y020970D02*
X004142Y021018D01*
X004142Y021067D01*
X004190Y021115D01*
X004287Y021115D01*
X004335Y021067D01*
X004335Y021018D01*
X004287Y020970D01*
X004277Y020970D02*
X004325Y021018D01*
X004325Y021067D01*
X004277Y021115D01*
X004180Y021115D01*
X004132Y021067D01*
X004132Y021018D01*
X004180Y020970D01*
X004040Y020970D02*
X003944Y020873D01*
X003847Y020825D01*
X003837Y020825D02*
X003934Y020873D01*
X004030Y020970D01*
X003885Y020970D01*
X003837Y021018D01*
X003837Y021067D01*
X003885Y021115D01*
X003982Y021115D01*
X004030Y021067D01*
X004030Y020970D01*
X004040Y020970D02*
X003895Y020970D01*
X003847Y021018D01*
X003847Y021067D01*
X003895Y021115D01*
X003992Y021115D01*
X004040Y021067D01*
X004040Y020970D01*
X004140Y021245D02*
X004078Y021306D01*
X004078Y021368D01*
X004140Y021430D01*
X004325Y021430D01*
X004335Y021430D02*
X004150Y021430D01*
X004088Y021492D01*
X004088Y021553D01*
X004150Y021615D01*
X004335Y021615D01*
X004335Y021245D01*
X004150Y021245D01*
X004088Y021306D01*
X004088Y021368D01*
X004150Y021430D01*
X004140Y021430D02*
X004078Y021492D01*
X004078Y021553D01*
X004140Y021615D01*
X004325Y021615D01*
X004325Y021245D01*
X004140Y021245D01*
X003967Y021368D02*
X003967Y021615D01*
X003957Y021615D02*
X003957Y021368D01*
X003843Y021368D02*
X003967Y021492D01*
X003957Y021492D02*
X003833Y021368D01*
X003772Y021368D01*
X003782Y021368D02*
X003843Y021368D01*
X003660Y021430D02*
X003598Y021368D01*
X003475Y021368D01*
X003413Y021430D01*
X003413Y021492D01*
X003660Y021492D01*
X003650Y021492D02*
X003403Y021492D01*
X003403Y021430D01*
X003465Y021368D01*
X003588Y021368D01*
X003650Y021430D01*
X003650Y021553D01*
X003588Y021615D01*
X003465Y021615D01*
X003475Y021615D02*
X003598Y021615D01*
X003660Y021553D01*
X003660Y021430D01*
X003687Y021115D02*
X003591Y021115D01*
X003542Y021067D01*
X003542Y021018D01*
X003591Y020970D01*
X003687Y020970D01*
X003736Y020922D01*
X003736Y020873D01*
X003687Y020825D01*
X003591Y020825D01*
X003542Y020873D01*
X003542Y020922D01*
X003591Y020970D01*
X003601Y020970D02*
X003697Y020970D01*
X003746Y020922D01*
X003746Y020873D01*
X003697Y020825D01*
X003601Y020825D01*
X003552Y020873D01*
X003552Y020922D01*
X003601Y020970D01*
X003552Y021018D01*
X003552Y021067D01*
X003601Y021115D01*
X003697Y021115D01*
X003746Y021067D01*
X003746Y021018D01*
X003697Y020970D01*
X003687Y020970D02*
X003736Y021018D01*
X003736Y021067D01*
X003687Y021115D01*
X003451Y021115D02*
X003258Y020825D01*
X003248Y020825D02*
X003441Y021115D01*
X003430Y017415D02*
X003382Y017367D01*
X003430Y017415D02*
X003527Y017415D01*
X003575Y017367D01*
X003575Y017173D01*
X003527Y017125D01*
X003430Y017125D01*
X003382Y017173D01*
X003280Y017173D02*
X003232Y017125D01*
X003135Y017125D01*
X003087Y017173D01*
X003087Y017222D01*
X003280Y017415D01*
X003087Y017415D01*
X002986Y017415D02*
X002986Y017367D01*
X002792Y017173D01*
X002792Y017125D01*
X002986Y017125D01*
X002691Y017222D02*
X002594Y017125D01*
X002594Y017415D01*
X002498Y017415D02*
X002691Y017415D01*
X002377Y016515D02*
X002280Y016515D01*
X002232Y016467D01*
X002130Y016515D02*
X001937Y016322D01*
X001937Y016273D01*
X001985Y016225D01*
X002082Y016225D01*
X002130Y016273D01*
X002232Y016273D02*
X002280Y016225D01*
X002377Y016225D01*
X002425Y016273D01*
X002425Y016467D01*
X002377Y016515D01*
X002130Y016515D02*
X001937Y016515D01*
X001836Y016467D02*
X001787Y016515D01*
X001691Y016515D01*
X001642Y016467D01*
X001642Y016273D01*
X001691Y016225D01*
X001787Y016225D01*
X001836Y016273D01*
X001836Y016322D01*
X001787Y016370D01*
X001642Y016370D01*
X001541Y016322D02*
X001444Y016225D01*
X001444Y016515D01*
X001348Y016515D02*
X001541Y016515D01*
X001703Y015965D02*
X001655Y015917D01*
X001655Y015820D01*
X001703Y015772D01*
X001703Y015670D02*
X001655Y015622D01*
X001655Y015525D01*
X001703Y015477D01*
X001752Y015477D01*
X001800Y015525D01*
X001800Y015574D01*
X001800Y015525D02*
X001848Y015477D01*
X001897Y015477D01*
X001945Y015525D01*
X001945Y015622D01*
X001897Y015670D01*
X001897Y015772D02*
X001945Y015820D01*
X001945Y015917D01*
X001897Y015965D01*
X001703Y015965D01*
X002055Y015917D02*
X002055Y015820D01*
X002103Y015772D01*
X002103Y015670D02*
X002055Y015622D01*
X002055Y015525D01*
X002103Y015477D01*
X002152Y015477D01*
X002200Y015525D01*
X002200Y015574D01*
X002200Y015525D02*
X002248Y015477D01*
X002297Y015477D01*
X002345Y015525D01*
X002345Y015622D01*
X002297Y015670D01*
X002297Y015772D02*
X002345Y015820D01*
X002345Y015917D01*
X002297Y015965D01*
X002103Y015965D01*
X002055Y015917D01*
X002103Y015376D02*
X002297Y015182D01*
X002103Y015182D01*
X002055Y015231D01*
X002055Y015327D01*
X002103Y015376D01*
X002297Y015376D01*
X002345Y015327D01*
X002345Y015231D01*
X002297Y015182D01*
X002248Y015081D02*
X002345Y014984D01*
X002055Y014984D01*
X002055Y014888D02*
X002055Y015081D01*
X001945Y015033D02*
X001897Y015081D01*
X001945Y015033D02*
X001945Y014936D01*
X001897Y014888D01*
X001848Y014888D01*
X001655Y015081D01*
X001655Y014888D01*
X001703Y015182D02*
X001655Y015231D01*
X001655Y015327D01*
X001703Y015376D01*
X001897Y015182D01*
X001703Y015182D01*
X001703Y015376D02*
X001897Y015376D01*
X001945Y015327D01*
X001945Y015231D01*
X001897Y015182D01*
X002248Y014675D02*
X002441Y014675D01*
X002344Y014675D02*
X002344Y014385D01*
X002441Y014482D01*
X002542Y014675D02*
X002736Y014675D01*
X002639Y014675D02*
X002639Y014385D01*
X002736Y014482D01*
X002837Y014482D02*
X002885Y014530D01*
X002837Y014578D01*
X002837Y014627D01*
X002885Y014675D01*
X002982Y014675D01*
X003030Y014627D01*
X003132Y014627D02*
X003180Y014675D01*
X003277Y014675D01*
X003325Y014627D01*
X003325Y014433D01*
X003277Y014385D01*
X003180Y014385D01*
X003132Y014433D01*
X003030Y014433D02*
X002982Y014385D01*
X002885Y014385D01*
X002837Y014433D01*
X002837Y014482D01*
X002885Y014530D02*
X002934Y014530D01*
X003018Y014175D02*
X002970Y014127D01*
X002970Y014078D01*
X003018Y014030D01*
X003115Y014030D01*
X003163Y013982D01*
X003163Y013933D01*
X003115Y013885D01*
X003018Y013885D01*
X002970Y013933D01*
X002868Y013885D02*
X002772Y013982D01*
X002820Y013982D02*
X002675Y013982D01*
X002675Y013885D02*
X002675Y014175D01*
X002820Y014175D01*
X002868Y014127D01*
X002868Y014030D01*
X002820Y013982D01*
X003018Y014175D02*
X003115Y014175D01*
X003163Y014127D01*
X003264Y014175D02*
X003458Y014175D01*
X003361Y014175D02*
X003361Y013885D01*
X003755Y013875D02*
X003852Y013875D01*
X003803Y013875D02*
X003803Y014165D01*
X003755Y014165D02*
X003852Y014165D01*
X003951Y014117D02*
X004000Y014165D01*
X004097Y014165D01*
X004145Y014117D01*
X004145Y013923D01*
X004097Y013875D01*
X004000Y013875D01*
X003951Y013923D01*
X003951Y014117D01*
X004246Y014117D02*
X004294Y014165D01*
X004391Y014165D01*
X004440Y014117D01*
X004246Y013923D01*
X004294Y013875D01*
X004391Y013875D01*
X004440Y013923D01*
X004440Y014117D01*
X004246Y014117D02*
X004246Y013923D01*
X004695Y013933D02*
X004743Y013885D01*
X004840Y013885D01*
X004888Y013933D01*
X004990Y013885D02*
X005183Y013885D01*
X005284Y013885D02*
X005284Y014175D01*
X005333Y014030D02*
X005478Y013885D01*
X005284Y013982D02*
X005478Y014175D01*
X005699Y014325D02*
X005699Y014615D01*
X005796Y014615D02*
X005602Y014615D01*
X005796Y014422D02*
X005699Y014325D01*
X005897Y014325D02*
X006090Y014325D01*
X006090Y014470D01*
X005994Y014422D01*
X005945Y014422D01*
X005897Y014470D01*
X005897Y014567D01*
X005945Y014615D01*
X006042Y014615D01*
X006090Y014567D01*
X006192Y014567D02*
X006240Y014615D01*
X006337Y014615D01*
X006385Y014567D01*
X006385Y014373D01*
X006337Y014325D01*
X006240Y014325D01*
X006192Y014373D01*
X006210Y014165D02*
X006306Y014165D01*
X006258Y014165D02*
X006258Y013875D01*
X006210Y013875D02*
X006306Y013875D01*
X006108Y013923D02*
X006060Y013875D01*
X005963Y013875D01*
X005915Y013923D01*
X005963Y014020D02*
X006060Y014020D01*
X006108Y013972D01*
X006108Y013923D01*
X005963Y014020D02*
X005915Y014068D01*
X005915Y014117D01*
X005963Y014165D01*
X006060Y014165D01*
X006108Y014117D01*
X006785Y014117D02*
X006785Y014068D01*
X006833Y014020D01*
X006930Y014020D01*
X006978Y013972D01*
X006978Y013923D01*
X006930Y013875D01*
X006833Y013875D01*
X006785Y013923D01*
X006785Y014117D02*
X006833Y014165D01*
X006930Y014165D01*
X006978Y014117D01*
X007080Y014117D02*
X007080Y013923D01*
X007128Y013875D01*
X007225Y013875D01*
X007273Y013923D01*
X007273Y014117D01*
X007225Y014165D01*
X007128Y014165D01*
X007080Y014117D01*
X007820Y014235D02*
X008409Y014235D01*
X008323Y014127D02*
X008275Y014175D01*
X008178Y014175D01*
X008130Y014127D01*
X008130Y014078D01*
X008178Y014030D01*
X008275Y014030D01*
X008323Y013982D01*
X008323Y013933D01*
X008275Y013885D01*
X008178Y013885D01*
X008130Y013933D01*
X008028Y013933D02*
X007980Y013885D01*
X007883Y013885D01*
X007835Y013933D01*
X007835Y014127D01*
X007883Y014175D01*
X007980Y014175D01*
X008028Y014127D01*
X008645Y014127D02*
X008645Y013933D01*
X008693Y013885D01*
X008790Y013885D01*
X008838Y013933D01*
X008838Y014030D01*
X008742Y014030D01*
X008838Y014127D02*
X008790Y014175D01*
X008693Y014175D01*
X008645Y014127D01*
X008940Y014175D02*
X008940Y013885D01*
X009133Y013885D02*
X009133Y014175D01*
X009234Y014175D02*
X009379Y014175D01*
X009428Y014127D01*
X009428Y013933D01*
X009379Y013885D01*
X009234Y013885D01*
X009234Y014175D01*
X008940Y014175D02*
X009133Y013885D01*
X010745Y013923D02*
X010793Y013875D01*
X010890Y013875D01*
X010938Y013923D01*
X010938Y013972D01*
X010890Y014020D01*
X010842Y014020D01*
X010890Y014020D02*
X010938Y014068D01*
X010938Y014117D01*
X010890Y014165D01*
X010793Y014165D01*
X010745Y014117D01*
X011040Y014165D02*
X011040Y013972D01*
X011136Y013875D01*
X011233Y013972D01*
X011233Y014165D01*
X011334Y014117D02*
X011383Y014165D01*
X011479Y014165D01*
X011528Y014117D01*
X011528Y014068D01*
X011479Y014020D01*
X011528Y013972D01*
X011528Y013923D01*
X011479Y013875D01*
X011383Y013875D01*
X011334Y013923D01*
X011431Y014020D02*
X011479Y014020D01*
X011675Y013982D02*
X011820Y013982D01*
X011868Y014030D01*
X011868Y014127D01*
X011820Y014175D01*
X011675Y014175D01*
X011675Y013885D01*
X011772Y013982D02*
X011868Y013885D01*
X011970Y013933D02*
X012018Y013885D01*
X012115Y013885D01*
X012163Y013933D01*
X012163Y013982D01*
X012115Y014030D01*
X012018Y014030D01*
X011970Y014078D01*
X011970Y014127D01*
X012018Y014175D01*
X012115Y014175D01*
X012163Y014127D01*
X012264Y014175D02*
X012458Y014175D01*
X012361Y014175D02*
X012361Y013885D01*
X012755Y013875D02*
X012852Y013875D01*
X012803Y013875D02*
X012803Y014165D01*
X012755Y014165D02*
X012852Y014165D01*
X012951Y014117D02*
X012951Y013923D01*
X013000Y013875D01*
X013097Y013875D01*
X013145Y013923D01*
X013145Y014117D01*
X013097Y014165D01*
X013000Y014165D01*
X012951Y014117D01*
X013246Y014117D02*
X013294Y014165D01*
X013391Y014165D01*
X013440Y014117D01*
X013246Y013923D01*
X013294Y013875D01*
X013391Y013875D01*
X013440Y013923D01*
X013440Y014117D01*
X013246Y014117D02*
X013246Y013923D01*
X013695Y013933D02*
X013743Y013885D01*
X013840Y013885D01*
X013888Y013933D01*
X013990Y013885D02*
X014183Y013885D01*
X014284Y013885D02*
X014284Y014175D01*
X014333Y014030D02*
X014478Y013885D01*
X014284Y013982D02*
X014478Y014175D01*
X014915Y014117D02*
X014915Y014068D01*
X014963Y014020D01*
X015060Y014020D01*
X015108Y013972D01*
X015108Y013923D01*
X015060Y013875D01*
X014963Y013875D01*
X014915Y013923D01*
X014915Y014117D02*
X014963Y014165D01*
X015060Y014165D01*
X015108Y014117D01*
X015210Y014165D02*
X015306Y014165D01*
X015258Y014165D02*
X015258Y013875D01*
X015210Y013875D02*
X015306Y013875D01*
X015785Y013923D02*
X015833Y013875D01*
X015930Y013875D01*
X015978Y013923D01*
X015978Y013972D01*
X015930Y014020D01*
X015833Y014020D01*
X015785Y014068D01*
X015785Y014117D01*
X015833Y014165D01*
X015930Y014165D01*
X015978Y014117D01*
X016080Y014117D02*
X016128Y014165D01*
X016225Y014165D01*
X016273Y014117D01*
X016273Y013923D01*
X016225Y013875D01*
X016128Y013875D01*
X016080Y013923D01*
X016080Y014117D01*
X016820Y014235D02*
X017409Y014235D01*
X017323Y014127D02*
X017275Y014175D01*
X017178Y014175D01*
X017130Y014127D01*
X017130Y014078D01*
X017178Y014030D01*
X017275Y014030D01*
X017323Y013982D01*
X017323Y013933D01*
X017275Y013885D01*
X017178Y013885D01*
X017130Y013933D01*
X017028Y013933D02*
X016980Y013885D01*
X016883Y013885D01*
X016835Y013933D01*
X016835Y014127D01*
X016883Y014175D01*
X016980Y014175D01*
X017028Y014127D01*
X017645Y014127D02*
X017645Y013933D01*
X017693Y013885D01*
X017790Y013885D01*
X017838Y013933D01*
X017838Y014030D01*
X017742Y014030D01*
X017838Y014127D02*
X017790Y014175D01*
X017693Y014175D01*
X017645Y014127D01*
X017940Y014175D02*
X017940Y013885D01*
X018133Y013885D02*
X018133Y014175D01*
X018234Y014175D02*
X018379Y014175D01*
X018428Y014127D01*
X018428Y013933D01*
X018379Y013885D01*
X018234Y013885D01*
X018234Y014175D01*
X017940Y014175D02*
X018133Y013885D01*
X018037Y015925D02*
X017941Y015925D01*
X017892Y015973D01*
X017892Y016022D01*
X018086Y016215D01*
X017892Y016215D01*
X017791Y016215D02*
X017598Y016215D01*
X017694Y016215D02*
X017694Y015925D01*
X017791Y016022D01*
X018037Y015925D02*
X018086Y015973D01*
X018284Y015925D02*
X018284Y016215D01*
X018380Y016215D02*
X018187Y016215D01*
X018380Y016022D02*
X018284Y015925D01*
X018482Y015973D02*
X018530Y015925D01*
X018627Y015925D01*
X018675Y015973D01*
X018675Y016167D01*
X018627Y016215D01*
X018530Y016215D01*
X018482Y016167D01*
X018530Y016725D02*
X018627Y016725D01*
X018675Y016773D01*
X018675Y016967D01*
X018627Y017015D01*
X018530Y017015D01*
X018482Y016967D01*
X018380Y017015D02*
X018187Y017015D01*
X018284Y017015D02*
X018284Y016725D01*
X018380Y016822D01*
X018482Y016773D02*
X018530Y016725D01*
X018530Y017125D02*
X018482Y017173D01*
X018482Y017270D01*
X018530Y017318D01*
X018675Y017318D01*
X018578Y017318D02*
X018482Y017415D01*
X018380Y017415D02*
X018187Y017415D01*
X018284Y017415D02*
X018284Y017125D01*
X018380Y017222D01*
X018530Y017125D02*
X018675Y017125D01*
X018675Y017415D01*
X018627Y017525D02*
X018675Y017573D01*
X018675Y017767D01*
X018627Y017815D01*
X018530Y017815D01*
X018482Y017767D01*
X018380Y017815D02*
X018187Y017815D01*
X018284Y017815D02*
X018284Y017525D01*
X018380Y017622D01*
X018482Y017573D02*
X018530Y017525D01*
X018627Y017525D01*
X018657Y017925D02*
X018560Y017925D01*
X018512Y017973D01*
X018410Y018022D02*
X018314Y017925D01*
X018314Y018215D01*
X018410Y018215D02*
X018217Y018215D01*
X018116Y018215D02*
X018116Y018167D01*
X017922Y017973D01*
X017922Y017925D01*
X018116Y017925D01*
X018037Y017815D02*
X018086Y017767D01*
X018037Y017815D02*
X017941Y017815D01*
X017892Y017767D01*
X017892Y017670D01*
X017941Y017622D01*
X017989Y017622D01*
X018086Y017670D01*
X018086Y017525D01*
X017892Y017525D01*
X017941Y017415D02*
X017941Y017125D01*
X018086Y017270D01*
X017892Y017270D01*
X017791Y017222D02*
X017694Y017125D01*
X017694Y017415D01*
X017598Y017415D02*
X017791Y017415D01*
X017694Y017525D02*
X017694Y017815D01*
X017598Y017815D02*
X017791Y017815D01*
X017773Y017925D02*
X017821Y017973D01*
X017773Y017925D02*
X017676Y017925D01*
X017628Y017973D01*
X017628Y018022D01*
X017821Y018215D01*
X017628Y018215D01*
X017694Y018325D02*
X017694Y018615D01*
X017598Y018615D02*
X017791Y018615D01*
X017785Y018648D02*
X017785Y018841D01*
X017785Y018744D02*
X018075Y018744D01*
X017978Y018841D01*
X018027Y018942D02*
X017833Y019136D01*
X017785Y019136D01*
X017785Y019237D02*
X017785Y019430D01*
X017785Y019334D02*
X018075Y019334D01*
X017978Y019430D01*
X017930Y019532D02*
X017882Y019580D01*
X017882Y019725D01*
X017882Y019628D02*
X017785Y019532D01*
X017930Y019532D02*
X018027Y019532D01*
X018075Y019580D01*
X018075Y019725D01*
X017785Y019725D01*
X018185Y019677D02*
X018185Y019580D01*
X018233Y019532D01*
X018185Y019430D02*
X018185Y019237D01*
X018185Y019334D02*
X018475Y019334D01*
X018378Y019430D01*
X018427Y019532D02*
X018475Y019580D01*
X018475Y019677D01*
X018427Y019725D01*
X018233Y019725D01*
X018185Y019677D01*
X018185Y019136D02*
X018233Y019136D01*
X018427Y018942D01*
X018475Y018942D01*
X018475Y019136D01*
X018427Y018841D02*
X018475Y018793D01*
X018475Y018696D01*
X018427Y018648D01*
X018378Y018648D01*
X018330Y018696D01*
X018282Y018648D01*
X018233Y018648D01*
X018185Y018696D01*
X018185Y018793D01*
X018233Y018841D01*
X018330Y018744D02*
X018330Y018696D01*
X018284Y018615D02*
X018284Y018325D01*
X018380Y018422D01*
X018482Y018373D02*
X018530Y018325D01*
X018627Y018325D01*
X018675Y018373D01*
X018675Y018567D01*
X018627Y018615D01*
X018530Y018615D01*
X018482Y018567D01*
X018380Y018615D02*
X018187Y018615D01*
X018086Y018615D02*
X018086Y018567D01*
X017892Y018373D01*
X017892Y018325D01*
X018086Y018325D01*
X017791Y018422D02*
X017694Y018325D01*
X018027Y018942D02*
X018075Y018942D01*
X018075Y019136D01*
X018560Y018215D02*
X018512Y018167D01*
X018560Y018215D02*
X018657Y018215D01*
X018705Y018167D01*
X018705Y017973D01*
X018657Y017925D01*
X018037Y017015D02*
X017941Y017015D01*
X017892Y016967D01*
X017892Y016918D01*
X017941Y016870D01*
X017989Y016870D01*
X017941Y016870D02*
X017892Y016822D01*
X017892Y016773D01*
X017941Y016725D01*
X018037Y016725D01*
X018086Y016773D01*
X018086Y016967D02*
X018037Y017015D01*
X017791Y017015D02*
X017598Y017015D01*
X017694Y017015D02*
X017694Y016725D01*
X017791Y016822D01*
X017694Y017525D02*
X017791Y017622D01*
X016915Y017704D02*
X016625Y017704D01*
X016625Y017608D02*
X016625Y017801D01*
X016818Y017801D02*
X016915Y017704D01*
X016915Y017902D02*
X016867Y017902D01*
X016673Y018096D01*
X016625Y018096D01*
X016625Y018197D02*
X016625Y018390D01*
X016625Y018294D02*
X016915Y018294D01*
X016818Y018390D01*
X016625Y018492D02*
X016625Y018685D01*
X016915Y018685D01*
X016915Y018096D02*
X016915Y017902D01*
X016095Y018085D02*
X015902Y018085D01*
X015800Y018182D02*
X015704Y018085D01*
X015704Y018375D01*
X015800Y018375D02*
X015607Y018375D01*
X015998Y018230D02*
X016095Y018230D01*
X016095Y018375D02*
X016095Y018085D01*
X014475Y018744D02*
X014185Y018744D01*
X014185Y018648D02*
X014185Y018841D01*
X014185Y018942D02*
X014185Y019136D01*
X014185Y019039D02*
X014475Y019039D01*
X014378Y019136D01*
X014378Y019237D02*
X014427Y019237D01*
X014475Y019285D01*
X014475Y019382D01*
X014427Y019430D01*
X014427Y019532D02*
X014475Y019580D01*
X014475Y019677D01*
X014427Y019725D01*
X014233Y019725D01*
X014185Y019677D01*
X014185Y019580D01*
X014233Y019532D01*
X014185Y019430D02*
X014378Y019237D01*
X014185Y019237D02*
X014185Y019430D01*
X014075Y019382D02*
X014027Y019430D01*
X014075Y019382D02*
X014075Y019285D01*
X014027Y019237D01*
X013978Y019237D01*
X013785Y019430D01*
X013785Y019237D01*
X013785Y019136D02*
X013978Y018942D01*
X014027Y018942D01*
X014075Y018991D01*
X014075Y019087D01*
X014027Y019136D01*
X013785Y019136D02*
X013785Y018942D01*
X013785Y018841D02*
X013785Y018648D01*
X013785Y018744D02*
X014075Y018744D01*
X013978Y018841D01*
X013645Y018827D02*
X013645Y018731D01*
X013597Y018682D01*
X013548Y018682D01*
X013500Y018731D01*
X013452Y018682D01*
X013403Y018682D01*
X013355Y018731D01*
X013355Y018827D01*
X013403Y018876D01*
X013355Y018977D02*
X013355Y019170D01*
X013548Y018977D01*
X013597Y018977D01*
X013645Y019025D01*
X013645Y019122D01*
X013597Y019170D01*
X013597Y019272D02*
X013645Y019320D01*
X013645Y019417D01*
X013597Y019465D01*
X013403Y019465D01*
X013355Y019417D01*
X013355Y019320D01*
X013403Y019272D01*
X013273Y019445D02*
X013335Y019506D01*
X013335Y019753D01*
X013273Y019815D01*
X013150Y019815D01*
X013088Y019753D01*
X013078Y019753D02*
X013140Y019815D01*
X013263Y019815D01*
X013325Y019753D01*
X013325Y019506D01*
X013263Y019445D01*
X013140Y019445D01*
X013078Y019506D01*
X013088Y019506D02*
X013150Y019445D01*
X013273Y019445D01*
X012967Y019506D02*
X012967Y019753D01*
X012905Y019815D01*
X012782Y019815D01*
X012720Y019753D01*
X012710Y019753D02*
X012772Y019815D01*
X012895Y019815D01*
X012957Y019753D01*
X012957Y019506D01*
X012895Y019445D01*
X012772Y019445D01*
X012710Y019506D01*
X012720Y019506D02*
X012782Y019445D01*
X012905Y019445D01*
X012967Y019506D01*
X012598Y019568D02*
X012475Y019445D01*
X012475Y019815D01*
X012465Y019815D02*
X012465Y019445D01*
X012588Y019568D01*
X012588Y019815D02*
X012341Y019815D01*
X012351Y019815D02*
X012598Y019815D01*
X012475Y020045D02*
X012475Y020415D01*
X012465Y020415D02*
X012465Y020045D01*
X012588Y020168D01*
X012598Y020168D02*
X012475Y020045D01*
X012710Y020106D02*
X012772Y020045D01*
X012895Y020045D01*
X012957Y020106D01*
X012957Y020353D01*
X012895Y020415D01*
X012772Y020415D01*
X012710Y020353D01*
X012720Y020353D02*
X012782Y020415D01*
X012905Y020415D01*
X012967Y020353D01*
X012967Y020106D01*
X012905Y020045D01*
X012782Y020045D01*
X012720Y020106D01*
X012598Y020415D02*
X012351Y020415D01*
X012341Y020415D02*
X012588Y020415D01*
X012230Y020415D02*
X011983Y020168D01*
X011983Y020106D01*
X012045Y020045D01*
X012168Y020045D01*
X012230Y020106D01*
X012220Y020106D02*
X012158Y020045D01*
X012035Y020045D01*
X011973Y020106D01*
X011973Y020168D01*
X012220Y020415D01*
X011973Y020415D01*
X011983Y020415D02*
X012230Y020415D01*
X011862Y020353D02*
X011862Y020106D01*
X011800Y020045D01*
X011677Y020045D01*
X011615Y020106D01*
X011862Y020353D01*
X011800Y020415D01*
X011677Y020415D01*
X011615Y020353D01*
X011615Y020106D01*
X011605Y020106D02*
X011852Y020353D01*
X011790Y020415D01*
X011667Y020415D01*
X011605Y020353D01*
X011605Y020106D01*
X011667Y020045D01*
X011790Y020045D01*
X011852Y020106D01*
X011852Y020353D01*
X011493Y020353D02*
X011493Y020106D01*
X011432Y020045D01*
X011308Y020045D01*
X011247Y020106D01*
X011493Y020353D01*
X011432Y020415D01*
X011308Y020415D01*
X011247Y020353D01*
X011247Y020106D01*
X011237Y020106D02*
X011483Y020353D01*
X011422Y020415D01*
X011298Y020415D01*
X011237Y020353D01*
X011237Y020106D01*
X011298Y020045D01*
X011422Y020045D01*
X011483Y020106D01*
X011483Y020353D01*
X011567Y020825D02*
X011374Y020825D01*
X011272Y020825D02*
X011272Y021115D01*
X011374Y021067D02*
X011422Y021115D01*
X011519Y021115D01*
X011567Y021067D01*
X011567Y020970D02*
X011470Y020922D01*
X011422Y020922D01*
X011374Y020970D01*
X011374Y021067D01*
X011567Y020970D02*
X011567Y020825D01*
X011765Y020825D02*
X011765Y021115D01*
X011862Y021115D02*
X011668Y021115D01*
X011728Y021368D02*
X011913Y021492D01*
X011728Y021615D01*
X011738Y021615D02*
X011923Y021492D01*
X011738Y021368D01*
X011616Y021430D02*
X011616Y021553D01*
X011554Y021615D01*
X011431Y021615D01*
X011369Y021553D01*
X011369Y021430D01*
X011431Y021368D01*
X011554Y021368D01*
X011616Y021430D01*
X011606Y021430D02*
X011606Y021553D01*
X011544Y021615D01*
X011421Y021615D01*
X011359Y021553D01*
X011359Y021430D01*
X011421Y021368D01*
X011544Y021368D01*
X011606Y021430D01*
X011913Y021615D02*
X011913Y021245D01*
X011923Y021245D02*
X011923Y021615D01*
X012035Y021615D02*
X012035Y021430D01*
X012096Y021368D01*
X012220Y021368D01*
X012230Y021368D02*
X012106Y021368D01*
X012045Y021430D01*
X012045Y021615D01*
X012230Y021615D01*
X012291Y021553D01*
X012230Y021492D01*
X012045Y021492D01*
X012035Y021492D02*
X012220Y021492D01*
X012281Y021553D01*
X012220Y021615D01*
X012035Y021615D01*
X012403Y021492D02*
X012403Y021430D01*
X012465Y021368D01*
X012588Y021368D01*
X012650Y021430D01*
X012650Y021553D01*
X012588Y021615D01*
X012465Y021615D01*
X012475Y021615D02*
X012598Y021615D01*
X012660Y021553D01*
X012660Y021430D01*
X012598Y021368D01*
X012475Y021368D01*
X012413Y021430D01*
X012413Y021492D01*
X012660Y021492D01*
X012650Y021492D02*
X012403Y021492D01*
X012451Y021115D02*
X012258Y020825D01*
X012156Y020873D02*
X012156Y020922D01*
X012108Y020970D01*
X011963Y020970D01*
X011963Y021067D02*
X011963Y020873D01*
X012011Y020825D01*
X012108Y020825D01*
X012156Y020873D01*
X012156Y021067D02*
X012108Y021115D01*
X012011Y021115D01*
X011963Y021067D01*
X011862Y020922D02*
X011765Y020825D01*
X011272Y020825D02*
X011176Y020922D01*
X011079Y020825D01*
X011079Y021115D01*
X010978Y021115D02*
X010978Y020825D01*
X010978Y020970D02*
X010784Y020970D01*
X010683Y020922D02*
X010490Y020922D01*
X010683Y021115D01*
X010490Y021115D01*
X010784Y021115D02*
X010784Y020825D01*
X010707Y020415D02*
X010513Y020415D01*
X010707Y020222D01*
X010513Y020222D01*
X010465Y020270D01*
X010465Y020367D01*
X010513Y020415D01*
X010503Y020415D02*
X010697Y020222D01*
X010503Y020222D01*
X010455Y020270D01*
X010455Y020367D01*
X010503Y020415D01*
X010697Y020415D01*
X010745Y020367D01*
X010745Y020270D01*
X010697Y020222D01*
X010707Y020222D02*
X010755Y020270D01*
X010755Y020367D01*
X010707Y020415D01*
X010610Y020120D02*
X010610Y019927D01*
X010600Y019927D02*
X010600Y020120D01*
X010745Y019975D01*
X010455Y019975D01*
X010465Y019975D02*
X010755Y019975D01*
X010610Y020120D01*
X010697Y019826D02*
X010503Y019826D01*
X010697Y019632D01*
X010503Y019632D01*
X010455Y019681D01*
X010455Y019777D01*
X010503Y019826D01*
X010513Y019826D02*
X010707Y019632D01*
X010513Y019632D01*
X010465Y019681D01*
X010465Y019777D01*
X010513Y019826D01*
X010707Y019826D01*
X010755Y019777D01*
X010755Y019681D01*
X010707Y019632D01*
X010697Y019632D02*
X010745Y019681D01*
X010745Y019777D01*
X010697Y019826D01*
X010697Y019531D02*
X010745Y019483D01*
X010745Y019386D01*
X010697Y019338D01*
X010648Y019338D01*
X010455Y019531D01*
X010455Y019338D01*
X010465Y019338D02*
X010465Y019531D01*
X010658Y019338D01*
X010707Y019338D01*
X010755Y019386D01*
X010755Y019483D01*
X010707Y019531D01*
X010868Y019445D02*
X011115Y019815D01*
X011125Y019815D02*
X010878Y019445D01*
X010852Y019165D02*
X010755Y019165D01*
X010803Y019165D02*
X010803Y018875D01*
X010755Y018875D02*
X010852Y018875D01*
X010951Y018923D02*
X010951Y019117D01*
X011000Y019165D01*
X011097Y019165D01*
X011145Y019117D01*
X011145Y018923D01*
X011097Y018875D01*
X011000Y018875D01*
X010951Y018923D01*
X011246Y018875D02*
X011440Y019068D01*
X011440Y019117D01*
X011391Y019165D01*
X011294Y019165D01*
X011246Y019117D01*
X011246Y018875D02*
X011440Y018875D01*
X011755Y018875D02*
X011852Y018875D01*
X011803Y018875D02*
X011803Y019165D01*
X011755Y019165D02*
X011852Y019165D01*
X011951Y019117D02*
X011951Y018923D01*
X012000Y018875D01*
X012097Y018875D01*
X012145Y018923D01*
X012145Y019117D01*
X012097Y019165D01*
X012000Y019165D01*
X011951Y019117D01*
X012246Y019117D02*
X012294Y019165D01*
X012391Y019165D01*
X012440Y019117D01*
X012440Y019068D01*
X012391Y019020D01*
X012440Y018972D01*
X012440Y018923D01*
X012391Y018875D01*
X012294Y018875D01*
X012246Y018923D01*
X012343Y019020D02*
X012391Y019020D01*
X012107Y019445D02*
X012230Y019568D01*
X012220Y019568D02*
X012097Y019445D01*
X012097Y019815D01*
X012107Y019815D02*
X012107Y019445D01*
X011862Y019506D02*
X011800Y019445D01*
X011677Y019445D01*
X011615Y019506D01*
X011615Y019568D01*
X011862Y019815D01*
X011615Y019815D01*
X011605Y019815D02*
X011852Y019815D01*
X011605Y019568D01*
X011605Y019506D01*
X011667Y019445D01*
X011790Y019445D01*
X011852Y019506D01*
X011973Y019815D02*
X012220Y019815D01*
X012230Y019815D02*
X011983Y019815D01*
X011493Y019753D02*
X011493Y019506D01*
X011432Y019445D01*
X011308Y019445D01*
X011247Y019506D01*
X011493Y019753D01*
X011432Y019815D01*
X011308Y019815D01*
X011247Y019753D01*
X011247Y019506D01*
X011237Y019506D02*
X011483Y019753D01*
X011422Y019815D01*
X011298Y019815D01*
X011237Y019753D01*
X011237Y019506D01*
X011298Y019445D01*
X011422Y019445D01*
X011483Y019506D01*
X011483Y019753D01*
X012601Y020825D02*
X012552Y020873D01*
X012552Y020922D01*
X012601Y020970D01*
X012697Y020970D01*
X012746Y020922D01*
X012746Y020873D01*
X012697Y020825D01*
X012601Y020825D01*
X012601Y020970D02*
X012552Y021018D01*
X012552Y021067D01*
X012601Y021115D01*
X012697Y021115D01*
X012746Y021067D01*
X012746Y021018D01*
X012697Y020970D01*
X012847Y021018D02*
X012895Y020970D01*
X013040Y020970D01*
X013040Y021067D01*
X012992Y021115D01*
X012895Y021115D01*
X012847Y021067D01*
X012847Y021018D01*
X012944Y020873D02*
X013040Y020970D01*
X013142Y021018D02*
X013142Y021067D01*
X013190Y021115D01*
X013287Y021115D01*
X013335Y021067D01*
X013335Y021018D01*
X013287Y020970D01*
X013190Y020970D01*
X013142Y021018D01*
X013190Y020970D02*
X013142Y020922D01*
X013142Y020873D01*
X013190Y020825D01*
X013287Y020825D01*
X013335Y020873D01*
X013335Y020922D01*
X013287Y020970D01*
X013325Y021245D02*
X013140Y021245D01*
X013078Y021306D01*
X013078Y021368D01*
X013140Y021430D01*
X013325Y021430D01*
X013335Y021430D02*
X013150Y021430D01*
X013088Y021492D01*
X013088Y021553D01*
X013150Y021615D01*
X013335Y021615D01*
X013335Y021245D01*
X013150Y021245D01*
X013088Y021306D01*
X013088Y021368D01*
X013150Y021430D01*
X013140Y021430D02*
X013078Y021492D01*
X013078Y021553D01*
X013140Y021615D01*
X013325Y021615D01*
X013325Y021245D01*
X012967Y021368D02*
X012967Y021615D01*
X012957Y021615D02*
X012957Y021368D01*
X012843Y021368D02*
X012782Y021368D01*
X012772Y021368D02*
X012833Y021368D01*
X012957Y021492D01*
X012967Y021492D02*
X012843Y021368D01*
X012944Y020873D02*
X012847Y020825D01*
X013140Y020415D02*
X013078Y020353D01*
X013088Y020353D02*
X013150Y020415D01*
X013273Y020415D01*
X013335Y020353D01*
X013335Y020106D01*
X013273Y020045D01*
X013150Y020045D01*
X013088Y020106D01*
X013078Y020106D02*
X013140Y020045D01*
X013263Y020045D01*
X013325Y020106D01*
X013325Y020353D01*
X013263Y020415D01*
X013140Y020415D01*
X013833Y019725D02*
X013785Y019677D01*
X013785Y019580D01*
X013833Y019532D01*
X013833Y019725D02*
X014027Y019725D01*
X014075Y019677D01*
X014075Y019580D01*
X014027Y019532D01*
X014378Y018841D02*
X014475Y018744D01*
X013875Y018267D02*
X013827Y018315D01*
X013730Y018315D01*
X013682Y018267D01*
X013580Y018315D02*
X013387Y018315D01*
X013355Y018388D02*
X013355Y018581D01*
X013355Y018484D02*
X013645Y018484D01*
X013548Y018581D01*
X013500Y018731D02*
X013500Y018779D01*
X013597Y018876D02*
X013645Y018827D01*
X013580Y018315D02*
X013387Y018122D01*
X013387Y018073D01*
X013435Y018025D01*
X013532Y018025D01*
X013580Y018073D01*
X013682Y018073D02*
X013730Y018025D01*
X013827Y018025D01*
X013875Y018073D01*
X013875Y018267D01*
X013286Y018267D02*
X013237Y018315D01*
X013141Y018315D01*
X013092Y018267D01*
X013092Y018170D01*
X013141Y018122D01*
X013189Y018122D01*
X013286Y018170D01*
X013286Y018025D01*
X013092Y018025D01*
X012991Y018122D02*
X012894Y018025D01*
X012894Y018315D01*
X012798Y018315D02*
X012991Y018315D01*
X012980Y017615D02*
X012787Y017615D01*
X012686Y017567D02*
X012686Y017470D01*
X012541Y017470D01*
X012492Y017518D01*
X012492Y017567D01*
X012541Y017615D01*
X012637Y017615D01*
X012686Y017567D01*
X012686Y017470D02*
X012589Y017373D01*
X012492Y017325D01*
X012391Y017422D02*
X012294Y017325D01*
X012294Y017615D01*
X012198Y017615D02*
X012391Y017615D01*
X012391Y017185D02*
X012198Y017185D01*
X012294Y017185D02*
X012294Y016895D01*
X012391Y016992D01*
X012492Y016943D02*
X012686Y017137D01*
X012686Y017185D01*
X012787Y017185D02*
X012980Y017185D01*
X012787Y016992D01*
X012787Y016943D01*
X012835Y016895D01*
X012932Y016895D01*
X012980Y016943D01*
X013082Y016943D02*
X013130Y016895D01*
X013227Y016895D01*
X013275Y016943D01*
X013275Y017137D01*
X013227Y017185D01*
X013130Y017185D01*
X013082Y017137D01*
X013130Y017325D02*
X013227Y017325D01*
X013275Y017373D01*
X013275Y017567D01*
X013227Y017615D01*
X013130Y017615D01*
X013082Y017567D01*
X012980Y017615D02*
X012787Y017422D01*
X012787Y017373D01*
X012835Y017325D01*
X012932Y017325D01*
X012980Y017373D01*
X013082Y017373D02*
X013130Y017325D01*
X012686Y016895D02*
X012492Y016895D01*
X012492Y016943D01*
X012487Y016815D02*
X012680Y016815D01*
X012487Y016622D01*
X012487Y016573D01*
X012535Y016525D01*
X012632Y016525D01*
X012680Y016573D01*
X012782Y016573D02*
X012830Y016525D01*
X012927Y016525D01*
X012975Y016573D01*
X012975Y016767D01*
X012927Y016815D01*
X012830Y016815D01*
X012782Y016767D01*
X012386Y016767D02*
X012386Y016718D01*
X012337Y016670D01*
X012241Y016670D01*
X012192Y016718D01*
X012192Y016767D01*
X012241Y016815D01*
X012337Y016815D01*
X012386Y016767D01*
X012337Y016670D02*
X012386Y016622D01*
X012386Y016573D01*
X012337Y016525D01*
X012241Y016525D01*
X012192Y016573D01*
X012192Y016622D01*
X012241Y016670D01*
X012091Y016622D02*
X011994Y016525D01*
X011994Y016815D01*
X011898Y016815D02*
X012091Y016815D01*
X011927Y016415D02*
X011830Y016415D01*
X011782Y016367D01*
X011680Y016415D02*
X011487Y016222D01*
X011487Y016173D01*
X011535Y016125D01*
X011632Y016125D01*
X011680Y016173D01*
X011782Y016173D02*
X011830Y016125D01*
X011927Y016125D01*
X011975Y016173D01*
X011975Y016367D01*
X011927Y016415D01*
X011680Y016415D02*
X011487Y016415D01*
X011386Y016367D02*
X011337Y016415D01*
X011241Y016415D01*
X011192Y016367D01*
X011192Y016173D01*
X011241Y016125D01*
X011337Y016125D01*
X011386Y016173D01*
X011386Y016222D01*
X011337Y016270D01*
X011192Y016270D01*
X011091Y016222D02*
X010994Y016125D01*
X010994Y016415D01*
X010898Y016415D02*
X011091Y016415D01*
X011203Y015965D02*
X011155Y015917D01*
X011155Y015820D01*
X011203Y015772D01*
X011203Y015670D02*
X011155Y015622D01*
X011155Y015525D01*
X011203Y015477D01*
X011252Y015477D01*
X011300Y015525D01*
X011300Y015574D01*
X011300Y015525D02*
X011348Y015477D01*
X011397Y015477D01*
X011445Y015525D01*
X011445Y015622D01*
X011397Y015670D01*
X011397Y015772D02*
X011445Y015820D01*
X011445Y015917D01*
X011397Y015965D01*
X011203Y015965D01*
X011555Y015917D02*
X011555Y015820D01*
X011603Y015772D01*
X011603Y015670D02*
X011555Y015622D01*
X011555Y015525D01*
X011603Y015477D01*
X011652Y015477D01*
X011700Y015525D01*
X011700Y015574D01*
X011700Y015525D02*
X011748Y015477D01*
X011797Y015477D01*
X011845Y015525D01*
X011845Y015622D01*
X011797Y015670D01*
X011797Y015772D02*
X011845Y015820D01*
X011845Y015917D01*
X011797Y015965D01*
X011603Y015965D01*
X011555Y015917D01*
X011603Y015376D02*
X011797Y015182D01*
X011603Y015182D01*
X011555Y015231D01*
X011555Y015327D01*
X011603Y015376D01*
X011797Y015376D01*
X011845Y015327D01*
X011845Y015231D01*
X011797Y015182D01*
X011748Y015081D02*
X011845Y014984D01*
X011555Y014984D01*
X011555Y014888D02*
X011555Y015081D01*
X011445Y015033D02*
X011397Y015081D01*
X011445Y015033D02*
X011445Y014936D01*
X011397Y014888D01*
X011348Y014888D01*
X011155Y015081D01*
X011155Y014888D01*
X011203Y015182D02*
X011155Y015231D01*
X011155Y015327D01*
X011203Y015376D01*
X011397Y015182D01*
X011203Y015182D01*
X011203Y015376D02*
X011397Y015376D01*
X011445Y015327D01*
X011445Y015231D01*
X011397Y015182D01*
X011638Y014835D02*
X011831Y014835D01*
X011734Y014835D02*
X011734Y014545D01*
X011831Y014642D01*
X011932Y014835D02*
X012126Y014835D01*
X012029Y014835D02*
X012029Y014545D01*
X012126Y014642D01*
X012227Y014642D02*
X012227Y014593D01*
X012275Y014545D01*
X012372Y014545D01*
X012420Y014593D01*
X012522Y014593D02*
X012570Y014545D01*
X012667Y014545D01*
X012715Y014593D01*
X012715Y014787D01*
X012667Y014835D01*
X012570Y014835D01*
X012522Y014787D01*
X012420Y014787D02*
X012372Y014835D01*
X012275Y014835D01*
X012227Y014787D01*
X012227Y014738D01*
X012275Y014690D01*
X012324Y014690D01*
X012275Y014690D02*
X012227Y014642D01*
X012544Y014235D02*
X011660Y014235D01*
X012254Y015765D02*
X012254Y016055D01*
X012350Y016055D02*
X012157Y016055D01*
X012350Y015862D02*
X012254Y015765D01*
X012452Y015765D02*
X012645Y016055D01*
X012452Y016055D02*
X012645Y015765D01*
X013625Y015525D02*
X013915Y015525D01*
X013915Y015380D01*
X013867Y015332D01*
X013770Y015332D01*
X013722Y015380D01*
X013722Y015525D01*
X013722Y015428D02*
X013625Y015332D01*
X013625Y015230D02*
X013625Y015037D01*
X013625Y015134D02*
X013915Y015134D01*
X013818Y015230D01*
X013867Y014936D02*
X013915Y014887D01*
X013915Y014791D01*
X013867Y014742D01*
X013818Y014742D01*
X013625Y014936D01*
X013625Y014742D01*
X013743Y014175D02*
X013695Y014127D01*
X013695Y013933D01*
X013743Y014175D02*
X013840Y014175D01*
X013888Y014127D01*
X013990Y014175D02*
X013990Y013885D01*
X014675Y014742D02*
X014675Y014936D01*
X014675Y014839D02*
X014965Y014839D01*
X014868Y014936D01*
X015075Y014985D02*
X015075Y015082D01*
X015123Y015130D01*
X015220Y015130D02*
X015268Y015034D01*
X015268Y014985D01*
X015220Y014937D01*
X015123Y014937D01*
X015075Y014985D01*
X015075Y014836D02*
X015075Y014642D01*
X015075Y014739D02*
X015365Y014739D01*
X015268Y014836D01*
X015365Y014937D02*
X015365Y015130D01*
X015220Y015130D01*
X015123Y015232D02*
X015075Y015280D01*
X015075Y015377D01*
X015123Y015425D01*
X015317Y015425D01*
X015365Y015377D01*
X015365Y015280D01*
X015317Y015232D01*
X014965Y015134D02*
X014675Y015134D01*
X014675Y015230D02*
X014675Y015037D01*
X014868Y015230D02*
X014965Y015134D01*
X014917Y015332D02*
X014965Y015380D01*
X014965Y015477D01*
X014917Y015525D01*
X014723Y015525D01*
X014675Y015477D01*
X014675Y015380D01*
X014723Y015332D01*
X014779Y010505D02*
X014876Y010505D01*
X014828Y010505D02*
X014828Y010215D01*
X014876Y010215D02*
X014779Y010215D01*
X014976Y010263D02*
X015024Y010215D01*
X015121Y010215D01*
X015169Y010263D01*
X015169Y010457D01*
X015121Y010505D01*
X015024Y010505D01*
X014976Y010457D01*
X014976Y010263D01*
X015270Y010263D02*
X015319Y010215D01*
X015415Y010215D01*
X015464Y010263D01*
X015464Y010457D01*
X015270Y010263D01*
X015270Y010457D01*
X015319Y010505D01*
X015415Y010505D01*
X015464Y010457D01*
X015746Y010555D02*
X016630Y010555D01*
X016544Y010495D02*
X016350Y010495D01*
X016447Y010495D02*
X016447Y010205D01*
X016249Y010253D02*
X016201Y010205D01*
X016104Y010205D01*
X016056Y010253D01*
X016104Y010350D02*
X016201Y010350D01*
X016249Y010302D01*
X016249Y010253D01*
X016104Y010350D02*
X016056Y010398D01*
X016056Y010447D01*
X016104Y010495D01*
X016201Y010495D01*
X016249Y010447D01*
X015955Y010447D02*
X015955Y010350D01*
X015906Y010302D01*
X015761Y010302D01*
X015858Y010302D02*
X015955Y010205D01*
X015761Y010205D02*
X015761Y010495D01*
X015906Y010495D01*
X015955Y010447D01*
X016013Y009995D02*
X015965Y009947D01*
X015965Y009753D01*
X016013Y009705D01*
X016110Y009705D01*
X016158Y009753D01*
X016260Y009753D02*
X016308Y009705D01*
X016405Y009705D01*
X016453Y009753D01*
X016453Y009802D01*
X016405Y009850D01*
X016356Y009850D01*
X016405Y009850D02*
X016453Y009898D01*
X016453Y009947D01*
X016405Y009995D01*
X016308Y009995D01*
X016260Y009947D01*
X016158Y009947D02*
X016110Y009995D01*
X016013Y009995D01*
X016554Y009898D02*
X016651Y009995D01*
X016651Y009705D01*
X016554Y009705D02*
X016748Y009705D01*
X016849Y009705D02*
X017042Y009705D01*
X016946Y009705D02*
X016946Y009995D01*
X016849Y009898D01*
X016836Y010215D02*
X016739Y010215D01*
X016691Y010263D01*
X016788Y010360D02*
X016836Y010360D01*
X016885Y010312D01*
X016885Y010263D01*
X016836Y010215D01*
X016836Y010360D02*
X016885Y010408D01*
X016885Y010457D01*
X016836Y010505D01*
X016739Y010505D01*
X016691Y010457D01*
X016986Y010505D02*
X016986Y010312D01*
X017082Y010215D01*
X017179Y010312D01*
X017179Y010505D01*
X017280Y010457D02*
X017329Y010505D01*
X017425Y010505D01*
X017474Y010457D01*
X017474Y010408D01*
X017425Y010360D01*
X017474Y010312D01*
X017474Y010263D01*
X017425Y010215D01*
X017329Y010215D01*
X017280Y010263D01*
X017377Y010360D02*
X017425Y010360D01*
X017442Y009492D02*
X017393Y009492D01*
X017345Y009444D01*
X017345Y009347D01*
X017393Y009299D01*
X017393Y009198D02*
X017587Y009004D01*
X017635Y009053D01*
X017635Y009149D01*
X017587Y009198D01*
X017393Y009198D01*
X017345Y009149D01*
X017345Y009053D01*
X017393Y009004D01*
X017587Y009004D01*
X017587Y008903D02*
X017635Y008855D01*
X017635Y008758D01*
X017587Y008710D01*
X017587Y008608D02*
X017635Y008560D01*
X017635Y008463D01*
X017587Y008415D01*
X017393Y008415D01*
X017345Y008463D01*
X017345Y008560D01*
X017393Y008608D01*
X017393Y008710D02*
X017345Y008758D01*
X017345Y008855D01*
X017393Y008903D01*
X017442Y008903D01*
X017490Y008855D01*
X017538Y008903D01*
X017587Y008903D01*
X017490Y008855D02*
X017490Y008806D01*
X017235Y008758D02*
X017187Y008710D01*
X017235Y008758D02*
X017235Y008855D01*
X017187Y008903D01*
X017138Y008903D01*
X017090Y008855D01*
X017090Y008806D01*
X017090Y008855D02*
X017042Y008903D01*
X016993Y008903D01*
X016945Y008855D01*
X016945Y008758D01*
X016993Y008710D01*
X016993Y008608D02*
X016945Y008560D01*
X016945Y008463D01*
X016993Y008415D01*
X017187Y008415D01*
X017235Y008463D01*
X017235Y008560D01*
X017187Y008608D01*
X017187Y009004D02*
X016993Y009004D01*
X016945Y009053D01*
X016945Y009149D01*
X016993Y009198D01*
X017187Y009004D01*
X017235Y009053D01*
X017235Y009149D01*
X017187Y009198D01*
X016993Y009198D01*
X017042Y009299D02*
X016945Y009396D01*
X017235Y009396D01*
X017235Y009492D02*
X017235Y009299D01*
X017442Y009492D02*
X017635Y009299D01*
X017635Y009492D01*
X017599Y008155D02*
X017503Y008155D01*
X017454Y008107D01*
X017454Y008058D01*
X017503Y008010D01*
X017648Y008010D01*
X017648Y007913D02*
X017648Y008107D01*
X017599Y008155D01*
X017749Y008058D02*
X017846Y008155D01*
X017846Y007865D01*
X017942Y007865D02*
X017749Y007865D01*
X017648Y007913D02*
X017599Y007865D01*
X017503Y007865D01*
X017454Y007913D01*
X017353Y007865D02*
X017160Y007865D01*
X017353Y008058D01*
X017353Y008107D01*
X017305Y008155D01*
X017208Y008155D01*
X017160Y008107D01*
X017058Y008107D02*
X017010Y008155D01*
X016913Y008155D01*
X016865Y008107D01*
X016865Y007913D01*
X016913Y007865D01*
X017010Y007865D01*
X017058Y007913D01*
X016696Y007255D02*
X016599Y007158D01*
X016498Y007207D02*
X016304Y007013D01*
X016304Y006965D01*
X016203Y006965D02*
X016010Y006965D01*
X016203Y007158D01*
X016203Y007207D01*
X016155Y007255D01*
X016058Y007255D01*
X016010Y007207D01*
X015908Y007207D02*
X015860Y007255D01*
X015763Y007255D01*
X015715Y007207D01*
X015715Y007013D01*
X015763Y006965D01*
X015860Y006965D01*
X015908Y007013D01*
X016304Y007255D02*
X016498Y007255D01*
X016498Y007207D01*
X016696Y007255D02*
X016696Y006965D01*
X016792Y006965D02*
X016599Y006965D01*
X015662Y007925D02*
X015469Y007925D01*
X015566Y007925D02*
X015566Y008215D01*
X015469Y008118D01*
X015368Y008118D02*
X015319Y008070D01*
X015223Y008070D01*
X015174Y008118D01*
X015174Y008167D01*
X015223Y008215D01*
X015319Y008215D01*
X015368Y008167D01*
X015368Y008118D01*
X015319Y008070D02*
X015368Y008022D01*
X015368Y007973D01*
X015319Y007925D01*
X015223Y007925D01*
X015174Y007973D01*
X015174Y008022D01*
X015223Y008070D01*
X015073Y008118D02*
X015073Y008167D01*
X015025Y008215D01*
X014928Y008215D01*
X014880Y008167D01*
X014778Y008167D02*
X014730Y008215D01*
X014633Y008215D01*
X014585Y008167D01*
X014585Y007973D01*
X014633Y007925D01*
X014730Y007925D01*
X014778Y007973D01*
X014880Y007925D02*
X015073Y008118D01*
X015073Y007925D02*
X014880Y007925D01*
X014745Y008495D02*
X014455Y008688D01*
X014552Y008790D02*
X014455Y008886D01*
X014745Y008886D01*
X014745Y008790D02*
X014745Y008983D01*
X014745Y008688D02*
X014455Y008495D01*
X014358Y009005D02*
X014164Y009005D01*
X014261Y009005D02*
X014261Y009295D01*
X014164Y009198D01*
X014063Y009005D02*
X013870Y009005D01*
X013966Y009005D02*
X013966Y009295D01*
X013870Y009198D01*
X013768Y009247D02*
X013720Y009295D01*
X013623Y009295D01*
X013575Y009247D01*
X013575Y009053D01*
X013623Y009005D01*
X013720Y009005D01*
X013768Y009053D01*
X013328Y009045D02*
X013134Y009045D01*
X013231Y009045D02*
X013231Y009335D01*
X013134Y009238D01*
X013033Y009142D02*
X012985Y009190D01*
X012840Y009190D01*
X012840Y009093D01*
X012888Y009045D01*
X012985Y009045D01*
X013033Y009093D01*
X013033Y009142D01*
X012936Y009287D02*
X012840Y009190D01*
X012936Y009287D02*
X013033Y009335D01*
X012738Y009287D02*
X012690Y009335D01*
X012593Y009335D01*
X012545Y009287D01*
X012545Y009093D01*
X012593Y009045D01*
X012690Y009045D01*
X012738Y009093D01*
X012953Y009765D02*
X013050Y009765D01*
X013098Y009813D01*
X013200Y009813D02*
X013248Y009765D01*
X013345Y009765D01*
X013393Y009813D01*
X013393Y009910D01*
X013345Y009958D01*
X013296Y009958D01*
X013200Y009910D01*
X013200Y010055D01*
X013393Y010055D01*
X013494Y009958D02*
X013591Y010055D01*
X013591Y009765D01*
X013494Y009765D02*
X013688Y009765D01*
X013789Y010205D02*
X013886Y010205D01*
X013935Y010253D01*
X014036Y010205D02*
X014229Y010205D01*
X014330Y010205D02*
X014330Y010495D01*
X014379Y010350D02*
X014524Y010205D01*
X014330Y010302D02*
X014524Y010495D01*
X014036Y010495D02*
X014036Y010205D01*
X013789Y010205D02*
X013741Y010253D01*
X013741Y010447D01*
X013789Y010495D01*
X013886Y010495D01*
X013935Y010447D01*
X013305Y010505D02*
X013209Y010505D01*
X013257Y010505D02*
X013257Y010215D01*
X013209Y010215D02*
X013305Y010215D01*
X013107Y010263D02*
X013059Y010215D01*
X012962Y010215D01*
X012914Y010263D01*
X012962Y010360D02*
X012914Y010408D01*
X012914Y010457D01*
X012962Y010505D01*
X013059Y010505D01*
X013107Y010457D01*
X013059Y010360D02*
X013107Y010312D01*
X013107Y010263D01*
X013059Y010360D02*
X012962Y010360D01*
X012953Y010055D02*
X012905Y010007D01*
X012905Y009813D01*
X012953Y009765D01*
X013098Y010007D02*
X013050Y010055D01*
X012953Y010055D01*
X012434Y010263D02*
X012385Y010215D01*
X012289Y010215D01*
X012240Y010263D01*
X012240Y010457D01*
X012289Y010505D01*
X012385Y010505D01*
X012434Y010457D01*
X012434Y010263D01*
X012139Y010263D02*
X012091Y010215D01*
X011994Y010215D01*
X011946Y010263D01*
X011994Y010360D02*
X011946Y010408D01*
X011946Y010457D01*
X011994Y010505D01*
X012091Y010505D01*
X012139Y010457D01*
X012091Y010360D02*
X012139Y010312D01*
X012139Y010263D01*
X012091Y010360D02*
X011994Y010360D01*
X011470Y010555D02*
X010881Y010555D01*
X010944Y010495D02*
X010896Y010447D01*
X010896Y010253D01*
X010944Y010205D01*
X011041Y010205D01*
X011089Y010253D01*
X011190Y010253D02*
X011239Y010205D01*
X011335Y010205D01*
X011384Y010253D01*
X011384Y010302D01*
X011335Y010350D01*
X011239Y010350D01*
X011190Y010398D01*
X011190Y010447D01*
X011239Y010495D01*
X011335Y010495D01*
X011384Y010447D01*
X011089Y010447D02*
X011041Y010495D01*
X010944Y010495D01*
X010574Y010447D02*
X010525Y010495D01*
X010380Y010495D01*
X010380Y010205D01*
X010525Y010205D01*
X010574Y010253D01*
X010574Y010447D01*
X010279Y010495D02*
X010279Y010205D01*
X010086Y010495D01*
X010086Y010205D01*
X009985Y010253D02*
X009936Y010205D01*
X009839Y010205D01*
X009791Y010253D01*
X009791Y010447D01*
X009839Y010495D01*
X009936Y010495D01*
X009985Y010447D01*
X009985Y010350D02*
X009888Y010350D01*
X009985Y010350D02*
X009985Y010253D01*
X010063Y009155D02*
X010015Y009107D01*
X010015Y008913D01*
X010063Y008865D01*
X010160Y008865D01*
X010208Y008913D01*
X010310Y008865D02*
X010503Y008865D01*
X010406Y008865D02*
X010406Y009155D01*
X010310Y009058D01*
X010208Y009107D02*
X010160Y009155D01*
X010063Y009155D01*
X010063Y008755D02*
X010015Y008707D01*
X010015Y008513D01*
X010063Y008465D01*
X010160Y008465D01*
X010208Y008513D01*
X010310Y008465D02*
X010503Y008465D01*
X010406Y008465D02*
X010406Y008755D01*
X010310Y008658D01*
X010208Y008707D02*
X010160Y008755D01*
X010063Y008755D01*
X010015Y008355D02*
X010160Y008355D01*
X010208Y008307D01*
X010208Y008210D01*
X010160Y008162D01*
X010015Y008162D01*
X010112Y008162D02*
X010208Y008065D01*
X010310Y008065D02*
X010503Y008065D01*
X010406Y008065D02*
X010406Y008355D01*
X010310Y008258D01*
X010015Y008355D02*
X010015Y008065D01*
X010604Y008210D02*
X010798Y008210D01*
X010899Y008258D02*
X010996Y008355D01*
X010996Y008065D01*
X011092Y008065D02*
X010899Y008065D01*
X010749Y008065D02*
X010749Y008355D01*
X010604Y008210D01*
X010653Y008465D02*
X010604Y008513D01*
X010653Y008465D02*
X010749Y008465D01*
X010798Y008513D01*
X010798Y008562D01*
X010749Y008610D01*
X010701Y008610D01*
X010749Y008610D02*
X010798Y008658D01*
X010798Y008707D01*
X010749Y008755D01*
X010653Y008755D01*
X010604Y008707D01*
X010604Y008865D02*
X010798Y009058D01*
X010798Y009107D01*
X010749Y009155D01*
X010653Y009155D01*
X010604Y009107D01*
X010604Y008865D02*
X010798Y008865D01*
X010899Y008865D02*
X011092Y008865D01*
X010996Y008865D02*
X010996Y009155D01*
X010899Y009058D01*
X010996Y008755D02*
X010899Y008658D01*
X010996Y008755D02*
X010996Y008465D01*
X011092Y008465D02*
X010899Y008465D01*
X011215Y007096D02*
X011505Y007096D01*
X011505Y007192D02*
X011505Y006999D01*
X011312Y006999D02*
X011215Y007096D01*
X011215Y006898D02*
X011263Y006898D01*
X011457Y006704D01*
X011505Y006704D01*
X011505Y006603D02*
X011505Y006410D01*
X011505Y006506D02*
X011215Y006506D01*
X011312Y006410D01*
X011505Y006308D02*
X011505Y006115D01*
X011215Y006115D01*
X011095Y006122D02*
X011095Y005929D01*
X011095Y006026D02*
X010805Y006026D01*
X010902Y005929D01*
X010853Y005828D02*
X011047Y005634D01*
X011095Y005634D01*
X011095Y005533D02*
X011095Y005340D01*
X011095Y005436D02*
X010805Y005436D01*
X010902Y005340D01*
X010950Y005238D02*
X010853Y005238D01*
X010805Y005190D01*
X010805Y005045D01*
X011095Y005045D01*
X010998Y005045D02*
X010998Y005190D01*
X010950Y005238D01*
X010998Y005142D02*
X011095Y005238D01*
X010805Y005634D02*
X010805Y005828D01*
X010853Y005828D01*
X011215Y006704D02*
X011215Y006898D01*
X012195Y006295D02*
X012195Y006005D01*
X012195Y006150D02*
X012292Y006150D01*
X012388Y006295D02*
X012195Y006295D01*
X012490Y006198D02*
X012586Y006295D01*
X012586Y006005D01*
X012490Y006005D02*
X012683Y006005D01*
X013415Y006013D02*
X013463Y005965D01*
X013560Y005965D01*
X013608Y006013D01*
X013710Y005965D02*
X013903Y006158D01*
X013903Y006207D01*
X013855Y006255D01*
X013758Y006255D01*
X013710Y006207D01*
X013608Y006207D02*
X013560Y006255D01*
X013463Y006255D01*
X013415Y006207D01*
X013415Y006013D01*
X013463Y005855D02*
X013415Y005807D01*
X013415Y005613D01*
X013463Y005565D01*
X013560Y005565D01*
X013608Y005613D01*
X013710Y005565D02*
X013903Y005758D01*
X013903Y005807D01*
X013855Y005855D01*
X013758Y005855D01*
X013710Y005807D01*
X013608Y005807D02*
X013560Y005855D01*
X013463Y005855D01*
X013710Y005965D02*
X013903Y005965D01*
X014004Y006013D02*
X014004Y006110D01*
X014149Y006110D01*
X014198Y006062D01*
X014198Y006013D01*
X014149Y005965D01*
X014053Y005965D01*
X014004Y006013D01*
X014004Y006110D02*
X014101Y006207D01*
X014198Y006255D01*
X014299Y006158D02*
X014396Y006255D01*
X014396Y005965D01*
X014492Y005965D02*
X014299Y005965D01*
X014396Y005855D02*
X014299Y005758D01*
X014198Y005710D02*
X014198Y005613D01*
X014149Y005565D01*
X014053Y005565D01*
X014004Y005613D01*
X014004Y005710D02*
X014101Y005758D01*
X014149Y005758D01*
X014198Y005710D01*
X014198Y005855D02*
X014004Y005855D01*
X014004Y005710D01*
X013903Y005565D02*
X013710Y005565D01*
X014299Y005565D02*
X014492Y005565D01*
X014396Y005565D02*
X014396Y005855D01*
X015027Y004935D02*
X014965Y004874D01*
X014965Y004627D01*
X015027Y004565D01*
X015150Y004565D01*
X015212Y004627D01*
X015333Y004627D02*
X015395Y004565D01*
X015518Y004565D01*
X015580Y004627D01*
X015702Y004565D02*
X015949Y004565D01*
X016070Y004565D02*
X016317Y004565D01*
X016438Y004565D02*
X016685Y004812D01*
X016685Y004874D01*
X016623Y004935D01*
X016500Y004935D01*
X016438Y004874D01*
X016438Y004565D02*
X016685Y004565D01*
X016807Y004627D02*
X017053Y004874D01*
X017053Y004627D01*
X016992Y004565D01*
X016868Y004565D01*
X016807Y004627D01*
X016807Y004874D01*
X016868Y004935D01*
X016992Y004935D01*
X017053Y004874D01*
X017175Y004565D02*
X017422Y004935D01*
X017545Y004897D02*
X017545Y004994D01*
X017593Y005042D01*
X017642Y005042D01*
X017690Y004994D01*
X017738Y005042D01*
X017787Y005042D01*
X017835Y004994D01*
X017835Y004897D01*
X017787Y004849D01*
X017787Y004748D02*
X017835Y004699D01*
X017835Y004603D01*
X017787Y004554D01*
X017593Y004748D01*
X017787Y004748D01*
X017787Y004554D02*
X017593Y004554D01*
X017545Y004603D01*
X017545Y004699D01*
X017593Y004748D01*
X017593Y004849D02*
X017545Y004897D01*
X017690Y004946D02*
X017690Y004994D01*
X017464Y005215D02*
X017270Y005215D01*
X017464Y005408D01*
X017464Y005457D01*
X017415Y005505D01*
X017319Y005505D01*
X017270Y005457D01*
X017169Y005457D02*
X017169Y005263D01*
X017121Y005215D01*
X017024Y005215D01*
X016976Y005263D01*
X016976Y005457D01*
X017024Y005505D01*
X017121Y005505D01*
X017169Y005457D01*
X016876Y005505D02*
X016779Y005505D01*
X016828Y005505D02*
X016828Y005215D01*
X016876Y005215D02*
X016779Y005215D01*
X016464Y005263D02*
X016415Y005215D01*
X016319Y005215D01*
X016270Y005263D01*
X016169Y005263D02*
X016169Y005457D01*
X016121Y005505D01*
X016024Y005505D01*
X015976Y005457D01*
X015976Y005263D01*
X016024Y005215D01*
X016121Y005215D01*
X016169Y005263D01*
X016270Y005457D02*
X016319Y005505D01*
X016415Y005505D01*
X016464Y005457D01*
X016464Y005408D01*
X016415Y005360D01*
X016464Y005312D01*
X016464Y005263D01*
X016415Y005360D02*
X016367Y005360D01*
X016193Y004935D02*
X016193Y004565D01*
X016132Y004335D02*
X016070Y004274D01*
X016132Y004335D02*
X016255Y004335D01*
X016317Y004274D01*
X016317Y004212D01*
X016070Y003965D01*
X016317Y003965D01*
X016438Y004027D02*
X016438Y004274D01*
X016500Y004335D01*
X016623Y004335D01*
X016685Y004274D01*
X016438Y004027D01*
X016500Y003965D01*
X016623Y003965D01*
X016685Y004027D01*
X016685Y004274D01*
X016807Y004274D02*
X016868Y004335D01*
X016992Y004335D01*
X017053Y004274D01*
X016807Y004027D01*
X016868Y003965D01*
X016992Y003965D01*
X017053Y004027D01*
X017053Y004274D01*
X016807Y004274D02*
X016807Y004027D01*
X016733Y003555D02*
X016733Y003410D01*
X016830Y003458D01*
X016878Y003458D01*
X016926Y003410D01*
X016926Y003313D01*
X016878Y003265D01*
X016781Y003265D01*
X016733Y003313D01*
X016632Y003265D02*
X016438Y003265D01*
X016535Y003265D02*
X016535Y003555D01*
X016438Y003458D01*
X016337Y003410D02*
X016192Y003410D01*
X016144Y003458D01*
X016144Y003507D01*
X016192Y003555D01*
X016289Y003555D01*
X016337Y003507D01*
X016337Y003313D01*
X016289Y003265D01*
X016192Y003265D01*
X016144Y003313D01*
X016042Y003555D02*
X015849Y003265D01*
X015748Y003313D02*
X015699Y003265D01*
X015603Y003265D01*
X015554Y003313D01*
X015554Y003362D01*
X015603Y003410D01*
X015699Y003410D01*
X015748Y003362D01*
X015748Y003313D01*
X015699Y003410D02*
X015748Y003458D01*
X015748Y003507D01*
X015699Y003555D01*
X015603Y003555D01*
X015554Y003507D01*
X015554Y003458D01*
X015603Y003410D01*
X015453Y003362D02*
X015405Y003410D01*
X015260Y003410D01*
X015260Y003313D01*
X015308Y003265D01*
X015405Y003265D01*
X015453Y003313D01*
X015453Y003362D01*
X015356Y003507D02*
X015260Y003410D01*
X015158Y003362D02*
X015158Y003313D01*
X015110Y003265D01*
X015013Y003265D01*
X014965Y003313D01*
X014965Y003362D01*
X015013Y003410D01*
X015110Y003410D01*
X015158Y003362D01*
X015110Y003410D02*
X015158Y003458D01*
X015158Y003507D01*
X015110Y003555D01*
X015013Y003555D01*
X014965Y003507D01*
X014965Y003458D01*
X015013Y003410D01*
X014965Y003135D02*
X015150Y003135D01*
X015212Y003074D01*
X015212Y003012D01*
X015150Y002950D01*
X014965Y002950D01*
X014965Y002765D02*
X014965Y003135D01*
X015150Y002950D02*
X015212Y002888D01*
X015212Y002827D01*
X015150Y002765D01*
X014965Y002765D01*
X015333Y002765D02*
X015333Y003012D01*
X015333Y002888D02*
X015457Y003012D01*
X015518Y003012D01*
X015640Y002950D02*
X015640Y002827D01*
X015702Y002765D01*
X015825Y002765D01*
X015887Y002888D02*
X015640Y002888D01*
X015640Y002950D02*
X015702Y003012D01*
X015825Y003012D01*
X015887Y002950D01*
X015887Y002888D01*
X016009Y002827D02*
X016070Y002888D01*
X016255Y002888D01*
X016255Y002950D02*
X016255Y002765D01*
X016070Y002765D01*
X016009Y002827D01*
X016070Y003012D02*
X016194Y003012D01*
X016255Y002950D01*
X016377Y002888D02*
X016562Y003012D01*
X016684Y002950D02*
X016684Y002827D01*
X016746Y002765D01*
X016869Y002765D01*
X016931Y002827D01*
X016931Y002950D01*
X016869Y003012D01*
X016746Y003012D01*
X016684Y002950D01*
X016562Y002765D02*
X016377Y002888D01*
X016377Y002765D02*
X016377Y003135D01*
X016733Y003555D02*
X016926Y003555D01*
X017028Y003555D02*
X017028Y003265D01*
X017221Y003265D02*
X017221Y003555D01*
X017124Y003458D01*
X017028Y003555D01*
X017322Y003555D02*
X017322Y003265D01*
X017322Y003410D02*
X017516Y003410D01*
X017617Y003458D02*
X017810Y003458D01*
X017617Y003265D01*
X017810Y003265D01*
X017516Y003265D02*
X017516Y003555D01*
X017593Y003965D02*
X017545Y004013D01*
X017545Y004110D01*
X017593Y004158D01*
X017787Y003965D01*
X017835Y004013D01*
X017835Y004110D01*
X017787Y004158D01*
X017593Y004158D01*
X017690Y004260D02*
X017593Y004356D01*
X017545Y004453D01*
X017690Y004405D02*
X017690Y004260D01*
X017787Y004260D01*
X017835Y004308D01*
X017835Y004405D01*
X017787Y004453D01*
X017738Y004453D01*
X017690Y004405D01*
X017787Y003965D02*
X017593Y003965D01*
X017482Y003074D02*
X017482Y002827D01*
X017544Y002765D01*
X017299Y002765D02*
X017299Y003012D01*
X017420Y003012D02*
X017544Y003012D01*
X017299Y002765D02*
X017114Y002765D01*
X017052Y002827D01*
X017052Y003012D01*
X015949Y003965D02*
X015702Y003965D01*
X015825Y003965D02*
X015825Y004335D01*
X015702Y004212D01*
X015580Y004274D02*
X015518Y004335D01*
X015395Y004335D01*
X015333Y004274D01*
X015333Y004027D01*
X015395Y003965D01*
X015518Y003965D01*
X015580Y004027D01*
X015212Y004027D02*
X015150Y003965D01*
X015027Y003965D01*
X014965Y004027D01*
X014965Y004274D01*
X015027Y004335D01*
X015150Y004335D01*
X015212Y004274D01*
X015333Y004627D02*
X015333Y004874D01*
X015395Y004935D01*
X015518Y004935D01*
X015580Y004874D01*
X015702Y004812D02*
X015825Y004935D01*
X015825Y004565D01*
X016070Y004812D02*
X016193Y004935D01*
X015876Y005215D02*
X015779Y005215D01*
X015828Y005215D02*
X015828Y005505D01*
X015876Y005505D02*
X015779Y005505D01*
X015212Y004874D02*
X015150Y004935D01*
X015027Y004935D01*
X015453Y003555D02*
X015356Y003507D01*
X011716Y003417D02*
X011346Y003417D01*
X011716Y003664D01*
X011346Y003664D01*
X011346Y003785D02*
X011346Y004032D01*
X011346Y003908D02*
X011716Y003908D01*
X011716Y003295D02*
X011469Y003295D01*
X011346Y003172D01*
X011469Y003048D01*
X011716Y003048D01*
X011531Y003048D02*
X011531Y003295D01*
X009827Y006115D02*
X009633Y006115D01*
X009585Y006163D01*
X009585Y006260D01*
X009633Y006308D01*
X009682Y006410D02*
X009585Y006506D01*
X009875Y006506D01*
X009875Y006410D02*
X009875Y006603D01*
X009875Y006704D02*
X009827Y006704D01*
X009633Y006898D01*
X009585Y006898D01*
X009585Y006704D01*
X009633Y006999D02*
X009585Y007047D01*
X009585Y007144D01*
X009633Y007192D01*
X009682Y007192D01*
X009730Y007144D01*
X009778Y007192D01*
X009827Y007192D01*
X009875Y007144D01*
X009875Y007047D01*
X009827Y006999D01*
X009730Y007096D02*
X009730Y007144D01*
X009827Y006308D02*
X009875Y006260D01*
X009875Y006163D01*
X009827Y006115D01*
X008835Y005042D02*
X008835Y004849D01*
X008642Y005042D01*
X008593Y005042D01*
X008545Y004994D01*
X008545Y004897D01*
X008593Y004849D01*
X008593Y004748D02*
X008787Y004554D01*
X008835Y004603D01*
X008835Y004699D01*
X008787Y004748D01*
X008593Y004748D01*
X008545Y004699D01*
X008545Y004603D01*
X008593Y004554D01*
X008787Y004554D01*
X008690Y004453D02*
X008690Y004260D01*
X008545Y004405D01*
X008835Y004405D01*
X008787Y004158D02*
X008593Y004158D01*
X008787Y003965D01*
X008835Y004013D01*
X008835Y004110D01*
X008787Y004158D01*
X008787Y003965D02*
X008593Y003965D01*
X008545Y004013D01*
X008545Y004110D01*
X008593Y004158D01*
X008175Y004565D02*
X008422Y004935D01*
X008464Y005215D02*
X008270Y005215D01*
X008464Y005408D01*
X008464Y005457D01*
X008415Y005505D01*
X008319Y005505D01*
X008270Y005457D01*
X008169Y005457D02*
X008121Y005505D01*
X008024Y005505D01*
X007976Y005457D01*
X007976Y005263D01*
X008024Y005215D01*
X008121Y005215D01*
X008169Y005263D01*
X008169Y005457D01*
X007876Y005505D02*
X007779Y005505D01*
X007828Y005505D02*
X007828Y005215D01*
X007876Y005215D02*
X007779Y005215D01*
X007868Y004935D02*
X007992Y004935D01*
X008053Y004874D01*
X007807Y004627D01*
X007868Y004565D01*
X007992Y004565D01*
X008053Y004627D01*
X008053Y004874D01*
X007868Y004935D02*
X007807Y004874D01*
X007807Y004627D01*
X007685Y004565D02*
X007438Y004565D01*
X007685Y004812D01*
X007685Y004874D01*
X007623Y004935D01*
X007500Y004935D01*
X007438Y004874D01*
X007193Y004935D02*
X007193Y004565D01*
X007070Y004565D02*
X007317Y004565D01*
X007255Y004335D02*
X007132Y004335D01*
X007070Y004274D01*
X007255Y004335D02*
X007317Y004274D01*
X007317Y004212D01*
X007070Y003965D01*
X007317Y003965D01*
X007438Y004027D02*
X007685Y004274D01*
X007685Y004027D01*
X007623Y003965D01*
X007500Y003965D01*
X007438Y004027D01*
X007438Y004274D01*
X007500Y004335D01*
X007623Y004335D01*
X007685Y004274D01*
X007807Y004274D02*
X007807Y004027D01*
X008053Y004274D01*
X008053Y004027D01*
X007992Y003965D01*
X007868Y003965D01*
X007807Y004027D01*
X007807Y004274D02*
X007868Y004335D01*
X007992Y004335D01*
X008053Y004274D01*
X008028Y003555D02*
X008124Y003458D01*
X008221Y003555D01*
X008221Y003265D01*
X008322Y003265D02*
X008322Y003555D01*
X008322Y003410D02*
X008516Y003410D01*
X008617Y003458D02*
X008810Y003458D01*
X008617Y003265D01*
X008810Y003265D01*
X008516Y003265D02*
X008516Y003555D01*
X008482Y003074D02*
X008482Y002827D01*
X008544Y002765D01*
X008544Y003012D02*
X008420Y003012D01*
X008299Y003012D02*
X008299Y002765D01*
X008114Y002765D01*
X008052Y002827D01*
X008052Y003012D01*
X007931Y002950D02*
X007869Y003012D01*
X007746Y003012D01*
X007684Y002950D01*
X007684Y002827D01*
X007746Y002765D01*
X007869Y002765D01*
X007931Y002827D01*
X007931Y002950D01*
X007878Y003265D02*
X007781Y003265D01*
X007733Y003313D01*
X007733Y003410D02*
X007830Y003458D01*
X007878Y003458D01*
X007926Y003410D01*
X007926Y003313D01*
X007878Y003265D01*
X008028Y003265D02*
X008028Y003555D01*
X007926Y003555D02*
X007733Y003555D01*
X007733Y003410D01*
X007632Y003265D02*
X007438Y003265D01*
X007535Y003265D02*
X007535Y003555D01*
X007438Y003458D01*
X007337Y003410D02*
X007192Y003410D01*
X007144Y003458D01*
X007144Y003507D01*
X007192Y003555D01*
X007289Y003555D01*
X007337Y003507D01*
X007337Y003313D01*
X007289Y003265D01*
X007192Y003265D01*
X007144Y003313D01*
X007042Y003555D02*
X006849Y003265D01*
X006748Y003313D02*
X006699Y003265D01*
X006603Y003265D01*
X006554Y003313D01*
X006554Y003362D01*
X006603Y003410D01*
X006699Y003410D01*
X006748Y003362D01*
X006748Y003313D01*
X006699Y003410D02*
X006748Y003458D01*
X006748Y003507D01*
X006699Y003555D01*
X006603Y003555D01*
X006554Y003507D01*
X006554Y003458D01*
X006603Y003410D01*
X006453Y003362D02*
X006405Y003410D01*
X006260Y003410D01*
X006260Y003313D01*
X006308Y003265D01*
X006405Y003265D01*
X006453Y003313D01*
X006453Y003362D01*
X006356Y003507D02*
X006260Y003410D01*
X006158Y003362D02*
X006158Y003313D01*
X006110Y003265D01*
X006013Y003265D01*
X005965Y003313D01*
X005965Y003362D01*
X006013Y003410D01*
X006110Y003410D01*
X006158Y003362D01*
X006110Y003410D02*
X006158Y003458D01*
X006158Y003507D01*
X006110Y003555D01*
X006013Y003555D01*
X005965Y003507D01*
X005965Y003458D01*
X006013Y003410D01*
X005965Y003135D02*
X006150Y003135D01*
X006212Y003074D01*
X006212Y003012D01*
X006150Y002950D01*
X005965Y002950D01*
X005965Y002765D02*
X005965Y003135D01*
X006150Y002950D02*
X006212Y002888D01*
X006212Y002827D01*
X006150Y002765D01*
X005965Y002765D01*
X006333Y002765D02*
X006333Y003012D01*
X006333Y002888D02*
X006457Y003012D01*
X006518Y003012D01*
X006640Y002950D02*
X006702Y003012D01*
X006825Y003012D01*
X006887Y002950D01*
X006887Y002888D01*
X006640Y002888D01*
X006640Y002827D02*
X006640Y002950D01*
X006640Y002827D02*
X006702Y002765D01*
X006825Y002765D01*
X007009Y002827D02*
X007070Y002888D01*
X007255Y002888D01*
X007255Y002950D02*
X007255Y002765D01*
X007070Y002765D01*
X007009Y002827D01*
X007070Y003012D02*
X007194Y003012D01*
X007255Y002950D01*
X007377Y002888D02*
X007562Y003012D01*
X007377Y003135D02*
X007377Y002765D01*
X007377Y002888D02*
X007562Y002765D01*
X006949Y003965D02*
X006702Y003965D01*
X006825Y003965D02*
X006825Y004335D01*
X006702Y004212D01*
X006580Y004274D02*
X006518Y004335D01*
X006395Y004335D01*
X006333Y004274D01*
X006333Y004027D01*
X006395Y003965D01*
X006518Y003965D01*
X006580Y004027D01*
X006212Y004027D02*
X006150Y003965D01*
X006027Y003965D01*
X005965Y004027D01*
X005965Y004274D01*
X006027Y004335D01*
X006150Y004335D01*
X006212Y004274D01*
X006150Y004565D02*
X006027Y004565D01*
X005965Y004627D01*
X005965Y004874D01*
X006027Y004935D01*
X006150Y004935D01*
X006212Y004874D01*
X006333Y004874D02*
X006333Y004627D01*
X006395Y004565D01*
X006518Y004565D01*
X006580Y004627D01*
X006702Y004565D02*
X006949Y004565D01*
X006825Y004565D02*
X006825Y004935D01*
X006702Y004812D01*
X006580Y004874D02*
X006518Y004935D01*
X006395Y004935D01*
X006333Y004874D01*
X006212Y004627D02*
X006150Y004565D01*
X005887Y004915D02*
X005693Y004915D01*
X005645Y004963D01*
X005645Y005060D01*
X005693Y005108D01*
X005693Y005210D02*
X005645Y005258D01*
X005645Y005355D01*
X005693Y005403D01*
X005742Y005403D01*
X005935Y005210D01*
X005935Y005403D01*
X005887Y005504D02*
X005935Y005553D01*
X005935Y005649D01*
X005887Y005698D01*
X005838Y005698D01*
X005790Y005649D01*
X005790Y005601D01*
X005790Y005649D02*
X005742Y005698D01*
X005693Y005698D01*
X005645Y005649D01*
X005645Y005553D01*
X005693Y005504D01*
X005505Y005539D02*
X005505Y005732D01*
X005505Y005636D02*
X005215Y005636D01*
X005312Y005539D01*
X005312Y005438D02*
X005263Y005438D01*
X005215Y005389D01*
X005215Y005293D01*
X005263Y005244D01*
X005263Y005143D02*
X005215Y005095D01*
X005215Y004998D01*
X005263Y004950D01*
X005263Y004848D02*
X005215Y004800D01*
X005215Y004703D01*
X005263Y004655D01*
X005457Y004655D01*
X005505Y004703D01*
X005505Y004800D01*
X005457Y004848D01*
X005505Y004950D02*
X005312Y005143D01*
X005263Y005143D01*
X005105Y005143D02*
X005105Y004950D01*
X004912Y005143D01*
X004863Y005143D01*
X004815Y005095D01*
X004815Y004998D01*
X004863Y004950D01*
X004863Y004848D02*
X004815Y004800D01*
X004815Y004703D01*
X004863Y004655D01*
X005057Y004655D01*
X005105Y004703D01*
X005105Y004800D01*
X005057Y004848D01*
X005105Y005244D02*
X005105Y005438D01*
X005105Y005341D02*
X004815Y005341D01*
X004912Y005244D01*
X004912Y005539D02*
X004815Y005636D01*
X005105Y005636D01*
X005105Y005732D02*
X005105Y005539D01*
X005312Y005438D02*
X005505Y005244D01*
X005505Y005438D01*
X005505Y005143D02*
X005505Y004950D01*
X005887Y004915D02*
X005935Y004963D01*
X005935Y005060D01*
X005887Y005108D01*
X005935Y005799D02*
X005935Y005992D01*
X005903Y006065D02*
X005710Y006065D01*
X005903Y006258D01*
X005903Y006307D01*
X005855Y006355D01*
X005758Y006355D01*
X005710Y006307D01*
X005608Y006307D02*
X005560Y006355D01*
X005463Y006355D01*
X005415Y006307D01*
X005415Y006113D01*
X005463Y006065D01*
X005560Y006065D01*
X005608Y006113D01*
X005645Y005896D02*
X005935Y005896D01*
X006053Y006065D02*
X006004Y006113D01*
X006053Y006065D02*
X006149Y006065D01*
X006198Y006113D01*
X006198Y006210D01*
X006149Y006258D01*
X006101Y006258D01*
X006004Y006210D01*
X006004Y006355D01*
X006198Y006355D01*
X006299Y006258D02*
X006396Y006355D01*
X006396Y006065D01*
X006492Y006065D02*
X006299Y006065D01*
X006779Y005505D02*
X006876Y005505D01*
X006828Y005505D02*
X006828Y005215D01*
X006876Y005215D02*
X006779Y005215D01*
X006976Y005263D02*
X006976Y005457D01*
X007024Y005505D01*
X007121Y005505D01*
X007169Y005457D01*
X007169Y005263D01*
X007121Y005215D01*
X007024Y005215D01*
X006976Y005263D01*
X007270Y005263D02*
X007319Y005215D01*
X007415Y005215D01*
X007464Y005263D01*
X007464Y005312D01*
X007415Y005360D01*
X007367Y005360D01*
X007415Y005360D02*
X007464Y005408D01*
X007464Y005457D01*
X007415Y005505D01*
X007319Y005505D01*
X007270Y005457D01*
X007193Y004935D02*
X007070Y004812D01*
X006453Y003555D02*
X006356Y003507D01*
X005742Y005799D02*
X005645Y005896D01*
X006063Y006765D02*
X006160Y006765D01*
X006208Y006813D01*
X006310Y006765D02*
X006503Y006958D01*
X006503Y007007D01*
X006455Y007055D01*
X006358Y007055D01*
X006310Y007007D01*
X006208Y007007D02*
X006160Y007055D01*
X006063Y007055D01*
X006015Y007007D01*
X006015Y006813D01*
X006063Y006765D01*
X006310Y006765D02*
X006503Y006765D01*
X006604Y006813D02*
X006653Y006765D01*
X006749Y006765D01*
X006798Y006813D01*
X006798Y006862D01*
X006749Y006910D01*
X006604Y006910D01*
X006604Y006813D01*
X006604Y006910D02*
X006701Y007007D01*
X006798Y007055D01*
X006899Y006958D02*
X006996Y007055D01*
X006996Y006765D01*
X007092Y006765D02*
X006899Y006765D01*
X006899Y007195D02*
X007092Y007195D01*
X006996Y007195D02*
X006996Y007485D01*
X006899Y007388D01*
X006798Y007437D02*
X006604Y007243D01*
X006604Y007195D01*
X006503Y007195D02*
X006310Y007195D01*
X006503Y007388D01*
X006503Y007437D01*
X006455Y007485D01*
X006358Y007485D01*
X006310Y007437D01*
X006208Y007437D02*
X006160Y007485D01*
X006063Y007485D01*
X006015Y007437D01*
X006015Y007243D01*
X006063Y007195D01*
X006160Y007195D01*
X006208Y007243D01*
X006363Y007565D02*
X006460Y007565D01*
X006508Y007613D01*
X006610Y007565D02*
X006803Y007758D01*
X006803Y007807D01*
X006755Y007855D01*
X006658Y007855D01*
X006610Y007807D01*
X006508Y007807D02*
X006460Y007855D01*
X006363Y007855D01*
X006315Y007807D01*
X006315Y007613D01*
X006363Y007565D01*
X006610Y007565D02*
X006803Y007565D01*
X006798Y007485D02*
X006604Y007485D01*
X006798Y007485D02*
X006798Y007437D01*
X006953Y007565D02*
X006904Y007613D01*
X006904Y007662D01*
X006953Y007710D01*
X007049Y007710D01*
X007098Y007662D01*
X007098Y007613D01*
X007049Y007565D01*
X006953Y007565D01*
X006953Y007710D02*
X006904Y007758D01*
X006904Y007807D01*
X006953Y007855D01*
X007049Y007855D01*
X007098Y007807D01*
X007098Y007758D01*
X007049Y007710D01*
X007199Y007758D02*
X007296Y007855D01*
X007296Y007565D01*
X007392Y007565D02*
X007199Y007565D01*
X007363Y007965D02*
X007460Y007965D01*
X007508Y008013D01*
X007610Y007965D02*
X007803Y008158D01*
X007803Y008207D01*
X007755Y008255D01*
X007658Y008255D01*
X007610Y008207D01*
X007508Y008207D02*
X007460Y008255D01*
X007363Y008255D01*
X007315Y008207D01*
X007315Y008013D01*
X007363Y007965D01*
X007610Y007965D02*
X007803Y007965D01*
X007904Y008013D02*
X007953Y007965D01*
X008049Y007965D01*
X008098Y008013D01*
X008098Y008207D01*
X008049Y008255D01*
X007953Y008255D01*
X007904Y008207D01*
X007904Y008158D01*
X007953Y008110D01*
X008098Y008110D01*
X008199Y008158D02*
X008296Y008255D01*
X008296Y007965D01*
X008392Y007965D02*
X008199Y007965D01*
X008087Y008415D02*
X007893Y008415D01*
X007845Y008463D01*
X007845Y008560D01*
X007893Y008608D01*
X007893Y008710D02*
X007845Y008758D01*
X007845Y008855D01*
X007893Y008903D01*
X007942Y008903D01*
X007990Y008855D01*
X008038Y008903D01*
X008087Y008903D01*
X008135Y008855D01*
X008135Y008758D01*
X008087Y008710D01*
X008087Y008608D02*
X008135Y008560D01*
X008135Y008463D01*
X008087Y008415D01*
X007735Y008463D02*
X007735Y008560D01*
X007687Y008608D01*
X007687Y008710D02*
X007735Y008758D01*
X007735Y008855D01*
X007687Y008903D01*
X007638Y008903D01*
X007590Y008855D01*
X007590Y008806D01*
X007590Y008855D02*
X007542Y008903D01*
X007493Y008903D01*
X007445Y008855D01*
X007445Y008758D01*
X007493Y008710D01*
X007493Y008608D02*
X007445Y008560D01*
X007445Y008463D01*
X007493Y008415D01*
X007687Y008415D01*
X007735Y008463D01*
X007990Y008806D02*
X007990Y008855D01*
X008087Y009004D02*
X007893Y009198D01*
X008087Y009198D01*
X008135Y009149D01*
X008135Y009053D01*
X008087Y009004D01*
X007893Y009004D01*
X007845Y009053D01*
X007845Y009149D01*
X007893Y009198D01*
X007893Y009299D02*
X007845Y009347D01*
X007845Y009444D01*
X007893Y009492D01*
X007942Y009492D01*
X008135Y009299D01*
X008135Y009492D01*
X007735Y009492D02*
X007735Y009299D01*
X007735Y009396D02*
X007445Y009396D01*
X007542Y009299D01*
X007493Y009198D02*
X007445Y009149D01*
X007445Y009053D01*
X007493Y009004D01*
X007687Y009004D01*
X007493Y009198D01*
X007687Y009198D01*
X007735Y009149D01*
X007735Y009053D01*
X007687Y009004D01*
X007133Y008325D02*
X006940Y008325D01*
X007036Y008325D02*
X007036Y008615D01*
X006940Y008518D01*
X006838Y008615D02*
X006645Y008325D01*
X006838Y008325D02*
X006645Y008615D01*
X006623Y009545D02*
X006720Y009545D01*
X006768Y009593D01*
X006870Y009593D02*
X006918Y009545D01*
X007015Y009545D01*
X007063Y009593D01*
X007063Y009642D01*
X007015Y009690D01*
X006966Y009690D01*
X007015Y009690D02*
X007063Y009738D01*
X007063Y009787D01*
X007015Y009835D01*
X006918Y009835D01*
X006870Y009787D01*
X006768Y009787D02*
X006720Y009835D01*
X006623Y009835D01*
X006575Y009787D01*
X006575Y009593D01*
X006623Y009545D01*
X006761Y010205D02*
X006761Y010495D01*
X006906Y010495D01*
X006955Y010447D01*
X006955Y010350D01*
X006906Y010302D01*
X006761Y010302D01*
X006858Y010302D02*
X006955Y010205D01*
X007056Y010253D02*
X007104Y010205D01*
X007201Y010205D01*
X007249Y010253D01*
X007249Y010302D01*
X007201Y010350D01*
X007104Y010350D01*
X007056Y010398D01*
X007056Y010447D01*
X007104Y010495D01*
X007201Y010495D01*
X007249Y010447D01*
X007350Y010495D02*
X007544Y010495D01*
X007447Y010495D02*
X007447Y010205D01*
X007691Y010263D02*
X007739Y010215D01*
X007836Y010215D01*
X007885Y010263D01*
X007885Y010312D01*
X007836Y010360D01*
X007788Y010360D01*
X007836Y010360D02*
X007885Y010408D01*
X007885Y010457D01*
X007836Y010505D01*
X007739Y010505D01*
X007691Y010457D01*
X007630Y010555D02*
X006746Y010555D01*
X006464Y010457D02*
X006270Y010263D01*
X006319Y010215D01*
X006415Y010215D01*
X006464Y010263D01*
X006464Y010457D01*
X006415Y010505D01*
X006319Y010505D01*
X006270Y010457D01*
X006270Y010263D01*
X006169Y010263D02*
X006169Y010457D01*
X006121Y010505D01*
X006024Y010505D01*
X005976Y010457D01*
X005976Y010263D01*
X006024Y010215D01*
X006121Y010215D01*
X006169Y010263D01*
X005876Y010215D02*
X005779Y010215D01*
X005828Y010215D02*
X005828Y010505D01*
X005876Y010505D02*
X005779Y010505D01*
X005524Y010495D02*
X005330Y010302D01*
X005379Y010350D02*
X005524Y010205D01*
X005330Y010205D02*
X005330Y010495D01*
X005036Y010495D02*
X005036Y010205D01*
X005229Y010205D01*
X004935Y010253D02*
X004886Y010205D01*
X004789Y010205D01*
X004741Y010253D01*
X004741Y010447D01*
X004789Y010495D01*
X004886Y010495D01*
X004935Y010447D01*
X004305Y010505D02*
X004209Y010505D01*
X004257Y010505D02*
X004257Y010215D01*
X004209Y010215D02*
X004305Y010215D01*
X004107Y010263D02*
X004059Y010215D01*
X003962Y010215D01*
X003914Y010263D01*
X003962Y010360D02*
X004059Y010360D01*
X004107Y010312D01*
X004107Y010263D01*
X003962Y010360D02*
X003914Y010408D01*
X003914Y010457D01*
X003962Y010505D01*
X004059Y010505D01*
X004107Y010457D01*
X004215Y009738D02*
X004215Y009544D01*
X004215Y009641D02*
X003925Y009641D01*
X004022Y009544D01*
X004070Y009443D02*
X004022Y009395D01*
X004022Y009346D01*
X004070Y009250D01*
X003925Y009250D01*
X003925Y009443D01*
X004070Y009443D02*
X004167Y009443D01*
X004215Y009395D01*
X004215Y009298D01*
X004167Y009250D01*
X004167Y009148D02*
X004215Y009100D01*
X004215Y009003D01*
X004167Y008955D01*
X003973Y008955D01*
X003925Y009003D01*
X003925Y009100D01*
X003973Y009148D01*
X004325Y009246D02*
X004615Y009246D01*
X004615Y009150D02*
X004615Y009343D01*
X004615Y009444D02*
X004615Y009638D01*
X004615Y009541D02*
X004325Y009541D01*
X004422Y009444D01*
X004325Y009246D02*
X004422Y009150D01*
X004373Y009048D02*
X004325Y009000D01*
X004325Y008903D01*
X004373Y008855D01*
X004567Y008855D01*
X004615Y008903D01*
X004615Y009000D01*
X004567Y009048D01*
X005375Y009000D02*
X005423Y009048D01*
X005520Y009048D01*
X005568Y009000D01*
X005568Y008855D01*
X005568Y008952D02*
X005665Y009048D01*
X005665Y009150D02*
X005665Y009343D01*
X005665Y009246D02*
X005375Y009246D01*
X005472Y009150D01*
X005375Y009000D02*
X005375Y008855D01*
X005665Y008855D01*
X005665Y009444D02*
X005472Y009638D01*
X005423Y009638D01*
X005375Y009589D01*
X005375Y009493D01*
X005423Y009444D01*
X005665Y009444D02*
X005665Y009638D01*
X007164Y009545D02*
X007358Y009545D01*
X007261Y009545D02*
X007261Y009835D01*
X007164Y009738D01*
X007459Y009738D02*
X007556Y009835D01*
X007556Y009545D01*
X007652Y009545D02*
X007459Y009545D01*
X008082Y010215D02*
X007986Y010312D01*
X007986Y010505D01*
X008179Y010505D02*
X008179Y010312D01*
X008082Y010215D01*
X008280Y010263D02*
X008329Y010215D01*
X008425Y010215D01*
X008474Y010263D01*
X008474Y010312D01*
X008425Y010360D01*
X008377Y010360D01*
X008425Y010360D02*
X008474Y010408D01*
X008474Y010457D01*
X008425Y010505D01*
X008329Y010505D01*
X008280Y010457D01*
X004990Y013885D02*
X004990Y014175D01*
X004888Y014127D02*
X004840Y014175D01*
X004743Y014175D01*
X004695Y014127D01*
X004695Y013933D01*
X005029Y015085D02*
X005029Y015375D01*
X005126Y015375D02*
X004932Y015375D01*
X004835Y015494D02*
X004545Y015494D01*
X004545Y015590D02*
X004545Y015397D01*
X004738Y015590D02*
X004835Y015494D01*
X004835Y015692D02*
X004545Y015885D01*
X004545Y015692D02*
X004835Y015885D01*
X004657Y016165D02*
X004705Y016213D01*
X004705Y016407D01*
X004657Y016455D01*
X004560Y016455D01*
X004512Y016407D01*
X004410Y016455D02*
X004217Y016262D01*
X004217Y016213D01*
X004265Y016165D01*
X004362Y016165D01*
X004410Y016213D01*
X004512Y016213D02*
X004560Y016165D01*
X004657Y016165D01*
X004410Y016455D02*
X004217Y016455D01*
X004116Y016407D02*
X004116Y016358D01*
X004067Y016310D01*
X003971Y016310D01*
X003922Y016358D01*
X003922Y016407D01*
X003971Y016455D01*
X004067Y016455D01*
X004116Y016407D01*
X004067Y016310D02*
X004116Y016262D01*
X004116Y016213D01*
X004067Y016165D01*
X003971Y016165D01*
X003922Y016213D01*
X003922Y016262D01*
X003971Y016310D01*
X003821Y016262D02*
X003724Y016165D01*
X003724Y016455D01*
X003628Y016455D02*
X003821Y016455D01*
X005126Y015182D02*
X005029Y015085D01*
X005324Y015085D02*
X005324Y015375D01*
X005420Y015375D02*
X005227Y015375D01*
X005420Y015182D02*
X005324Y015085D01*
X005522Y015133D02*
X005570Y015085D01*
X005667Y015085D01*
X005715Y015133D01*
X005715Y015327D01*
X005667Y015375D01*
X005570Y015375D01*
X005522Y015327D01*
X005962Y015335D02*
X006156Y015335D01*
X006059Y015335D02*
X006059Y015045D01*
X006156Y015142D01*
X006257Y015238D02*
X006305Y015190D01*
X006450Y015190D01*
X006450Y015287D01*
X006402Y015335D01*
X006305Y015335D01*
X006257Y015287D01*
X006257Y015238D01*
X006354Y015093D02*
X006257Y015045D01*
X006354Y015093D02*
X006450Y015190D01*
X006552Y015287D02*
X006600Y015335D01*
X006697Y015335D01*
X006745Y015287D01*
X006745Y015093D01*
X006697Y015045D01*
X006600Y015045D01*
X006552Y015093D01*
X003544Y014235D02*
X002660Y014235D01*
X002528Y014117D02*
X002528Y014068D01*
X002479Y014020D01*
X002528Y013972D01*
X002528Y013923D01*
X002479Y013875D01*
X002383Y013875D01*
X002334Y013923D01*
X002233Y013972D02*
X002233Y014165D01*
X002334Y014117D02*
X002383Y014165D01*
X002479Y014165D01*
X002528Y014117D01*
X002479Y014020D02*
X002431Y014020D01*
X002233Y013972D02*
X002136Y013875D01*
X002040Y013972D01*
X002040Y014165D01*
X001938Y014117D02*
X001938Y014068D01*
X001890Y014020D01*
X001938Y013972D01*
X001938Y013923D01*
X001890Y013875D01*
X001793Y013875D01*
X001745Y013923D01*
X001842Y014020D02*
X001890Y014020D01*
X001938Y014117D02*
X001890Y014165D01*
X001793Y014165D01*
X001745Y014117D01*
X001881Y010555D02*
X002470Y010555D01*
X002384Y010447D02*
X002335Y010495D01*
X002239Y010495D01*
X002190Y010447D01*
X002190Y010398D01*
X002239Y010350D01*
X002335Y010350D01*
X002384Y010302D01*
X002384Y010253D01*
X002335Y010205D01*
X002239Y010205D01*
X002190Y010253D01*
X002089Y010253D02*
X002041Y010205D01*
X001944Y010205D01*
X001896Y010253D01*
X001896Y010447D01*
X001944Y010495D01*
X002041Y010495D01*
X002089Y010447D01*
X001574Y010447D02*
X001525Y010495D01*
X001380Y010495D01*
X001380Y010205D01*
X001525Y010205D01*
X001574Y010253D01*
X001574Y010447D01*
X001279Y010495D02*
X001279Y010205D01*
X001086Y010495D01*
X001086Y010205D01*
X000985Y010253D02*
X000985Y010350D01*
X000888Y010350D01*
X000985Y010253D02*
X000936Y010205D01*
X000839Y010205D01*
X000791Y010253D01*
X000791Y010447D01*
X000839Y010495D01*
X000936Y010495D01*
X000985Y010447D01*
X001006Y008455D02*
X001006Y008165D01*
X000910Y008165D02*
X001103Y008165D01*
X001204Y008165D02*
X001398Y008358D01*
X001398Y008407D01*
X001349Y008455D01*
X001253Y008455D01*
X001204Y008407D01*
X001006Y008455D02*
X000910Y008358D01*
X000808Y008407D02*
X000760Y008455D01*
X000663Y008455D01*
X000615Y008407D01*
X000615Y008213D01*
X000663Y008165D01*
X000760Y008165D01*
X000808Y008213D01*
X001204Y008165D02*
X001398Y008165D01*
X001499Y008165D02*
X001692Y008165D01*
X001596Y008165D02*
X001596Y008455D01*
X001499Y008358D01*
X001596Y007655D02*
X001596Y007365D01*
X001692Y007365D02*
X001499Y007365D01*
X001398Y007413D02*
X001349Y007365D01*
X001253Y007365D01*
X001204Y007413D01*
X001103Y007365D02*
X000910Y007365D01*
X001006Y007365D02*
X001006Y007655D01*
X000910Y007558D01*
X000808Y007607D02*
X000760Y007655D01*
X000663Y007655D01*
X000615Y007607D01*
X000615Y007413D01*
X000663Y007365D01*
X000760Y007365D01*
X000808Y007413D01*
X000760Y007255D02*
X000808Y007207D01*
X000808Y007110D01*
X000760Y007062D01*
X000615Y007062D01*
X000712Y007062D02*
X000808Y006965D01*
X000910Y006965D02*
X001103Y006965D01*
X001006Y006965D02*
X001006Y007255D01*
X000910Y007158D01*
X000760Y007255D02*
X000615Y007255D01*
X000615Y006965D01*
X000663Y006855D02*
X000615Y006807D01*
X000615Y006613D01*
X000663Y006565D01*
X000760Y006565D01*
X000808Y006613D01*
X000910Y006565D02*
X001103Y006565D01*
X001006Y006565D02*
X001006Y006855D01*
X000910Y006758D01*
X000808Y006807D02*
X000760Y006855D01*
X000663Y006855D01*
X000633Y006455D02*
X000585Y006407D01*
X000585Y006213D01*
X000633Y006165D01*
X000730Y006165D01*
X000778Y006213D01*
X000880Y006165D02*
X001073Y006165D01*
X000976Y006165D02*
X000976Y006455D01*
X000880Y006358D01*
X000778Y006407D02*
X000730Y006455D01*
X000633Y006455D01*
X000663Y006055D02*
X000615Y006007D01*
X000615Y005813D01*
X000663Y005765D01*
X000760Y005765D01*
X000808Y005813D01*
X000863Y005732D02*
X000912Y005732D01*
X000960Y005684D01*
X001008Y005732D01*
X001057Y005732D01*
X001105Y005684D01*
X001105Y005587D01*
X001057Y005539D01*
X000960Y005636D02*
X000960Y005684D01*
X001006Y005765D02*
X001006Y006055D01*
X000910Y005958D01*
X000808Y006007D02*
X000760Y006055D01*
X000663Y006055D01*
X000863Y005732D02*
X000815Y005684D01*
X000815Y005587D01*
X000863Y005539D01*
X000863Y005438D02*
X001057Y005244D01*
X001105Y005244D01*
X001105Y005143D02*
X001105Y004950D01*
X001105Y005046D02*
X000815Y005046D01*
X000912Y004950D01*
X000863Y004848D02*
X000815Y004800D01*
X000815Y004703D01*
X000863Y004655D01*
X001057Y004655D01*
X001105Y004703D01*
X001105Y004800D01*
X001057Y004848D01*
X001215Y004800D02*
X001263Y004848D01*
X001360Y004848D01*
X001408Y004800D01*
X001408Y004655D01*
X001408Y004752D02*
X001505Y004848D01*
X001505Y004950D02*
X001505Y005143D01*
X001505Y005046D02*
X001215Y005046D01*
X001312Y004950D01*
X001215Y004800D02*
X001215Y004655D01*
X001505Y004655D01*
X001505Y005244D02*
X001457Y005244D01*
X001263Y005438D01*
X001215Y005438D01*
X001215Y005244D01*
X001312Y005539D02*
X001215Y005636D01*
X001505Y005636D01*
X001505Y005732D02*
X001505Y005539D01*
X001499Y005765D02*
X001692Y005765D01*
X001596Y005765D02*
X001596Y006055D01*
X001499Y005958D01*
X001398Y006007D02*
X001204Y005813D01*
X001204Y005765D01*
X001103Y005765D02*
X000910Y005765D01*
X000863Y005438D02*
X000815Y005438D01*
X000815Y005244D01*
X001204Y006055D02*
X001398Y006055D01*
X001398Y006007D01*
X001469Y006165D02*
X001662Y006358D01*
X001662Y006407D01*
X001614Y006455D01*
X001517Y006455D01*
X001469Y006407D01*
X001368Y006407D02*
X001174Y006213D01*
X001174Y006165D01*
X001174Y006455D02*
X001368Y006455D01*
X001368Y006407D01*
X001349Y006565D02*
X001253Y006565D01*
X001204Y006613D01*
X001204Y006710D02*
X001301Y006758D01*
X001349Y006758D01*
X001398Y006710D01*
X001398Y006613D01*
X001349Y006565D01*
X001499Y006565D02*
X001692Y006565D01*
X001596Y006565D02*
X001596Y006855D01*
X001499Y006758D01*
X001398Y006855D02*
X001204Y006855D01*
X001204Y006710D01*
X001349Y006965D02*
X001349Y007255D01*
X001204Y007110D01*
X001398Y007110D01*
X001499Y007158D02*
X001596Y007255D01*
X001596Y006965D01*
X001692Y006965D02*
X001499Y006965D01*
X001398Y007413D02*
X001398Y007462D01*
X001349Y007510D01*
X001301Y007510D01*
X001349Y007510D02*
X001398Y007558D01*
X001398Y007607D01*
X001349Y007655D01*
X001253Y007655D01*
X001204Y007607D01*
X001499Y007558D02*
X001596Y007655D01*
X002375Y006676D02*
X002665Y006676D01*
X002665Y006772D02*
X002665Y006579D01*
X002472Y006579D02*
X002375Y006676D01*
X002375Y006478D02*
X002423Y006478D01*
X002617Y006284D01*
X002665Y006284D01*
X002665Y006183D02*
X002665Y005990D01*
X002665Y006086D02*
X002375Y006086D01*
X002472Y005990D01*
X002665Y005888D02*
X002665Y005695D01*
X002375Y005695D01*
X002375Y006284D02*
X002375Y006478D01*
X001662Y006165D02*
X001469Y006165D01*
X003195Y006150D02*
X003292Y006150D01*
X003388Y006295D02*
X003195Y006295D01*
X003195Y006005D01*
X003490Y006005D02*
X003683Y006005D01*
X003586Y006005D02*
X003586Y006295D01*
X003490Y006198D01*
X002346Y003932D02*
X002346Y003685D01*
X002346Y003564D02*
X002716Y003564D01*
X002346Y003317D01*
X002716Y003317D01*
X002716Y003195D02*
X002469Y003195D01*
X002346Y003072D01*
X002469Y002948D01*
X002716Y002948D01*
X002531Y002948D02*
X002531Y003195D01*
X002716Y003808D02*
X002346Y003808D01*
X002994Y010215D02*
X002946Y010263D01*
X002994Y010215D02*
X003091Y010215D01*
X003139Y010263D01*
X003139Y010312D01*
X003091Y010360D01*
X002994Y010360D01*
X002946Y010408D01*
X002946Y010457D01*
X002994Y010505D01*
X003091Y010505D01*
X003139Y010457D01*
X003240Y010457D02*
X003289Y010505D01*
X003385Y010505D01*
X003434Y010457D01*
X003434Y010263D01*
X003385Y010215D01*
X003289Y010215D01*
X003240Y010263D01*
X003240Y010457D01*
X007574Y020472D02*
X007944Y020472D01*
X007944Y020595D02*
X007944Y020348D01*
X007944Y020716D02*
X007574Y020716D01*
X007944Y020963D01*
X007574Y020963D01*
X007574Y021085D02*
X007821Y021085D01*
X007944Y021208D01*
X007821Y021332D01*
X007574Y021332D01*
X007759Y021332D02*
X007759Y021085D01*
X010746Y021368D02*
X010870Y021368D01*
X010880Y021368D02*
X010756Y021368D01*
X010808Y021306D02*
X010808Y021553D01*
X010746Y021615D01*
X010756Y021615D02*
X010818Y021553D01*
X010818Y021306D01*
X010991Y021368D02*
X010991Y021615D01*
X011176Y021615D01*
X011238Y021553D01*
X011238Y021368D01*
X011248Y021368D02*
X011248Y021553D01*
X011186Y021615D01*
X011001Y021615D01*
X011001Y021368D01*
X016574Y021432D02*
X016821Y021432D01*
X016944Y021308D01*
X016821Y021185D01*
X016574Y021185D01*
X016574Y021063D02*
X016944Y021063D01*
X016574Y020816D01*
X016944Y020816D01*
X016944Y020695D02*
X016944Y020448D01*
X016944Y020572D02*
X016574Y020572D01*
X016759Y021185D02*
X016759Y021432D01*
D12*
X014181Y015591D02*
X014183Y015603D01*
X014189Y015613D01*
X014197Y015621D01*
X014208Y015626D01*
X014220Y015627D01*
X014231Y015624D01*
X014241Y015617D01*
X014249Y015608D01*
X014253Y015597D01*
X014253Y015585D01*
X014249Y015574D01*
X014241Y015565D01*
X014231Y015558D01*
X014220Y015555D01*
X014208Y015556D01*
X014197Y015561D01*
X014189Y015569D01*
X014183Y015579D01*
X014181Y015591D01*
X014047Y008789D02*
X014049Y008801D01*
X014055Y008811D01*
X014063Y008819D01*
X014074Y008824D01*
X014086Y008825D01*
X014097Y008822D01*
X014107Y008815D01*
X014115Y008806D01*
X014119Y008795D01*
X014119Y008783D01*
X014115Y008772D01*
X014107Y008763D01*
X014097Y008756D01*
X014086Y008753D01*
X014074Y008754D01*
X014063Y008759D01*
X014055Y008767D01*
X014049Y008777D01*
X014047Y008789D01*
X005047Y008789D02*
X005049Y008801D01*
X005055Y008811D01*
X005063Y008819D01*
X005074Y008824D01*
X005086Y008825D01*
X005097Y008822D01*
X005107Y008815D01*
X005115Y008806D01*
X005119Y008795D01*
X005119Y008783D01*
X005115Y008772D01*
X005107Y008763D01*
X005097Y008756D01*
X005086Y008753D01*
X005074Y008754D01*
X005063Y008759D01*
X005055Y008767D01*
X005049Y008777D01*
X005047Y008789D01*
X005181Y015591D02*
X005183Y015603D01*
X005189Y015613D01*
X005197Y015621D01*
X005208Y015626D01*
X005220Y015627D01*
X005231Y015624D01*
X005241Y015617D01*
X005249Y015608D01*
X005253Y015597D01*
X005253Y015585D01*
X005249Y015574D01*
X005241Y015565D01*
X005231Y015558D01*
X005220Y015555D01*
X005208Y015556D01*
X005197Y015561D01*
X005189Y015569D01*
X005183Y015579D01*
X005181Y015591D01*
D13*
X019949Y009650D02*
X019951Y009664D01*
X019956Y009676D01*
X019965Y009687D01*
X019977Y009695D01*
X019990Y009700D01*
X020003Y009701D01*
X020017Y009698D01*
X020029Y009692D01*
X020040Y009682D01*
X020047Y009670D01*
X020051Y009657D01*
X020051Y009643D01*
X020047Y009630D01*
X020040Y009618D01*
X020029Y009608D01*
X020017Y009602D01*
X020003Y009599D01*
X019990Y009600D01*
X019977Y009605D01*
X019965Y009613D01*
X019956Y009624D01*
X019951Y009636D01*
X019949Y009650D01*
D14*
X019140Y008912D02*
X019103Y008949D01*
X019140Y008912D02*
X019140Y008839D01*
X019103Y008802D01*
X018957Y008802D01*
X018920Y008839D01*
X018920Y008912D01*
X018957Y008949D01*
X018957Y008728D02*
X018920Y008691D01*
X018920Y008618D01*
X018957Y008581D01*
X019103Y008581D01*
X019140Y008618D01*
X019140Y008691D01*
X019103Y008728D01*
X019067Y008507D02*
X018920Y008507D01*
X019067Y008507D02*
X019140Y008433D01*
X019067Y008360D01*
X018920Y008360D01*
X018740Y008335D02*
X018607Y008335D01*
X018540Y008401D01*
X018607Y008468D01*
X018740Y008468D01*
X018740Y008537D02*
X018540Y008537D01*
X018540Y008637D01*
X018573Y008671D01*
X018640Y008671D01*
X018673Y008637D01*
X018673Y008537D01*
X018673Y008604D02*
X018740Y008671D01*
X018740Y008740D02*
X018540Y008740D01*
X018607Y008806D01*
X018540Y008873D01*
X018740Y008873D01*
X018707Y009145D02*
X018740Y009178D01*
X018740Y009212D01*
X018707Y009245D01*
X018540Y009245D01*
X018540Y009212D02*
X018540Y009278D01*
X018540Y009347D02*
X018540Y009481D01*
X018540Y009414D02*
X018740Y009414D01*
X018740Y009550D02*
X018607Y009550D01*
X018540Y009617D01*
X018607Y009683D01*
X018740Y009683D01*
X018707Y009753D02*
X018573Y009753D01*
X018540Y009786D01*
X018540Y009853D01*
X018573Y009886D01*
X018640Y009886D02*
X018640Y009819D01*
X018640Y009886D02*
X018707Y009886D01*
X018740Y009853D01*
X018740Y009786D01*
X018707Y009753D01*
X018640Y009683D02*
X018640Y009550D01*
X018640Y010158D02*
X018640Y010258D01*
X018673Y010291D01*
X018707Y010291D01*
X018740Y010258D01*
X018740Y010158D01*
X018540Y010158D01*
X018540Y010258D01*
X018573Y010291D01*
X018607Y010291D01*
X018640Y010258D01*
X018673Y010360D02*
X018607Y010427D01*
X018607Y010460D01*
X018640Y010529D02*
X018607Y010562D01*
X018607Y010629D01*
X018640Y010663D01*
X018673Y010663D01*
X018673Y010529D01*
X018640Y010529D02*
X018707Y010529D01*
X018740Y010562D01*
X018740Y010629D01*
X018707Y010732D02*
X018673Y010765D01*
X018673Y010865D01*
X018640Y010865D02*
X018740Y010865D01*
X018740Y010765D01*
X018707Y010732D01*
X018607Y010765D02*
X018607Y010832D01*
X018640Y010865D01*
X018673Y010934D02*
X018607Y011034D01*
X018640Y011103D02*
X018607Y011136D01*
X018607Y011203D01*
X018640Y011237D01*
X018707Y011237D01*
X018740Y011203D01*
X018740Y011136D01*
X018707Y011103D01*
X018640Y011103D01*
X018740Y011034D02*
X018673Y010934D01*
X018740Y010934D02*
X018540Y010934D01*
X018607Y011306D02*
X018707Y011306D01*
X018740Y011339D01*
X018740Y011439D01*
X018607Y011439D01*
X018607Y011508D02*
X018607Y011575D01*
X018573Y011542D02*
X018707Y011542D01*
X018740Y011575D01*
X018740Y010360D02*
X018607Y010360D01*
X018640Y008468D02*
X018640Y008335D01*
X018673Y008064D02*
X018607Y008064D01*
X018540Y007997D01*
X018607Y007928D02*
X018607Y007828D01*
X018640Y007794D01*
X018707Y007794D01*
X018740Y007828D01*
X018740Y007928D01*
X018773Y007928D02*
X018607Y007928D01*
X018740Y007997D02*
X018673Y008064D01*
X018773Y007928D02*
X018807Y007894D01*
X018807Y007861D01*
X018920Y007839D02*
X018957Y007802D01*
X018993Y007802D01*
X019030Y007839D01*
X019030Y007912D01*
X019067Y007949D01*
X019103Y007949D01*
X019140Y007912D01*
X019140Y007839D01*
X019103Y007802D01*
X019140Y007728D02*
X018920Y007728D01*
X018993Y007654D01*
X018920Y007581D01*
X019140Y007581D01*
X019140Y007433D02*
X018920Y007433D01*
X018920Y007360D02*
X018920Y007507D01*
X018740Y007489D02*
X018707Y007523D01*
X018640Y007523D01*
X018607Y007489D01*
X018607Y007423D01*
X018640Y007389D01*
X018707Y007389D01*
X018740Y007423D01*
X018740Y007489D01*
X018740Y007592D02*
X018607Y007592D01*
X018607Y007692D01*
X018640Y007725D01*
X018740Y007725D01*
X018920Y007839D02*
X018920Y007912D01*
X018957Y007949D01*
X018607Y007321D02*
X018607Y007287D01*
X018673Y007220D01*
X018607Y007220D02*
X018740Y007220D01*
X018707Y007151D02*
X018607Y007151D01*
X018707Y007151D02*
X018740Y007118D01*
X018707Y007085D01*
X018740Y007051D01*
X018707Y007018D01*
X018607Y007018D01*
X018607Y006746D02*
X018773Y006746D01*
X018807Y006713D01*
X018807Y006679D01*
X018740Y006646D02*
X018740Y006746D01*
X018740Y006646D02*
X018707Y006613D01*
X018607Y006613D01*
X018540Y006511D02*
X018740Y006511D01*
X018740Y006478D02*
X018740Y006544D01*
X018707Y006409D02*
X018640Y006409D01*
X018607Y006375D01*
X018607Y006275D01*
X018540Y006275D02*
X018740Y006275D01*
X018740Y006375D01*
X018707Y006409D01*
X018540Y006478D02*
X018540Y006511D01*
X018640Y006206D02*
X018607Y006173D01*
X018607Y006106D01*
X018673Y006106D02*
X018707Y006073D01*
X018740Y006106D01*
X018740Y006206D01*
X018640Y006206D01*
X018673Y006206D02*
X018673Y006106D01*
X018640Y006003D02*
X018607Y005970D01*
X018607Y005870D01*
X018540Y005870D02*
X018740Y005870D01*
X018740Y005970D01*
X018707Y006003D01*
X018640Y006003D01*
X018640Y005801D02*
X018607Y005767D01*
X018607Y005701D01*
X018640Y005667D01*
X018707Y005667D01*
X018740Y005701D01*
X018740Y005767D01*
X018707Y005801D01*
X018640Y005801D01*
X018607Y005599D02*
X018607Y005565D01*
X018673Y005499D01*
X018607Y005499D02*
X018740Y005499D01*
X018707Y005429D02*
X018740Y005396D01*
X018740Y005296D01*
X018807Y005296D02*
X018607Y005296D01*
X018607Y005396D01*
X018640Y005429D01*
X018707Y005429D01*
X018920Y005433D02*
X019140Y005433D01*
X019140Y005581D02*
X019140Y005691D01*
X019103Y005728D01*
X018957Y005728D01*
X018920Y005691D01*
X018920Y005581D01*
X019140Y005581D01*
X019103Y005802D02*
X018957Y005802D01*
X018920Y005839D01*
X018920Y005912D01*
X018957Y005949D01*
X019103Y005949D01*
X019140Y005912D01*
X019140Y005839D01*
X019103Y005802D01*
X018920Y005507D02*
X018920Y005360D01*
X018740Y005024D02*
X018607Y004891D01*
X018573Y004891D01*
X018540Y004924D01*
X018573Y004958D01*
X018607Y004958D01*
X018673Y004891D01*
X018707Y004891D01*
X018740Y004924D01*
X018740Y004958D01*
X018673Y005024D01*
X018740Y004823D02*
X018673Y004756D01*
X018607Y004756D01*
X018540Y004823D01*
X018607Y004484D02*
X018773Y004484D01*
X018807Y004451D01*
X018807Y004417D01*
X018740Y004384D02*
X018740Y004484D01*
X018740Y004384D02*
X018707Y004351D01*
X018607Y004351D01*
X018607Y004282D02*
X018607Y004216D01*
X018573Y004249D02*
X018707Y004249D01*
X018740Y004282D01*
X018607Y004147D02*
X018607Y004114D01*
X018673Y004047D01*
X018607Y004047D02*
X018740Y004047D01*
X018740Y003978D02*
X018740Y003912D01*
X018740Y003945D02*
X018607Y003945D01*
X018607Y003912D01*
X018540Y003945D02*
X018506Y003945D01*
X018573Y003843D02*
X018540Y003809D01*
X018540Y003709D01*
X018740Y003709D01*
X018740Y003809D01*
X018707Y003843D01*
X018573Y003843D01*
X018707Y003438D02*
X018707Y003405D01*
X018740Y003405D01*
X018740Y003438D01*
X018707Y003438D01*
X018740Y003438D02*
X018807Y003372D01*
X018740Y003303D02*
X018673Y003203D01*
X018607Y003303D01*
X018540Y003203D02*
X018740Y003203D01*
X018740Y003134D02*
X018740Y003034D01*
X018707Y003000D01*
X018640Y003000D01*
X018607Y003034D01*
X018607Y003134D01*
X018607Y002899D02*
X018740Y002899D01*
X018740Y002932D02*
X018740Y002865D01*
X018740Y002796D02*
X018607Y002796D01*
X018607Y002865D02*
X018607Y002899D01*
X018540Y002899D02*
X018506Y002899D01*
X018740Y002796D02*
X018740Y002696D01*
X018707Y002663D01*
X018607Y002663D01*
X018573Y002593D02*
X018707Y002593D01*
X018740Y002560D01*
X018740Y002493D01*
X018707Y002460D01*
X018573Y002460D01*
X018540Y002493D01*
X018540Y002560D01*
X018573Y002593D01*
X018673Y002527D02*
X018740Y002593D01*
X018920Y002581D02*
X019140Y002728D01*
X018920Y002728D01*
X018920Y002802D02*
X018920Y002912D01*
X018957Y002949D01*
X019103Y002949D01*
X019140Y002912D01*
X019140Y002802D01*
X018920Y002802D01*
X018920Y002581D02*
X019140Y002581D01*
X019103Y002507D02*
X019030Y002507D01*
X019030Y002433D01*
X018957Y002360D02*
X019103Y002360D01*
X019140Y002397D01*
X019140Y002470D01*
X019103Y002507D01*
X018957Y002507D02*
X018920Y002470D01*
X018920Y002397D01*
X018957Y002360D01*
X018880Y003450D02*
X018880Y004113D01*
X018920Y004049D02*
X018920Y003902D01*
X018920Y003975D02*
X019140Y003975D01*
X019103Y003828D02*
X019140Y003791D01*
X019140Y003718D01*
X019103Y003681D01*
X019030Y003718D02*
X019030Y003791D01*
X019067Y003828D01*
X019103Y003828D01*
X019030Y003718D02*
X018993Y003681D01*
X018957Y003681D01*
X018920Y003718D01*
X018920Y003791D01*
X018957Y003828D01*
X018957Y003607D02*
X019030Y003607D01*
X019067Y003570D01*
X019067Y003460D01*
X019140Y003460D02*
X018920Y003460D01*
X018920Y003570D01*
X018957Y003607D01*
X019067Y003533D02*
X019140Y003607D01*
X018920Y004460D02*
X018920Y004607D01*
X018920Y004533D02*
X019140Y004533D01*
X019140Y004681D02*
X018920Y004681D01*
X018920Y004791D01*
X018957Y004828D01*
X019103Y004828D01*
X019140Y004791D01*
X019140Y004681D01*
X019140Y004902D02*
X019140Y004975D01*
X019140Y004939D02*
X018920Y004939D01*
X018920Y004975D02*
X018920Y004902D01*
X018920Y006360D02*
X018920Y006507D01*
X018920Y006433D02*
X019140Y006433D01*
X019103Y006581D02*
X019140Y006618D01*
X019140Y006691D01*
X019103Y006728D01*
X019067Y006802D02*
X018920Y006949D01*
X018920Y006802D02*
X019140Y006802D01*
X019030Y006839D02*
X019140Y006949D01*
X018957Y006728D02*
X018920Y006691D01*
X018920Y006618D01*
X018957Y006581D01*
X019103Y006581D01*
D15*
X017650Y006440D02*
X017650Y005940D01*
X017400Y005690D01*
X016900Y005690D01*
X016650Y005940D01*
X016400Y005690D01*
X015900Y005690D01*
X015650Y005940D01*
X015650Y006440D01*
X015900Y006690D01*
X016400Y006690D01*
X016650Y006440D01*
X016900Y006690D01*
X017400Y006690D01*
X017650Y006440D01*
X016650Y006440D02*
X016650Y005940D01*
X013833Y006539D02*
X013833Y008539D01*
X011833Y008539D01*
X011833Y006539D01*
X013833Y006539D01*
X013583Y006539D02*
X013463Y006539D01*
X013383Y006539D02*
X013263Y006539D01*
X013193Y006539D02*
X013073Y006539D01*
X012993Y006539D02*
X012873Y006539D01*
X012793Y006539D02*
X012673Y006539D01*
X012593Y006539D02*
X012473Y006539D01*
X012403Y006539D02*
X012283Y006539D01*
X012203Y006539D02*
X012083Y006539D01*
X011833Y006789D02*
X011833Y006909D01*
X011833Y006989D02*
X011833Y007109D01*
X011833Y007179D02*
X011833Y007299D01*
X011833Y007379D02*
X011833Y007499D01*
X011833Y007579D02*
X011833Y007699D01*
X011833Y007779D02*
X011833Y007899D01*
X011833Y007969D02*
X011833Y008089D01*
X011833Y008169D02*
X011833Y008289D01*
X012083Y008539D02*
X012203Y008539D01*
X012283Y008539D02*
X012403Y008539D01*
X012473Y008539D02*
X012593Y008539D01*
X012673Y008539D02*
X012793Y008539D01*
X012873Y008539D02*
X012993Y008539D01*
X013073Y008539D02*
X013193Y008539D01*
X013263Y008539D02*
X013383Y008539D01*
X013333Y008539D02*
X013833Y008039D01*
X013833Y008089D02*
X013833Y007969D01*
X013833Y007899D02*
X013833Y007779D01*
X013833Y007699D02*
X013833Y007579D01*
X013833Y007499D02*
X013833Y007379D01*
X013833Y007299D02*
X013833Y007179D01*
X013833Y007109D02*
X013833Y006989D01*
X013833Y006909D02*
X013833Y006789D01*
X013833Y008169D02*
X013833Y008289D01*
X013583Y008539D02*
X013463Y008539D01*
X013400Y010690D02*
X012900Y010690D01*
X012650Y010940D01*
X012400Y010690D01*
X011900Y010690D01*
X011650Y010940D01*
X011400Y010690D01*
X010900Y010690D01*
X010650Y010940D01*
X010400Y010690D01*
X009900Y010690D01*
X009650Y010940D01*
X009650Y011440D01*
X009900Y011690D01*
X010400Y011690D01*
X010650Y011440D01*
X010900Y011690D01*
X011400Y011690D01*
X011650Y011440D01*
X011650Y010940D01*
X011650Y011440D02*
X011900Y011690D01*
X012400Y011690D01*
X012650Y011440D01*
X012900Y011690D01*
X013400Y011690D01*
X013650Y011440D01*
X013900Y011690D01*
X014400Y011690D01*
X014650Y011440D01*
X014650Y010940D01*
X014400Y010690D01*
X013900Y010690D01*
X013650Y010940D01*
X013400Y010690D01*
X013650Y010940D02*
X013650Y011440D01*
X012650Y011440D02*
X012650Y010940D01*
X012400Y012690D02*
X011900Y012690D01*
X011650Y012940D01*
X011400Y012690D01*
X010900Y012690D01*
X010650Y012940D01*
X010650Y013440D01*
X010900Y013690D01*
X011400Y013690D01*
X011650Y013440D01*
X011900Y013690D01*
X012400Y013690D01*
X012650Y013440D01*
X012900Y013690D01*
X013400Y013690D01*
X013650Y013440D01*
X013900Y013690D01*
X014400Y013690D01*
X014650Y013440D01*
X014900Y013690D01*
X015400Y013690D01*
X015650Y013440D01*
X015900Y013690D01*
X016400Y013690D01*
X016650Y013440D01*
X016900Y013690D01*
X017400Y013690D01*
X017650Y013440D01*
X017900Y013690D01*
X018400Y013690D01*
X018650Y013440D01*
X018650Y012940D01*
X018400Y012690D01*
X017900Y012690D01*
X017650Y012940D01*
X017400Y012690D01*
X016900Y012690D01*
X016650Y012940D01*
X016650Y013440D01*
X016650Y012940D02*
X016400Y012690D01*
X015900Y012690D01*
X015650Y012940D01*
X015400Y012690D01*
X014900Y012690D01*
X014650Y012940D01*
X014400Y012690D01*
X013900Y012690D01*
X013650Y012940D01*
X013650Y013440D01*
X013650Y012940D02*
X013400Y012690D01*
X012900Y012690D01*
X012650Y012940D01*
X012400Y012690D01*
X012650Y012940D02*
X012650Y013440D01*
X011650Y013440D02*
X011650Y012940D01*
X010650Y011440D02*
X010650Y010940D01*
X009400Y012690D02*
X009650Y012940D01*
X009650Y013440D01*
X009400Y013690D01*
X008900Y013690D01*
X008650Y013440D01*
X008400Y013690D01*
X007900Y013690D01*
X007650Y013440D01*
X007650Y012940D01*
X007900Y012690D01*
X008400Y012690D01*
X008650Y012940D01*
X008650Y013440D01*
X008650Y012940D02*
X008900Y012690D01*
X009400Y012690D01*
X008400Y011690D02*
X008650Y011440D01*
X008650Y010940D01*
X008400Y010690D01*
X007900Y010690D01*
X007650Y010940D01*
X007400Y010690D01*
X006900Y010690D01*
X006650Y010940D01*
X006400Y010690D01*
X005900Y010690D01*
X005650Y010940D01*
X005400Y010690D01*
X004900Y010690D01*
X004650Y010940D01*
X004400Y010690D01*
X003900Y010690D01*
X003650Y010940D01*
X003400Y010690D01*
X002900Y010690D01*
X002650Y010940D01*
X002400Y010690D01*
X001900Y010690D01*
X001650Y010940D01*
X001400Y010690D01*
X000900Y010690D01*
X000650Y010940D01*
X000650Y011440D01*
X000900Y011690D01*
X001400Y011690D01*
X001650Y011440D01*
X001900Y011690D01*
X002400Y011690D01*
X002650Y011440D01*
X002650Y010940D01*
X002650Y011440D02*
X002900Y011690D01*
X003400Y011690D01*
X003650Y011440D01*
X003900Y011690D01*
X004400Y011690D01*
X004650Y011440D01*
X004900Y011690D01*
X005400Y011690D01*
X005650Y011440D01*
X005650Y010940D01*
X005650Y011440D02*
X005900Y011690D01*
X006400Y011690D01*
X006650Y011440D01*
X006900Y011690D01*
X007400Y011690D01*
X007650Y011440D01*
X007900Y011690D01*
X008400Y011690D01*
X007650Y011440D02*
X007650Y010940D01*
X006650Y010940D02*
X006650Y011440D01*
X006400Y012690D02*
X005900Y012690D01*
X005650Y012940D01*
X005400Y012690D01*
X004900Y012690D01*
X004650Y012940D01*
X004650Y013440D01*
X004900Y013690D01*
X005400Y013690D01*
X005650Y013440D01*
X005900Y013690D01*
X006400Y013690D01*
X006650Y013440D01*
X006900Y013690D01*
X007400Y013690D01*
X007650Y013440D01*
X007650Y012940D02*
X007400Y012690D01*
X006900Y012690D01*
X006650Y012940D01*
X006400Y012690D01*
X006650Y012940D02*
X006650Y013440D01*
X005650Y013440D02*
X005650Y012940D01*
X004650Y012940D02*
X004400Y012690D01*
X003900Y012690D01*
X003650Y012940D01*
X003400Y012690D01*
X002900Y012690D01*
X002650Y012940D01*
X002400Y012690D01*
X001900Y012690D01*
X001650Y012940D01*
X001650Y013440D01*
X001900Y013690D01*
X002400Y013690D01*
X002650Y013440D01*
X002900Y013690D01*
X003400Y013690D01*
X003650Y013440D01*
X003900Y013690D01*
X004400Y013690D01*
X004650Y013440D01*
X003650Y013440D02*
X003650Y012940D01*
X002650Y012940D02*
X002650Y013440D01*
X001650Y011440D02*
X001650Y010940D01*
X002833Y008539D02*
X004833Y008539D01*
X004833Y006539D01*
X002833Y006539D01*
X002833Y008539D01*
X002833Y008289D02*
X002833Y008169D01*
X002833Y008089D02*
X002833Y007969D01*
X002833Y007899D02*
X002833Y007779D01*
X002833Y007699D02*
X002833Y007579D01*
X002833Y007499D02*
X002833Y007379D01*
X002833Y007299D02*
X002833Y007179D01*
X002833Y007109D02*
X002833Y006989D01*
X002833Y006909D02*
X002833Y006789D01*
X003083Y006539D02*
X003203Y006539D01*
X003283Y006539D02*
X003403Y006539D01*
X003473Y006539D02*
X003593Y006539D01*
X003673Y006539D02*
X003793Y006539D01*
X003873Y006539D02*
X003993Y006539D01*
X004073Y006539D02*
X004193Y006539D01*
X004263Y006539D02*
X004383Y006539D01*
X004463Y006539D02*
X004583Y006539D01*
X004833Y006789D02*
X004833Y006909D01*
X004833Y006989D02*
X004833Y007109D01*
X004833Y007179D02*
X004833Y007299D01*
X004833Y007379D02*
X004833Y007499D01*
X004833Y007579D02*
X004833Y007699D01*
X004833Y007779D02*
X004833Y007899D01*
X004833Y007969D02*
X004833Y008089D01*
X004833Y008039D02*
X004333Y008539D01*
X004383Y008539D02*
X004263Y008539D01*
X004193Y008539D02*
X004073Y008539D01*
X003993Y008539D02*
X003873Y008539D01*
X003793Y008539D02*
X003673Y008539D01*
X003593Y008539D02*
X003473Y008539D01*
X003403Y008539D02*
X003283Y008539D01*
X003203Y008539D02*
X003083Y008539D01*
X004463Y008539D02*
X004583Y008539D01*
X004833Y008289D02*
X004833Y008169D01*
X006650Y006440D02*
X006650Y005940D01*
X006900Y005690D01*
X007400Y005690D01*
X007650Y005940D01*
X007650Y006440D01*
X007400Y006690D01*
X006900Y006690D01*
X006650Y006440D01*
X007650Y006440D02*
X007900Y006690D01*
X008400Y006690D01*
X008650Y006440D01*
X008650Y005940D01*
X008400Y005690D01*
X007900Y005690D01*
X007650Y005940D01*
X004650Y010940D02*
X004650Y011440D01*
X003650Y011440D02*
X003650Y010940D01*
X005467Y015841D02*
X007467Y015841D01*
X007467Y017841D01*
X005467Y017841D01*
X005467Y015841D01*
X005717Y015841D02*
X005837Y015841D01*
X005917Y015841D02*
X006037Y015841D01*
X006107Y015841D02*
X006227Y015841D01*
X006307Y015841D02*
X006427Y015841D01*
X006507Y015841D02*
X006627Y015841D01*
X006707Y015841D02*
X006827Y015841D01*
X006897Y015841D02*
X007017Y015841D01*
X007097Y015841D02*
X007217Y015841D01*
X007467Y016091D02*
X007467Y016211D01*
X007467Y016291D02*
X007467Y016411D01*
X007467Y016481D02*
X007467Y016601D01*
X007467Y016681D02*
X007467Y016801D01*
X007467Y016881D02*
X007467Y017001D01*
X007467Y017081D02*
X007467Y017201D01*
X007467Y017271D02*
X007467Y017391D01*
X007467Y017471D02*
X007467Y017591D01*
X007217Y017841D02*
X007097Y017841D01*
X007017Y017841D02*
X006897Y017841D01*
X006827Y017841D02*
X006707Y017841D01*
X006627Y017841D02*
X006507Y017841D01*
X006427Y017841D02*
X006307Y017841D01*
X006227Y017841D02*
X006107Y017841D01*
X006037Y017841D02*
X005917Y017841D01*
X005837Y017841D02*
X005717Y017841D01*
X005467Y017591D02*
X005467Y017471D01*
X005467Y017391D02*
X005467Y017271D01*
X005467Y017201D02*
X005467Y017081D01*
X005467Y017001D02*
X005467Y016881D01*
X005467Y016801D02*
X005467Y016681D01*
X005467Y016601D02*
X005467Y016481D01*
X005467Y016411D02*
X005467Y016291D01*
X005467Y016341D02*
X005967Y015841D01*
X005467Y016091D02*
X005467Y016211D01*
X003650Y017940D02*
X003400Y017690D01*
X002900Y017690D01*
X002650Y017940D01*
X002400Y017690D01*
X001900Y017690D01*
X001650Y017940D01*
X001650Y018440D01*
X001900Y018690D01*
X002400Y018690D01*
X002650Y018440D01*
X002900Y018690D01*
X003400Y018690D01*
X003650Y018440D01*
X003650Y017940D01*
X002650Y017940D02*
X002650Y018440D01*
X010650Y018440D02*
X010650Y017940D01*
X010900Y017690D01*
X011400Y017690D01*
X011650Y017940D01*
X011900Y017690D01*
X012400Y017690D01*
X012650Y017940D01*
X012650Y018440D01*
X012400Y018690D01*
X011900Y018690D01*
X011650Y018440D01*
X011650Y017940D01*
X011650Y018440D02*
X011400Y018690D01*
X010900Y018690D01*
X010650Y018440D01*
X014467Y017841D02*
X014467Y015841D01*
X016467Y015841D01*
X016467Y017841D01*
X014467Y017841D01*
X014717Y017841D02*
X014837Y017841D01*
X014917Y017841D02*
X015037Y017841D01*
X015107Y017841D02*
X015227Y017841D01*
X015307Y017841D02*
X015427Y017841D01*
X015507Y017841D02*
X015627Y017841D01*
X015707Y017841D02*
X015827Y017841D01*
X015897Y017841D02*
X016017Y017841D01*
X016097Y017841D02*
X016217Y017841D01*
X016467Y017591D02*
X016467Y017471D01*
X016467Y017391D02*
X016467Y017271D01*
X016467Y017201D02*
X016467Y017081D01*
X016467Y017001D02*
X016467Y016881D01*
X016467Y016801D02*
X016467Y016681D01*
X016467Y016601D02*
X016467Y016481D01*
X016467Y016411D02*
X016467Y016291D01*
X016467Y016211D02*
X016467Y016091D01*
X016217Y015841D02*
X016097Y015841D01*
X016017Y015841D02*
X015897Y015841D01*
X015827Y015841D02*
X015707Y015841D01*
X015627Y015841D02*
X015507Y015841D01*
X015427Y015841D02*
X015307Y015841D01*
X015227Y015841D02*
X015107Y015841D01*
X015037Y015841D02*
X014917Y015841D01*
X014967Y015841D02*
X014467Y016341D01*
X014467Y016291D02*
X014467Y016411D01*
X014467Y016481D02*
X014467Y016601D01*
X014467Y016681D02*
X014467Y016801D01*
X014467Y016881D02*
X014467Y017001D01*
X014467Y017081D02*
X014467Y017201D01*
X014467Y017271D02*
X014467Y017391D01*
X014467Y017471D02*
X014467Y017591D01*
X014467Y016211D02*
X014467Y016091D01*
X014717Y015841D02*
X014837Y015841D01*
X014650Y013440D02*
X014650Y012940D01*
X015650Y012940D02*
X015650Y013440D01*
X015400Y011690D02*
X014900Y011690D01*
X014650Y011440D01*
X014650Y010940D02*
X014900Y010690D01*
X015400Y010690D01*
X015650Y010940D01*
X015900Y010690D01*
X016400Y010690D01*
X016650Y010940D01*
X016900Y010690D01*
X017400Y010690D01*
X017650Y010940D01*
X017650Y011440D01*
X017400Y011690D01*
X016900Y011690D01*
X016650Y011440D01*
X016650Y010940D01*
X016650Y011440D02*
X016400Y011690D01*
X015900Y011690D01*
X015650Y011440D01*
X015650Y010940D01*
X015650Y011440D02*
X015400Y011690D01*
X017650Y012940D02*
X017650Y013440D01*
D16*
X018316Y019761D02*
X013592Y019761D01*
X013592Y021887D01*
X018316Y021887D01*
X018316Y019761D01*
X009316Y019761D02*
X009316Y021887D01*
X004592Y021887D01*
X004592Y019761D01*
X009316Y019761D01*
X009984Y004619D02*
X009984Y002493D01*
X014708Y002493D01*
X014708Y004619D01*
X009984Y004619D01*
X005708Y004619D02*
X005708Y002493D01*
X000984Y002493D01*
X000984Y004619D01*
X005708Y004619D01*
M02*
