%
M48
M72
T01C0.0140
T02C0.0160
T03C0.0180
T04C0.0236
T05C0.0315
T06C0.0360
T07C0.0400
T08C0.0433
T09C0.0500
T10C0.0900
T11C0.1575
%
T01
X6260Y41220
X7320Y39410
X8520Y38210
X8920Y39410
X10220Y38210
X10720Y39010
X12370Y37650
X12320Y36510
X13020Y36510
X13800Y38630
X12920Y39010
X14130Y40880
X12430Y41030
X15030Y38230
X16110Y39030
X18430Y39030
X19530Y38080
X20380Y37780
X21130Y37480
X23310Y36930
X18330Y40630
X16400Y32730
X16110Y31060
X15980Y30430
X13950Y25000
X13150Y24700
X14930Y19930
X16180Y17480
X17320Y16080
X17630Y16380
X17030Y15480
X16730Y15230
X16120Y15170
X13780Y17280
X20620Y11430
X21390Y10950
X21710Y10950
X22030Y10950
X22930Y10330
X24030Y10530
X25330Y10930
X25230Y9530
X26230Y7730
X25980Y7430
X25730Y7130
X25230Y6730
X24910Y6010
X23630Y5400
X24130Y7530
X23980Y7880
X23330Y8030
X23230Y7630
X27960Y6730
X30790Y7070
X32460Y6730
X35250Y7190
X36960Y6730
X39630Y7230
X39430Y21780
X36830Y29680
X39680Y41190
X12310Y31080
X10580Y34680
X8280Y34530
X8230Y33080
X7920Y32720
X7290Y33080
X7260Y32110
X8430Y41030
X1230Y20280
X4830Y8530
X4510Y7320
X5560Y5660
X20930Y13230
X21130Y12330
X22330Y12580
X24030Y12430
X25180Y15080
X24505Y15505
X25180Y16830
X22280Y17130
X22330Y17530
X21880Y17080
X21230Y16630
X21230Y18030
X30230Y10730
X32630Y10230
T02
X1230Y4230
X1530Y5130
X4630Y5230
X4630Y4130
X6930Y3580
X9180Y8580
X8180Y8830
X7180Y9330
X7380Y10280
X5580Y10280
X6180Y9330
X4830Y9280
X4580Y10280
X3180Y9930
X3180Y8930
X2080Y11030
X2830Y11530
X3330Y12730
X4530Y14330
X4530Y16230
X5580Y16580
X7380Y16580
X8180Y16780
X9180Y16780
X10180Y16780
X11180Y16780
X12180Y16780
X13180Y16780
X14180Y16780
X15180Y16780
X17230Y17530
X19380Y16580
X20130Y16830
X19830Y18430
X18830Y18930
X19830Y19930
X20930Y19930
X21230Y20930
X20880Y22330
X19880Y21980
X18880Y21980
X17580Y21980
X16380Y22680
X15650Y21930
X15480Y20680
X14410Y21930
X14410Y23430
X13610Y24030
X12030Y23830
X12030Y23030
X12030Y21630
X10380Y21080
X8580Y21080
X8580Y19780
X9930Y18930
X11930Y18930
X13630Y18930
X13930Y19600
X14630Y18930
X15630Y18930
X16480Y20680
X15650Y23430
X16230Y24430
X16230Y25430
X17680Y25480
X17680Y24380
X18880Y24380
X18880Y25480
X20730Y25430
X20730Y24430
X21930Y23930
X23380Y23080
X23380Y21930
X22680Y21930
X24530Y20730
X24930Y21530
X25780Y21580
X26080Y21580
X26380Y21580
X26980Y21580
X27410Y21580
X27710Y21580
X28010Y21580
X28310Y21580
X27860Y21930
X27860Y22280
X26980Y22380
X26980Y23280
X26980Y24380
X28690Y24930
X29810Y24290
X29810Y25570
X29580Y26380
X30130Y27230
X30130Y28130
X28210Y28040
X28230Y27230
X27380Y26380
X26330Y26830
X25530Y26030
X24730Y26830
X25530Y27630
X26280Y28130
X27290Y29780
X27690Y29780
X28390Y28980
X29330Y30130
X28330Y31130
X27680Y31080
X27380Y31080
X27080Y31080
X26780Y31080
X26490Y31080
X26200Y31080
X25600Y31080
X25300Y31080
X25000Y31080
X27230Y31430
X27230Y31760
X26230Y33130
X26330Y35130
X25360Y35570
X23860Y35570
X23680Y36130
X23630Y36580
X22880Y36580
X22530Y36130
X23180Y37830
X22880Y39610
X21780Y38930
X21630Y40930
X22880Y40970
X19430Y40930
X17430Y38830
X16680Y38530
X16630Y37630
X17430Y37630
X18830Y38630
X16430Y40930
X15630Y39030
X14670Y39030
X14880Y37680
X13530Y36530
X13410Y38050
X14880Y35080
X15780Y34130
X15730Y33030
X17150Y32550
X17730Y31030
X18830Y31030
X19380Y32630
X21780Y31880
X22880Y32030
X23380Y27430
X18880Y28280
X17680Y28280
X12030Y25230
X10330Y23430
X9830Y24030
X8630Y28130
X8030Y28830
X5450Y29140
X4650Y29940
X5450Y30740
X3850Y30740
X3850Y29140
X1730Y27930
X1330Y29030
X4130Y25260
X4730Y24660
X5330Y25260
X5330Y24060
X4130Y24060
X3860Y20320
X4660Y19520
X3860Y18720
X5460Y18720
X6230Y19830
X5460Y20320
X7030Y19230
X9180Y14480
X10180Y14480
X11180Y14480
X12180Y14480
X13180Y14480
X14180Y14480
X15180Y14480
X17580Y10280
X17180Y9880
X16180Y9880
X15180Y9880
X14180Y9880
X13180Y9880
X12180Y9880
X11180Y9880
X10180Y9880
X9180Y9880
X8780Y10880
X8780Y11880
X8780Y12880
X7700Y12300
X10180Y8580
X11180Y8580
X12180Y8580
X13180Y8580
X14180Y8580
X15180Y8580
X16180Y8580
X17180Y8580
X18180Y8580
X18840Y7820
X18580Y6780
X19530Y5980
X20630Y5980
X21280Y6780
X21830Y6230
X23080Y7080
X24430Y6030
X24430Y4930
X25430Y4930
X27330Y5830
X28930Y5830
X29830Y5830
X31430Y5830
X33430Y5830
X34330Y5830
X35580Y7900
X36130Y8530
X35080Y8980
X34080Y9180
X33680Y8100
X32130Y9530
X31100Y7920
X30230Y9130
X30230Y9830
X29380Y10080
X28580Y9780
X29480Y9080
X29250Y7900
X27080Y8580
X26680Y9880
X25980Y9380
X25580Y8580
X24580Y8580
X23430Y9330
X22830Y10830
X20730Y10430
X19380Y10280
X18180Y9880
X21280Y8550
X21290Y7810
X21980Y4680
X20230Y4680
X19530Y3580
X26680Y10980
X25330Y11770
X25630Y12530
X23630Y13130
X22830Y13130
X21630Y13330
X21630Y14330
X22330Y15430
X21630Y16330
X22680Y17780
X23030Y18030
X22630Y18930
X21330Y18530
X24530Y18030
X24530Y17620
X26180Y16680
X26680Y16530
X26680Y15480
X25680Y14980
X23630Y14130
X20230Y12930
X24530Y19530
X25330Y20230
X26980Y20570
X27490Y20580
X27890Y20580
X28340Y20380
X28090Y20080
X28030Y19370
X26980Y19370
X28500Y20800
X29410Y21630
X30580Y20680
X30680Y19280
X29600Y19280
X30180Y17980
X30180Y16680
X30180Y15380
X27780Y16680
X27780Y17980
X31980Y19280
X32980Y19280
X33100Y20280
X32280Y20280
X33100Y21580
X32230Y22630
X33100Y22980
X31610Y23720
X34220Y21580
X35020Y21580
X35190Y22580
X35510Y22580
X35820Y22580
X36880Y22540
X38380Y22490
X38930Y22630
X39280Y22630
X39330Y23780
X38930Y23780
X38930Y24980
X39330Y24980
X38330Y24980
X37930Y24980
X37530Y24980
X37130Y24980
X36250Y25630
X35550Y26200
X34480Y26380
X34330Y27230
X34330Y28130
X33330Y28130
X32330Y28130
X32330Y27230
X32980Y26380
X31480Y26380
X32180Y29080
X32180Y29730
X32180Y30380
X31330Y30130
X31330Y32130
X30330Y33130
X31330Y34130
X30540Y35130
X31330Y36130
X30330Y37130
X29460Y38070
X28330Y37130
X27430Y36130
X28330Y35130
X29330Y36230
X26330Y37130
X29460Y40870
X32330Y37130
X34330Y37130
X35030Y36280
X34780Y35210
X35530Y34630
X36130Y33830
X36780Y33830
X37030Y33130
X38280Y33630
X36530Y35530
X37130Y36280
X38930Y35300
X39380Y35300
X39230Y36280
X39730Y37480
X38360Y38070
X39980Y41480
X33330Y41080
X32330Y35130
X32330Y33130
X33330Y32130
X34330Y31480
X34630Y31480
X34930Y31480
X34130Y30380
X33330Y30380
X33330Y29730
X33330Y29080
X35330Y28130
X36330Y28130
X36330Y27230
X36980Y26380
X38280Y27230
X38280Y28130
X38280Y28830
X38930Y28850
X39380Y28850
X38280Y29680
X38280Y30080
X37810Y29720
X38930Y30050
X39380Y30050
X39380Y31100
X39380Y31400
X38930Y31400
X38930Y31100
X38280Y31080
X38280Y31480
X38280Y31880
X36650Y30860
X36330Y31130
X36330Y30130
X36330Y29130
X37330Y28130
X34430Y23130
X36880Y20740
X36880Y19280
X36880Y18480
X37480Y19280
X36480Y16480
X35810Y15830
X34880Y15280
X34880Y16680
X34280Y19280
X34200Y20280
X35580Y19280
X38880Y18480
X39880Y21380
X38180Y11180
X39380Y11280
X39880Y11980
X38480Y9080
X37680Y8480
X34730Y11430
X34730Y12230
X34080Y10780
X32130Y11230
X30230Y11230
X29380Y10980
X30230Y12230
X36230Y5830
X37930Y5830
X38830Y5830
X29330Y32130
X28330Y33130
X13780Y34480
X12830Y34230
X12830Y32630
X10920Y33600
X9930Y32630
X9930Y34630
X8530Y37130
X6830Y38830
X2330Y39030
X1530Y38230
X2330Y37430
X6910Y31910
X1530Y18330
T03
X26870Y6450
X29820Y6270
X34320Y6270
X38820Y6270
T04
X18480Y16330
X18480Y10530
X6480Y10530
X6480Y16330
T05
X8430Y30430
X9430Y30430
X10430Y30430
X10430Y29430
X9430Y29430
X8430Y29430
X11430Y29430
X12430Y29430
X12430Y30430
X11430Y30430
X13430Y30430
X14430Y30430
X15430Y30430
X15430Y29430
X14430Y29430
X13430Y29430
X21430Y27430
X21430Y26430
X22430Y26430
X22430Y27430
X22430Y28430
X22430Y29430
X21430Y29430
X21430Y28430
X21430Y25430
X21430Y24430
X21430Y23430
X21430Y22430
X22430Y22430
X22430Y23430
X22430Y24430
X22430Y25430
X22430Y21430
X22430Y20430
X22430Y19430
X21430Y19430
X21430Y20430
X21430Y21430
X16430Y18430
X16430Y19430
X15430Y19430
X14430Y19430
X13430Y19430
X13430Y18430
X14430Y18430
X15430Y18430
X12430Y18430
X11430Y18430
X11430Y19430
X12430Y19430
X10430Y19430
X9430Y19430
X9430Y18430
X10430Y18430
X27749Y38430
X26961Y38430
X26174Y38430
X25386Y38430
X24599Y38430
X23811Y38430
T06
X3930Y40310
X4930Y40310
X6930Y40310
X7930Y40310
X8930Y40310
X10930Y40310
X11930Y40310
X12930Y40310
X14930Y40310
X15930Y40310
X16930Y40310
X18930Y40310
X19930Y40310
X20930Y40310
X31030Y40330
X32030Y40330
X36430Y3930
X37430Y3930
X38430Y3930
X39430Y3930
X34930Y3930
X33930Y3930
X32930Y3930
X31930Y3930
X30430Y3940
X29430Y3940
X28430Y3940
X27430Y3940
X25930Y3930
X24930Y3930
X23930Y3930
X22930Y3930
X6730Y34458
X5950Y34458
X5950Y35442
X6730Y35442
X9110Y36110
X10110Y36110
X2430Y17030
X2430Y16030
X2430Y15030
X2430Y14030
X2430Y13030
X2430Y10440
X2430Y9440
X2430Y8440
X2430Y7440
X2430Y6440
X2430Y4480
X2430Y3480
T07
X24430Y32040
X25430Y32040
X26230Y22470
X25230Y22470
X29030Y18130
X29030Y17130
X22390Y14830
X22390Y13830
T08
X28339Y39257
X23221Y39257
T09
X37847Y13385
X37847Y13435
X37847Y13485
X37847Y13535
X37847Y13585
X37847Y13635
X37847Y13685
X37847Y13735
X37847Y13785
X37847Y13835
X37847Y13885
X37847Y13935
X37847Y13985
X37847Y14035
X37847Y14085
X37847Y14135
X37847Y14135
X37847Y14165
X37847Y14185
X37847Y14235
X37847Y14235
X37847Y14285
X37847Y14285
X37847Y14285
X37847Y14335
X37847Y14335
X37847Y14385
X37847Y14444
X37847Y14494
X37847Y14544
X37847Y14594
X37847Y14644
X37847Y14694
X37847Y14744
X37847Y14794
X37847Y14844
X37847Y14894
X37847Y14944
X37847Y16496
X37847Y16546
X37847Y16596
X37847Y16646
X37847Y16696
X37847Y16746
X37847Y16796
X37847Y16846
X37847Y16896
X37847Y16946
X37847Y16996
X37847Y17055
X37847Y17105
X37847Y17155
X37847Y17205
X37847Y17255
X37847Y17275
X37847Y17305
X37847Y17355
X37847Y17405
X37847Y17455
X37847Y17505
X37847Y17555
X37847Y17605
X37847Y17655
X37847Y17705
X37847Y17755
X37847Y17805
X37847Y17855
X37847Y17905
X37847Y17955
X37847Y18005
X37847Y18055
X37581Y39477
X37631Y39477
X37681Y39477
X37731Y39477
X37781Y39477
X37831Y39477
X37881Y39477
X37931Y39477
X37981Y39477
X38031Y39477
X38081Y39477
X38140Y39477
X38190Y39477
X38190Y39477
X38240Y39477
X38240Y39477
X38240Y39477
X38290Y39477
X38290Y39477
X38340Y39477
X38360Y39477
X38390Y39477
X38390Y39477
X38440Y39477
X38490Y39477
X38540Y39477
X38590Y39477
X38640Y39477
X38690Y39477
X38740Y39477
X38790Y39477
X38840Y39477
X38890Y39477
X38940Y39477
X38990Y39477
X39040Y39477
X39090Y39477
X39140Y39477
X34470Y39477
X34520Y39477
X34570Y39477
X34620Y39477
X34670Y39477
X34720Y39477
X34770Y39477
X34820Y39477
X34870Y39477
X34920Y39477
X34970Y39477
X35020Y39477
X35070Y39477
X35120Y39477
X35170Y39477
X35220Y39477
X35250Y39477
X35270Y39477
X35320Y39477
X35370Y39477
X35420Y39477
X35470Y39477
X35529Y39477
X35579Y39477
X35629Y39477
X35679Y39477
X35729Y39477
X35779Y39477
X35829Y39477
X35879Y39477
X35929Y39477
X35979Y39477
X36029Y39477
T10
X4880Y37320
X4880Y32580
T11
X2170Y40280
X15980Y27080
X21080Y3980
X5980Y4080
X36630Y10530
X37630Y34880
M30
